<?xml version="1.0" encoding="iso-8859-1"?>
<!-- Generator: Adobe Illustrator 19.0.0, SVG Export Plug-In . SVG Version: 6.00 Build 0)  -->
<svg version="1.1" id="Layer_1" xmlns="http://www.w3.org/2000/svg" xmlns:xlink="http://www.w3.org/1999/xlink" x="0px" y="0px"
	 viewBox="0 0 512.002 512.002" style="enable-background:new 0 0 512.002 512.002;" xml:space="preserve">
<g>
	<g>
		<g>
			<path d="M125.501,168.169L273.068,20.602l147.567,147.567c1.596,1.604,3.763,2.5,6.033,2.5h25.6c4.719,0,8.533-3.823,8.533-8.533
				V25.602c0-4.71-3.814-8.533-8.533-8.533h-42.667V8.535c0-4.71-3.814-8.533-8.533-8.533h-34.133c-4.719,0-8.533,3.823-8.533,8.533
				v8.533h-25.6c-4.719,0-8.533,3.823-8.533,8.533c0,4.71,3.814,8.533,8.533,8.533h34.133c4.719,0,8.533-3.823,8.533-8.533v-8.533
				h17.067v8.533c0,4.71,3.814,8.533,8.533,8.533h42.667v119.467h-13.534l-151.1-151.1c-3.336-3.336-8.73-3.336-12.066,0
				l-151.1,151.1h-13.534V34.135h110.933c4.71,0,8.533-3.823,8.533-8.533c0-4.71-3.823-8.533-8.533-8.533H93.868
				c-4.71,0-8.533,3.823-8.533,8.533v136.533c0,4.71,3.823,8.533,8.533,8.533h25.6C121.729,170.669,123.905,169.773,125.501,168.169
				z"/>
			<path d="M238.934,102.402v42.667c0,4.71,3.823,8.533,8.533,8.533h51.2c4.719,0,8.533-3.823,8.533-8.533v-42.667
				c0-18.825-15.309-34.133-34.133-34.133C254.243,68.269,238.934,83.578,238.934,102.402z M290.134,136.535h-34.133v-17.067h34.133
				V136.535z M290.134,102.402h-34.133c0-9.412,7.654-17.067,17.067-17.067C282.48,85.335,290.134,92.99,290.134,102.402z"/>
			<path d="M42.668,307.202c-42.18,0-42.667,109.824-42.667,110.933c0,20.608,14.686,37.837,34.133,41.805v43.529
				c0,4.71,3.823,8.533,8.533,8.533c4.71,0,8.533-3.823,8.533-8.533V459.94c19.447-3.968,34.133-21.197,34.133-41.805
				C85.334,417.026,84.848,307.202,42.668,307.202z M42.668,443.735c-14.114,0-25.6-11.486-25.6-25.6
				c0-42.513,11.418-93.867,25.6-93.867c14.182,0,25.6,51.354,25.6,93.867C68.268,432.25,56.782,443.735,42.668,443.735z"/>
			<path d="M298.668,307.202c4.719,0,8.533-3.823,8.533-8.533v-68.267c0-4.71-3.814-8.533-8.533-8.533h-51.2
				c-4.71,0-8.533,3.823-8.533,8.533v68.267c0,4.71,3.823,8.533,8.533,8.533H298.668z M256.001,238.935h34.133v17.067h-34.133
				V238.935z M256.001,273.069h34.133v17.067h-34.133V273.069z"/>
			<path d="M409.601,349.869c0-4.71-3.814-8.533-8.533-8.533H110.934c-4.71,0-8.533,3.823-8.533,8.533v153.6
				c0,4.71,3.823,8.533,8.533,8.533s8.533-3.823,8.533-8.533V358.402h281.6C405.787,358.402,409.601,354.579,409.601,349.869z"/>
			<path d="M392.534,384.002c0-4.71-3.814-8.533-8.533-8.533H247.468c-4.71,0-8.533,3.823-8.533,8.533v68.267
				c0,4.71,3.823,8.533,8.533,8.533h136.533c4.719,0,8.533-3.823,8.533-8.533V384.002z M307.201,443.735h-51.2v-51.2h51.2V443.735z
				 M375.468,443.735h-51.2v-51.2h51.2V443.735z"/>
			<path d="M486.401,460.802c-1.476,0-2.944,0.128-4.386,0.384c-5.879-10.607-17.101-17.451-29.747-17.451
				c-2.944,0-5.794,0.401-8.533,1.109V196.269c0-4.71-3.814-8.533-8.533-8.533H110.934c-4.71,0-8.533,3.823-8.533,8.533v119.467
				c0,4.71,3.823,8.533,8.533,8.533s8.533-3.823,8.533-8.533V204.802h307.2v250.59c-1.562,1.783-2.987,3.686-4.147,5.794
				c-1.442-0.256-2.91-0.384-4.386-0.384c-14.114,0-25.6,11.486-25.6,25.6s11.486,25.6,25.6,25.6h68.267
				c14.114,0,25.6-11.486,25.6-25.6S500.515,460.802,486.401,460.802z M486.401,494.935h-68.267c-4.71,0-8.533-3.831-8.533-8.533
				s3.823-8.533,8.533-8.533c1.63,0,3.191,0.469,4.625,1.391c2.33,1.51,5.257,1.775,7.834,0.742c2.577-1.05,4.471-3.285,5.111-5.99
				c1.801-7.774,8.602-13.21,16.563-13.21c7.962,0,14.763,5.436,16.563,13.21c0.64,2.705,2.534,4.941,5.111,5.99
				c2.577,1.033,5.504,0.768,7.834-0.742c5.555-3.584,13.158,0.811,13.158,7.142C494.934,491.104,491.111,494.935,486.401,494.935z"
				/>
			<path d="M366.934,494.935h-128v-8.533c0-4.71-3.823-8.533-8.533-8.533h-8.533v-93.867c0-4.71-3.823-8.533-8.533-8.533h-51.2
				c-4.71,0-8.533,3.823-8.533,8.533v93.867h-8.533c-4.71,0-8.533,3.823-8.533,8.533s3.823,8.533,8.533,8.533h76.8v8.533
				c0,4.71,3.823,8.533,8.533,8.533h136.533c4.719,0,8.533-3.823,8.533-8.533S371.653,494.935,366.934,494.935z M204.801,426.669
				h-8.533c-4.71,0-8.533,3.823-8.533,8.533s3.823,8.533,8.533,8.533h8.533v34.133h-34.133v-85.333h34.133V426.669z"/>
			<path d="M384.001,307.202c4.719,0,8.533-3.823,8.533-8.533v-68.267c0-4.71-3.814-8.533-8.533-8.533h-51.2
				c-4.719,0-8.533,3.823-8.533,8.533v68.267c0,4.71,3.814,8.533,8.533,8.533H384.001z M341.334,238.935h34.133v17.067h-34.133
				V238.935z M341.334,273.069h34.133v17.067h-34.133V273.069z"/>
			<path d="M213.334,307.202c4.71,0,8.533-3.823,8.533-8.533v-68.267c0-4.71-3.823-8.533-8.533-8.533h-51.2
				c-4.71,0-8.533,3.823-8.533,8.533v68.267c0,4.71,3.823,8.533,8.533,8.533H213.334z M170.668,238.935h34.133v17.067h-34.133
				V238.935z M170.668,273.069h34.133v17.067h-34.133V273.069z"/>
		</g>
	</g>
</g>
<g>
</g>
<g>
</g>
<g>
</g>
<g>
</g>
<g>
</g>
<g>
</g>
<g>
</g>
<g>
</g>
<g>
</g>
<g>
</g>
<g>
</g>
<g>
</g>
<g>
</g>
<g>
</g>
<g>
</g>
</svg>
