<?xml version="1.0" encoding="iso-8859-1"?>
<!-- Generator: Adobe Illustrator 19.0.0, SVG Export Plug-In . SVG Version: 6.00 Build 0)  -->
<svg version="1.1" id="Layer_1" xmlns="http://www.w3.org/2000/svg" xmlns:xlink="http://www.w3.org/1999/xlink" x="0px" y="0px"
	 viewBox="0 0 512 512" style="enable-background:new 0 0 512 512;" xml:space="preserve">
<g>
	<g>
		<g>
			<path d="M324.267,469.333c0-4.71-3.814-8.533-8.533-8.533h-25.6V349.867c0-4.71-3.814-8.533-8.533-8.533h-51.2
				c-4.719,0-8.533,3.823-8.533,8.533V460.8h-25.6c-4.719,0-8.533,3.823-8.533,8.533v25.6h-42.667c-4.719,0-8.533,3.823-8.533,8.533
				c0,4.71,3.814,8.533,8.533,8.533h51.2c4.719,0,8.533-3.823,8.533-8.533v-25.6h110.933
				C320.452,477.867,324.267,474.044,324.267,469.333z M273.067,401.067h-8.533c-4.719,0-8.533,3.823-8.533,8.533
				s3.814,8.533,8.533,8.533h8.533V460.8h-34.133V358.4h34.133V401.067z"/>
			<path d="M358.4,418.133c0,4.71,3.814,8.533,8.533,8.533h51.2c4.719,0,8.533-3.823,8.533-8.533v-68.267
				c0-4.71-3.814-8.533-8.533-8.533h-51.2c-4.719,0-8.533,3.823-8.533,8.533V418.133z M375.467,358.4H409.6v17.067h-34.133V358.4z
				 M375.467,392.533H409.6V409.6h-34.133V392.533z"/>
			<path d="M494.933,462.37V93.867c0-4.71-3.814-8.533-8.533-8.533s-8.533,3.823-8.533,8.533V455.39
				c-6.289-7.211-15.462-11.657-25.6-11.657c-12.646,0-23.868,6.844-29.747,17.451c-1.442-0.256-2.91-0.384-4.386-0.384
				c-14.114,0-25.6,11.486-25.6,25.6s11.486,25.6,25.6,25.6H486.4c14.114,0,25.6-11.486,25.6-25.6
				C512,475.29,504.841,465.911,494.933,462.37z M486.4,494.933h-68.267c-4.71,0-8.533-3.831-8.533-8.533
				c0-4.702,3.823-8.533,8.533-8.533c1.63,0,3.191,0.469,4.625,1.391c2.33,1.51,5.257,1.775,7.834,0.734s4.471-3.277,5.111-5.982
				c1.801-7.774,8.602-13.21,16.563-13.21c7.962,0,14.763,5.436,16.563,13.21c0.64,2.705,2.534,4.941,5.111,5.982
				s5.495,0.776,7.834-0.734c5.555-3.584,13.158,0.811,13.158,7.142C494.933,491.102,491.11,494.933,486.4,494.933z"/>
			<path d="M503.467,17.067H435.2c0-4.71-3.814-8.533-8.533-8.533c0-4.71-3.814-8.533-8.533-8.533H384
				c-4.719,0-8.533,3.823-8.533,8.533v8.533H358.4V8.533c0-4.71-3.814-8.533-8.533-8.533h-34.125c-4.719,0-8.533,3.823-8.533,8.533
				v8.533H136.533V8.533C136.533,3.823,132.719,0,128,0H93.867c-4.719,0-8.533,3.823-8.533,8.533v8.533h-76.8
				C3.814,17.067,0,20.89,0,25.6c0,4.71,3.814,8.533,8.533,8.533h85.333c4.719,0,8.533-3.823,8.533-8.533v-8.533h17.067V25.6
				c0,4.71,3.814,8.533,8.533,8.533h187.742c4.719,0,8.533-3.823,8.533-8.533v-8.533h17.058V25.6c0,4.71,3.814,8.533,8.533,8.533
				H384c4.719,0,8.533-3.823,8.533-8.533v-8.533h8.533c0,4.71,3.814,8.533,8.533,8.533c0,4.71,3.814,8.533,8.533,8.533h76.8V51.2
				H25.6c-4.719,0-8.533,3.823-8.533,8.533V462.37C7.159,465.911,0,475.29,0,486.4C0,500.514,11.486,512,25.6,512h68.267
				c14.114,0,25.6-11.486,25.6-25.6s-11.486-25.6-25.6-25.6c-1.476,0-2.944,0.128-4.386,0.384
				c-5.879-10.607-17.101-17.451-29.747-17.451c-10.138,0-19.311,4.446-25.6,11.657V68.267h469.333c4.719,0,8.533-3.823,8.533-8.533
				V25.6C512,20.89,508.186,17.067,503.467,17.067z M38.059,479.992c2.577-1.041,4.471-3.277,5.112-5.982
				c1.8-7.774,8.602-13.21,16.563-13.21s14.763,5.436,16.563,13.21c0.64,2.705,2.534,4.941,5.112,5.982
				c2.577,1.041,5.504,0.776,7.834-0.734c5.572-3.584,13.158,0.811,13.158,7.142c0,4.702-3.823,8.533-8.533,8.533H25.6
				c-4.71,0-8.533-3.831-8.533-8.533c0-4.702,3.823-8.533,8.533-8.533c1.63,0,3.191,0.469,4.625,1.391
				C32.555,480.768,35.482,481.033,38.059,479.992z"/>
			<path d="M85.333,298.667c0,4.71,3.814,8.533,8.533,8.533h51.2c4.719,0,8.533-3.823,8.533-8.533V230.4
				c0-4.71-3.814-8.533-8.533-8.533h-51.2c-4.719,0-8.533,3.823-8.533,8.533V298.667z M102.4,238.933h34.133V256H102.4V238.933z
				 M102.4,273.067h34.133v17.067H102.4V273.067z"/>
			<path d="M230.4,187.733h51.2c4.719,0,8.533-3.823,8.533-8.533v-68.267c0-4.71-3.814-8.533-8.533-8.533h-51.2
				c-4.719,0-8.533,3.823-8.533,8.533V179.2C221.867,183.91,225.681,187.733,230.4,187.733z M238.933,119.467h34.133v17.067h-34.133
				V119.467z M238.933,153.6h34.133v17.067h-34.133V153.6z"/>
			<path d="M366.933,494.933H230.4c-4.719,0-8.533,3.823-8.533,8.533c0,4.71,3.814,8.533,8.533,8.533h136.533
				c4.719,0,8.533-3.823,8.533-8.533C375.467,498.756,371.652,494.933,366.933,494.933z"/>
			<path d="M358.4,298.667c0,4.71,3.814,8.533,8.533,8.533h51.2c4.719,0,8.533-3.823,8.533-8.533V230.4
				c0-4.71-3.814-8.533-8.533-8.533h-51.2c-4.719,0-8.533,3.823-8.533,8.533V298.667z M375.467,238.933H409.6V256h-34.133V238.933z
				 M375.467,273.067H409.6v17.067h-34.133V273.067z"/>
			<path d="M93.867,187.733h51.2c4.719,0,8.533-3.823,8.533-8.533v-68.267c0-4.71-3.814-8.533-8.533-8.533h-51.2
				c-4.719,0-8.533,3.823-8.533,8.533V179.2C85.333,183.91,89.148,187.733,93.867,187.733z M102.4,119.467h34.133v17.067H102.4
				V119.467z M102.4,153.6h34.133v17.067H102.4V153.6z"/>
			<path d="M85.333,418.133c0,4.71,3.814,8.533,8.533,8.533h51.2c4.719,0,8.533-3.823,8.533-8.533v-68.267
				c0-4.71-3.814-8.533-8.533-8.533h-51.2c-4.719,0-8.533,3.823-8.533,8.533V418.133z M102.4,358.4h34.133v17.067H102.4V358.4z
				 M102.4,392.533h34.133V409.6H102.4V392.533z"/>
			<path d="M366.933,187.733h51.2c4.719,0,8.533-3.823,8.533-8.533v-68.267c0-4.71-3.814-8.533-8.533-8.533h-51.2
				c-4.719,0-8.533,3.823-8.533,8.533V179.2C358.4,183.91,362.214,187.733,366.933,187.733z M375.467,119.467H409.6v17.067h-34.133
				V119.467z M375.467,153.6H409.6v17.067h-34.133V153.6z"/>
			<path d="M221.867,298.667c0,4.71,3.814,8.533,8.533,8.533h51.2c4.719,0,8.533-3.823,8.533-8.533V230.4
				c0-4.71-3.814-8.533-8.533-8.533h-51.2c-4.719,0-8.533,3.823-8.533,8.533V298.667z M238.933,238.933h34.133V256h-34.133V238.933z
				 M238.933,273.067h34.133v17.067h-34.133V273.067z"/>
		</g>
	</g>
</g>
<g>
</g>
<g>
</g>
<g>
</g>
<g>
</g>
<g>
</g>
<g>
</g>
<g>
</g>
<g>
</g>
<g>
</g>
<g>
</g>
<g>
</g>
<g>
</g>
<g>
</g>
<g>
</g>
<g>
</g>
</svg>
