<?xml version="1.0" encoding="iso-8859-1"?>
<!-- Generator: Adobe Illustrator 19.0.0, SVG Export Plug-In . SVG Version: 6.00 Build 0)  -->
<svg version="1.1" id="Layer_1" xmlns="http://www.w3.org/2000/svg" xmlns:xlink="http://www.w3.org/1999/xlink" x="0px" y="0px"
	 viewBox="0 0 512 512" style="enable-background:new 0 0 512 512;" xml:space="preserve">
<g>
	<g>
		<g>
			<path d="M110.933,324.267c-14.114,0-25.6,11.486-25.6,25.6s11.486,25.6,25.6,25.6s25.6-11.486,25.6-25.6
				S125.047,324.267,110.933,324.267z M110.933,358.4c-4.702,0-8.533-3.831-8.533-8.533c0-4.702,3.831-8.533,8.533-8.533
				c4.702,0,8.533,3.831,8.533,8.533C119.467,354.569,115.635,358.4,110.933,358.4z"/>
			<path d="M452.267,68.267H25.6c-14.114,0-25.6,11.486-25.6,25.6V332.8c0,14.114,11.486,25.6,25.6,25.6
				c4.71,0,8.533-3.823,8.533-8.533s-3.823-8.533-8.533-8.533c-4.702,0-8.533-3.831-8.533-8.533v-25.6H25.6
				c4.71,0,8.533-3.823,8.533-8.533s-3.823-8.533-8.533-8.533h-8.533V93.867c0-4.702,3.831-8.533,8.533-8.533h366.933V102.4H42.667
				c-4.71,0-8.533,3.823-8.533,8.533c0,4.71,3.823,8.533,8.533,8.533H51.2v102.4h-8.533c-4.71,0-8.533,3.823-8.533,8.533
				s3.823,8.533,8.533,8.533h349.867v34.133c0,4.71,3.823,8.533,8.533,8.533s8.533-3.823,8.533-8.533v-34.133h85.333v51.2H486.4
				c-4.71,0-8.533,3.823-8.533,8.533s3.823,8.533,8.533,8.533h8.533v25.6c0,4.702-3.831,8.533-8.533,8.533h-26.283
				c-4.156-28.902-29.013-51.2-59.051-51.2c-32.939,0-59.733,26.795-59.733,59.733c0,32.939,26.795,59.733,59.733,59.733
				c30.037,0,54.895-22.298,59.051-51.2H486.4c14.114,0,25.6-11.486,25.6-25.6V128C512,94.507,485.76,68.267,452.267,68.267z
				 M136.533,221.867H68.267v-102.4h68.267V221.867z M221.867,221.867H153.6v-102.4h68.267V221.867z M307.2,221.867h-68.267v-102.4
				H307.2V221.867z M392.533,221.867h-68.267v-102.4h68.267V221.867z M401.067,392.533c-23.526,0-42.667-19.14-42.667-42.667
				c0-23.526,19.14-42.667,42.667-42.667c23.526,0,42.667,19.14,42.667,42.667C443.733,373.393,424.593,392.533,401.067,392.533z
				 M494.933,221.867h-28.86l10.897-21.786c2.108-4.215,0.393-9.335-3.823-11.443c-4.224-2.125-9.344-0.401-11.452,3.814
				l-14.703,29.414H409.6V85.333h42.667c24.329,0,42.667,18.338,42.667,42.667V221.867z"/>
			<path d="M324.267,349.867c0-4.71-3.823-8.533-8.533-8.533H169.984c-4.156-28.902-29.013-51.2-59.051-51.2
				c-32.939,0-59.733,26.795-59.733,59.733c0,32.939,26.795,59.733,59.733,59.733c30.037,0,54.895-22.298,59.051-51.2h145.749
				C320.444,358.4,324.267,354.577,324.267,349.867z M110.933,392.533c-23.526,0-42.667-19.14-42.667-42.667
				c0-23.526,19.14-42.667,42.667-42.667c23.526,0,42.667,19.14,42.667,42.667C153.6,373.393,134.46,392.533,110.933,392.533z"/>
			<path d="M401.067,324.267c-14.114,0-25.6,11.486-25.6,25.6s11.486,25.6,25.6,25.6c14.114,0,25.6-11.486,25.6-25.6
				S415.181,324.267,401.067,324.267z M401.067,358.4c-4.702,0-8.533-3.831-8.533-8.533c0-4.702,3.831-8.533,8.533-8.533
				c4.702,0,8.533,3.831,8.533,8.533C409.6,354.569,405.769,358.4,401.067,358.4z"/>
			<path d="M128,426.667H8.533C3.823,426.667,0,430.49,0,435.2s3.823,8.533,8.533,8.533H128c4.71,0,8.533-3.823,8.533-8.533
				S132.71,426.667,128,426.667z"/>
			<path d="M332.8,426.667h-17.067c-4.71,0-8.533,3.823-8.533,8.533s3.823,8.533,8.533,8.533H332.8c4.71,0,8.533-3.823,8.533-8.533
				S337.51,426.667,332.8,426.667z"/>
			<path d="M503.467,426.667H366.933c-4.71,0-8.533,3.823-8.533,8.533s3.823,8.533,8.533,8.533h136.533
				c4.71,0,8.533-3.823,8.533-8.533S508.177,426.667,503.467,426.667z"/>
			<path d="M264.533,426.667H179.2c-4.71,0-8.533,3.823-8.533,8.533s3.823,8.533,8.533,8.533h85.333c4.71,0,8.533-3.823,8.533-8.533
				S269.244,426.667,264.533,426.667z"/>
			<path d="M332.8,307.2c4.71,0,8.533-3.823,8.533-8.533s-3.823-8.533-8.533-8.533H179.2c-4.71,0-8.533,3.823-8.533,8.533
				s3.823,8.533,8.533,8.533H332.8z"/>
		</g>
	</g>
</g>
<g>
</g>
<g>
</g>
<g>
</g>
<g>
</g>
<g>
</g>
<g>
</g>
<g>
</g>
<g>
</g>
<g>
</g>
<g>
</g>
<g>
</g>
<g>
</g>
<g>
</g>
<g>
</g>
<g>
</g>
</svg>
