<?xml version="1.0" encoding="iso-8859-1"?>
<!-- Generator: Adobe Illustrator 19.0.0, SVG Export Plug-In . SVG Version: 6.00 Build 0)  -->
<svg version="1.1" id="Capa_1" xmlns="http://www.w3.org/2000/svg" xmlns:xlink="http://www.w3.org/1999/xlink" x="0px" y="0px"
	 viewBox="0 0 480 480" style="enable-background:new 0 0 480 480;" xml:space="preserve">
<g>
	<g>
		<rect x="40" y="216" width="16" height="64"/>
	</g>
</g>
<g>
	<g>
		<rect x="80" y="216" width="16" height="64"/>
	</g>
</g>
<g>
	<g>
		<rect x="120" y="216" width="16" height="64"/>
	</g>
</g>
<g>
	<g>
		<rect x="160" y="216" width="16" height="64"/>
	</g>
</g>
<g>
	<g>
		<rect x="200" y="216" width="16" height="64"/>
	</g>
</g>
<g>
	<g>
		<path d="M248.004,352c-0.001,0-0.003,0-0.004,0H8c-4.417-0.001-7.999,3.579-8,7.996c0,0.001,0,0.003,0,0.004v112
			c-0.001,4.417,3.579,7.999,7.996,8c0.001,0,0.003,0,0.004,0h240c4.417,0.001,7.999-3.579,8-7.996c0-0.001,0-0.003,0-0.004V360
			C256.001,355.583,252.421,352.001,248.004,352z M240,464H16v-96h224V464z"/>
	</g>
</g>
<g>
	<g>
		<rect x="40" y="384" width="16" height="64"/>
	</g>
</g>
<g>
	<g>
		<rect x="80" y="384" width="16" height="64"/>
	</g>
</g>
<g>
	<g>
		<rect x="120" y="384" width="16" height="64"/>
	</g>
</g>
<g>
	<g>
		<rect x="160" y="384" width="16" height="64"/>
	</g>
</g>
<g>
	<g>
		<rect x="200" y="384" width="16" height="64"/>
	</g>
</g>
<g>
	<g>
		<path d="M472.004,208c-0.001,0-0.003,0-0.004,0h-32V73.795c17.625-13.212,21.202-38.21,7.99-55.835
			c-13.212-17.625-38.21-21.202-55.835-7.99c-9.282,6.958-15.075,17.612-15.868,29.185L160,16.781V8
			c0.001-4.417-3.579-7.999-7.996-8c-0.001,0-0.003,0-0.004,0h-48c-4.417-0.001-7.999,3.579-8,7.996C96,7.997,96,7.999,96,8v40
			c-0.001,4.417,3.579,7.999,7.996,8c0.001,0,0.003,0,0.004,0h16v24c-0.001,4.417,3.579,7.999,7.996,8c0.001,0,0.003,0,0.004,0h4
			c11.046,0,20,8.954,20,20s-8.954,20-20,20s-20-8.954-20-20H96c0.038,11.007,5.136,21.385,13.825,28.143L14.109,184H8
			c-4.417-0.001-7.999,3.579-8,7.996c0,0.001,0,0.003,0,0.004v112c-0.001,4.417,3.579,7.999,7.996,8c0.001,0,0.003,0,0.004,0h240
			c4.417,0.001,7.999-3.579,8-7.996c0-0.001,0-0.003,0-0.004V192c0.001-4.417-3.579-7.999-7.996-8c-0.001,0-0.003,0-0.004,0h-13.977
			l-83.805-45.126c17.112-9.997,22.879-31.972,12.882-49.084c-5.738-9.821-15.792-16.341-27.1-17.572V56h16
			c4.417,0.001,7.999-3.579,8-7.996c0-0.001,0-0.003,0-0.004V32.874l218.503,22.604c2.629,7.285,7.318,13.649,13.497,18.318V208h-72
			c-4.417-0.001-7.999,3.579-8,7.996c0,0.001,0,0.003,0,0.004v112h-16c-4.417-0.001-7.999,3.579-8,7.996c0,0.001,0,0.003,0,0.004
			v136c-0.001,4.417,3.579,7.999,7.996,8c0.001,0,0.003,0,0.004,0h176c4.417,0.001,7.999-3.579,8-7.996c0-0.001,0-0.003,0-0.004V216
			C480.001,211.583,476.421,208.001,472.004,208z M240,200v96H16v-96H240z M200.263,184H49.892l77.972-38.984L200.263,184z M144,40
			h-32V16h32V40z M416,18c13.255,0,24,10.745,24,24s-10.745,24-24,24s-24-10.745-24-24C392.014,28.751,402.751,18.014,416,18z
			 M432,257.082l26.648,22.207L432,297.053V257.082z M458.648,351.289L432,369.053v-39.97L458.648,351.289z M458.648,423.289
			L432,441.053v-39.97L458.648,423.289z M416,464H304V344h112V464z M416,328h-88V224h88V328z M424,208h-16V81.191
			c5.279,1.078,10.721,1.078,16,0V208z M464,464h-32v-3.719l32-21.333V464z M464,406.917l-26.648-22.207L464,366.947V406.917z
			 M464,334.917l-26.648-22.207L464,294.947V334.917z M464,262.917l-32-26.667V224h32V262.917z"/>
	</g>
</g>
<g>
	<g>
		<path d="M416,30c-6.627,0-12,5.373-12,12c0.007,6.624,5.376,11.993,12,12c6.627,0,12-5.373,12-12S422.627,30,416,30z M416,46
			c-2.209,0-4-1.791-4-4c0.003-2.208,1.792-3.997,4-4c2.209,0,4,1.791,4,4S418.209,46,416,46z"/>
	</g>
</g>
<g>
</g>
<g>
</g>
<g>
</g>
<g>
</g>
<g>
</g>
<g>
</g>
<g>
</g>
<g>
</g>
<g>
</g>
<g>
</g>
<g>
</g>
<g>
</g>
<g>
</g>
<g>
</g>
<g>
</g>
</svg>
