<?xml version="1.0" encoding="iso-8859-1"?>
<!-- Generator: Adobe Illustrator 19.0.0, SVG Export Plug-In . SVG Version: 6.00 Build 0)  -->
<svg version="1.1" id="Capa_1" xmlns="http://www.w3.org/2000/svg" xmlns:xlink="http://www.w3.org/1999/xlink" x="0px" y="0px"
	 viewBox="0 0 480 480" style="enable-background:new 0 0 480 480;" xml:space="preserve">
<g>
	<g>
		<path d="M199.238,228.59l-64-136c-1.32-2.804-4.14-4.594-7.238-4.594H40c-4.418,0-8,3.582-8,8v136c0,4.418,3.582,8,8,8h152
			c4.419-0.001,8-3.585,7.999-8.004C199.999,230.816,199.739,229.654,199.238,228.59z M48,223.996v-120h74.922l56.473,120H48z"/>
	</g>
</g>
<g>
	<g>
		<path d="M472,415.996v-120c0-4.418-3.582-8-8-8h-24v-120c0-4.418-3.582-8-8-8h-24v-120c0-4.418-3.582-8-8-8H280v-24h-16v408h-16
			v-160c0-1.242-0.289-2.467-0.844-3.578l-96-192c-1.355-2.711-4.126-4.422-7.156-4.422H8c-4.418,0-8,3.582-8,8v360
			c-0.015,26.494,21.45,47.984,47.945,48c23.428,0.013,43.439-16.897,47.333-40h57.445c4.385,26.111,29.106,43.723,55.217,39.338
			c20.158-3.385,35.953-19.18,39.338-39.338H480v-16H472z M48,455.996c-17.673,0-32-14.327-32-32c0-17.673,14.327-32,32-32
			s32,14.327,32,32C79.98,441.661,65.665,455.976,48,455.996z M200,455.996c-17.673,0-32-14.327-32-32c0-17.673,14.327-32,32-32
			s32,14.327,32,32C231.98,441.661,217.665,455.976,200,455.996z M232,388.32c-19.63-17.707-49.897-16.148-67.604,3.482
			c-6.121,6.785-10.171,15.181-11.673,24.195H95.277c-4.345-26.077-29.006-43.694-55.083-39.349
			c-9.014,1.502-17.409,5.552-24.195,11.673V71.996h123.055L232,257.883V388.32z M280,47.996h48v32h16v-32h48v112H280V47.996z
			 M280,175.996h64v32h16v-32h64v112H280V175.996z M456,415.996H280v-112h80v32h16v-32h80V415.996z"/>
	</g>
</g>
<g>
	<g>
		<path d="M48,411.996c-6.627,0-12,5.373-12,12c0,6.627,5.373,12,12,12s12-5.373,12-12C59.993,417.372,54.624,412.003,48,411.996z"
			/>
	</g>
</g>
<g>
	<g>
		<path d="M200,411.996c-6.627,0-12,5.373-12,12c0,6.627,5.373,12,12,12c6.627,0,12-5.373,12-12
			C211.993,417.372,206.624,412.003,200,411.996z"/>
	</g>
</g>
<g>
</g>
<g>
</g>
<g>
</g>
<g>
</g>
<g>
</g>
<g>
</g>
<g>
</g>
<g>
</g>
<g>
</g>
<g>
</g>
<g>
</g>
<g>
</g>
<g>
</g>
<g>
</g>
<g>
</g>
</svg>
