<?xml version="1.0" encoding="iso-8859-1"?>
<!-- Generator: Adobe Illustrator 19.0.0, SVG Export Plug-In . SVG Version: 6.00 Build 0)  -->
<svg version="1.1" id="Capa_1" xmlns="http://www.w3.org/2000/svg" xmlns:xlink="http://www.w3.org/1999/xlink" x="0px" y="0px"
	 viewBox="0 0 480 480" style="enable-background:new 0 0 480 480;" xml:space="preserve">
<g>
	<g>
		<path d="M316.016,217.078c-2.467-1.429-5.508-1.438-7.984-0.023L264,242.211V224c0.003-4.417-3.576-7.999-7.992-8.001
			c-1.395-0.001-2.766,0.363-3.976,1.056L208,242.211V192c0.003-4.416-3.575-7.997-7.991-8c-0.003,0-0.006,0-0.009,0h-32
			c-4.416-0.003-7.997,3.575-8,7.991c0,0.003,0,0.006,0,0.009v96c-0.003,4.416,3.575,7.997,7.991,8c0.003,0,0.006,0,0.009,0h144
			c4.416,0.003,7.997-3.575,8-7.991c0-0.003,0-0.006,0-0.009v-64C320,221.148,318.482,218.511,316.016,217.078z M304,280H176v-80h16
			v56c-0.003,4.417,3.576,7.999,7.992,8.001c1.395,0.001,2.766-0.363,3.976-1.056L248,237.789V256
			c-0.002,4.417,3.576,7.999,7.992,8.001c1.395,0.001,2.766-0.363,3.976-1.056L304,237.789V280z"/>
	</g>
</g>
<g>
	<g>
		<path d="M472.009,0c-0.003,0-0.006,0-0.009,0h-96c-4.416-0.003-7.997,3.575-8,7.991c0,0.003,0,0.006,0,0.009v100.539
			l-40.595,38.21c-49.576-46.796-127.206-46.264-176.136,1.207L112,108.688V8c0.003-4.416-3.575-7.997-7.991-8
			c-0.003,0-0.006,0-0.009,0H8C3.584-0.003,0.003,3.575,0,7.991C0,7.994,0,7.997,0,8v104c-0.003,4.416,3.575,7.997,7.991,8
			c0.003,0,0.006,0,0.009,0h92.688l39.744,39.744c-37.908,46.79-37.908,113.723,0,160.513L100.688,360H8
			c-4.416-0.003-7.997,3.575-8,7.991c0,0.003,0,0.006,0,0.009v104c-0.003,4.416,3.575,7.997,7.991,8c0.003,0,0.006,0,0.009,0h96
			c4.416,0.003,7.997-3.575,8-7.991c0-0.003,0-0.006,0-0.009V371.312l39.269-39.269c48.93,47.47,126.56,48.002,176.136,1.207
			L368,371.46V472c-0.003,4.416,3.575,7.997,7.991,8c0.003,0,0.006,0,0.009,0h96c4.416,0.003,7.997-3.575,8-7.991
			c0-0.003,0-0.006,0-0.009V368c0.003-4.416-3.575-7.997-7.991-8c-0.003,0-0.006,0-0.009,0h-92.823l-40.718-38.325
			c39.388-47.327,39.388-116.023,0-163.35L379.177,120H472c4.416,0.003,7.997-3.575,8-7.991c0-0.003,0-0.006,0-0.009V8
			C480.003,3.584,476.425,0.003,472.009,0z M48,16h16v16c0,4.418-3.582,8-8,8s-8-3.582-8-8V16z M16,16h16v16c0,4.418-3.582,8-8,8
			s-8-3.582-8-8V16z M96,104H16V88h80V104z M96,72H16V54.525c8.257,3.091,17.551,1.244,24-4.768c9.043,8.323,22.957,8.323,32,0
			c6.449,6.011,15.743,7.858,24,4.768V72z M96,32c0,4.418-3.582,8-8,8s-8-3.582-8-8V16h16V32z M48,376h16v16c0,4.418-3.582,8-8,8
			s-8-3.582-8-8V376z M16,376h16v16c0,4.418-3.582,8-8,8s-8-3.582-8-8V376z M96,464H16v-16h80V464z M96,432H16v-17.475
			c8.257,3.091,17.551,1.244,24-4.768c9.043,8.323,22.957,8.323,32,0c6.449,6.011,15.743,7.858,24,4.768V432z M96,392
			c0,4.418-3.582,8-8,8s-8-3.582-8-8v-16h16V392z M448,376h16v16c0,4.418-3.582,8-8,8s-8-3.582-8-8V376z M416,376h16v16
			c0,4.418-3.582,8-8,8s-8-3.582-8-8V376z M384,376h16v16c0,4.418-3.582,8-8,8s-8-3.582-8-8V376z M384,414.525
			c8.257,3.091,17.551,1.244,24-4.768c9.043,8.323,22.957,8.323,32,0c6.449,6.011,15.743,7.858,24,4.768V432h-80V414.525z M384,448
			h80v16h-80V448z M352,240c0,61.856-50.144,112-112,112s-112-50.144-112-112s50.144-112,112-112
			C301.827,128.069,351.931,178.173,352,240z M416,16h16v16c0,4.418-3.582,8-8,8s-8-3.582-8-8V16z M384,16h16v16
			c0,4.418-3.582,8-8,8s-8-3.582-8-8V16z M464,104h-80V88h80V104z M464,72h-80V54.525c8.257,3.091,17.551,1.244,24-4.768
			c9.043,8.323,22.957,8.323,32,0c6.449,6.011,15.743,7.858,24,4.768V72z M464,32c0,4.418-3.582,8-8,8s-8-3.582-8-8V16h16V32z"/>
	</g>
</g>
<g>
</g>
<g>
</g>
<g>
</g>
<g>
</g>
<g>
</g>
<g>
</g>
<g>
</g>
<g>
</g>
<g>
</g>
<g>
</g>
<g>
</g>
<g>
</g>
<g>
</g>
<g>
</g>
<g>
</g>
</svg>
