<?xml version="1.0" encoding="iso-8859-1"?>
<!-- Generator: Adobe Illustrator 19.0.0, SVG Export Plug-In . SVG Version: 6.00 Build 0)  -->
<svg version="1.1" id="Capa_1" xmlns="http://www.w3.org/2000/svg" xmlns:xlink="http://www.w3.org/1999/xlink" x="0px" y="0px"
	 viewBox="0 0 480 480" style="enable-background:new 0 0 480 480;" xml:space="preserve">
<g>
	<g>
		<path d="M432.005,40c-0.901,0-1.795,0.152-2.646,0.449L280,92.723V48c0.001-4.417-3.578-7.999-7.995-8
			c-0.901,0-1.795,0.152-2.646,0.449L120,92.723V8c0.001-4.417-3.579-7.999-7.996-8c-0.001,0-0.003,0-0.004,0H48
			c-4.417-0.001-7.999,3.579-8,7.996C40,7.997,40,7.999,40,8v160c-0.001,4.417,3.579,7.999,7.996,8c0.001,0,0.003,0,0.004,0h184v56
			H72c-4.417-0.001-7.999,3.579-8,7.996c0,0.001,0,0.003,0,0.004v96h16v-88h152v88h16v-88h152v88h16v-96
			c0.001-4.417-3.579-7.999-7.996-8c-0.001,0-0.003,0-0.004,0H248v-56h184c4.417,0.001,7.999-3.579,8-7.996c0-0.001,0-0.003,0-0.004
			V48C440.002,43.583,436.422,40.001,432.005,40z M424,160H56V16h48v88c-0.001,4.417,3.578,7.999,7.995,8
			c0.901,0,1.795-0.152,2.646-0.449L264,59.277V104c-0.001,4.417,3.578,7.999,7.995,8c0.901,0,1.795-0.152,2.646-0.449L424,59.277
			V160z"/>
	</g>
</g>
<g>
	<g>
		<rect x="128" y="128" width="16" height="16"/>
	</g>
</g>
<g>
	<g>
		<rect x="176" y="128" width="16" height="16"/>
	</g>
</g>
<g>
	<g>
		<rect x="224" y="128" width="16" height="16"/>
	</g>
</g>
<g>
	<g>
		<rect x="320" y="128" width="16" height="16"/>
	</g>
</g>
<g>
	<g>
		<rect x="368" y="128" width="16" height="16"/>
	</g>
</g>
<g>
	<g>
		<rect x="272" y="128" width="16" height="16"/>
	</g>
</g>
<g>
	<g>
		<path d="M140.797,401.602L112,380.004V352H96v16.004l-19.203-14.402c-2.842-2.133-6.751-2.133-9.594,0l-64,48
			c-3.534,2.651-4.251,7.664-1.6,11.199c1.51,2.014,3.88,3.199,6.397,3.2h16v56c-0.001,4.417,3.579,7.999,7.996,8
			c0.001,0,0.003,0,0.004,0h80c4.417,0.001,7.999-3.579,8-7.996c0-0.001,0-0.003,0-0.004v-56h16
			c4.418-0.001,7.998-3.584,7.997-8.001C143.996,405.482,142.811,403.112,140.797,401.602z M104,407.996c0,0.001,0,0.003,0,0.004v56
			H40v-56c0.001-4.417-3.579-7.999-7.996-8c-0.001,0-0.003,0-0.004,0l40-30l40,30C107.583,399.999,104.001,403.579,104,407.996z"/>
	</g>
</g>
<g>
	<g>
		<path d="M308.797,401.602L280,380.004V352h-16v16.004l-19.203-14.402c-2.842-2.133-6.751-2.133-9.594,0l-64,48
			c-3.534,2.651-4.251,7.664-1.6,11.199c1.51,2.014,3.88,3.199,6.397,3.2h16v56c-0.001,4.417,3.579,7.999,7.996,8
			c0.001,0,0.003,0,0.004,0h80c4.417,0.001,7.999-3.579,8-7.996c0-0.001,0-0.003,0-0.004v-56h16
			c4.418-0.001,7.998-3.584,7.997-8.001C311.996,405.482,310.811,403.112,308.797,401.602z M272,407.996c0,0.001,0,0.003,0,0.004v56
			h-64v-56c0.001-4.417-3.579-7.999-7.996-8c-0.001,0-0.003,0-0.004,0l40-30l40,30C275.583,399.999,272.001,403.579,272,407.996z"/>
	</g>
</g>
<g>
	<g>
		<path d="M476.797,401.602L448,380.004V352h-16v16.004l-19.203-14.402c-2.842-2.133-6.751-2.133-9.594,0l-64,48
			c-3.534,2.651-4.251,7.664-1.6,11.199c1.51,2.014,3.88,3.199,6.397,3.2h16v56c-0.001,4.417,3.579,7.999,7.996,8
			c0.001,0,0.003,0,0.004,0h80c4.417,0.001,7.999-3.579,8-7.996c0-0.001,0-0.003,0-0.004v-56h16
			c4.418-0.001,7.998-3.584,7.997-8.001C479.996,405.482,478.811,403.112,476.797,401.602z M440,407.996c0,0.001,0,0.003,0,0.004v56
			h-64v-56c0.001-4.417-3.579-7.999-7.996-8c-0.001,0-0.003,0-0.004,0l40-30l40,30C443.583,399.999,440.001,403.579,440,407.996z"/>
	</g>
</g>
<g>
</g>
<g>
</g>
<g>
</g>
<g>
</g>
<g>
</g>
<g>
</g>
<g>
</g>
<g>
</g>
<g>
</g>
<g>
</g>
<g>
</g>
<g>
</g>
<g>
</g>
<g>
</g>
<g>
</g>
</svg>
