<?xml version="1.0" encoding="iso-8859-1"?>
<!-- Generator: Adobe Illustrator 19.0.0, SVG Export Plug-In . SVG Version: 6.00 Build 0)  -->
<svg version="1.1" id="Capa_1" xmlns="http://www.w3.org/2000/svg" xmlns:xlink="http://www.w3.org/1999/xlink" x="0px" y="0px"
	 viewBox="0 0 480 480" style="enable-background:new 0 0 480 480;" xml:space="preserve">
<g>
	<g>
		<path d="M406.629,111.898c-4.418-12.497-18.13-19.047-30.628-14.629s-19.047,18.13-14.629,30.628
			c2.416,6.835,7.793,12.212,14.628,14.629V184h16v-41.474C404.497,138.108,411.047,124.395,406.629,111.898z M384,128
			c-4.418,0-8-3.582-8-8c0.003-4.417,3.583-7.997,8-8c4.418,0,8,3.582,8,8S388.418,128,384,128z"/>
	</g>
</g>
<g>
	<g>
		<path d="M260.814,201.306c-2.848-0.91-5.825-1.351-8.814-1.306h-24c-15.464,0-28,12.536-28,28c0,15.464,12.536,28,28,28h24
			c7.422-0.009,14.539-2.949,19.805-8.18l0.003-0.004l0.004-0.003c0.576-0.575,1.019-1.258,1.539-1.881
			c0.688-0.753,1.334-1.543,1.935-2.366l0.091-0.172c1.457-2.298,2.574-4.794,3.315-7.412
			C283.332,221.469,275.327,205.944,260.814,201.306z M260.492,236.508c-2.261,2.237-5.312,3.491-8.492,3.492h-24
			c-6.627,0-12-5.373-12-12c0-6.627,5.373-12,12-12h24c6.639,0.011,12.012,5.403,12,12.042
			C263.995,231.216,262.734,234.26,260.492,236.508z"/>
	</g>
</g>
<g>
	<g>
		<path d="M240,0C107.452,0,0,107.452,0,240s107.452,240,240,240s240-107.452,240-240C479.85,107.514,372.486,0.15,240,0z
			 M279.648,19.585C371.547,36.279,443.511,108.127,460.352,200H359.617c-8.659-0.03-15.655-7.075-15.624-15.734
			c0-0.141,0.003-0.281,0.007-0.422c-0.017-17.58-14.264-31.827-31.844-31.844h-64.313c-8.837-0.088-15.928-7.323-15.84-16.16
			c0.087-8.712,7.128-15.753,15.84-15.84h24.313c17.673,0,32-14.327,32-32s-14.327-32-32-32H256c-4.417-0.003-7.997-3.583-8-8
			c-0.004-2.158,0.883-4.222,2.453-5.703c1.46-1.487,3.463-2.316,5.547-2.297C267.845,39.975,277.894,31.299,279.648,19.585z
			 M16,240c-0.038-45.799,14.046-90.496,40.332-128h24.511c4.278,0.332,7.48,4.065,7.156,8.344c0.241,13.098,10.9,23.605,24,23.656
			h24v8h16v-8h4c11.046,0,20,8.954,20,20s-8.954,20-20,20h-12.844c-13.045,0.256-23.413,11.039-23.157,24.085
			c0,0.008,0,0.016,0,0.025c-0.078,4.368-3.632,7.873-8,7.891H72c-13.249,0.014-23.986,10.751-24,24v15.844
			c-0.005,4.42-3.593,7.998-8.012,7.992c-0.025,0-0.049,0-0.074,0l-22.663-0.239C16.422,255.759,16.004,247.882,16,240z M136,88
			c0-4.418,3.582-8,8-8s8,3.582,8,8s-3.582,8-8,8C139.583,95.997,136.003,92.417,136,88z M288,458.767
			C203.033,477.484,114.926,445.191,62.179,376H88v8h16v-8h12c2.207,0.004,3.996,1.793,4,4c0.01,11.041,8.959,19.99,20,20h40
			c11.042-0.01,19.99-8.959,20-20v-16c0-11.046,8.954-20,20-20s20,8.954,20,20v40c0.01,11.041,8.959,19.99,20,20h24
			c2.207,0.004,3.996,1.793,4,4V458.767z M88,320c0-4.418,3.582-8,8-8s8,3.582,8,8s-3.582,8-8,8
			C91.583,327.997,88.003,324.417,88,320z M304,454.635V428c-0.01-11.042-8.958-19.99-20-20h-24c-2.207-0.004-3.996-1.793-4-4v-40
			c0-19.882-16.118-36-36-36s-36,16.118-36,36v16c-0.004,2.207-1.793,3.996-4,4h-40c-2.207-0.004-3.996-1.793-4-4
			c-0.01-11.042-8.958-19.99-20-20h-12v-17.474c12.497-4.418,19.047-18.13,14.629-30.628c-4.418-12.497-18.13-19.047-30.628-14.629
			c-12.497,4.418-19.047,18.13-14.629,30.628c2.416,6.835,7.793,12.212,14.628,14.629V360H51
			c-15.617-24.485-26.291-51.791-31.419-80.376l20.154,0.212h0.282C53.26,279.824,63.993,269.088,64,255.844V240
			c0.003-4.417,3.583-7.997,8-8h40c13.103-0.052,23.763-10.563,24-23.664c-0.324-4.277,2.879-8.008,7.156-8.336H156
			c19.882,0,36-16.118,36-36s-16.118-36-36-36h-4v-17.474c12.497-4.418,19.047-18.13,14.629-30.628
			c-4.418-12.497-18.13-19.047-30.628-14.629c-12.497,4.418-19.047,18.13-14.629,30.628c2.416,6.835,7.793,12.212,14.628,14.629V128
			h-24c-4.368-0.018-7.922-3.523-8-7.891c0.259-13.05-10.106-23.842-23.156-24.109H68.597
			c47.855-57.138,121.04-86.664,195.147-78.73c-0.534,3.865-3.843,6.74-7.745,6.73c-13.229,0.062-23.938,10.771-24,24
			c0.014,13.249,10.751,23.986,24,24h16.156c8.837,0.088,15.928,7.323,15.84,16.16c-0.087,8.712-7.128,15.753-15.84,15.84h-24.313
			c-17.673,0-32,14.327-32,32s14.327,32,32,32h64.313c8.843,0.089,15.939,7.33,15.85,16.172c-0.001,0.101-0.003,0.203-0.006,0.304
			c-0.055,17.354,13.968,31.468,31.323,31.523c0.067,0,0.134,0,0.201,0h103.174c0.861,7.971,1.296,15.983,1.303,24h-20.703
			c-5.058-0.009-9.913,1.988-13.5,5.555c-3.724,3.657-5.815,8.663-5.797,13.883v25.359c-0.024,1.759-1.444,3.179-3.203,3.203h-1.594
			c-10.6,0.014-19.189,8.603-19.203,19.203v25.594c-0.024,1.759-1.444,3.179-3.203,3.203H360v-17.474
			c12.497-4.418,19.047-18.13,14.629-30.628c-4.418-12.497-18.13-19.047-30.628-14.629c-12.497,4.418-19.047,18.13-14.629,30.628
			c2.416,6.835,7.793,12.212,14.628,14.629V336h-12.797c-10.6,0.014-19.189,8.603-19.203,19.203v33.594
			c0.014,10.6,8.603,19.189,19.203,19.203h56.724C363.654,429.433,335.02,445.344,304,454.635z M352,304c-4.418,0-8-3.582-8-8
			s3.582-8,8-8s8,3.582,8,8C359.997,300.417,356.417,303.997,352,304z M404.343,392h-73.14c-1.759-0.024-3.179-1.444-3.203-3.203
			v-33.594c0.024-1.759,1.444-3.179,3.203-3.203H344v8h16v-8h36.797c10.6-0.014,19.189-8.603,19.203-19.203v-25.594
			c0.024-1.759,1.444-3.179,3.203-3.203h1.594c10.6-0.014,19.189-8.603,19.203-19.203v-25.359c-0.005-0.937,0.37-1.836,1.039-2.492
			c0.645-0.616,1.506-0.955,2.398-0.945h19.928C459.766,306.735,438.942,354.718,404.343,392z"/>
	</g>
</g>
<g>
</g>
<g>
</g>
<g>
</g>
<g>
</g>
<g>
</g>
<g>
</g>
<g>
</g>
<g>
</g>
<g>
</g>
<g>
</g>
<g>
</g>
<g>
</g>
<g>
</g>
<g>
</g>
<g>
</g>
</svg>
