<?xml version="1.0" encoding="iso-8859-1"?>
<!-- Generator: Adobe Illustrator 19.0.0, SVG Export Plug-In . SVG Version: 6.00 Build 0)  -->
<svg version="1.1" id="Capa_1" xmlns="http://www.w3.org/2000/svg" xmlns:xlink="http://www.w3.org/1999/xlink" x="0px" y="0px"
	 viewBox="0 0 480.003 480.003" style="enable-background:new 0 0 480.003 480.003;" xml:space="preserve">
<g>
	<g>
		<path d="M64.003,328.001h-8c-4.418,0-8,3.582-8,8v8c0,4.418,3.582,8,8,8h8c4.418,0,8-3.582,8-8v-8
			C72.003,331.583,68.421,328.001,64.003,328.001z"/>
	</g>
</g>
<g>
	<g>
		<path d="M440.003,424.001h-8c-4.418,0-8,3.582-8,8v8c0,4.418,3.582,8,8,8h8c4.418,0,8-3.582,8-8v-8
			C448.003,427.583,444.421,424.001,440.003,424.001z"/>
	</g>
</g>
<g>
	<g>
		<path d="M392.003,424.001h-8c-4.418,0-8,3.582-8,8v8c0,4.418,3.582,8,8,8h8c4.418,0,8-3.582,8-8v-8
			C400.003,427.583,396.421,424.001,392.003,424.001z"/>
	</g>
</g>
<g>
	<g>
		<path d="M344.003,424.001h-8c-4.418,0-8,3.582-8,8v8c0,4.418,3.582,8,8,8h8c4.418,0,8-3.582,8-8v-8
			C352.003,427.583,348.421,424.001,344.003,424.001z"/>
	</g>
</g>
<g>
	<g>
		<path d="M296.003,424.001h-8c-4.418,0-8,3.582-8,8v8c0,4.418,3.582,8,8,8h8c4.418,0,8-3.582,8-8v-8
			C304.003,427.583,300.421,424.001,296.003,424.001z"/>
	</g>
</g>
<g>
	<g>
		<path d="M472.012,48.001c-0.003,0-0.006,0-0.009,0h-64v-40c0.004-4.414-3.572-7.996-7.987-7.999c-0.516,0-1.03,0.049-1.537,0.148
			l-248,48l0.03,0.153c-3.74,0.664-6.476,3.9-6.506,7.699v32c-0.003,4.416,3.575,7.997,7.991,8c0.003,0,0.006,0,0.009,0v56h-16
			c-4.416-0.003-7.997,3.575-8,7.991c0,0.003,0,0.006,0,0.009v24h-16c-4.416-0.003-7.997,3.575-8,7.991c0,0.003,0,0.006,0,0.009v64
			c-0.003,4.416,3.575,7.997,7.991,8c0.003,0,0.006,0,0.009,0h96c4.416,0.003,7.997-3.575,8-7.991c0-0.003,0-0.006,0-0.009v-64
			c0.003-4.416-3.575-7.997-7.991-8c-0.003,0-0.006,0-0.009,0h-16v-24c0.003-4.416-3.575-7.997-7.991-8c-0.003,0-0.006,0-0.009,0
			h-16v-56h150.675l-45.538,296h-17.137c-4.416-0.003-7.997,3.575-8,7.991c0,0.003,0,0.006,0,0.009v72
			c-0.003,4.416,3.575,7.997,7.991,8c0.003,0,0.006,0,0.009,0h216c4.416,0.003,7.997-3.575,8-7.991c0-0.003,0-0.006,0-0.009v-72
			c0.003-4.416-3.575-7.997-7.991-8c-0.003,0-0.006,0-0.009,0h-17.137l-45.538-296h62.675c4.416,0.003,7.997-3.575,8-7.991
			c0-0.003,0-0.006,0-0.009v-32C480.006,51.585,476.428,48.004,472.012,48.001z M392.003,17.696v30.305H235.427L392.003,17.696z
			 M200.003,200.001v48h-80v-48H200.003z M176.003,168.001v16h-32v-16H176.003z M318.242,204.066l86.909,43.451l-100.348,43.904
			L318.242,204.066z M388.792,144.658l-66.529,33.268l8.819-57.325L388.792,144.658z M333.588,104.312l1.279-8.311h58.273
			l5.447,35.409L333.588,104.312z M464.003,408.001v56h-200v-56H464.003z M438.675,392.001H289.331l11.737-76.295l136.958,72.077
			L438.675,392.001z M435,368.112l-120.56-63.447l103.812-45.419L435,368.112z M414.409,234.259l-84.515-42.257l72.442-36.221
			L414.409,234.259z M464.003,80.001h-304v-16h304V80.001z"/>
	</g>
</g>
<g>
	<g>
		<path d="M225.261,371.759c-1.462-2.337-4.024-3.757-6.781-3.758H104.003v-64c0.003-4.416-3.575-7.997-7.991-8
			c-0.003,0-0.006,0-0.009,0h-72c-4.416-0.003-7.997,3.575-8,7.991c0,0.003,0,0.006,0,0.009v64h-8c-4.417-0.003-8,3.575-8.003,7.992
			c-0.001,1.16,0.251,2.307,0.737,3.36l38.946,84.402c-0.783,0.135-1.574,0.217-2.367,0.246c-5.142-0.016-10.033-2.224-13.445-6.07
			c-6.295-6.387-14.899-9.966-23.867-9.93v16c5.142,0.016,10.033,2.224,13.445,6.07c13.1,13.181,34.405,13.248,47.586,0.148
			c0.049-0.049,0.099-0.099,0.148-0.148c6.543-7.424,17.864-8.138,25.288-1.595c0.565,0.498,1.097,1.03,1.595,1.595
			c13.105,13.184,34.416,13.248,47.599,0.143c0.045-0.045,0.09-0.09,0.135-0.135c6.573-7.443,17.935-8.148,25.378-1.575
			c0.557,0.492,1.083,1.018,1.575,1.575c13.14,13.192,34.487,13.234,47.679,0.094c0.031-0.031,0.063-0.063,0.094-0.094
			c3.422-3.852,8.324-6.063,13.477-6.078v-16c-8.971-0.038-17.58,3.538-23.883,9.922c-3.424,3.854-8.329,6.065-13.484,6.078
			c-0.639-0.032-1.276-0.098-1.908-0.198l40.947-84.31C226.878,377.016,226.722,374.094,225.261,371.759z M32.003,312.001h56v56h-56
			V312.001z M170.772,455.925c-5.922-5.241-13.596-8.069-21.503-7.923c-8.969-0.04-17.576,3.536-23.875,9.922
			c-6.548,7.432-17.881,8.148-25.313,1.6c-0.564-0.497-1.096-1.028-1.593-1.592c-6.295-6.387-14.899-9.966-23.867-9.93
			c-7.722-0.149-15.227,2.562-21.071,7.611l-33.046-71.611h185.195L170.772,455.925z"/>
	</g>
</g>
<g>
</g>
<g>
</g>
<g>
</g>
<g>
</g>
<g>
</g>
<g>
</g>
<g>
</g>
<g>
</g>
<g>
</g>
<g>
</g>
<g>
</g>
<g>
</g>
<g>
</g>
<g>
</g>
<g>
</g>
</svg>
