<?xml version="1.0" encoding="iso-8859-1"?>
<!-- Generator: Adobe Illustrator 19.0.0, SVG Export Plug-In . SVG Version: 6.00 Build 0)  -->
<svg version="1.1" id="Capa_1" xmlns="http://www.w3.org/2000/svg" xmlns:xlink="http://www.w3.org/1999/xlink" x="0px" y="0px"
	 viewBox="0 0 480 480" style="enable-background:new 0 0 480 480;" xml:space="preserve">
<g>
	<g>
		<path d="M294.859,71.883l-24-40c-1.445-2.41-4.049-3.884-6.859-3.883h-48V12c0.001-4.417-3.579-7.999-7.996-8
			c-0.001,0-0.003,0-0.004,0H64c-4.417-0.001-7.999,3.579-8,7.996c0,0.001,0,0.003,0,0.004v112c-0.001,4.417,3.579,7.999,7.996,8
			c0.001,0,0.003,0,0.004,0h24c0,13.255,10.745,24,24,24s24-10.745,24-24h88c0,13.255,10.745,24,24,24s24-10.745,24-24h16
			c4.417,0.001,7.999-3.579,8-7.996c0-0.001,0-0.003,0-0.004V76C296.001,74.549,295.607,73.126,294.859,71.883z M112,140
			c-4.418,0-8-3.582-8-8s3.582-8,8-8s8,3.582,8,8C119.996,136.416,116.416,139.996,112,140z M200,116h-70.242
			c-8.676-9.807-23.659-10.725-33.467-2.049c-0.724,0.641-1.408,1.325-2.049,2.049H72V20h128V116z M248,44h11.469l9.601,16H248V44z
			 M248,140c-4.418,0-8-3.582-8-8s3.582-8,8-8s8,3.582,8,8C255.996,136.416,252.416,139.996,248,140z M280,116h-14.242
			c-8.676-9.807-23.659-10.725-33.467-2.049c-0.724,0.641-1.408,1.325-2.049,2.049H216V44h16v24c-0.001,4.417,3.579,7.999,7.996,8
			c0.001,0,0.003,0,0.004,0h38.671L280,78.215V116z"/>
	</g>
</g>
<g>
	<g>
		<path d="M477.242,357.953L432,318.746V260c0.001-4.417-3.579-7.999-7.996-8c-0.001,0-0.003,0-0.004,0h-32
			c-4.417-0.001-7.999,3.579-8,7.996c0,0.001,0,0.003,0,0.004v17.148l-26.758-23.195c-3.011-2.602-7.474-2.602-10.484,0l-120,104
			c-3.338,2.898-3.694,7.953-0.795,11.291c1.519,1.749,3.721,2.754,6.038,2.756h40v96c-0.001,4.417,3.579,7.999,7.996,8
			c0.001,0,0.003,0,0.004,0h144c4.417,0.001,7.999-3.579,8-7.996c0-0.001,0-0.003,0-0.004v-96h40
			c4.42-0.003,8.001-3.589,7.998-8.009C479.997,361.674,478.991,359.472,477.242,357.953z M368,460h-32v-40c0-8.837,7.163-16,16-16
			s16,7.163,16,16V460z M424,356c-4.417-0.001-7.999,3.579-8,7.996c0,0.001,0,0.003,0,0.004v96h-32v-40c0-17.673-14.327-32-32-32
			c-17.673,0-32,14.327-32,32v40h-32v-96c0.001-4.417-3.579-7.999-7.996-8c-0.001,0-0.003,0-0.004,0h-26.555L352,270.586
			l34.758,30.129c3.341,2.893,8.396,2.53,11.289-0.811c1.259-1.454,1.952-3.313,1.953-5.236V268h16v54.398
			c0,2.32,1.006,4.526,2.758,6.047L450.555,356H424z"/>
	</g>
</g>
<g>
	<g>
		<rect y="28" width="40" height="16"/>
	</g>
</g>
<g>
	<g>
		<rect y="60" width="40" height="16"/>
	</g>
</g>
<g>
	<g>
		<rect y="92" width="40" height="16"/>
	</g>
</g>
<g>
	<g>
		<path d="M416,84H312v16h104c26.51,0,48,21.49,48,48c0,26.51-21.49,48-48,48H120C53.726,196,0,249.726,0,316s53.726,120,120,120
			h136v-16H120c-57.438,0-104-46.562-104-104s46.562-104,104-104h296c35.346,0,64-28.654,64-64C480,112.654,451.346,84,416,84z"/>
	</g>
</g>
<g>
</g>
<g>
</g>
<g>
</g>
<g>
</g>
<g>
</g>
<g>
</g>
<g>
</g>
<g>
</g>
<g>
</g>
<g>
</g>
<g>
</g>
<g>
</g>
<g>
</g>
<g>
</g>
<g>
</g>
</svg>
