<?xml version="1.0" encoding="iso-8859-1"?>
<!-- Generator: Adobe Illustrator 19.0.0, SVG Export Plug-In . SVG Version: 6.00 Build 0)  -->
<svg version="1.1" id="Capa_1" xmlns="http://www.w3.org/2000/svg" xmlns:xlink="http://www.w3.org/1999/xlink" x="0px" y="0px"
	 viewBox="0 0 479.988 479.988" style="enable-background:new 0 0 479.988 479.988;" xml:space="preserve">
<g>
	<g>
		<path d="M259.928,0C150.153,0.037,60.924,88.548,60.002,198.32l-39.391,94.594c-1.699,4.077,0.228,8.759,4.305,10.459
			c0.975,0.407,2.022,0.616,3.078,0.616h64v80c-0.001,4.417,3.579,7.999,7.996,8c0.001,0,0.003,0,0.004,0h104v80
			c-0.001,4.417,3.579,7.999,7.996,8c0.001,0,0.003,0,0.004,0h240c4.417,0.001,7.999-3.579,8-7.996c0-0.001,0-0.003,0-0.004V199.933
			C459.957,89.476,370.385-0.037,259.928,0z M443.994,463.988h-224v-80c0.001-4.417-3.579-7.999-7.996-8c-0.001,0-0.003,0-0.004,0
			h-104v-80c0.001-4.417-3.579-7.999-7.996-8c-0.001,0-0.003,0-0.004,0h-60l35.383-84.98c0.407-0.974,0.617-2.019,0.617-3.074
			c0-101.62,82.38-184,184-184s184,82.38,184,184V463.988z"/>
	</g>
</g>
<g>
	<g>
		<path d="M426.722,175.986c-4.419-12.496-18.131-19.045-30.627-14.626c-6.834,2.417-12.21,7.793-14.627,14.627h-57.474v-24h24
			c4.417,0.001,7.999-3.579,8-7.996c0-0.001,0-0.003,0-0.004v-33.474c12.497-4.418,19.047-18.13,14.629-30.628
			c-4.418-12.497-18.13-19.047-30.628-14.629c-12.497,4.418-19.047,18.13-14.629,30.628c2.416,6.835,7.793,12.212,14.628,14.629
			v25.475h-16c0.001-4.417-3.579-7.999-7.996-8c-0.001,0-0.003,0-0.004,0h-24V78.514c12.497-4.418,19.047-18.13,14.629-30.628
			c-4.418-12.497-18.13-19.047-30.628-14.629c-12.497,4.418-19.047,18.13-14.629,30.628c2.416,6.835,7.793,12.212,14.628,14.629
			v49.475h-16v-16c0.001-4.417-3.579-7.999-7.996-8c-0.001,0-0.003,0-0.004,0h-48v-9.474c12.497-4.418,19.047-18.13,14.629-30.628
			c-4.418-12.497-18.13-19.047-30.628-14.629c-12.497,4.418-19.047,18.13-14.629,30.628c2.416,6.835,7.793,12.212,14.628,14.629
			v17.475c-0.001,4.417,3.579,7.999,7.996,8c0.001,0,0.003,0,0.004,0h48v8c-4.417-0.001-7.999,3.579-8,7.996
			c0,0.001,0,0.003,0,0.004v16h-40v-8c0.001-4.417-3.579-7.999-7.996-8c-0.001,0-0.003,0-0.004,0H154.52
			c-4.418-12.497-18.131-19.046-30.627-14.627s-19.046,18.131-14.627,30.627s18.131,19.046,30.627,14.627
			c6.835-2.416,12.211-7.793,14.627-14.627h25.474v8c-0.001,4.417,3.579,7.999,7.996,8c0.001,0,0.003,0,0.004,0h48v16h-64
			c-4.417-0.001-7.999,3.579-8,7.996c0,0.001,0,0.003,0,0.004v33.474c-12.497,4.418-19.046,18.131-14.627,30.627
			c4.418,12.497,18.131,19.046,30.627,14.627c12.497-4.418,19.046-18.131,14.627-30.627c-2.416-6.835-7.793-12.211-14.627-14.627
			v-25.474h56v8c-0.001,4.417,3.579,7.999,7.996,8c0.001,0,0.003,0,0.004,0h8v24h-16c-4.417-0.001-7.999,3.579-8,7.996
			c0,0.001,0,0.003,0,0.004v33.474c-12.497,4.418-19.046,18.131-14.627,30.627c4.418,12.497,18.131,19.046,30.627,14.627
			c12.497-4.418,19.046-18.131,14.627-30.627c-2.416-6.835-7.793-12.211-14.627-14.627v-25.474h16c4.417,0.001,7.999-3.579,8-7.996
			c0-0.001,0-0.003,0-0.004v-32h32v24c-0.001,4.417,3.579,7.999,7.996,8c0.001,0,0.003,0,0.004,0h40v17.474
			c-12.497,4.418-19.046,18.131-14.627,30.627s18.131,19.046,30.627,14.627c12.497-4.418,19.046-18.131,14.627-30.627
			c-2.416-6.835-7.793-12.211-14.627-14.627v-25.474c0.001-4.417-3.579-7.999-7.996-8c-0.001,0-0.003,0-0.004,0h-40v-16
			c4.417,0.001,7.999-3.579,8-7.996c0-0.001,0-0.003,0-0.004v-16h57.475c4.419,12.496,18.131,19.045,30.627,14.626
			S431.141,188.483,426.722,175.986z M347.994,79.988c4.418,0,8,3.582,8,8s-3.582,8-8,8s-8-3.582-8-8
			C339.999,83.571,343.578,79.992,347.994,79.988z M195.994,79.988c-4.418,0-8-3.582-8-8c0.004-4.416,3.584-7.996,8-8
			c4.418,0,8,3.582,8,8S200.412,79.988,195.994,79.988z M131.994,151.988c-4.418,0-8-3.582-8-8s3.582-8,8-8c4.418,0,8,3.582,8,8
			C139.99,148.404,136.411,151.983,131.994,151.988z M171.994,255.988c-4.418,0-8-3.582-8-8s3.582-8,8-8s8,3.582,8,8
			C179.99,252.404,176.411,255.983,171.994,255.988z M235.994,311.988c-4.418,0-8-3.582-8-8s3.582-8,8-8s8,3.582,8,8
			C243.99,308.404,240.411,311.983,235.994,311.988z M355.994,279.988c4.418,0,8,3.582,8,8c-0.004,4.416-3.584,7.996-8,8
			c-4.418,0-8-3.582-8-8S351.576,279.988,355.994,279.988z M283.994,47.988c4.418,0,8,3.582,8,8s-3.582,8-8,8s-8-3.582-8-8
			C275.999,51.571,279.578,47.992,283.994,47.988z M307.994,199.988h-56v-56h56V199.988z M403.994,191.988c-4.418,0-8-3.582-8-8
			c0.004-4.416,3.584-7.996,8-8c4.418,0,8,3.582,8,8S408.412,191.988,403.994,191.988z"/>
	</g>
</g>
<g>
</g>
<g>
</g>
<g>
</g>
<g>
</g>
<g>
</g>
<g>
</g>
<g>
</g>
<g>
</g>
<g>
</g>
<g>
</g>
<g>
</g>
<g>
</g>
<g>
</g>
<g>
</g>
<g>
</g>
</svg>
