<?xml version="1.0" encoding="iso-8859-1"?>
<!-- Generator: Adobe Illustrator 19.0.0, SVG Export Plug-In . SVG Version: 6.00 Build 0)  -->
<svg version="1.1" id="Capa_1" xmlns="http://www.w3.org/2000/svg" xmlns:xlink="http://www.w3.org/1999/xlink" x="0px" y="0px"
	 viewBox="0 0 480 480" style="enable-background:new 0 0 480 480;" xml:space="preserve">
<g>
	<g>
		<path d="M72.004,120c-0.001,0-0.003,0-0.004,0H40c-4.417-0.001-7.999,3.579-8,7.996c0,0.001,0,0.003,0,0.004v32
			c-0.001,4.417,3.579,7.999,7.996,8c0.001,0,0.003,0,0.004,0h32c4.417,0.001,7.999-3.579,8-7.996c0-0.001,0-0.003,0-0.004v-32
			C80.001,123.583,76.421,120.001,72.004,120z M64,152H48v-16h16V152z"/>
	</g>
</g>
<g>
	<g>
		<path d="M168.004,120c-0.001,0-0.003,0-0.004,0h-32c-4.417-0.001-7.999,3.579-8,7.996c0,0.001,0,0.003,0,0.004v32
			c-0.001,4.417,3.579,7.999,7.996,8c0.001,0,0.003,0,0.004,0h32c4.417,0.001,7.999-3.579,8-7.996c0-0.001,0-0.003,0-0.004v-32
			C176.001,123.583,172.421,120.001,168.004,120z M160,152h-16v-16h16V152z"/>
	</g>
</g>
<g>
	<g>
		<path d="M264.004,120c-0.001,0-0.003,0-0.004,0h-32c-4.417-0.001-7.999,3.579-8,7.996c0,0.001,0,0.003,0,0.004v32
			c-0.001,4.417,3.579,7.999,7.996,8c0.001,0,0.003,0,0.004,0h32c4.417,0.001,7.999-3.579,8-7.996c0-0.001,0-0.003,0-0.004v-32
			C272.001,123.583,268.421,120.001,264.004,120z M256,152h-16v-16h16V152z"/>
	</g>
</g>
<g>
	<g>
		<path d="M72.004,208c-0.001,0-0.003,0-0.004,0H40c-4.417-0.001-7.999,3.579-8,7.996c0,0.001,0,0.003,0,0.004v32
			c-0.001,4.417,3.579,7.999,7.996,8c0.001,0,0.003,0,0.004,0h32c4.417,0.001,7.999-3.579,8-7.996c0-0.001,0-0.003,0-0.004v-32
			C80.001,211.583,76.421,208.001,72.004,208z M64,240H48v-16h16V240z"/>
	</g>
</g>
<g>
	<g>
		<path d="M168.004,208c-0.001,0-0.003,0-0.004,0h-32c-4.417-0.001-7.999,3.579-8,7.996c0,0.001,0,0.003,0,0.004v32
			c-0.001,4.417,3.579,7.999,7.996,8c0.001,0,0.003,0,0.004,0h32c4.417,0.001,7.999-3.579,8-7.996c0-0.001,0-0.003,0-0.004v-32
			C176.001,211.583,172.421,208.001,168.004,208z M160,240h-16v-16h16V240z"/>
	</g>
</g>
<g>
	<g>
		<path d="M264.004,208c-0.001,0-0.003,0-0.004,0h-32c-4.417-0.001-7.999,3.579-8,7.996c0,0.001,0,0.003,0,0.004v32
			c-0.001,4.417,3.579,7.999,7.996,8c0.001,0,0.003,0,0.004,0h32c4.417,0.001,7.999-3.579,8-7.996c0-0.001,0-0.003,0-0.004v-32
			C272.001,211.583,268.421,208.001,264.004,208z M256,240h-16v-16h16V240z"/>
	</g>
</g>
<g>
	<g>
		<path d="M72.004,296c-0.001,0-0.003,0-0.004,0H40c-4.417-0.001-7.999,3.579-8,7.996c0,0.001,0,0.003,0,0.004v32
			c-0.001,4.417,3.579,7.999,7.996,8c0.001,0,0.003,0,0.004,0h32c4.417,0.001,7.999-3.579,8-7.996c0-0.001,0-0.003,0-0.004v-32
			C80.001,299.583,76.421,296.001,72.004,296z M64,328H48v-16h16V328z"/>
	</g>
</g>
<g>
	<g>
		<path d="M168.004,296c-0.001,0-0.003,0-0.004,0h-32c-4.417-0.001-7.999,3.579-8,7.996c0,0.001,0,0.003,0,0.004v32
			c-0.001,4.417,3.579,7.999,7.996,8c0.001,0,0.003,0,0.004,0h32c4.417,0.001,7.999-3.579,8-7.996c0-0.001,0-0.003,0-0.004v-32
			C176.001,299.583,172.421,296.001,168.004,296z M160,328h-16v-16h16V328z"/>
	</g>
</g>
<g>
	<g>
		<path d="M264.004,296c-0.001,0-0.003,0-0.004,0h-32c-4.417-0.001-7.999,3.579-8,7.996c0,0.001,0,0.003,0,0.004v32
			c-0.001,4.417,3.579,7.999,7.996,8c0.001,0,0.003,0,0.004,0h32c4.417,0.001,7.999-3.579,8-7.996c0-0.001,0-0.003,0-0.004v-32
			C272.001,299.583,268.421,296.001,264.004,296z M256,328h-16v-16h16V328z"/>
	</g>
</g>
<g>
	<g>
		<path d="M72.004,384c-0.001,0-0.003,0-0.004,0H40c-4.417-0.001-7.999,3.579-8,7.996c0,0.001,0,0.003,0,0.004v32
			c-0.001,4.417,3.579,7.999,7.996,8c0.001,0,0.003,0,0.004,0h32c4.417,0.001,7.999-3.579,8-7.996c0-0.001,0-0.003,0-0.004v-32
			C80.001,387.583,76.421,384.001,72.004,384z M64,416H48v-16h16V416z"/>
	</g>
</g>
<g>
	<g>
		<path d="M264.004,384c-0.001,0-0.003,0-0.004,0h-32c-4.417-0.001-7.999,3.579-8,7.996c0,0.001,0,0.003,0,0.004v32
			c-0.001,4.417,3.579,7.999,7.996,8c0.001,0,0.003,0,0.004,0h32c4.417,0.001,7.999-3.579,8-7.996c0-0.001,0-0.003,0-0.004v-32
			C272.001,387.583,268.421,384.001,264.004,384z M256,416h-16v-16h16V416z"/>
	</g>
</g>
<g>
	<g>
		<path d="M472.004,200c-0.001,0-0.003,0-0.004,0h-80v-40.047c7.235,4.076,15.31,6.436,23.602,6.898
			c0.84,0.047,1.68,0.062,2.512,0.062c13.377-0.028,26.183-5.427,35.542-14.984c3.124-3.122,3.125-8.186,0.003-11.309
			c-0.001-0.001-0.002-0.002-0.003-0.003l-27.48-27.48l19.48-19.481l-11.312-11.312l-19.481,19.48l-27.48-27.48
			c-3.174-3-8.138-3-11.312,0c-19.92,20.148-19.952,52.564-0.07,72.75V200h-72V96c0.001-4.417-3.579-7.999-7.996-8
			c-0.001,0-0.003,0-0.004,0h-8V64c0.001-4.417-3.579-7.999-7.996-8c-0.001,0-0.003,0-0.004,0h-24V8
			c0.001-4.417-3.579-7.999-7.996-8c-0.001,0-0.003,0-0.004,0H56c-4.417-0.001-7.999,3.579-8,7.996C48,7.997,48,7.999,48,8v48H24
			c-4.417-0.001-7.999,3.579-8,7.996c0,0.001,0,0.003,0,0.004v24H8c-4.417-0.001-7.999,3.579-8,7.996C0,95.997,0,95.999,0,96v376
			c-0.001,4.417,3.579,7.999,7.996,8c0.001,0,0.003,0,0.004,0h464c4.417,0.001,7.999-3.579,8-7.996c0-0.001,0-0.003,0-0.004V208
			C480.001,203.583,476.421,200.001,472.004,200z M64,16h176v40H64V16z M32,72h240v16H32V72z M144,464h-32v-57.539
			c0.007-7.982,6.475-14.452,14.457-14.461H144V464z M192,464h-32v-72h17.543c7.982,0.009,14.45,6.479,14.457,14.461V464z M288,464
			h-80v-57.539c-0.018-16.814-13.643-30.441-30.457-30.461h-51.086c-16.814,0.02-30.439,13.647-30.457,30.461V464H16V104h272V464z
			 M382.336,91.922l53.754,53.758c-5.847,3.777-12.743,5.596-19.691,5.195c-10.16-0.716-19.691-5.182-26.742-12.531
			C376.352,126.653,373.275,107.139,382.336,91.922z M408,464h-48v-43.305c0.009-7.009,5.69-12.689,12.699-12.695h22.602
			c7.009,0.006,12.691,5.686,12.699,12.695V464z M464,464h-40v-43.305c-0.02-15.841-12.858-28.677-28.699-28.695h-22.602
			c-15.841,0.018-28.679,12.854-28.699,28.695V464h-40V216h160V464z"/>
	</g>
</g>
<g>
	<g>
		<path d="M408.004,232c-0.001,0-0.003,0-0.004,0h-48c-4.417-0.001-7.999,3.579-8,7.996c0,0.001,0,0.003,0,0.004v48
			c-0.001,4.417,3.579,7.999,7.996,8c0.001,0,0.003,0,0.004,0h48c4.417,0.001,7.999-3.579,8-7.996c0-0.001,0-0.003,0-0.004v-48
			C416.001,235.583,412.421,232.001,408.004,232z M400,280h-32v-32h32V280z"/>
	</g>
</g>
<g>
	<g>
		<path d="M408.004,312c-0.001,0-0.003,0-0.004,0h-48c-4.417-0.001-7.999,3.579-8,7.996c0,0.001,0,0.003,0,0.004v48
			c-0.001,4.417,3.579,7.999,7.996,8c0.001,0,0.003,0,0.004,0h48c4.417,0.001,7.999-3.579,8-7.996c0-0.001,0-0.003,0-0.004v-48
			C416.001,315.583,412.421,312.001,408.004,312z M400,360h-32v-32h32V360z"/>
	</g>
</g>
<g>
</g>
<g>
</g>
<g>
</g>
<g>
</g>
<g>
</g>
<g>
</g>
<g>
</g>
<g>
</g>
<g>
</g>
<g>
</g>
<g>
</g>
<g>
</g>
<g>
</g>
<g>
</g>
<g>
</g>
</svg>
