<?xml version="1.0" encoding="iso-8859-1"?>
<!-- Generator: Adobe Illustrator 19.0.0, SVG Export Plug-In . SVG Version: 6.00 Build 0)  -->
<svg version="1.1" id="Layer_1" xmlns="http://www.w3.org/2000/svg" xmlns:xlink="http://www.w3.org/1999/xlink" x="0px" y="0px"
	 viewBox="0 0 512 512" style="enable-background:new 0 0 512 512;" xml:space="preserve">
<g>
	<g>
		<g>
			<path d="M187.733,170.667c4.71,0,8.533-3.823,8.533-8.533v-25.6h76.8v25.6c0,4.71,3.814,8.533,8.533,8.533
				c4.719,0,8.533-3.823,8.533-8.533V128c0-4.71-3.814-8.533-8.533-8.533h-93.867c-4.71,0-8.533,3.823-8.533,8.533v34.133
				C179.2,166.844,183.023,170.667,187.733,170.667z"/>
			<path d="M179.2,230.4v34.133c0,4.71,3.823,8.533,8.533,8.533s8.533-3.823,8.533-8.533V230.4c0-4.71-3.823-8.533-8.533-8.533
				S179.2,225.69,179.2,230.4z"/>
			<path d="M238.933,102.4c4.71,0,8.533-3.823,8.533-8.533V8.533c0-4.71-3.823-8.533-8.533-8.533S230.4,3.823,230.4,8.533v85.333
				C230.4,98.577,234.223,102.4,238.933,102.4z"/>
			<path d="M281.6,230.4v34.133c0,4.71,3.814,8.533,8.533,8.533c4.719,0,8.533-3.823,8.533-8.533V230.4
				c0-4.71-3.814-8.533-8.533-8.533C285.414,221.867,281.6,225.69,281.6,230.4z"/>
			<path d="M230.4,230.4v34.133c0,4.71,3.823,8.533,8.533,8.533s8.533-3.823,8.533-8.533V230.4c0-4.71-3.823-8.533-8.533-8.533
				S230.4,225.69,230.4,230.4z"/>
			<path d="M347.341,48.725c2.483-2.441,7.714-6.059,11.059-6.059c6.878,0,8.431,4.693,8.533,8.533
				c-0.009,0.009-0.009,0.017,0,0.043c-0.009,0.009-0.009,0.026,0,0.034v0.017v0.017v0.009c0,0,0,0,0,0.009
				c0.068,4.651,3.857,8.405,8.533,8.405c4.685,0,8.491-3.772,8.533-8.448c0.102-3.934,1.673-8.619,8.533-8.619
				c3.345,0,8.576,3.618,11.034,6.033c3.336,3.337,8.73,3.337,12.066,0c3.337-3.336,3.337-8.73,0-12.066
				c-1.126-1.126-11.366-11.034-23.1-11.034c-7.475,0-13.056,2.423-17.067,5.999c-4.011-3.576-9.591-5.999-17.067-5.999
				c-11.733,0-21.973,9.907-23.1,11.034c-3.328,3.319-3.328,8.695-0.009,12.032C338.586,51.994,343.987,52.028,347.341,48.725z"/>
			<path d="M392.533,358.4c4.719,0,8.533-3.823,8.533-8.533v-51.2c0-4.71-3.814-8.533-8.533-8.533h-307.2
				c-4.71,0-8.533,3.823-8.533,8.533v51.2c0,4.71,3.823,8.533,8.533,8.533s8.533-3.823,8.533-8.533V307.2H384v42.667
				C384,354.577,387.814,358.4,392.533,358.4z"/>
			<path d="M332.8,332.8v17.067c0,4.71,3.814,8.533,8.533,8.533c4.719,0,8.533-3.823,8.533-8.533V332.8
				c0-4.71-3.814-8.533-8.533-8.533C336.614,324.267,332.8,328.09,332.8,332.8z"/>
			<path d="M341.333,273.067c4.719,0,8.533-3.823,8.533-8.533v-68.267c0-4.71-3.814-8.533-8.533-8.533h-204.8
				c-4.71,0-8.533,3.823-8.533,8.533v68.267c0,4.71,3.823,8.533,8.533,8.533s8.533-3.823,8.533-8.533V204.8H332.8v59.733
				C332.8,269.244,336.614,273.067,341.333,273.067z"/>
			<path d="M443.733,375.467h-102.4c-4.719,0-8.533,3.823-8.533,8.533v119.467c0,4.71,3.814,8.533,8.533,8.533
				c4.719,0,8.533-3.823,8.533-8.533V392.533H435.2v110.933c0,4.71,3.814,8.533,8.533,8.533s8.533-3.823,8.533-8.533V384
				C452.267,379.29,448.452,375.467,443.733,375.467z"/>
			<path d="M290.133,324.267c-4.719,0-8.533,3.823-8.533,8.533v170.667c0,4.71,3.814,8.533,8.533,8.533
				c4.719,0,8.533-3.823,8.533-8.533V332.8C298.667,328.09,294.852,324.267,290.133,324.267z"/>
			<path d="M238.933,324.267c-4.71,0-8.533,3.823-8.533,8.533v170.667c0,4.71,3.823,8.533,8.533,8.533s8.533-3.823,8.533-8.533
				V332.8C247.467,328.09,243.644,324.267,238.933,324.267z"/>
			<path d="M392.533,409.6c-4.719,0-8.533,3.823-8.533,8.533v85.333c0,4.71,3.814,8.533,8.533,8.533
				c4.719,0,8.533-3.823,8.533-8.533v-85.333C401.067,413.423,397.252,409.6,392.533,409.6z"/>
			<path d="M85.333,170.667H153.6c4.71,0,8.533-3.823,8.533-8.533c0-4.71-3.823-8.533-8.533-8.533H85.333
				c-4.702,0-8.533-3.831-8.533-8.533c0-6.34,7.612-10.718,13.158-7.142c2.338,1.51,5.265,1.775,7.834,0.734
				c2.577-1.041,4.48-3.277,5.103-5.982c1.801-7.774,8.619-13.21,16.572-13.21s14.771,5.436,16.572,13.21
				c0.623,2.705,2.526,4.941,5.103,5.982c2.577,1.041,5.495,0.777,7.834-0.734c1.434-0.922,2.987-1.391,4.625-1.391
				c4.71,0,8.533-3.823,8.533-8.533s-3.823-8.533-8.533-8.533c-1.476,0-2.944,0.128-4.386,0.384
				c-5.888-10.607-17.092-17.451-29.747-17.451c-12.655,0-23.859,6.844-29.747,17.451c-1.442-0.256-2.91-0.384-4.386-0.384
				c-14.114,0-25.6,11.486-25.6,25.6S71.219,170.667,85.333,170.667z"/>
			<path d="M460.8,204.8h-9.395c-3.959-19.447-21.197-34.133-41.805-34.133c-18.987,0-35.823,12.843-40.96,31.241
				c-1.263,4.54,1.382,9.242,5.931,10.513c4.489,1.229,9.242-1.382,10.505-5.922c3.081-11.051,13.175-18.765,24.525-18.765
				c14.114,0,25.6,11.486,25.6,25.6c0,4.71,3.814,8.533,8.533,8.533H460.8c4.71,0,8.533,3.831,8.533,8.533
				c0,4.702-3.823,8.533-8.533,8.533h-85.333c-4.719,0-8.533,3.823-8.533,8.533s3.814,8.533,8.533,8.533H460.8
				c14.114,0,25.6-11.486,25.6-25.6S474.914,204.8,460.8,204.8z"/>
			<path d="M187.733,324.267c-4.71,0-8.533,3.823-8.533,8.533v170.667c0,4.71,3.823,8.533,8.533,8.533s8.533-3.823,8.533-8.533
				V332.8C196.267,328.09,192.444,324.267,187.733,324.267z"/>
			<path d="M85.333,409.6c-4.71,0-8.533,3.823-8.533,8.533v85.333c0,4.71,3.823,8.533,8.533,8.533s8.533-3.823,8.533-8.533v-85.333
				C93.867,413.423,90.044,409.6,85.333,409.6z"/>
			<path d="M136.533,375.467h-102.4c-4.71,0-8.533,3.823-8.533,8.533v119.467c0,4.71,3.823,8.533,8.533,8.533
				c4.71,0,8.533-3.823,8.533-8.533V392.533H128v110.933c0,4.71,3.823,8.533,8.533,8.533s8.533-3.823,8.533-8.533V384
				C145.067,379.29,141.244,375.467,136.533,375.467z"/>
			<path d="M136.533,324.267c-4.71,0-8.533,3.823-8.533,8.533v17.067c0,4.71,3.823,8.533,8.533,8.533s8.533-3.823,8.533-8.533V332.8
				C145.067,328.09,141.244,324.267,136.533,324.267z"/>
		</g>
	</g>
</g>
<g>
</g>
<g>
</g>
<g>
</g>
<g>
</g>
<g>
</g>
<g>
</g>
<g>
</g>
<g>
</g>
<g>
</g>
<g>
</g>
<g>
</g>
<g>
</g>
<g>
</g>
<g>
</g>
<g>
</g>
</svg>
