<?xml version="1.0" encoding="iso-8859-1"?>
<!-- Generator: Adobe Illustrator 19.0.0, SVG Export Plug-In . SVG Version: 6.00 Build 0)  -->
<svg version="1.1" id="Layer_1" xmlns="http://www.w3.org/2000/svg" xmlns:xlink="http://www.w3.org/1999/xlink" x="0px" y="0px"
	 viewBox="0 0 512 512" style="enable-background:new 0 0 512 512;" xml:space="preserve">
<g>
	<g>
		<g>
			<path d="M452.267,51.2H59.733c-4.71,0-8.533,3.823-8.533,8.533V102.4h-8.533c-4.71,0-8.533,3.823-8.533,8.533V179.2
				c0,4.71,3.823,8.533,8.533,8.533H76.8c4.71,0,8.533-3.823,8.533-8.533v-68.267c0-4.71-3.823-8.533-8.533-8.533h-8.533V68.267
				h375.467v375.467H68.267V435.2c0-4.71-3.823-8.533-8.533-8.533S51.2,430.49,51.2,435.2v17.067c0,4.71,3.823,8.533,8.533,8.533
				h392.533c4.719,0,8.533-3.823,8.533-8.533V59.733C460.8,55.023,456.986,51.2,452.267,51.2z M68.267,170.667H51.2v-51.2h17.067
				V170.667z"/>
			<path d="M85.333,401.067V332.8c0-4.71-3.823-8.533-8.533-8.533h-8.533V213.333c0-4.71-3.823-8.533-8.533-8.533
				s-8.533,3.823-8.533,8.533v110.933h-8.533c-4.71,0-8.533,3.823-8.533,8.533v68.267c0,4.71,3.823,8.533,8.533,8.533H76.8
				C81.51,409.6,85.333,405.777,85.333,401.067z M68.267,392.533H51.2v-51.2h17.067V392.533z"/>
			<path d="M469.333,0H42.667C19.14,0,0,19.14,0,42.667v426.667C0,492.86,19.14,512,42.667,512h426.667
				C492.86,512,512,492.86,512,469.333V42.667C512,19.14,492.86,0,469.333,0z M494.933,469.333c0,14.114-11.486,25.6-25.6,25.6
				H42.667c-14.114,0-25.6-11.486-25.6-25.6V42.667c0-14.114,11.486-25.6,25.6-25.6h426.667c14.114,0,25.6,11.486,25.6,25.6V469.333
				z"/>
			<path d="M204.8,273.067c9.421,0,17.067-7.654,17.067-17.067c0-9.412-7.646-17.067-17.067-17.067
				c-9.412,0-17.067,7.654-17.067,17.067C187.733,265.412,195.388,273.067,204.8,273.067z"/>
			<path d="M401.067,375.467c4.719,0,8.533-3.823,8.533-8.533V145.067c0-4.71-3.814-8.533-8.533-8.533h-34.133
				c-4.719,0-8.533,3.823-8.533,8.533v221.867c0,4.71,3.814,8.533,8.533,8.533H401.067z M375.467,153.6h17.067v204.8h-17.067V153.6z
				"/>
			<path d="M128,247.467c-4.71,0-8.533,3.823-8.533,8.533s3.823,8.533,8.533,8.533h9.122c1.562,12.442,6.477,23.825,13.815,33.263
				l-6.468,6.477c-3.337,3.328-3.337,8.73,0,12.066c1.664,1.664,3.849,2.5,6.033,2.5c2.185,0,4.361-0.836,6.033-2.5l6.477-6.477
				c9.438,7.339,20.821,12.254,33.263,13.815v9.122c0,4.71,3.823,8.533,8.533,8.533s8.533-3.823,8.533-8.533v-9.122
				c12.442-1.57,23.825-6.485,33.263-13.824l6.477,6.477c1.673,1.664,3.849,2.5,6.033,2.5c2.185,0,4.369-0.836,6.033-2.5
				c3.336-3.328,3.336-8.738,0-12.066l-6.485-6.485c7.347-9.438,12.254-20.821,13.815-33.263h9.122c4.719,0,8.533-3.823,8.533-8.533
				c0-4.71-3.814-8.533-8.533-8.533h-9.131c-1.562-12.433-6.477-23.817-13.815-33.254l6.477-6.485c3.337-3.328,3.337-8.738,0-12.066
				c-3.328-3.328-8.738-3.328-12.066,0l-6.485,6.485c-9.429-7.33-20.813-12.245-33.254-13.807l-0.009-9.139
				c0-4.71-3.823-8.525-8.533-8.525h-0.009c-4.71,0.009-8.525,3.831-8.525,8.542l0.009,9.122
				c-12.433,1.57-23.817,6.477-33.254,13.815l-6.494-6.477c-3.337-3.337-8.738-3.337-12.066,0.009
				c-3.328,3.328-3.319,8.738,0.009,12.066l6.485,6.477c-7.339,9.429-12.254,20.813-13.815,33.254H128z M204.8,204.8
				c28.237,0,51.2,22.963,51.2,51.2c0,28.228-22.946,51.191-51.174,51.2h-0.017h-0.017c-28.228,0-51.191-22.972-51.191-51.2
				C153.6,227.763,176.563,204.8,204.8,204.8z"/>
		</g>
	</g>
</g>
<g>
</g>
<g>
</g>
<g>
</g>
<g>
</g>
<g>
</g>
<g>
</g>
<g>
</g>
<g>
</g>
<g>
</g>
<g>
</g>
<g>
</g>
<g>
</g>
<g>
</g>
<g>
</g>
<g>
</g>
</svg>
