<?xml version="1.0" encoding="iso-8859-1"?>
<!-- Generator: Adobe Illustrator 19.0.0, SVG Export Plug-In . SVG Version: 6.00 Build 0)  -->
<svg version="1.1" id="Capa_1" xmlns="http://www.w3.org/2000/svg" xmlns:xlink="http://www.w3.org/1999/xlink" x="0px" y="0px"
	 viewBox="0 0 480.005 480.005" style="enable-background:new 0 0 480.005 480.005;" xml:space="preserve">
<g>
	<g>
		<path d="M472.012,232.005c-0.003,0-0.006,0-0.009,0h-80V91.372c-0.009-14.936-8.802-28.469-22.445-34.547L243.252,0.692
			c-4.037-1.795-8.764,0.022-10.56,4.058c-0.456,1.024-0.691,2.133-0.69,3.254v128h-48c-4.416-0.003-7.997,3.575-8,7.991
			c0,0.003,0,0.006,0,0.009v16h-72v-38.167c1.81-1.456,3.542-3.006,5.188-4.646c25.175-24.973,25.385-65.612,0.469-90.844
			c-3.122-3.124-8.186-3.125-11.309-0.003c-0.001,0.001-0.002,0.002-0.003,0.003L64.002,60.692L45.658,42.349L34.346,53.661
			L52.69,72.005l-34.344,34.344c-3.124,3.122-3.125,8.186-0.003,11.309c0.001,0.001,0.002,0.002,0.003,0.003
			c11.93,11.927,28.123,18.605,44.992,18.555c8.462-0.005,16.841-1.667,24.664-4.891v28.68h-80c-4.416-0.003-7.997,3.575-8,7.991
			c0,0.003,0,0.006,0,0.009v304c-0.003,4.416,3.575,7.997,7.991,8c0.003,0,0.006,0,0.009,0h464c4.416,0.003,7.997-3.575,8-7.991
			c0-0.003,0-0.006,0-0.009v-232C480.005,235.589,476.427,232.007,472.012,232.005z M35.791,111.528l67.734-67.734
			c15.273,22.136,9.709,52.462-12.427,67.734C74.452,123.014,52.438,123.014,35.791,111.528z M112.002,464.005h-32v-32h32V464.005z
			 M80.846,416.005H52.534c-1.415-0.049-2.713-0.795-3.469-1.992c-1.199-1.85-1.381-4.181-0.484-6.195l23.297-71.961l15.714,48.019
			l-6.073,18.567C79.883,406.782,79.648,411.525,80.846,416.005z M96.581,407.817l23.422-71.57l23.563,71.977
			c0.761,1.914,0.527,4.081-0.625,5.789c-0.756,1.197-2.054,1.943-3.469,1.992h-38.937c-1.415-0.049-2.713-0.795-3.469-1.992
			C95.866,412.162,95.684,409.831,96.581,407.817z M176.002,464.005h-48v-32h11.469c6.702-0.003,12.958-3.361,16.664-8.945
			c4.087-5.924,5.017-13.472,2.492-20.211l-23.688-72.359c-2.982-8.25-12.086-12.52-20.336-9.539
			c-4.439,1.604-7.934,5.1-9.539,9.539c-0.054,0.13-0.101,0.263-0.141,0.398l-8.922,27.276l-9.062-27.675
			c-2.982-8.251-12.089-12.521-20.339-9.539c-4.578,1.655-8.144,5.317-9.677,9.937l-23.406,71.555
			c-2.667,6.839-1.787,14.554,2.352,20.617c3.706,5.584,9.962,8.942,16.664,8.945h11.469v32h-48v-288h160V464.005z M464.002,464.005
			h-272v-312h48c4.416,0.003,7.997-3.575,8-7.991c0-0.003,0-0.006,0-0.009V20.317L363.057,71.45
			c7.871,3.501,12.944,11.307,12.945,19.922v148.633c-0.003,4.416,3.575,7.997,7.991,8c0.003,0,0.006,0,0.009,0h80V464.005z"/>
	</g>
</g>
<g>
	<g>
		<path d="M424.012,272.005c-0.003,0-0.006,0-0.009,0h-32c-4.416-0.003-7.997,3.575-8,7.991c0,0.003,0,0.006,0,0.009v32
			c-0.003,4.416,3.575,7.997,7.991,8c0.003,0,0.006,0,0.009,0h32c4.416,0.003,7.997-3.575,8-7.991c0-0.003,0-0.006,0-0.009v-32
			C432.005,275.589,428.427,272.007,424.012,272.005z M416.002,304.005h-16v-16h16V304.005z"/>
	</g>
</g>
<g>
	<g>
		<path d="M424.012,336.005c-0.003,0-0.006,0-0.009,0h-32c-4.416-0.003-7.997,3.575-8,7.991c0,0.003,0,0.006,0,0.009v32
			c-0.003,4.416,3.575,7.997,7.991,8c0.003,0,0.006,0,0.009,0h32c4.416,0.003,7.997-3.575,8-7.991c0-0.003,0-0.006,0-0.009v-32
			C432.005,339.589,428.427,336.007,424.012,336.005z M416.002,368.005h-16v-16h16V368.005z"/>
	</g>
</g>
<g>
	<g>
		<path d="M424.012,400.005c-0.003,0-0.006,0-0.009,0h-32c-4.416-0.003-7.997,3.575-8,7.991c0,0.003,0,0.006,0,0.009v32
			c-0.003,4.416,3.575,7.997,7.991,8c0.003,0,0.006,0,0.009,0h32c4.416,0.003,7.997-3.575,8-7.991c0-0.003,0-0.006,0-0.009v-32
			C432.005,403.589,428.427,400.007,424.012,400.005z M416.002,432.005h-16v-16h16V432.005z"/>
	</g>
</g>
<g>
	<g>
		<path d="M256.012,272.005c-0.003,0-0.006,0-0.009,0h-32c-4.416-0.003-7.997,3.575-8,7.991c0,0.003,0,0.006,0,0.009v32
			c-0.003,4.416,3.575,7.997,7.991,8c0.003,0,0.006,0,0.009,0h32c4.416,0.003,7.997-3.575,8-7.991c0-0.003,0-0.006,0-0.009v-32
			C264.005,275.589,260.427,272.007,256.012,272.005z M248.002,304.005h-16v-16h16V304.005z"/>
	</g>
</g>
<g>
	<g>
		<path d="M256.012,336.005c-0.003,0-0.006,0-0.009,0h-32c-4.416-0.003-7.997,3.575-8,7.991c0,0.003,0,0.006,0,0.009v32
			c-0.003,4.416,3.575,7.997,7.991,8c0.003,0,0.006,0,0.009,0h32c4.416,0.003,7.997-3.575,8-7.991c0-0.003,0-0.006,0-0.009v-32
			C264.005,339.589,260.427,336.007,256.012,336.005z M248.002,368.005h-16v-16h16V368.005z"/>
	</g>
</g>
<g>
	<g>
		<path d="M256.012,208.005c-0.003,0-0.006,0-0.009,0h-32c-4.416-0.003-7.997,3.575-8,7.991c0,0.003,0,0.006,0,0.009v32
			c-0.003,4.416,3.575,7.997,7.991,8c0.003,0,0.006,0,0.009,0h32c4.416,0.003,7.997-3.575,8-7.991c0-0.003,0-0.006,0-0.009v-32
			C264.005,211.589,260.427,208.007,256.012,208.005z M248.002,240.005h-16v-16h16V240.005z"/>
	</g>
</g>
<g>
	<g>
		<path d="M72.012,192.005c-0.003,0-0.006,0-0.009,0h-32c-4.416-0.003-7.997,3.575-8,7.991c0,0.003,0,0.006,0,0.009v32
			c-0.003,4.416,3.575,7.997,7.991,8c0.003,0,0.006,0,0.009,0h32c4.416,0.003,7.997-3.575,8-7.991c0-0.003,0-0.006,0-0.009v-32
			C80.005,195.589,76.427,192.007,72.012,192.005z M64.002,224.005h-16v-16h16V224.005z"/>
	</g>
</g>
<g>
	<g>
		<path d="M144.012,192.005c-0.003,0-0.006,0-0.009,0h-32c-4.416-0.003-7.997,3.575-8,7.991c0,0.003,0,0.006,0,0.009v32
			c-0.003,4.416,3.575,7.997,7.991,8c0.003,0,0.006,0,0.009,0h32c4.416,0.003,7.997-3.575,8-7.991c0-0.003,0-0.006,0-0.009v-32
			C152.005,195.589,148.427,192.007,144.012,192.005z M136.002,224.005h-16v-16h16V224.005z"/>
	</g>
</g>
<g>
	<g>
		<path d="M72.012,256.005c-0.003,0-0.006,0-0.009,0h-32c-4.416-0.003-7.997,3.575-8,7.991c0,0.003,0,0.006,0,0.009v32
			c-0.003,4.416,3.575,7.997,7.991,8c0.003,0,0.006,0,0.009,0h32c4.416,0.003,7.997-3.575,8-7.991c0-0.003,0-0.006,0-0.009v-32
			C80.005,259.589,76.427,256.007,72.012,256.005z M64.002,288.005h-16v-16h16V288.005z"/>
	</g>
</g>
<g>
	<g>
		<path d="M144.012,256.005c-0.003,0-0.006,0-0.009,0h-32c-4.416-0.003-7.997,3.575-8,7.991c0,0.003,0,0.006,0,0.009v32
			c-0.003,4.416,3.575,7.997,7.991,8c0.003,0,0.006,0,0.009,0h32c4.416,0.003,7.997-3.575,8-7.991c0-0.003,0-0.006,0-0.009v-32
			C152.005,259.589,148.427,256.007,144.012,256.005z M136.002,288.005h-16v-16h16V288.005z"/>
	</g>
</g>
<g>
	<g>
		<path d="M256.012,400.005c-0.003,0-0.006,0-0.009,0h-32c-4.416-0.003-7.997,3.575-8,7.991c0,0.003,0,0.006,0,0.009v32
			c-0.003,4.416,3.575,7.997,7.991,8c0.003,0,0.006,0,0.009,0h32c4.416,0.003,7.997-3.575,8-7.991c0-0.003,0-0.006,0-0.009v-32
			C264.005,403.589,260.427,400.007,256.012,400.005z M248.002,432.005h-16v-16h16V432.005z"/>
	</g>
</g>
<g>
	<g>
		<path d="M336.012,88.005c-0.003,0-0.006,0-0.009,0h-32c-4.416-0.003-7.997,3.575-8,7.991c0,0.003,0,0.006,0,0.009v344
			c-0.003,4.416,3.575,7.997,7.991,8c0.003,0,0.006,0,0.009,0h32c4.416,0.003,7.997-3.575,8-7.991c0-0.003,0-0.006,0-0.009v-344
			C344.005,91.589,340.427,88.007,336.012,88.005z M328.002,432.005h-16v-328h16V432.005z"/>
	</g>
</g>
<g>
</g>
<g>
</g>
<g>
</g>
<g>
</g>
<g>
</g>
<g>
</g>
<g>
</g>
<g>
</g>
<g>
</g>
<g>
</g>
<g>
</g>
<g>
</g>
<g>
</g>
<g>
</g>
<g>
</g>
</svg>
