<?xml version="1.0" encoding="iso-8859-1"?>
<!-- Generator: Adobe Illustrator 19.0.0, SVG Export Plug-In . SVG Version: 6.00 Build 0)  -->
<svg version="1.1" id="Layer_1" xmlns="http://www.w3.org/2000/svg" xmlns:xlink="http://www.w3.org/1999/xlink" x="0px" y="0px"
	 viewBox="0 0 511.999 511.999" style="enable-background:new 0 0 511.999 511.999;" xml:space="preserve">
<g>
	<g>
		<path d="M212.164,212.201c7.483-6.361,12.245-15.833,12.245-26.403c0-19.109-15.545-34.654-34.654-34.654h-26.403
			c-4.557,0-8.251,3.694-8.251,8.251v96.808c0,4.558,3.694,8.252,8.251,8.252c4.557,0,8.251-3.694,8.251-8.251v-35.753h18.151
			c10.008,0,18.151,8.142,18.151,18.151v17.601c0,4.557,3.694,8.251,8.251,8.251c4.557,0,8.251-3.694,8.251-8.251v-17.601
			C224.409,228.036,219.648,218.562,212.164,212.201z M189.755,203.951h-18.151v-36.303h18.151c10.008,0,18.151,8.142,18.151,18.151
			C207.907,195.808,199.765,203.951,189.755,203.951z"/>
	</g>
</g>
<g>
	<g>
		<path d="M333.245,151.145h-26.403c-4.558,0-8.251,3.694-8.251,8.251v96.808c0,4.558,3.693,8.252,8.251,8.252
			c4.558,0,8.251-3.694,8.251-8.251v-35.753h18.151c19.107,0,34.654-15.545,34.654-34.654S352.353,151.145,333.245,151.145z
			 M333.245,203.951h-18.151v-36.303h18.151c10.009,0,18.151,8.142,18.151,18.151C351.397,195.808,343.254,203.951,333.245,203.951z
			"/>
	</g>
</g>
<g>
	<g>
		<path d="M260.414,151.146c-4.557,0-8.251,3.694-8.251,8.251v96.808c0,4.557,3.693,8.251,8.251,8.251
			c4.558,0,8.251-3.694,8.251-8.251v-96.808C268.665,154.84,264.972,151.146,260.414,151.146z"/>
	</g>
</g>
<g>
	<g>
		<path d="M358.309,284.486H153.69c-4.557,0-8.251,3.694-8.251,8.251s3.694,8.251,8.251,8.251h204.619
			c4.557,0,8.251-3.693,8.251-8.251C366.56,288.18,362.867,284.486,358.309,284.486z"/>
	</g>
</g>
<g>
	<g>
		<path d="M335.059,319.14H176.94c-4.557,0-8.251,3.694-8.251,8.251s3.694,8.251,8.251,8.251h158.121c4.557,0,8.25-3.694,8.25-8.251
			S339.617,319.14,335.059,319.14z"/>
	</g>
</g>
<g>
	<g>
		<path d="M508.168,470.663c-12.293-7.924-24.913-15.225-37.809-21.915c2.612-9.663,11.315-32.998,35.583-39.698
			c4.392-1.212,6.971-5.757,5.757-10.15c-1.214-4.392-5.75-6.973-10.15-5.757c-14.496,4.002-24.782,12.219-32.029,21.206
			c0.44-22.133,9.267-42.874,24.965-58.572c3.223-3.222,3.223-8.446,0.001-11.668c-3.223-3.222-8.448-3.222-11.668,0
			c-14.52,14.518-24.103,32.653-27.932,52.371c-4.218-6.961-9.299-13.465-15.201-19.367c-3.221-3.221-8.446-3.222-11.668,0
			s-3.222,8.447,0.001,11.669c13.94,13.94,22.449,31.858,24.491,51.192c-11.474-5.341-23.144-10.208-34.988-14.583V187.673
			c0-89.065-72.46-161.525-161.525-161.525c-89.059,0-161.514,72.459-161.514,161.525v237.716
			c-11.846,4.375-23.517,9.242-34.992,14.584c2.043-19.335,10.55-37.253,24.491-51.192c3.222-3.222,3.222-8.446,0-11.668
			c-3.222-3.222-8.447-3.222-11.668,0c-5.902,5.902-10.982,12.406-15.2,19.366c-3.829-19.717-13.412-37.851-27.931-52.37
			c-3.222-3.222-8.447-3.222-11.668,0c-3.222,3.222-3.222,8.447,0,11.668c15.699,15.7,24.525,36.442,24.966,58.573
			c-7.247-8.988-17.532-17.204-32.03-21.207c-4.392-1.212-8.937,1.364-10.15,5.757c-1.213,4.393,1.365,8.938,5.757,10.15
			c24.279,6.703,32.979,30.053,35.586,39.697c-12.896,6.69-25.517,13.992-37.811,21.916c-3.076,1.982-4.479,5.754-3.445,9.266
			c1.033,3.511,4.255,5.921,7.916,5.921h495.395c3.659,0,6.881-2.41,7.915-5.921C512.645,476.418,511.244,472.646,508.168,470.663z
			 M110.984,187.673L110.984,187.673c0-79.966,65.052-145.022,145.011-145.022c79.966,0,145.022,65.057,145.022,145.022v231.979
			c-46.48-15.2-95.348-23.048-145.019-23.048c-49.67,0-98.536,7.849-145.015,23.047V187.673z M38.125,469.347
			c66.437-36.875,141.169-56.242,217.874-56.242s151.436,19.367,217.874,56.242H38.125z"/>
	</g>
</g>
<g>
</g>
<g>
</g>
<g>
</g>
<g>
</g>
<g>
</g>
<g>
</g>
<g>
</g>
<g>
</g>
<g>
</g>
<g>
</g>
<g>
</g>
<g>
</g>
<g>
</g>
<g>
</g>
<g>
</g>
</svg>
