<?xml version="1.0" ?>
<!DOCTYPE svg  PUBLIC '-//W3C//DTD SVG 1.1//EN'  'http://www.w3.org/Graphics/SVG/1.1/DTD/svg11.dtd'>
<!-- Uploaded to: SVG Repo, www.svgrepo.com, Generator: SVG Repo Mixer Tools -->
<svg width="800px" height="800px" viewBox="0 0 32 32" enable-background="new 0 0 32 32" id="_x3C_Layer_x3E_" version="1.1" xml:space="preserve" xmlns="http://www.w3.org/2000/svg" xmlns:xlink="http://www.w3.org/1999/xlink">
<g id="Airplane_x2C__plane_x2C__flight_2_">
<g id="XMLID_109_">
<path d="    M11.557,17.526l-2.438,3.169C8.866,21.023,9.101,21.5,9.516,21.5h1.322c0.105,0,0.208-0.033,0.293-0.095l8.139-5.878" fill="none" id="XMLID_110_" stroke="#263238" stroke-linecap="round" stroke-linejoin="round" stroke-miterlimit="10"/>
<path d="    M26.29,11.5H19.5l-5.85-7.8c-0.09-0.131-0.24-0.2-0.4-0.2h-1.61c-0.32,0-0.56,0.311-0.48,0.62L13,11.5H6.57    c-0.67,0-1.29-0.33-1.66-0.89L3.65,8.72C3.56,8.58,3.4,8.5,3.23,8.5H2.21c-0.35,0-0.59,0.34-0.47,0.67l1.07,3.01    c0.72,1.99,2.6,3.32,4.71,3.32H29.2c0.72,0,1.3-0.58,1.3-1.3c0-0.44-0.22-0.84-0.58-1.09l-1.41-0.94    C27.85,11.73,27.08,11.5,26.29,11.5z" fill="none" id="XMLID_111_" stroke="#263238" stroke-linecap="round" stroke-linejoin="round" stroke-miterlimit="10"/>
<g id="XMLID_132_">
<g id="XMLID_3384_">
<line fill="none" id="XMLID_3385_" stroke="#263238" stroke-linecap="round" stroke-linejoin="round" stroke-miterlimit="10" x1="23.6" x2="23.5" y1="13.5" y2="13.5"/>
</g>
<g id="XMLID_3382_">
<line fill="none" id="XMLID_3383_" stroke="#263238" stroke-linecap="round" stroke-linejoin="round" stroke-miterlimit="10" x1="21.6" x2="21.5" y1="13.5" y2="13.5"/>
</g>
<g id="XMLID_3380_">
<line fill="none" id="XMLID_3381_" stroke="#263238" stroke-linecap="round" stroke-linejoin="round" stroke-miterlimit="10" x1="19.6" x2="19.5" y1="13.5" y2="13.5"/>
</g>
<g id="XMLID_3378_">
<line fill="none" id="XMLID_3379_" stroke="#263238" stroke-linecap="round" stroke-linejoin="round" stroke-miterlimit="10" x1="17.6" x2="17.5" y1="13.5" y2="13.5"/>
</g>
<g id="XMLID_3374_">
<line fill="none" id="XMLID_3375_" stroke="#263238" stroke-linecap="round" stroke-linejoin="round" stroke-miterlimit="10" x1="15.6" x2="15.5" y1="13.5" y2="13.5"/>
</g>
<g id="XMLID_3372_">
<line fill="none" id="XMLID_3373_" stroke="#263238" stroke-linecap="round" stroke-linejoin="round" stroke-miterlimit="10" x1="13.6" x2="13.5" y1="13.5" y2="13.5"/>
</g>
<g id="XMLID_3345_">
<line fill="none" id="XMLID_3355_" stroke="#263238" stroke-linecap="round" stroke-linejoin="round" stroke-miterlimit="10" x1="11.6" x2="11.5" y1="13.5" y2="13.5"/>
</g>
<g id="XMLID_3343_">
<line fill="none" id="XMLID_3344_" stroke="#263238" stroke-linecap="round" stroke-linejoin="round" stroke-miterlimit="10" x1="9.6" x2="9.5" y1="13.5" y2="13.5"/>
</g>
</g>
<g id="XMLID_133_">
<path d="M8.031,24.249     C7.426,23.203,6.295,22.5,5,22.5c-1.934,0-3.5,1.566-3.5,3.5c0,1.933,1.566,3.5,3.5,3.5" fill="none" id="XMLID_134_" stroke="#263238" stroke-linecap="round" stroke-miterlimit="10"/>
<path d="     M10.999,28.502C11.313,28.084,11.5,27.563,11.5,27c0-1.381-1.119-2.5-2.5-2.5c-0.73,0-1.389,0.313-1.846,0.813" fill="none" id="XMLID_135_" stroke="#263238" stroke-linecap="round" stroke-linejoin="round" stroke-miterlimit="10"/>
</g>
<g id="XMLID_137_">
<g id="XMLID_139_">
<path d="      M17.256,24.499c0.618-1.747,2.285-2.999,4.244-2.999c1.711,0,3.199,0.955,3.96,2.36" fill="none" id="XMLID_142_" stroke="#263238" stroke-linecap="round" stroke-linejoin="round" stroke-miterlimit="10"/>
<path d="      M13.541,28.535C13.514,28.361,13.5,28.182,13.5,28c0-1.934,1.566-3.5,3.5-3.5c0.549,0,1.069,0.127,1.531,0.353" fill="none" id="XMLID_146_" stroke="#263238" stroke-linecap="round" stroke-linejoin="round" stroke-miterlimit="10"/>
</g>
<path d="     M23.837,25.499C24.398,24.317,25.604,23.5,27,23.5c1.934,0,3.5,1.566,3.5,3.5c0,1.933-1.566,3.5-3.5,3.5H16.5" fill="none" id="XMLID_147_" stroke="#263238" stroke-linecap="round" stroke-linejoin="round" stroke-miterlimit="10"/>
</g>
</g>
</g>
</svg>