<?xml version="1.0" ?>
<!DOCTYPE svg  PUBLIC '-//W3C//DTD SVG 1.1//EN'  'http://www.w3.org/Graphics/SVG/1.1/DTD/svg11.dtd'>
<!-- Uploaded to: SVG Repo, www.svgrepo.com, Generator: SVG Repo Mixer Tools -->
<svg width="800px" height="800px" viewBox="0 0 32 32" enable-background="new 0 0 32 32" id="_x3C_Layer_x3E_" version="1.1" xml:space="preserve" xmlns="http://www.w3.org/2000/svg" xmlns:xlink="http://www.w3.org/1999/xlink">
<g id="cyclist_x2C__bike">
<g id="XMLID_551_">
<circle cx="21" cy="5.5" fill="none" id="XMLID_552_" r="2.5" stroke="#263238" stroke-linecap="round" stroke-linejoin="round" stroke-miterlimit="10"/>
<path d="    M16.71,25.516L18,19.479c0-0.468-0.219-0.908-0.59-1.192l-3.194-2.437l3.331-3.641l2.655,2.959    c0.189,0.211,0.46,0.332,0.744,0.332H25c0.553,0,1-0.447,1-1s-0.447-1-1-1h-3.586l-2.42-3.571    c-1.533-2.263-4.834-2.356-6.492-0.183l-2.913,3.818c-0.86,1.157-0.568,2.801,0.64,3.588L15,20.264l-0.362,5.241    c-0.074,1.079,0.78,1.995,1.862,1.995l0,0" fill="none" id="XMLID_553_" stroke="#263238" stroke-linecap="round" stroke-linejoin="round" stroke-miterlimit="10"/>
<line fill="none" id="XMLID_554_" stroke="#263238" stroke-linecap="round" stroke-linejoin="round" stroke-miterlimit="10" x1="7" x2="7.101" y1="25" y2="25"/>
<line fill="none" id="XMLID_555_" stroke="#263238" stroke-linecap="round" stroke-linejoin="round" stroke-miterlimit="10" x1="25" x2="25.101" y1="25" y2="25"/>
</g>
<circle cx="25" cy="25.063" fill="none" id="XMLID_547_" r="5.5" stroke="#263238" stroke-linecap="round" stroke-linejoin="round" stroke-miterlimit="10"/>
<circle cx="7" cy="25.063" fill="none" id="XMLID_556_" r="5.5" stroke="#263238" stroke-linecap="round" stroke-linejoin="round" stroke-miterlimit="10"/>
<line fill="none" id="XMLID_557_" stroke="#263238" stroke-linecap="round" stroke-linejoin="round" stroke-miterlimit="10" x1="14.5" x2="6.5" y1="4.5" y2="4.5"/>
<line fill="none" id="XMLID_558_" stroke="#263238" stroke-linecap="round" stroke-linejoin="round" stroke-miterlimit="10" x1="2.5" x2="9.5" y1="7.5" y2="7.5"/>
</g>
</svg>