<?xml version="1.0" ?>
<!DOCTYPE svg  PUBLIC '-//W3C//DTD SVG 1.1//EN'  'http://www.w3.org/Graphics/SVG/1.1/DTD/svg11.dtd'>
<!-- Uploaded to: SVG Repo, www.svgrepo.com, Generator: SVG Repo Mixer Tools -->
<svg width="800px" height="800px" viewBox="0 0 32 32" enable-background="new 0 0 32 32" id="_x3C_Layer_x3E_" version="1.1" xml:space="preserve" xmlns="http://www.w3.org/2000/svg" xmlns:xlink="http://www.w3.org/1999/xlink">
<g id="car_x2C__sedan_x2C__automobile_x2C__vehicle">
<g id="XMLID_716_">
<line fill="none" id="XMLID_717_" stroke="#263238" stroke-linecap="round" stroke-linejoin="round" stroke-miterlimit="10" x1="30.5" x2="12.5" y1="29.5" y2="29.5"/>
<line fill="none" id="XMLID_718_" stroke="#263238" stroke-linecap="round" stroke-linejoin="round" stroke-miterlimit="10" x1="23" x2="3.5" y1="27.5" y2="27.5"/>
<line fill="none" id="XMLID_719_" stroke="#263238" stroke-linecap="round" stroke-linejoin="round" stroke-miterlimit="10" x1="1.6" x2="1.5" y1="27.5" y2="27.5"/>
<line fill="none" id="XMLID_720_" stroke="#263238" stroke-linecap="round" stroke-linejoin="round" stroke-miterlimit="10" x1="10.5" x2="19" y1="24.5" y2="24.5"/>
<path d="    M26.5,24.5h2c1.08,0,1.96-0.86,2-1.93c-0.04-2.79-1.73-5.29-4.31-6.36l-0.33-0.14c-0.891-0.38-1.681-0.96-2.301-1.7l-0.46-0.55    C20.82,11.08,17.44,9.5,13.88,9.5h-2.63c-2.34,0-4.53,1.17-5.83,3.12l-0.37,0.55c-0.359,0.55-0.83,1.02-1.38,1.38l-1.28,0.86    C1.83,15.78,1.5,16.4,1.5,17.07v5.43c0,0.911,0.617,1.685,1.454,1.924" fill="none" id="XMLID_721_" stroke="#263238" stroke-linecap="round" stroke-linejoin="round" stroke-miterlimit="10"/>
<path d="    M14.5,15.5h10.33c-0.47-0.32-0.91-0.69-1.271-1.13l-0.46-0.55C20.82,11.08,17.44,9.5,13.88,9.5h-2.63c-1.46,0-2.86,0.46-4.02,1.27    " fill="none" id="XMLID_722_" stroke="#263238" stroke-linecap="round" stroke-linejoin="round" stroke-miterlimit="10"/>
<path d="    M7.88,12.5l0.15,0.4c0.58,1.57,2.069,2.6,3.739,2.6h0.73" fill="none" id="XMLID_723_" stroke="#263238" stroke-linecap="round" stroke-linejoin="round" stroke-miterlimit="10"/>
<path d="M10.5,24.5c0,1.66-1.34,3-3,3s-3-1.34-3-3    s1.34-3,3-3S10.5,22.84,10.5,24.5z" fill="none" id="XMLID_724_" stroke="#263238" stroke-miterlimit="10"/>
<circle cx="7.5" cy="24.5" fill="none" id="XMLID_725_" r="1" stroke="#263238" stroke-miterlimit="10"/>
<path d="M26.5,24.5c0,1.66-1.34,3-3,3s-3-1.34-3-3    s1.34-3,3-3S26.5,22.84,26.5,24.5z" fill="none" id="XMLID_726_" stroke="#263238" stroke-miterlimit="10"/>
<circle cx="23.5" cy="24.5" fill="none" id="XMLID_727_" r="1" stroke="#263238" stroke-miterlimit="10"/>
<polyline fill="none" id="XMLID_728_" points="    23.5,15.5 14.5,15.5 14,11   " stroke="#263238" stroke-linecap="round" stroke-linejoin="round" stroke-miterlimit="10"/>
<path d="    M29.1,18.5H26l0.12,0.49c0.22,0.89,1.02,1.51,1.939,1.51h0.591" fill="none" id="XMLID_729_" stroke="#263238" stroke-linecap="round" stroke-linejoin="round" stroke-miterlimit="10"/>
<line fill="none" id="XMLID_730_" stroke="#263238" stroke-linecap="round" stroke-linejoin="round" stroke-miterlimit="10" x1="3.417" x2="1.5" y1="18.5" y2="18.5"/>
<line fill="none" id="XMLID_731_" stroke="#263238" stroke-linecap="round" stroke-linejoin="round" stroke-miterlimit="10" x1="30.417" x2="28.5" y1="22.5" y2="22.5"/>
</g>
</g>
</svg>