<?xml version="1.0" ?>
<!DOCTYPE svg  PUBLIC '-//W3C//DTD SVG 1.1//EN'  'http://www.w3.org/Graphics/SVG/1.1/DTD/svg11.dtd'>
<!-- Uploaded to: SVG Repo, www.svgrepo.com, Generator: SVG Repo Mixer Tools -->
<svg width="800px" height="800px" viewBox="0 0 32 32" enable-background="new 0 0 32 32" id="_x3C_Layer_x3E_" version="1.1" xml:space="preserve" xmlns="http://www.w3.org/2000/svg" xmlns:xlink="http://www.w3.org/1999/xlink">
<g id="helicopter_tech_x2C__helicopter_x2C__flight">
<g id="XMLID_2141_">
<path d="    M26.826,19.018L18.551,21.5c0,1.66-0.67,3.16-1.76,4.24c-1.08,1.09-2.58,1.76-4.24,1.76h-10c-0.55,0-1-0.45-1-1    c0-2.76,1.12-5.26,2.93-7.07c1.811-1.81,4.311-2.93,7.07-2.93h4.59c0.9,0,1.77,0.359,2.41,1h8.064" fill="none" id="XMLID_2142_" stroke="#263238" stroke-linecap="round" stroke-linejoin="round" stroke-miterlimit="10"/>
<path d="    M26.551,18c0,1.1,0.9,2,2,2s2-0.9,2-2s-0.9-2-2-2S26.551,16.9,26.551,18z" fill="none" id="XMLID_2143_" stroke="#263238" stroke-linecap="round" stroke-linejoin="round" stroke-miterlimit="10"/>
<line fill="none" id="XMLID_2144_" stroke="#263238" stroke-linecap="round" stroke-linejoin="round" stroke-miterlimit="10" x1="1.551" x2="12.551" y1="13.5" y2="13.5"/>
<line fill="none" id="XMLID_2145_" stroke="#263238" stroke-linecap="round" stroke-linejoin="round" stroke-miterlimit="10" x1="14.551" x2="27.551" y1="13.5" y2="13.5"/>
<line fill="none" id="XMLID_2146_" stroke="#263238" stroke-linecap="round" stroke-linejoin="round" stroke-miterlimit="10" x1="14.551" x2="14.551" y1="14.5" y2="12.55"/>
<path d="    M13.551,16.5h2v-1c0-0.553-0.447-1-1-1l0,0c-0.553,0-1,0.447-1,1V16.5z" fill="none" id="XMLID_2147_" stroke="#263238" stroke-linecap="round" stroke-linejoin="round" stroke-miterlimit="10"/>
<path d="    M11.049,16.516L10.701,20c-0.26,2.55-2.41,4.5-4.971,4.5h-3.92" fill="none" id="XMLID_2148_" stroke="#263238" stroke-linecap="round" stroke-linejoin="round" stroke-miterlimit="10"/>
<line fill="none" id="XMLID_2149_" stroke="#263238" stroke-linecap="round" stroke-linejoin="round" stroke-miterlimit="10" x1="28.551" x2="28.451" y1="18" y2="18"/>
<line fill="none" id="XMLID_2150_" stroke="#263238" stroke-linecap="round" stroke-linejoin="round" stroke-miterlimit="10" x1="17.551" x2="1.551" y1="30.5" y2="30.5"/>
<path d="    M15.551,30.5v-1c0-1.104-0.896-2-2-2h-3.375H5.551c-1.104,0-2,0.896-2,2v1" fill="none" id="XMLID_2151_" stroke="#263238" stroke-linecap="round" stroke-linejoin="round" stroke-miterlimit="10"/>
<g id="XMLID_2152_">
<path d="M8.082,4.25     C7.477,3.203,6.346,2.5,5.051,2.5c-1.934,0-3.5,1.566-3.5,3.5s1.566,3.5,3.5,3.5" fill="none" id="XMLID_2153_" stroke="#263238" stroke-linecap="round" stroke-miterlimit="10"/>
<path d="     M11.05,8.502C11.364,8.084,11.551,7.563,11.551,7c0-1.381-1.119-2.5-2.5-2.5c-0.73,0-1.389,0.313-1.846,0.813" fill="none" id="XMLID_2154_" stroke="#263238" stroke-linecap="round" stroke-linejoin="round" stroke-miterlimit="10"/>
</g>
<g id="XMLID_2155_">
<g id="XMLID_2156_">
<path d="      M17.307,4.5c0.618-1.748,2.285-3,4.244-3c1.711,0,3.199,0.955,3.96,2.361" fill="none" id="XMLID_2157_" stroke="#263238" stroke-linecap="round" stroke-linejoin="round" stroke-miterlimit="10"/>
<path d="      M13.592,8.535C13.564,8.361,13.551,8.182,13.551,8c0-1.934,1.566-3.5,3.5-3.5c0.549,0,1.069,0.127,1.531,0.352" fill="none" id="XMLID_2158_" stroke="#263238" stroke-linecap="round" stroke-linejoin="round" stroke-miterlimit="10"/>
</g>
<path d="     M23.888,5.5c0.562-1.183,1.767-2,3.163-2c1.934,0,3.5,1.566,3.5,3.5s-1.566,3.5-3.5,3.5h-8.5" fill="none" id="XMLID_2159_" stroke="#263238" stroke-linecap="round" stroke-linejoin="round" stroke-miterlimit="10"/>
</g>
<line fill="none" id="XMLID_2160_" stroke="#263238" stroke-linecap="round" stroke-linejoin="round" stroke-miterlimit="10" x1="22.551" x2="25.551" y1="26.5" y2="26.5"/>
<line fill="none" id="XMLID_2161_" stroke="#263238" stroke-linecap="round" stroke-linejoin="round" stroke-miterlimit="10" x1="30.551" x2="23.551" y1="24.5" y2="24.5"/>
<line fill="none" id="XMLID_3253_" stroke="#263238" stroke-linecap="round" stroke-linejoin="round" stroke-miterlimit="10" x1="18.551" x2="18.551" y1="21.5" y2="20"/>
<line fill="none" id="XMLID_2162_" stroke="#263238" stroke-linecap="round" stroke-linejoin="round" stroke-miterlimit="10" x1="12.551" x2="14.551" y1="23.5" y2="23.5"/>
</g>
</g>
</svg>