<?xml version="1.0" ?>
<!-- Uploaded to: SVG Repo, www.svgrepo.com, Generator: SVG Repo Mixer Tools -->
<svg width="800px" height="800px" viewBox="0 0 20 20" version="1.1" xmlns="http://www.w3.org/2000/svg">
<g id="layer1">
<path d="M 5.5058594 1.9921875 C 5.2863216 1.9906151 5.0914349 2.1324229 5.0253906 2.3417969 L 0.025390625 17.341797 C -0.18554662 17.974609 0.76367212 18.291015 0.97460938 17.658203 L 5.9746094 2.6582031 C 6.0886432 2.3341172 5.8494162 1.9942155 5.5058594 1.9921875 z M 7.0078125 1.9921875 C 6.7703022 1.989649 6.5637797 2.1545405 6.5136719 2.3867188 L 3.0136719 17.386719 C 2.8181108 18.062031 3.8633485 18.3055 3.9863281 17.613281 L 7.4863281 2.6132812 C 7.564421 2.3003834 7.3302798 1.9964776 7.0078125 1.9921875 z M 9.4921875 1.9921875 C 9.2160425 1.9964962 8.9956791 2.2238552 9 2.5 L 9 3.5 C 8.99044 4.1761613 10.009563 4.1761613 10 3.5 L 10 2.5 C 10.004417 2.2177336 9.7744539 1.9877707 9.4921875 1.9921875 z M 11.976562 1.9921875 C 11.654096 1.9964776 11.419957 2.3003834 11.498047 2.6132812 L 14.998047 17.613281 C 15.121027 18.3055 16.166264 18.062031 15.970703 17.386719 L 12.470703 2.3867188 C 12.420596 2.1545405 12.214073 1.9896475 11.976562 1.9921875 z M 13.478516 1.9921875 C 13.134959 1.9942155 12.895733 2.3341172 13.009766 2.6582031 L 18.009766 17.658203 C 18.220703 18.291015 19.169921 17.974609 18.958984 17.341797 L 13.958984 2.3417969 C 13.892939 2.1324229 13.698054 1.9906175 13.478516 1.9921875 z M 9.4921875 6.9921875 C 9.2160445 6.9964925 8.9956791 7.2238552 9 7.5 L 9 10.5 C 8.99044 11.176161 10.009563 11.176161 10 10.5 L 10 7.5 C 10.004417 7.2177336 9.7744539 6.9877707 9.4921875 6.9921875 z M 9.4921875 13.992188 C 9.2160427 13.996496 8.9956794 14.223855 9 14.5 L 9 17.5 C 8.99044 18.176161 10.009563 18.176161 10 17.5 L 10 14.5 C 10.0044 14.217734 9.7744537 13.987771 9.4921875 13.992188 z " style="fill:#222222; fill-opacity:1; stroke:none; stroke-width:0px;"/>
</g>
</svg>