<?xml version="1.0" ?>
<!DOCTYPE svg  PUBLIC '-//W3C//DTD SVG 1.1//EN'  'http://www.w3.org/Graphics/SVG/1.1/DTD/svg11.dtd'>
<!-- Uploaded to: SVG Repo, www.svgrepo.com, Generator: SVG Repo Mixer Tools -->
<svg width="800px" height="800px" viewBox="0 0 32 32" enable-background="new 0 0 32 32" id="_x3C_Layer_x3E_" version="1.1" xml:space="preserve" xmlns="http://www.w3.org/2000/svg" xmlns:xlink="http://www.w3.org/1999/xlink">
<g id="ship_x2C__cruiser_x2C__passenger_x2C__maritime_transport">
<g id="XMLID_2330_">
<line fill="none" id="XMLID_2331_" stroke="#263238" stroke-linecap="round" stroke-linejoin="round" stroke-miterlimit="10" x1="25.5" x2="24.5" y1="18.5" y2="18.5"/>
<path d="    M18.5,29.5c1.38,0,2.061-0.55,2.5-1.5c0.42,0.95,1.12,1.5,2.5,1.5s2.029-0.52,2.5-1.5c0.47,1,1.12,1.5,2.5,1.5    c0.965,0,1.582-0.244,2.02-0.732" fill="none" id="XMLID_2332_" stroke="#263238" stroke-linecap="round" stroke-linejoin="round" stroke-miterlimit="10"/>
<path d="    M3.5,26.5c1.38,0,2.061-0.55,2.5-1.5c0.42,0.95,1.12,1.5,2.5,1.5s2.029-0.52,2.5-1.5c0.47,1,1.12,1.5,2.5,1.5S15.55,26,16,25    c0.5,0.97,1.12,1.5,2.5,1.5s2.02-0.52,2.5-1.5c0.45,0.98,1.12,1.5,2.5,1.5" fill="none" id="XMLID_2333_" stroke="#263238" stroke-linecap="round" stroke-linejoin="round" stroke-miterlimit="10"/>
<path d="    M25.5,25" fill="none" id="XMLID_2334_" stroke="#263238" stroke-linecap="round" stroke-linejoin="round" stroke-miterlimit="10"/>
<line fill="none" id="XMLID_2335_" stroke="#263238" stroke-linecap="round" stroke-linejoin="round" stroke-miterlimit="10" x1="1.585" x2="1.515" y1="25.935" y2="25.865"/>
<g id="XMLID_2336_">
<line fill="none" id="XMLID_2337_" stroke="#263238" stroke-linecap="round" stroke-linejoin="round" stroke-miterlimit="10" x1="16.6" x2="16.5" y1="29.5" y2="29.5"/>
</g>
<polyline fill="none" id="XMLID_2338_" points="    27.5,16.5 22.5,10.5 22,7.5 5.9,7.5 5.4,10.5 4,10.5 2.5,16.5   " stroke="#263238" stroke-linecap="round" stroke-linejoin="round" stroke-miterlimit="10"/>
<path d="    M27.5,16.5h3l-3.44,7.64c-0.64,1.44-2.069,2.36-3.649,2.36" fill="none" id="XMLID_2339_" stroke="#263238" stroke-linecap="round" stroke-linejoin="round" stroke-miterlimit="10"/>
<path d="    M3.36,24.573c-0.235-0.39-0.408-0.825-0.5-1.293L1.5,16.5h22" fill="none" id="XMLID_2340_" stroke="#263238" stroke-linecap="round" stroke-linejoin="round" stroke-miterlimit="10"/>
<polygon fill="none" id="XMLID_2341_" points="    13.5,7.5 8.5,7.5 9,4.5 11.5,4.5   " stroke="#263238" stroke-linecap="round" stroke-linejoin="round" stroke-miterlimit="10"/>
<line fill="none" id="XMLID_2342_" stroke="#263238" stroke-linecap="round" stroke-linejoin="round" stroke-miterlimit="10" x1="19.5" x2="19.5" y1="4.5" y2="7.5"/>
<g id="XMLID_2343_">
<line fill="none" id="XMLID_2344_" stroke="#263238" stroke-linecap="round" stroke-linejoin="round" stroke-miterlimit="10" x1="20.5" x2="21.5" y1="14.5" y2="14.5"/>
<line fill="none" id="XMLID_2345_" stroke="#263238" stroke-linecap="round" stroke-linejoin="round" stroke-miterlimit="10" x1="5.5" x2="6.5" y1="14.5" y2="14.5"/>
<line fill="none" id="XMLID_2346_" stroke="#263238" stroke-linecap="round" stroke-linejoin="round" stroke-miterlimit="10" x1="8.5" x2="9.5" y1="14.5" y2="14.5"/>
<line fill="none" id="XMLID_2347_" stroke="#263238" stroke-linecap="round" stroke-linejoin="round" stroke-miterlimit="10" x1="11.5" x2="12.5" y1="14.5" y2="14.5"/>
<line fill="none" id="XMLID_2348_" stroke="#263238" stroke-linecap="round" stroke-linejoin="round" stroke-miterlimit="10" x1="14.5" x2="15.5" y1="14.5" y2="14.5"/>
<line fill="none" id="XMLID_2349_" stroke="#263238" stroke-linecap="round" stroke-linejoin="round" stroke-miterlimit="10" x1="17.5" x2="18.5" y1="14.5" y2="14.5"/>
<line fill="none" id="XMLID_2350_" stroke="#263238" stroke-linecap="round" stroke-linejoin="round" stroke-miterlimit="10" x1="6.5" x2="7.5" y1="12.5" y2="12.5"/>
<line fill="none" id="XMLID_2351_" stroke="#263238" stroke-linecap="round" stroke-linejoin="round" stroke-miterlimit="10" x1="9.5" x2="10.5" y1="12.5" y2="12.5"/>
<line fill="none" id="XMLID_2352_" stroke="#263238" stroke-linecap="round" stroke-linejoin="round" stroke-miterlimit="10" x1="12.5" x2="13.5" y1="12.5" y2="12.5"/>
<line fill="none" id="XMLID_2353_" stroke="#263238" stroke-linecap="round" stroke-linejoin="round" stroke-miterlimit="10" x1="15.5" x2="16.5" y1="12.5" y2="12.5"/>
<line fill="none" id="XMLID_2354_" stroke="#263238" stroke-linecap="round" stroke-linejoin="round" stroke-miterlimit="10" x1="18.5" x2="19.5" y1="12.5" y2="12.5"/>
<line fill="none" id="XMLID_2355_" stroke="#263238" stroke-linecap="round" stroke-linejoin="round" stroke-miterlimit="10" x1="7.5" x2="8.5" y1="10.5" y2="10.5"/>
<line fill="none" id="XMLID_2356_" stroke="#263238" stroke-linecap="round" stroke-linejoin="round" stroke-miterlimit="10" x1="10.5" x2="11.5" y1="10.5" y2="10.5"/>
<line fill="none" id="XMLID_2357_" stroke="#263238" stroke-linecap="round" stroke-linejoin="round" stroke-miterlimit="10" x1="13.5" x2="14.5" y1="10.5" y2="10.5"/>
<line fill="none" id="XMLID_2358_" stroke="#263238" stroke-linecap="round" stroke-linejoin="round" stroke-miterlimit="10" x1="16.5" x2="17.5" y1="10.5" y2="10.5"/>
</g>
<line fill="none" id="XMLID_2362_" stroke="#263238" stroke-linecap="round" stroke-linejoin="round" stroke-miterlimit="10" x1="20.5" x2="22.5" y1="10.5" y2="10.5"/>
</g>
</g>
</svg>