<svg width="512" height="512" viewBox="0 0 512 512" style="color:currentColor" xmlns="http://www.w3.org/2000/svg" class="h-full w-full"><rect width="512" height="512" x="0" y="0" rx="30" fill="transparent" stroke="transparent" stroke-width="0" stroke-opacity="100%" paint-order="stroke"></rect><svg width="256px" height="256px" viewBox="0 0 32 32" fill="currentColor" x="128" y="128" role="img" style="display:inline-block;vertical-align:middle" xmlns="http://www.w3.org/2000/svg"><g fill="currentColor"><path fill="currentColor" d="m26 8l-4-4l-4 4l1.41 1.42L21 7.83V18h2V7.83l1.58 1.58L26 8zM12.59 22.58L11 24.17V14H9v10.17l-1.58-1.58L6 24l4 4l4-4l-1.41-1.42zM2 2h2v28H2zm26 0h2v28h-2zM15 2h2v4h-2zm0 8h2v4h-2zm0 8h2v4h-2zm0 8h2v4h-2z"/></g></svg></svg>