<?xml version="1.0" ?>
<!DOCTYPE svg  PUBLIC '-//W3C//DTD SVG 1.1//EN'  'http://www.w3.org/Graphics/SVG/1.1/DTD/svg11.dtd'>
<!-- Uploaded to: SVG Repo, www.svgrepo.com, Generator: SVG Repo Mixer Tools -->
<svg width="800px" height="800px" viewBox="0 0 32 32" enable-background="new 0 0 32 32" id="_x3C_Layer_x3E_" version="1.1" xml:space="preserve" xmlns="http://www.w3.org/2000/svg" xmlns:xlink="http://www.w3.org/1999/xlink">
<g id="maglev_x2C__hyperloop_x2C__train_x2C__transportation">
<g id="XMLID_80_">
<line fill="none" id="XMLID_4216_" stroke="#263238" stroke-linecap="round" stroke-linejoin="round" stroke-miterlimit="10" x1="4" x2="13.5" y1="21.5" y2="21.5"/>
</g>
<g id="XMLID_52_">
<path d="    M7,4.5c0.91,0,1.738,1.141,2.361,3.011" fill="none" id="XMLID_648_" stroke="#263238" stroke-linecap="round" stroke-linejoin="round" stroke-miterlimit="10"/>
<path d="    M4.112,9.5C4.359,8.319,4.67,7.299,5.03,6.492" fill="none" id="XMLID_649_" stroke="#263238" stroke-linecap="round" stroke-linejoin="round" stroke-miterlimit="10"/>
<path d="    M7,27.5c-1.934,0-3.5-5.148-3.5-11.5c0-0.858,0.029-1.695,0.083-2.5" fill="none" id="XMLID_650_" stroke="#263238" stroke-linecap="round" stroke-linejoin="round" stroke-miterlimit="10"/>
<line fill="none" id="XMLID_4210_" stroke="#263238" stroke-linecap="round" stroke-linejoin="round" stroke-miterlimit="10" x1="23.5" x2="1.5" y1="29.5" y2="29.5"/>
<line fill="none" id="XMLID_51_" stroke="#263238" stroke-linecap="round" stroke-linejoin="round" stroke-miterlimit="10" x1="30.5" x2="30.4" y1="27.5" y2="27.5"/>
<line fill="none" id="XMLID_4209_" stroke="#263238" stroke-linecap="round" stroke-linejoin="round" stroke-miterlimit="10" x1="28.5" x2="7" y1="27.5" y2="27.5"/>
<g id="XMLID_651_">
<path d="     M5.148,24.5H28c1.381,0,2.5-1.119,2.5-2.5C26.833,14.359,19.109,9.5,10.635,9.5H6" fill="none" id="XMLID_652_" stroke="#263238" stroke-linecap="round" stroke-linejoin="round" stroke-miterlimit="10"/>
</g>
<path d="    M11.502,9.531C11.519,16.145,16.883,21.5,23.5,21.5h6.738C26.609,14.411,19.443,9.844,11.502,9.531z" fill="none" id="XMLID_655_" stroke="#263238" stroke-linecap="round" stroke-linejoin="round" stroke-miterlimit="10"/>
<line fill="none" id="XMLID_4203_" stroke="#263238" stroke-linecap="round" stroke-linejoin="round" stroke-miterlimit="10" x1="1.5" x2="9.5" y1="11.5" y2="11.5"/>
<g id="XMLID_657_">
<path d="     M7,4.5H5c-1.199,0-2.257,1.98-2.888,5" fill="none" id="XMLID_658_" stroke="#263238" stroke-linecap="round" stroke-linejoin="round" stroke-miterlimit="10"/>
<path d="     M1.583,13.5C1.529,14.305,1.5,15.142,1.5,16c0,6.352,1.566,11.5,3.5,11.5h2" fill="none" id="XMLID_660_" stroke="#263238" stroke-linecap="round" stroke-linejoin="round" stroke-miterlimit="10"/>
</g>
</g>
</g>
</svg>