<?xml version="1.0" ?>
<!DOCTYPE svg  PUBLIC '-//W3C//DTD SVG 1.1//EN'  'http://www.w3.org/Graphics/SVG/1.1/DTD/svg11.dtd'>
<!-- Uploaded to: SVG Repo, www.svgrepo.com, Generator: SVG Repo Mixer Tools -->
<svg width="800px" height="800px" viewBox="0 0 32 32" enable-background="new 0 0 32 32" id="_x3C_Layer_x3E_" version="1.1" xml:space="preserve" xmlns="http://www.w3.org/2000/svg" xmlns:xlink="http://www.w3.org/1999/xlink">
<g id="passenger_train_x2C__metro_x2C__train_x2C__transport_x2C__tube">
<g id="XMLID_361_">
<path d="    M2,17.5h4c0.28,0,0.5-0.221,0.5-0.5v-4c0-0.28-0.22-0.5-0.5-0.5H2c-0.28,0-0.5,0.22-0.5,0.5v4C1.5,17.279,1.72,17.5,2,17.5z" fill="none" id="XMLID_362_" stroke="#263238" stroke-linecap="round" stroke-linejoin="round" stroke-miterlimit="10"/>
<line fill="none" id="XMLID_363_" stroke="#263238" stroke-linecap="round" stroke-linejoin="round" stroke-miterlimit="10" x1="30.477" x2="28.5" y1="22.5" y2="22.5"/>
<line fill="none" id="XMLID_364_" stroke="#263238" stroke-linecap="round" stroke-linejoin="round" stroke-miterlimit="10" x1="19.5" x2="1.5" y1="20.5" y2="20.5"/>
<path d="    M22.776,11.5H19.5c-0.55,0-1,0.45-1,1v3c0,1.66,1.34,3,3,3h6.586" fill="none" id="XMLID_365_" stroke="#263238" stroke-linecap="round" stroke-linejoin="round" stroke-miterlimit="10"/>
<path d="    M1.5,8.5h15.52c2.19,0,4.261,1.02,5.58,2.77l7.32,9.65c0.9,1.19,0.79,2.87-0.27,3.93c-0.42,0.42-0.98,0.65-1.57,0.65H1.5" fill="none" id="XMLID_366_" stroke="#263238" stroke-linecap="round" stroke-linejoin="round" stroke-miterlimit="10"/>
<line fill="none" id="XMLID_3621_" stroke="#263238" stroke-linecap="round" stroke-linejoin="round" stroke-miterlimit="10" x1="5.5" x2="30.5" y1="6.5" y2="6.5"/>
<line fill="none" id="XMLID_3620_" stroke="#263238" stroke-linecap="round" stroke-linejoin="round" stroke-miterlimit="10" x1="26.5" x2="1.5" y1="29.5" y2="29.5"/>
<line fill="none" id="XMLID_3619_" stroke="#263238" stroke-linecap="round" stroke-linejoin="round" stroke-miterlimit="10" x1="30.5" x2="1.5" y1="27.5" y2="27.5"/>
<path d="    M9,17.5h4c0.28,0,0.5-0.221,0.5-0.5v-4c0-0.28-0.22-0.5-0.5-0.5H9c-0.28,0-0.5,0.22-0.5,0.5v4C8.5,17.279,8.72,17.5,9,17.5z" fill="none" id="XMLID_367_" stroke="#263238" stroke-linecap="round" stroke-linejoin="round" stroke-miterlimit="10"/>
</g>
</g>
</svg>