<?xml version="1.0" ?>
<!DOCTYPE svg  PUBLIC '-//W3C//DTD SVG 1.1//EN'  'http://www.w3.org/Graphics/SVG/1.1/DTD/svg11.dtd'>
<!-- Uploaded to: SVG Repo, www.svgrepo.com, Generator: SVG Repo Mixer Tools -->
<svg width="800px" height="800px" viewBox="0 0 32 32" enable-background="new 0 0 32 32" id="_x3C_Layer_x3E_" version="1.1" xml:space="preserve" xmlns="http://www.w3.org/2000/svg" xmlns:xlink="http://www.w3.org/1999/xlink">
<g id="passenger_train_x2C__railroad_x2C__train">
<g id="XMLID_321_">
<g id="XMLID_322_">
<line fill="none" id="XMLID_3659_" stroke="#263238" stroke-linecap="round" stroke-linejoin="round" stroke-miterlimit="10" x1="1.5" x2="30.5" y1="29.5" y2="29.5"/>
<polyline fill="none" id="XMLID_3658_" points="     26.5,30.5 26.5,29.5 29.5,29.5 29.5,30.5    " stroke="#263238" stroke-linecap="round" stroke-linejoin="round" stroke-miterlimit="10"/>
<polyline fill="none" id="XMLID_3657_" points="     20.5,30.5 20.5,29.5 23.5,29.5 23.5,30.5    " stroke="#263238" stroke-linecap="round" stroke-linejoin="round" stroke-miterlimit="10"/>
<polyline fill="none" id="XMLID_3656_" points="     14.5,30.5 14.5,29.5 17.5,29.5 17.5,30.5    " stroke="#263238" stroke-linecap="round" stroke-linejoin="round" stroke-miterlimit="10"/>
<polyline fill="none" id="XMLID_3655_" points="     8.5,30.5 8.5,29.5 11.5,29.5 11.5,30.5    " stroke="#263238" stroke-linecap="round" stroke-linejoin="round" stroke-miterlimit="10"/>
<polyline fill="none" id="XMLID_3654_" points="     2.5,30.5 2.5,29.5 5.5,29.5 5.5,30.5    " stroke="#263238" stroke-linecap="round" stroke-linejoin="round" stroke-miterlimit="10"/>
</g>
<circle cx="14.5" cy="27" fill="none" id="XMLID_323_" r="1" stroke="#263238" stroke-miterlimit="10"/>
<circle cx="22.5" cy="27" fill="none" id="XMLID_324_" r="1" stroke="#263238" stroke-miterlimit="10"/>
<circle cx="18.5" cy="27" fill="none" id="XMLID_325_" r="1" stroke="#263238" stroke-miterlimit="10"/>
<path d="    M1.5,29.5V11c0-5.939,1.57-8.5,3.5-8.5c0.96,0,1.84,0.61,2.47,1.98C7.917,5.43,8.242,6.755,8.397,8.5" fill="none" id="XMLID_326_" stroke="#263238" stroke-linecap="round" stroke-linejoin="round" stroke-miterlimit="10"/>
<path d="    M7,19.5h3c0.28,0,0.5-0.221,0.5-0.5v-4c0-0.28-0.22-0.5-0.5-0.5H7c-0.28,0-0.5,0.22-0.5,0.5v4C6.5,19.279,6.72,19.5,7,19.5z" fill="none" id="XMLID_327_" stroke="#263238" stroke-linecap="round" stroke-linejoin="round" stroke-miterlimit="10"/>
<path d="    M13,19.5h3c0.28,0,0.5-0.221,0.5-0.5v-4c0-0.28-0.22-0.5-0.5-0.5h-3c-0.28,0-0.5,0.22-0.5,0.5v4C12.5,19.279,12.72,19.5,13,19.5z" fill="none" id="XMLID_330_" stroke="#263238" stroke-linecap="round" stroke-linejoin="round" stroke-miterlimit="10"/>
<path d="    M19,19.5h3c0.28,0,0.5-0.221,0.5-0.5v-4c0-0.28-0.22-0.5-0.5-0.5h-3c-0.28,0-0.5,0.22-0.5,0.5v4C18.5,19.279,18.72,19.5,19,19.5z" fill="none" id="XMLID_331_" stroke="#263238" stroke-linecap="round" stroke-linejoin="round" stroke-miterlimit="10"/>
<path d="    M1.5,19.5H4c0.28,0,0.5-0.221,0.5-0.5v-4c0-0.28-0.22-0.5-0.5-0.5H1.5" fill="none" id="XMLID_333_" stroke="#263238" stroke-linecap="round" stroke-linejoin="round" stroke-miterlimit="10"/>
<path d="    M27.5,13.5c-0.55,0-1,0.45-1,1v5c0,0.55,0.45,1,1,1h3v-6c0-0.35-0.06-0.681-0.14-1H27.5z" fill="none" id="XMLID_340_" stroke="#263238" stroke-linecap="round" stroke-linejoin="round" stroke-miterlimit="10"/>
<path d="    M3.5,10.5h23c2.21,0,4,1.79,4,4v12c0,0.55-0.45,1-1,1h-4l-0.22-1.33c-0.16-0.96-0.99-1.67-1.971-1.67H13.69    c-0.98,0-1.811,0.71-1.971,1.67L11.5,27.5h-10" fill="none" id="XMLID_344_" stroke="#263238" stroke-linecap="round" stroke-linejoin="round" stroke-miterlimit="10"/>
<line fill="none" id="XMLID_345_" stroke="#263238" stroke-linecap="round" stroke-linejoin="round" stroke-miterlimit="10" x1="30.477" x2="29" y1="22.5" y2="22.5"/>
<line fill="none" id="XMLID_346_" stroke="#263238" stroke-linecap="round" stroke-linejoin="round" stroke-miterlimit="10" x1="30.477" x2="3.5" y1="24.5" y2="24.5"/>
</g>
</g>
</svg>