<?xml version="1.0" ?>
<!DOCTYPE svg  PUBLIC '-//W3C//DTD SVG 1.1//EN'  'http://www.w3.org/Graphics/SVG/1.1/DTD/svg11.dtd'>
<!-- Uploaded to: SVG Repo, www.svgrepo.com, Generator: SVG Repo Mixer Tools -->
<svg width="800px" height="800px" viewBox="0 0 32 32" enable-background="new 0 0 32 32" id="_x3C_Layer_x3E_" version="1.1" xml:space="preserve" xmlns="http://www.w3.org/2000/svg" xmlns:xlink="http://www.w3.org/1999/xlink">
<g id="tram_x2C__transport">
<g id="XMLID_261_">
<path d="    M25.5,13.5c-0.55,0-1,0.45-1,1v5c0,0.55,0.45,1,1,1h5l-1.4-7H25.5z" fill="none" id="XMLID_262_" stroke="#263238" stroke-linecap="round" stroke-linejoin="round" stroke-miterlimit="10"/>
<path d="    M17,19.5h4c0.28,0,0.5-0.221,0.5-0.5v-5c0-0.28-0.22-0.5-0.5-0.5h-4c-0.28,0-0.5,0.22-0.5,0.5v5C16.5,19.279,16.72,19.5,17,19.5z" fill="none" id="XMLID_263_" stroke="#263238" stroke-linecap="round" stroke-linejoin="round" stroke-miterlimit="10"/>
<g id="XMLID_264_">
<line fill="none" id="XMLID_3704_" stroke="#263238" stroke-linecap="round" stroke-linejoin="round" stroke-miterlimit="10" x1="1.5" x2="30.5" y1="2.5" y2="2.5"/>
<line fill="none" id="XMLID_3703_" stroke="#263238" stroke-linecap="round" stroke-linejoin="round" stroke-miterlimit="10" x1="1.5" x2="30.5" y1="29.5" y2="29.5"/>
<polyline fill="none" id="XMLID_3702_" points="     26.5,30.5 26.5,29.5 29.5,29.5 29.5,30.5    " stroke="#263238" stroke-linecap="round" stroke-linejoin="round" stroke-miterlimit="10"/>
<polyline fill="none" id="XMLID_3701_" points="     20.5,30.5 20.5,29.5 23.5,29.5 23.5,30.5    " stroke="#263238" stroke-linecap="round" stroke-linejoin="round" stroke-miterlimit="10"/>
<polyline fill="none" id="XMLID_3697_" points="     14.5,30.5 14.5,29.5 17.5,29.5 17.5,30.5    " stroke="#263238" stroke-linecap="round" stroke-linejoin="round" stroke-miterlimit="10"/>
<polyline fill="none" id="XMLID_3694_" points="     8.5,30.5 8.5,29.5 11.5,29.5 11.5,30.5    " stroke="#263238" stroke-linecap="round" stroke-linejoin="round" stroke-miterlimit="10"/>
<polyline fill="none" id="XMLID_3693_" points="     2.5,30.5 2.5,29.5 5.5,29.5 5.5,30.5    " stroke="#263238" stroke-linecap="round" stroke-linejoin="round" stroke-miterlimit="10"/>
</g>
<circle cx="20" cy="27" fill="none" id="XMLID_265_" r="1" stroke="#263238" stroke-miterlimit="10"/>
<circle cx="16" cy="27" fill="none" id="XMLID_266_" r="1" stroke="#263238" stroke-miterlimit="10"/>
<path d="    M10,19.5h4c0.28,0,0.5-0.221,0.5-0.5v-5c0-0.28-0.22-0.5-0.5-0.5h-4c-0.28,0-0.5,0.22-0.5,0.5v5C9.5,19.279,9.72,19.5,10,19.5z" fill="none" id="XMLID_267_" stroke="#263238" stroke-linecap="round" stroke-linejoin="round" stroke-miterlimit="10"/>
<path d="    M1.5,10.5h24.54c1.43,0,2.66,1.01,2.94,2.41l1.52,7.59v6c0,0.55-0.45,1-1,1H23l-0.22-1.33c-0.16-0.96-0.99-1.67-1.971-1.67H15.19    c-0.98,0-1.811,0.71-1.971,1.67L13,27.5H4.5" fill="none" id="XMLID_270_" stroke="#263238" stroke-linecap="round" stroke-linejoin="round" stroke-miterlimit="10"/>
<g id="XMLID_271_">
<path d="     M3.001,13.5H2.5c-0.55,0-1,0.45-1,1v13h3" fill="none" id="XMLID_272_" stroke="#263238" stroke-linecap="round" stroke-linejoin="round" stroke-miterlimit="10"/>
<path d="     M4.5,13.5h2c0.55,0,1,0.45,1,1v13" fill="none" id="XMLID_273_" stroke="#263238" stroke-linecap="round" stroke-linejoin="round" stroke-miterlimit="10"/>
<line fill="none" id="XMLID_274_" stroke="#263238" stroke-linecap="round" stroke-linejoin="round" stroke-miterlimit="10" x1="4.5" x2="7.5" y1="20.5" y2="20.5"/>
<line fill="none" id="XMLID_275_" stroke="#263238" stroke-linecap="round" stroke-linejoin="round" stroke-miterlimit="10" x1="1.5" x2="3" y1="20.5" y2="20.5"/>
<line fill="none" id="XMLID_3683_" stroke="#263238" stroke-linecap="round" stroke-linejoin="round" stroke-miterlimit="10" x1="4.5" x2="4.5" y1="13.5" y2="27.5"/>
</g>
<polyline fill="none" id="XMLID_3681_" points="    13.5,3.5 17,7 13.5,10.5   " stroke="#263238" stroke-linecap="round" stroke-linejoin="round" stroke-miterlimit="10"/>
<line fill="none" id="XMLID_283_" stroke="#263238" stroke-linecap="round" stroke-linejoin="round" stroke-miterlimit="10" x1="30.477" x2="28.5" y1="23.5" y2="23.5"/>
</g>
</g>
</svg>