<?xml version="1.0" ?>
<!DOCTYPE svg  PUBLIC '-//W3C//DTD SVG 1.1//EN'  'http://www.w3.org/Graphics/SVG/1.1/DTD/svg11.dtd'>
<!-- Uploaded to: SVG Repo, www.svgrepo.com, Generator: SVG Repo Mixer Tools -->
<svg width="800px" height="800px" viewBox="0 0 32 32" enable-background="new 0 0 32 32" id="_x3C_Layer_x3E_" version="1.1" xml:space="preserve" xmlns="http://www.w3.org/2000/svg" xmlns:xlink="http://www.w3.org/1999/xlink">
<g id="truck_x2C__logistics_x2C__transport_x2C__transportation_2_">
<g id="XMLID_215_">
<line fill="none" id="XMLID_259_" stroke="#263238" stroke-linecap="round" stroke-linejoin="round" stroke-miterlimit="10" x1="19.5" x2="10.5" y1="27.5" y2="27.5"/>
<line fill="none" id="XMLID_230_" stroke="#263238" stroke-linecap="round" stroke-linejoin="round" stroke-miterlimit="10" x1="24" x2="3.5" y1="30.5" y2="30.5"/>
<line fill="none" id="XMLID_228_" stroke="#263238" stroke-linecap="round" stroke-linejoin="round" stroke-miterlimit="10" x1="1.6" x2="1.5" y1="30.5" y2="30.5"/>
<polyline fill="none" id="XMLID_945_" points="    3.5,27.5 2.5,27.5 2.5,25.5   " stroke="#263238" stroke-linecap="round" stroke-linejoin="round" stroke-miterlimit="10"/>
<line fill="none" id="XMLID_231_" stroke="#263238" stroke-linecap="round" stroke-linejoin="round" stroke-miterlimit="10" x1="17.5" x2="8.5" y1="25.5" y2="25.5"/>
<line fill="none" id="XMLID_947_" stroke="#263238" stroke-linecap="round" stroke-linejoin="round" stroke-miterlimit="10" x1="4.5" x2="1.5" y1="25.5" y2="25.5"/>
<path d="    M26.5,27.5H30c0.276,0,0.5-0.224,0.5-0.5v-1" fill="none" id="XMLID_232_" stroke="#263238" stroke-linecap="round" stroke-linejoin="round" stroke-miterlimit="10"/>
<circle cx="24" cy="28" fill="none" id="XMLID_216_" r="2.5" stroke="#263238" stroke-linecap="round" stroke-linejoin="round" stroke-miterlimit="10"/>
<circle cx="8" cy="28" fill="none" id="XMLID_217_" r="2.5" stroke="#263238" stroke-linecap="round" stroke-linejoin="round" stroke-miterlimit="10"/>
<circle cx="24" cy="28" fill="none" id="XMLID_254_" r="0.5" stroke="#263238" stroke-linecap="round" stroke-linejoin="round" stroke-miterlimit="10"/>
<circle cx="8" cy="28" fill="none" id="XMLID_955_" r="0.5" stroke="#263238" stroke-linecap="round" stroke-linejoin="round" stroke-miterlimit="10"/>
<path d="M28.105,11.5H23.5c-0.552,0-1,0.447-1,1v3    c0,1.656,1.344,3,3,3h5V18L28.105,11.5z" fill="none" id="XMLID_251_" stroke="#263238" stroke-miterlimit="10"/>
<rect fill="none" height="2" id="XMLID_218_" stroke="#263238" stroke-linecap="round" stroke-linejoin="round" stroke-miterlimit="10" width="3" x="27.5" y="23.5"/>
<line fill="none" id="XMLID_2062_" stroke="#263238" stroke-linecap="round" stroke-linejoin="round" stroke-miterlimit="10" x1="1.5" x2="1.5" y1="6.5" y2="25.5"/>
<polyline fill="none" id="XMLID_219_" points="    19.5,27.5 19.5,4.5 1.5,4.5   " stroke="#263238" stroke-linecap="round" stroke-linejoin="round" stroke-miterlimit="10"/>
<path d="    M19.5,25.5v-17h4.711c1.676,0,3.174,1.045,3.754,2.617L30.5,18v8" fill="none" id="XMLID_257_" stroke="#263238" stroke-linecap="round" stroke-linejoin="round" stroke-miterlimit="10"/>
<line fill="none" id="XMLID_220_" stroke="#263238" stroke-linecap="round" stroke-linejoin="round" stroke-miterlimit="10" x1="1.6" x2="1.5" y1="30.5" y2="30.5"/>
</g>
</g>
</svg>