<?xml version="1.0" encoding="UTF-8" standalone="no"?>
<!-- Created with Inkscape (http://www.inkscape.org/) -->

<svg
   xmlns:dc="http://purl.org/dc/elements/1.1/"
   xmlns:cc="http://creativecommons.org/ns#"
   xmlns:rdf="http://www.w3.org/1999/02/22-rdf-syntax-ns#"
   xmlns:svg="http://www.w3.org/2000/svg"
   xmlns="http://www.w3.org/2000/svg"
   xmlns:sodipodi="http://sodipodi.sourceforge.net/DTD/sodipodi-0.dtd"
   xmlns:inkscape="http://www.inkscape.org/namespaces/inkscape"
   width="100"
   height="100"
   viewBox="0 0 99.999997 99.999997"
   id="svg4146"
   version="1.1"
   inkscape:version="0.91 r13725"
   sodipodi:docname="logo.svg">
  <defs
     id="defs4148" />
  <sodipodi:namedview
     id="base"
     pagecolor="#ffffff"
     bordercolor="#666666"
     borderopacity="1.0"
     inkscape:pageopacity="0"
     inkscape:pageshadow="2"
     inkscape:zoom="5.6"
     inkscape:cx="40.870203"
     inkscape:cy="31.516078"
     inkscape:document-units="px"
     inkscape:current-layer="layer5"
     showgrid="false"
     units="px"
     inkscape:window-width="2133"
     inkscape:window-height="1114"
     inkscape:window-x="-8"
     inkscape:window-y="-8"
     inkscape:window-maximized="1" />
  <metadata
     id="metadata4151">
    <rdf:RDF>
      <cc:Work
         rdf:about="">
        <dc:format>image/svg+xml</dc:format>
        <dc:type
           rdf:resource="http://purl.org/dc/dcmitype/StillImage" />
        <dc:title></dc:title>
      </cc:Work>
    </rdf:RDF>
  </metadata>
  <g
     inkscape:groupmode="layer"
     id="layer5"
     inkscape:label="Layer 3"
     style="display:inline;opacity:1">
    <path
       style="fill:#ffffff;fill-opacity:1"
       d="M 50 2.5 A 47.5 47.5 0 0 0 2.5 50 A 47.5 47.5 0 0 0 50 97.5 A 47.5 47.5 0 0 0 97.5 50 A 47.5 47.5 0 0 0 50 2.5 z M 54 11.714844 A 38.5 38.5 0 0 1 88.5 50 A 38.5 38.5 0 0 1 79.837891 74.289062 L 54 48.451172 L 54 11.714844 z M 46 11.751953 L 46 46 L 11.714844 46 A 38.5 38.5 0 0 1 46 11.751953 z M 11.751953 54 L 48.236328 54 L 74.177734 79.941406 A 38.5 38.5 0 0 1 50 88.5 A 38.5 38.5 0 0 1 11.751953 54 z "
       id="path4765" />
  </g>
</svg>
