<?xml version="1.0" encoding="iso-8859-1"?>
<!-- Generator: Adobe Illustrator 19.0.0, SVG Export Plug-In . SVG Version: 6.00 Build 0)  -->
<svg version="1.1" id="Layer_1" xmlns="http://www.w3.org/2000/svg" xmlns:xlink="http://www.w3.org/1999/xlink" x="0px" y="0px"
	 viewBox="0 0 512 512" style="enable-background:new 0 0 512 512;" xml:space="preserve">
<g>
	<g>
		<g>
			<path d="M153.6,366.933V384c0,4.71,3.823,8.533,8.533,8.533c4.71,0,8.533-3.823,8.533-8.533v-17.067
				c0-4.71-3.823-8.533-8.533-8.533C157.423,358.4,153.6,362.223,153.6,366.933z"/>
			<path d="M503.467,494.933h-8.533v-268.8c0-4.71-3.823-8.533-8.533-8.533s-8.533,3.823-8.533,8.533v268.8H34.133v-268.8
				c0-4.71-3.823-8.533-8.533-8.533c-4.71,0-8.533,3.823-8.533,8.533v268.8H8.533c-4.71,0-8.533,3.823-8.533,8.533
				S3.823,512,8.533,512h494.933c4.71,0,8.533-3.823,8.533-8.533S508.177,494.933,503.467,494.933z"/>
			<path d="M196.267,477.867c4.71,0,8.533-3.823,8.533-8.533v-204.8c0-4.71-3.823-8.533-8.533-8.533H76.8
				c-4.71,0-8.533,3.823-8.533,8.533v204.8c0,4.71,3.823,8.533,8.533,8.533s8.533-3.823,8.533-8.533V273.067h102.4v196.267
				C187.733,474.044,191.556,477.867,196.267,477.867z"/>
			<path d="M355.9,309.7c-3.337-3.336-8.73-3.336-12.066,0c-3.337,3.337-3.337,8.73,0,12.066l34.133,34.133
				c1.664,1.664,3.849,2.5,6.033,2.5c2.185,0,4.369-0.836,6.033-2.5c3.337-3.337,3.337-8.73,0-12.066L355.9,309.7z"/>
			<path d="M469.333,0H42.667C19.14,0,0,19.14,0,42.667v152.738c0,2.569,1.152,4.992,3.132,6.613c1.98,1.613,4.599,2.261,7.1,1.749
				c13.628-2.765,25.114-10.897,32.427-21.914c9.173,13.824,24.883,22.946,42.675,22.946c17.784,0,33.485-9.114,42.667-22.929
				c9.182,13.815,24.883,22.929,42.667,22.929s33.485-9.114,42.667-22.929C222.515,195.686,238.217,204.8,256,204.8
				c17.784,0,33.485-9.114,42.667-22.929c9.182,13.815,24.883,22.929,42.667,22.929c17.783,0,33.485-9.114,42.667-22.929
				c9.182,13.815,24.883,22.929,42.667,22.929c17.792,0,33.502-9.122,42.675-22.946c7.313,11.017,18.799,19.149,32.427,21.914
				c2.517,0.521,5.112-0.128,7.1-1.749c1.98-1.621,3.132-4.045,3.132-6.613V42.667C512,19.14,492.86,0,469.333,0z M494.933,183.159
				c-10.3-5.973-17.067-17.143-17.067-29.559V42.667c0-4.71-3.823-8.533-8.533-8.533s-8.533,3.823-8.533,8.533V153.6
				c0,18.825-15.309,34.133-34.133,34.133s-34.133-15.309-34.133-34.133V42.667c0-4.71-3.823-8.533-8.533-8.533
				s-8.533,3.823-8.533,8.533V153.6c0,18.825-15.309,34.133-34.133,34.133c-18.825,0-34.133-15.309-34.133-34.133V42.667
				c0-4.71-3.823-8.533-8.533-8.533s-8.533,3.823-8.533,8.533V153.6c0,18.825-15.309,34.133-34.133,34.133
				c-18.825,0-34.133-15.309-34.133-34.133V42.667c0-4.71-3.823-8.533-8.533-8.533c-4.71,0-8.533,3.823-8.533,8.533V153.6
				c0,18.825-15.309,34.133-34.133,34.133s-34.133-15.309-34.133-34.133V42.667c0-4.71-3.823-8.533-8.533-8.533
				s-8.533,3.823-8.533,8.533V153.6c0,18.825-15.309,34.133-34.133,34.133c-18.825,0-34.133-15.309-34.133-34.133V42.667
				c0-4.71-3.823-8.533-8.533-8.533c-4.71,0-8.533,3.823-8.533,8.533V153.6c0,12.416-6.767,23.586-17.067,29.559V42.667
				c0-14.114,11.486-25.6,25.6-25.6h426.667c14.114,0,25.6,11.486,25.6,25.6V183.159z"/>
			<path d="M435.2,443.733c4.71,0,8.533-3.823,8.533-8.533V264.533c0-4.71-3.823-8.533-8.533-8.533H230.4
				c-4.71,0-8.533,3.823-8.533,8.533V435.2c0,4.71,3.823,8.533,8.533,8.533H435.2z M238.933,273.067h187.733v153.6H238.933V273.067z
				"/>
			<path d="M390.033,292.634c-3.336-3.337-8.73-3.337-12.066,0c-3.336,3.337-3.336,8.73,0,12.066l17.067,17.067
				c1.664,1.664,3.849,2.5,6.033,2.5c2.185,0,4.369-0.836,6.033-2.5c3.337-3.337,3.337-8.73,0-12.066L390.033,292.634z"/>
		</g>
	</g>
</g>
<g>
</g>
<g>
</g>
<g>
</g>
<g>
</g>
<g>
</g>
<g>
</g>
<g>
</g>
<g>
</g>
<g>
</g>
<g>
</g>
<g>
</g>
<g>
</g>
<g>
</g>
<g>
</g>
<g>
</g>
</svg>
