<?xml version="1.0" encoding="iso-8859-1"?>
<!-- Generator: Adobe Illustrator 19.0.0, SVG Export Plug-In . SVG Version: 6.00 Build 0)  -->
<svg version="1.1" id="Capa_1" xmlns="http://www.w3.org/2000/svg" xmlns:xlink="http://www.w3.org/1999/xlink" x="0px" y="0px"
	 viewBox="0 0 488 488" style="enable-background:new 0 0 488 488;" xml:space="preserve">
<g>
	<g>
		<path d="M448,31.999c-6.627,0-12,5.373-12,12s5.373,12,12,12c6.627,0,12-5.373,12-12C459.993,37.375,454.624,32.006,448,31.999z
			 M448,47.999c-2.209,0-4-1.791-4-4s1.791-4,4-4c2.209,0,4,1.791,4,4C451.999,46.208,450.209,47.997,448,47.999z"/>
	</g>
</g>
<g>
	<g>
		<path d="M280,147.999c-17.665,0.02-31.98,14.335-32,32c0,17.673,14.327,32,32,32c17.673,0,32-14.327,32-32
			S297.673,147.999,280,147.999z M280,195.999c-8.837,0-16-7.163-16-16s7.163-16,16-16c8.833,0.009,15.991,7.167,16,16
			C296,188.836,288.837,195.999,280,195.999z"/>
	</g>
</g>
<g>
	<g>
		<rect x="64" y="163.999" width="16" height="16"/>
	</g>
</g>
<g>
	<g>
		<rect x="32" y="163.999" width="16" height="16"/>
	</g>
</g>
<g>
	<g>
		<rect x="96" y="163.999" width="16" height="16"/>
	</g>
</g>
<g>
	<g>
		<rect x="32" y="195.999" width="16" height="16"/>
	</g>
</g>
<g>
	<g>
		<rect x="64" y="195.999" width="16" height="16"/>
	</g>
</g>
<g>
	<g>
		<rect x="96" y="195.999" width="16" height="16"/>
	</g>
</g>
<g>
	<g>
		<rect x="32" y="227.999" width="16" height="16"/>
	</g>
</g>
<g>
	<g>
		<rect x="64" y="227.999" width="16" height="16"/>
	</g>
</g>
<g>
	<g>
		<rect x="96" y="227.999" width="16" height="16"/>
	</g>
</g>
<g>
	<g>
		<rect x="32" y="259.999" width="16" height="16"/>
	</g>
</g>
<g>
	<g>
		<rect x="64" y="259.999" width="16" height="16"/>
	</g>
</g>
<g>
	<g>
		<rect x="96" y="259.999" width="16" height="16"/>
	</g>
</g>
<g>
	<g>
		<rect x="32" y="291.999" width="16" height="16"/>
	</g>
</g>
<g>
	<g>
		<rect x="64" y="291.999" width="16" height="16"/>
	</g>
</g>
<g>
	<g>
		<rect x="96" y="291.999" width="16" height="16"/>
	</g>
</g>
<g>
	<g>
		<rect x="32" y="323.999" width="16" height="16"/>
	</g>
</g>
<g>
	<g>
		<rect x="64" y="323.999" width="16" height="16"/>
	</g>
</g>
<g>
	<g>
		<rect x="96" y="323.999" width="16" height="16"/>
	</g>
</g>
<g>
	<g>
		<rect x="32" y="355.999" width="16" height="16"/>
	</g>
</g>
<g>
	<g>
		<rect x="64" y="355.999" width="16" height="16"/>
	</g>
</g>
<g>
	<g>
		<rect x="96" y="355.999" width="16" height="16"/>
	</g>
</g>
<g>
	<g>
		<rect x="32" y="387.999" width="16" height="16"/>
	</g>
</g>
<g>
	<g>
		<rect x="64" y="387.999" width="16" height="16"/>
	</g>
</g>
<g>
	<g>
		<rect x="96" y="387.999" width="16" height="16"/>
	</g>
</g>
<g>
	<g>
		<path d="M392,363.999h-48c-4.418,0-8,3.582-8,8v12.066c-0.526,2.309-1.209,4.58-2.043,6.797l-8.148,0.746
			c-2.5,0.228-4.748,1.617-6.07,3.75c-1.348,2.185-2.877,4.254-4.57,6.184c-1.7,1.933-2.367,4.565-1.793,7.074l1.934,8.445
			c-0.753,0.638-1.582,1.18-2.469,1.613l-7.664-4.445c-2.158-1.246-4.771-1.419-7.074-0.469c-2.425,0.986-4.929,1.766-7.484,2.332
			c-2.46,0.564-4.509,2.257-5.527,4.566l-3.059,6.926h-4.063l-3.059-6.926c-1.018-2.31-3.067-4.003-5.527-4.566
			c-2.556-0.566-5.059-1.346-7.484-2.332c-2.303-0.95-4.917-0.776-7.074,0.469l-7,4.059c-0.996-0.668-1.974-1.367-2.934-2.098
			l1.734-7.574c0.573-2.509-0.094-5.141-1.793-7.074c-1.693-1.93-3.222-3.999-4.57-6.184c-1.323-2.133-3.57-3.522-6.07-3.75
			l-8.148-0.746c-0.834-2.217-1.517-4.488-2.043-6.797v-12.066c0-4.418-3.582-8-8-8h-24v-56c0-4.418-3.582-8-8-8h-40v-176
			c0-4.418-3.582-8-8-8h-8.639c-4.377-30.575-32.712-51.813-63.287-47.435c-24.593,3.521-43.915,22.843-47.435,47.435H8
			c-4.418,0-8,3.582-8,8v352c0,4.418,3.582,8,8,8h384c4.418,0,8-3.582,8-8v-104C400,367.581,396.418,363.999,392,363.999z
			 M72,83.999c19,0.025,35.369,13.39,39.195,32H32.805C36.631,97.389,53,84.024,72,83.999z M384,467.999H16v-336h112v176
			c0,4.418,3.582,8,8,8h40v56c0,4.418,3.582,8,8,8h24v4.926c0.001,0.55,0.057,1.098,0.168,1.637
			c1.119,5.241,2.831,10.337,5.102,15.191c1.198,2.589,3.686,4.343,6.527,4.602l9.125,0.836c0.402,0.566,0.817,1.125,1.234,1.672
			l-1.961,8.559c-0.651,2.838,0.292,5.805,2.461,7.746c4.026,3.609,8.437,6.764,13.152,9.41c2.465,1.378,5.474,1.356,7.918-0.059
			l7.863-4.559c0.734,0.246,1.484,0.479,2.25,0.699l3.598,8.156c1.281,2.898,4.151,4.769,7.32,4.77h14.484
			c3.169-0.001,6.039-1.871,7.32-4.77l3.599-8.156c0.766-0.219,1.516-0.452,2.25-0.699l7.859,4.559
			c2.07,1.199,4.567,1.41,6.809,0.574c6.177-1.878,11.555-5.757,15.285-11.027c1.445-1.89,1.973-4.326,1.441-6.645l-1.961-8.559
			c0.418-0.547,0.832-1.105,1.234-1.672l9.125-0.836c2.841-0.259,5.329-2.012,6.527-4.602c2.271-4.854,3.982-9.951,5.102-15.191
			c0.111-0.539,0.167-1.087,0.168-1.637v-4.926h32V467.999z"/>
	</g>
</g>
<g>
	<g>
		<path d="M472,211.999V75.794c10.036-7.493,15.962-19.271,16-31.795C487.999,21.908,470.089,4,447.998,4.001
			c-19.006,0.001-35.387,13.376-39.189,31.998H280c-4.418,0-8,3.582-8,8v64.113c-2.911,0.254-5.449,2.084-6.609,4.766l-3.629,8.563
			c-0.734,0.219-1.457,0.445-2.168,0.68l-7.844-4.578c-2.73-1.594-6.142-1.43-8.707,0.418l-11.727,8.445
			c-2.608,1.879-3.839,5.136-3.125,8.27l1.973,8.656c-0.43,0.563-0.849,1.134-1.258,1.715l-9.113,0.84
			c-3.159,0.29-5.848,2.42-6.852,5.43l-4.527,13.551c-0.937,2.795-0.258,5.88,1.766,8.023l5.82,6.176v2.695l-5.82,6.176
			c-2.024,2.144-2.703,5.228-1.766,8.023l4.527,13.551c1.004,3.009,3.692,5.14,6.852,5.43l9.113,0.84
			c0.41,0.582,0.829,1.154,1.258,1.715l-1.973,8.656c-0.713,3.134,0.518,6.39,3.125,8.27l11.723,8.445
			c2.565,1.846,5.977,2.01,8.707,0.418l7.848-4.578c0.75,0.25,1.512,0.488,2.293,0.715l3.59,7.891
			c1.298,2.855,4.145,4.688,7.281,4.687h14.484c3.136,0.001,5.984-1.832,7.281-4.688l3.59-7.891
			c0.777-0.227,1.542-0.465,2.293-0.715l7.844,4.578c2.73,1.591,6.142,1.428,8.707-0.418l11.727-8.445
			c2.608-1.879,3.839-5.136,3.125-8.27l-1.973-8.656c0.43-0.559,0.849-1.129,1.258-1.711l9.113-0.84
			c2.848-0.262,5.339-2.023,6.535-4.621c2.266-4.882,3.973-10.004,5.09-15.27c0.532-2.559-0.219-5.216-2.012-7.117l-5.82-6.176
			v-2.695l5.82-6.176c1.792-1.902,2.543-4.559,2.012-7.117c-1.116-5.264-2.823-10.385-5.09-15.266
			c-1.196-2.598-3.687-4.36-6.535-4.621l-9.113-0.84c-0.41-0.582-0.829-1.154-1.258-1.715l1.973-8.656
			c0.713-3.134-0.518-6.39-3.125-8.27l-11.723-8.445c-2.565-1.847-5.977-2.011-8.707-0.418l-7.848,4.578
			c-0.711-0.234-1.434-0.461-2.168-0.68l-3.629-8.563c-1.16-2.682-3.698-4.512-6.609-4.766V51.999h120.809
			c1.998,9.517,7.4,17.978,15.191,23.795v136.205c-4.418,0-8,3.582-8,8v256c0,4.418,3.582,8,8,8h48c4.418,0,8-3.582,8-8v-256
			C480,215.581,476.418,211.999,472,211.999z M290.609,135.983L290.609,135.983c2.554,0.568,5.055,1.35,7.477,2.339
			c2.311,0.975,4.947,0.799,7.109-0.473l6.633-3.867l3.203,2.305l-1.66,7.289c-0.57,2.501,0.094,5.123,1.785,7.051
			c1.695,1.944,3.224,4.027,4.57,6.227c1.319,2.144,3.572,3.54,6.078,3.77l8.141,0.75c0.461,1.242,0.872,2.483,1.234,3.723l-5,5.305
			c-1.401,1.484-2.18,3.448-2.18,5.488v9.047c-0.001,2.041,0.779,4.004,2.18,5.488l5,5.309c-0.363,1.234-0.776,2.475-1.238,3.723
			l-8.137,0.75c-2.507,0.229-4.759,1.626-6.078,3.77c-1.347,2.198-2.875,4.28-4.57,6.223c-1.691,1.928-2.355,4.55-1.785,7.051
			l1.66,7.285l-3.207,2.309l-6.629-3.867c-2.166-1.259-4.796-1.434-7.109-0.473c-2.422,0.989-4.923,1.772-7.477,2.34
			c-2.426,0.56-4.453,2.218-5.484,4.484l-3.035,6.672h-4.18l-3.035-6.672c-1.031-2.266-3.058-3.924-5.484-4.484
			c-2.554-0.568-5.055-1.351-7.477-2.34c-2.314-0.96-4.943-0.786-7.109,0.473l-6.633,3.867l-3.203-2.309l1.66-7.285
			c0.57-2.501-0.094-5.123-1.785-7.051c-1.693-1.943-3.221-4.025-4.566-6.223c-1.321-2.145-3.574-3.543-6.082-3.773l-7.734-0.715
			l-1.355-4.059l4.715-5.004c1.4-1.484,2.18-3.447,2.18-5.487v-9.047c0.001-2.041-0.779-4.004-2.18-5.488l-4.715-5.004l1.355-4.059
			l7.734-0.715c2.508-0.231,4.761-1.629,6.082-3.773c1.346-2.198,2.873-4.28,4.566-6.223c1.691-1.928,2.355-4.55,1.785-7.051
			l-1.66-7.285l3.207-2.309l6.629,3.867c2.162,1.272,4.798,1.447,7.109,0.473c2.422-0.989,4.923-1.772,7.477-2.34
			c2.498-0.577,4.569-2.315,5.57-4.676l3.094-7.309h3.891l3.094,7.309C286.04,133.668,288.111,135.406,290.609,135.983z
			 M464,467.999h-27.505L464,445.078V467.999z M432,450.92v-45.842l27.504,22.921L432,450.92z M464,410.92l-27.504-22.921
			L464,365.078V410.92z M432,370.919v-51.608l28.148,28.148L432,370.919z M464,328.685l-27.441-27.444L464,282.947V328.685z
			 M432,285.051v-45.738l27.441,27.444L432,285.051z M464,248.686l-20.688-20.687H464V248.686z M440,211.999V83.19
			c5.279,1.078,10.721,1.078,16,0v128.809H440z M448,67.999c-13.255,0-24-10.745-24-24s10.745-24,24-24s24,10.745,24,24
			C471.986,57.248,461.249,67.985,448,67.999z"/>
	</g>
</g>
<g>
</g>
<g>
</g>
<g>
</g>
<g>
</g>
<g>
</g>
<g>
</g>
<g>
</g>
<g>
</g>
<g>
</g>
<g>
</g>
<g>
</g>
<g>
</g>
<g>
</g>
<g>
</g>
<g>
</g>
</svg>
