<?xml version="1.0" encoding="iso-8859-1"?>
<!-- Generator: Adobe Illustrator 19.0.0, SVG Export Plug-In . SVG Version: 6.00 Build 0)  -->
<svg version="1.1" id="Capa_1" xmlns="http://www.w3.org/2000/svg" xmlns:xlink="http://www.w3.org/1999/xlink" x="0px" y="0px"
	 viewBox="0 0 480 480" style="enable-background:new 0 0 480 480;" xml:space="preserve">
<g>
	<g>
		<path d="M240,0C107.452,0,0,107.452,0,240c0.15,132.486,107.514,239.85,240,240c132.548,0,240-107.452,240-240S372.548,0,240,0z
			 M240,464C116.288,464,16,363.712,16,240C16.139,116.346,116.346,16.139,240,16c123.712,0,224,100.288,224,224
			S363.712,464,240,464z"/>
	</g>
</g>
<g>
	<g>
		<path d="M384.004,88c-0.001,0-0.003,0-0.004,0h-48v16h28.688l-50.344,50.344l11.312,11.312L376,115.313V144h16V96
			C392.001,91.583,388.421,88.001,384.004,88z"/>
	</g>
</g>
<g>
	<g>
		<path d="M446.244,234.998c-0.368-0.459-0.785-0.876-1.244-1.244l-40-32l-10,12.492L417.194,232H344v16h73.194L395,265.754
			l10,12.492l40-32C448.45,243.483,449.007,238.447,446.244,234.998z"/>
	</g>
</g>
<g>
	<g>
		<path d="M325,217.754l-37-29.6V152h-16v23.354l-27-21.6c-2.924-2.336-7.076-2.336-10,0l-80,64
			c-3.449,2.763-4.004,7.799-1.241,11.248c1.518,1.894,3.814,2.997,6.241,2.998h24v72c-0.001,4.417,3.579,7.999,7.996,8
			c0.001,0,0.003,0,0.004,0h96c4.417,0.001,7.999-3.579,8-7.996c0-0.001,0-0.003,0-0.004v-72h24c4.419-0.002,8-3.586,7.998-8.005
			C327.997,221.568,326.894,219.272,325,217.754z M288,216c-4.417-0.001-7.999,3.579-8,7.996c0,0.001,0,0.003,0,0.004v72h-80v-72
			c0.001-4.417-3.579-7.999-7.996-8c-0.001,0-0.003,0-0.004,0h-9.195L240,170.246L297.195,216H288z"/>
	</g>
</g>
<g>
	<g>
		<path d="M136.234,232H62.806L85,214.246l-10-12.492l-40,32c-3.45,2.763-4.007,7.799-1.244,11.248
			c0.368,0.459,0.785,0.876,1.244,1.244l40,32l10-12.492L62.806,248h73.429V232z"/>
	</g>
</g>
<g>
	<g>
		<path d="M246.25,35.004c-3.002-3.452-8.233-3.817-11.685-0.815c-0.29,0.252-0.563,0.525-0.815,0.815l-32,40l12.5,9.992L232,62.806
			V136h16V62.806l17.75,22.19l12.5-9.992L246.25,35.004z"/>
	</g>
</g>
<g>
	<g>
		<path d="M115.314,104H144V88H96c-4.417-0.001-7.999,3.579-8,7.996c0,0.001,0,0.003,0,0.004v48h16v-28.689l50.344,50.337
			l11.312-11.312L115.314,104z"/>
	</g>
</g>
<g>
	<g>
		<path d="M157.656,317.656l-11.313-11.312L96,356.688V328H80v48c-0.001,4.417,3.579,7.999,7.996,8c0.001,0,0.003,0,0.004,0h48v-16
			h-28.688L157.656,317.656z"/>
	</g>
</g>
<g>
	<g>
		<path d="M265.75,387.004L248,409.194V336h-16v73.194l-17.75-22.19l-12.5,9.992l32,40c2.761,3.452,7.798,4.011,11.25,1.25
			c0.461-0.369,0.881-0.788,1.25-1.25l32-40L265.75,387.004z"/>
	</g>
</g>
<g>
	<g>
		<path d="M384,328v28.331l-50.367-50.007l-11.266,11.352L373.053,368H344v16h48c4.417,0.001,7.999-3.579,8-7.996
			c0-0.001,0-0.003,0-0.004v-48H384z"/>
	</g>
</g>
<g>
</g>
<g>
</g>
<g>
</g>
<g>
</g>
<g>
</g>
<g>
</g>
<g>
</g>
<g>
</g>
<g>
</g>
<g>
</g>
<g>
</g>
<g>
</g>
<g>
</g>
<g>
</g>
<g>
</g>
</svg>
