<?xml version="1.0" encoding="iso-8859-1"?>
<!-- Generator: Adobe Illustrator 19.0.0, SVG Export Plug-In . SVG Version: 6.00 Build 0)  -->
<svg version="1.1" id="Capa_1" xmlns="http://www.w3.org/2000/svg" xmlns:xlink="http://www.w3.org/1999/xlink" x="0px" y="0px"
	 viewBox="0 0 480 480" style="enable-background:new 0 0 480 480;" xml:space="preserve">
<g>
	<g>
		<path d="M324.996,217.754L288,188.157V152h-16v23.357l-27.004-21.603c-2.921-2.336-7.071-2.336-9.992,0l-80,64
			c-3.451,2.757-4.013,7.79-1.255,11.241c1.518,1.9,3.819,3.006,6.251,3.005h24v56c0,4.418,3.582,8,8,8h96c4.418,0,8-3.582,8-8v-56
			h24c3.398,0.001,6.426-2.145,7.551-5.352C328.674,223.442,327.65,219.875,324.996,217.754z M288,216c-4.418,0-8,3.582-8,8v56h-80
			v-56c0-4.418-3.582-8-8-8h-9.195L240,170.246L297.195,216H288z"/>
	</g>
</g>
<g>
	<g>
		<path d="M240,0C107.452,0,0,107.452,0,240s107.452,240,240,240s240-107.452,240-240C479.85,107.514,372.486,0.15,240,0z M240,464
			C116.288,464,16,363.712,16,240S116.288,16,240,16s224,100.288,224,224C463.861,363.654,363.654,463.861,240,464z"/>
	</g>
</g>
<g>
	<g>
		<path d="M134.25,235.008c-0.37-0.463-0.791-0.884-1.254-1.254l-40-32l-9.992,12.492L105.196,232H32v16h73.196l-22.192,17.754
			l9.992,12.492l40-32C136.446,243.489,137.007,238.458,134.25,235.008z"/>
	</g>
</g>
<g>
	<g>
		<path d="M168,304h-48v16h27.708l-57.412,58.391l11.406,11.219L160,330.318V360h16v-48C176,307.582,172.418,304,168,304z"/>
	</g>
</g>
<g>
	<g>
		<path d="M246.246,331.004c-2.997-3.45-8.223-3.817-11.672-0.82c-0.292,0.254-0.566,0.528-0.82,0.82l-32,40l12.492,9.992
			L232,358.804V448h16v-89.196l17.754,22.192l12.492-9.992L246.246,331.004z"/>
	</g>
</g>
<g>
	<g>
		<path d="M448,232h-73.196l22.192-17.754l-9.992-12.492l-40,32c-3.45,2.757-4.011,7.788-1.254,11.238
			c0.37,0.463,0.791,0.884,1.254,1.254l40,32l9.992-12.492L374.804,248H448V232z"/>
	</g>
</g>
<g>
	<g>
		<path d="M392.453,101.77L381.367,90.23L320,149.214V120h-16v48c0,4.418,3.582,8,8,8h48v-16h-28.131L392.453,101.77z"/>
	</g>
</g>
<g>
	<g>
		<path d="M265.754,83.004L248,105.196V32h-16v73.196l-17.754-22.192l-12.492,9.992l32,40C235.271,134.895,237.57,136,240,136
			c2.43,0,4.729-1.105,6.246-3.004l32-40L265.754,83.004z"/>
	</g>
</g>
<g>
	<g>
		<path d="M160,120l-0.005,28.679l-58.339-58.335l-11.312,11.312l58.341,58.338L120,160v16l47.996-0.012
			c4.417-0.002,7.996-3.583,7.996-8L176,120H160z"/>
	</g>
</g>
<g>
	<g>
		<path d="M331.315,320.006L360,320v-16l-47.996,0.012c-4.417,0.002-7.996,3.583-7.996,8L304,360h16l0.005-28.679l58.339,58.335
			l11.312-11.312L331.315,320.006z"/>
	</g>
</g>
<g>
</g>
<g>
</g>
<g>
</g>
<g>
</g>
<g>
</g>
<g>
</g>
<g>
</g>
<g>
</g>
<g>
</g>
<g>
</g>
<g>
</g>
<g>
</g>
<g>
</g>
<g>
</g>
<g>
</g>
</svg>
