<?xml version="1.0" encoding="iso-8859-1"?>
<!-- Generator: Adobe Illustrator 19.0.0, SVG Export Plug-In . SVG Version: 6.00 Build 0)  -->
<svg version="1.1" id="Capa_1" xmlns="http://www.w3.org/2000/svg" xmlns:xlink="http://www.w3.org/1999/xlink" x="0px" y="0px"
	 viewBox="0 0 480.002 480.002" style="enable-background:new 0 0 480.002 480.002;" xml:space="preserve">
<g>
	<g>
		<path d="M400.005,160.002c-0.001,0-0.003,0-0.004,0h-152v-24h-16v24h-152c-4.417-0.001-7.999,3.579-8,7.996
			c0,0.001,0,0.003,0,0.004v40h16v-32h144v32h16v-32h144v32h16v-40C408.002,163.585,404.422,160.003,400.005,160.002z"/>
	</g>
</g>
<g>
	<g>
		<path d="M240.001,224.002c-26.51,0-48,21.49-48,48c0,26.51,21.49,48,48,48c26.498-0.029,47.971-21.502,48-48
			C288.001,245.492,266.511,224.002,240.001,224.002z M240.001,304.002c-17.673,0-32-14.327-32-32c0-17.673,14.327-32,32-32
			c17.673,0,32,14.327,32,32C271.982,289.667,257.666,303.983,240.001,304.002z"/>
	</g>
</g>
<g>
	<g>
		<path d="M400.001,224.002c-26.498,0.029-47.971,21.502-48,48c0,26.51,21.49,48,48,48c26.51,0,48-21.49,48-48
			C448.001,245.492,426.511,224.002,400.001,224.002z M400.001,304.002c-17.673,0-32-14.327-32-32c0-17.673,14.327-32,32-32
			c17.665,0.019,31.981,14.335,32,32C432.001,289.675,417.674,304.002,400.001,304.002z"/>
	</g>
</g>
<g>
	<g>
		<path d="M80.001,224.002c-26.498,0.029-47.971,21.502-48,48c0,26.51,21.49,48,48,48s48-21.49,48-48
			C128.001,245.492,106.511,224.002,80.001,224.002z M80.001,304.002c-17.673,0-32-14.327-32-32c0.019-17.665,14.335-31.981,32-32
			c17.673,0,32,14.327,32,32C112.001,289.675,97.674,304.002,80.001,304.002z"/>
	</g>
</g>
<g>
	<g>
		<rect x="232.001" y="336.002" width="16" height="64"/>
	</g>
</g>
<g>
	<g>
		<path d="M56.005,416.002c-0.001,0-0.003,0-0.004,0h-48c-4.417-0.001-7.999,3.579-8,7.996c0,0.001,0,0.003,0,0.004v48
			c-0.001,4.417,3.579,7.999,7.996,8c0.001,0,0.003,0,0.004,0h48c4.417,0.001,7.999-3.579,8-7.996c0-0.001,0-0.003,0-0.004v-48
			C64.002,419.585,60.422,416.003,56.005,416.002z M48.001,464.002h-32v-32h32V464.002z"/>
	</g>
</g>
<g>
	<g>
		<path d="M152.005,416.002c-0.001,0-0.003,0-0.004,0h-48c-4.417-0.001-7.999,3.579-8,7.996c0,0.001,0,0.003,0,0.004v48
			c-0.001,4.417,3.579,7.999,7.996,8c0.001,0,0.003,0,0.004,0h48c4.417,0.001,7.999-3.579,8-7.996c0-0.001,0-0.003,0-0.004v-48
			C160.002,419.585,156.422,416.003,152.005,416.002z M144.001,464.002h-32v-32h32V464.002z"/>
	</g>
</g>
<g>
	<g>
		<path d="M376.005,416.002c-0.001,0-0.003,0-0.004,0h-48c-4.417-0.001-7.999,3.579-8,7.996c0,0.001,0,0.003,0,0.004v48
			c-0.001,4.417,3.579,7.999,7.996,8c0.001,0,0.003,0,0.004,0h48c4.417,0.001,7.999-3.579,8-7.996c0-0.001,0-0.003,0-0.004v-48
			C384.002,419.585,380.422,416.003,376.005,416.002z M368.001,464.002h-32v-32h32V464.002z"/>
	</g>
</g>
<g>
	<g>
		<path d="M472.005,416.002c-0.001,0-0.003,0-0.004,0h-48c-4.417-0.001-7.999,3.579-8,7.996c0,0.001,0,0.003,0,0.004v48
			c-0.001,4.417,3.579,7.999,7.996,8c0.001,0,0.003,0,0.004,0h48c4.417,0.001,7.999-3.579,8-7.996c0-0.001,0-0.003,0-0.004v-48
			C480.002,419.585,476.422,416.003,472.005,416.002z M464.001,464.002h-32v-32h32V464.002z"/>
	</g>
</g>
<g>
	<g>
		<path d="M264.005,416.002c-0.001,0-0.003,0-0.004,0h-48c-4.417-0.001-7.999,3.579-8,7.996c0,0.001,0,0.003,0,0.004v48
			c-0.001,4.417,3.579,7.999,7.996,8c0.001,0,0.003,0,0.004,0h48c4.417,0.001,7.999-3.579,8-7.996c0-0.001,0-0.003,0-0.004v-48
			C272.002,419.585,268.422,416.003,264.005,416.002z M256.001,464.002h-32v-32h32V464.002z"/>
	</g>
</g>
<g>
	<g>
		<path d="M128.005,368.002c-0.001,0-0.003,0-0.004,0h-40v-32h-16v32h-40c-4.417-0.001-7.999,3.579-8,7.996c0,0.001,0,0.003,0,0.004
			v24h16v-16h80v16h16v-24C136.002,371.585,132.422,368.003,128.005,368.002z"/>
	</g>
</g>
<g>
	<g>
		<path d="M448.005,368.002c-0.001,0-0.003,0-0.004,0h-40v-32h-16v32h-40c-4.417-0.001-7.999,3.579-8,7.996c0,0.001,0,0.003,0,0.004
			v24h16v-16h80v16h16v-24C456.002,371.585,452.422,368.003,448.005,368.002z"/>
	</g>
</g>
<g>
	<g>
		<path d="M311.579,54.33c-1.099-3.25-4.148-5.437-7.578-5.437h-42.988l-13.367-43.25c-1.303-4.222-5.783-6.588-10.005-5.285
			c-2.527,0.78-4.505,2.758-5.285,5.285l-13.367,43.25h-42.988c-4.419,0.001-8,3.583-8,8.002c0,2.493,1.163,4.844,3.144,6.357
			l35.121,26.828l-13.465,43.563c-1.304,4.221,1.061,8.701,5.282,10.005c2.472,0.764,5.162,0.285,7.218-1.286l34.699-26.508
			l34.699,26.508c3.511,2.682,8.532,2.01,11.214-1.501c1.571-2.056,2.05-4.746,1.286-7.218L273.735,90.08l35.121-26.828
			C311.582,61.169,312.677,57.58,311.579,54.33z M259.591,80.752c-2.664,2.036-3.777,5.515-2.789,8.719l7.719,24.977l-19.664-15.023
			c-2.867-2.187-6.843-2.187-9.711,0l-19.664,15.023l7.719-24.977c0.988-3.204-0.126-6.683-2.789-8.719L199.65,64.893h25.242
			c3.509-0.002,6.607-2.289,7.644-5.641l7.465-24.156l7.465,24.156c1.037,3.352,4.136,5.638,7.644,5.641h25.243L259.591,80.752z"/>
	</g>
</g>
<g>
</g>
<g>
</g>
<g>
</g>
<g>
</g>
<g>
</g>
<g>
</g>
<g>
</g>
<g>
</g>
<g>
</g>
<g>
</g>
<g>
</g>
<g>
</g>
<g>
</g>
<g>
</g>
<g>
</g>
</svg>
