<?xml version="1.0" encoding="iso-8859-1"?>
<!-- Generator: Adobe Illustrator 19.0.0, SVG Export Plug-In . SVG Version: 6.00 Build 0)  -->
<svg version="1.1" id="Layer_1" xmlns="http://www.w3.org/2000/svg" xmlns:xlink="http://www.w3.org/1999/xlink" x="0px" y="0px"
	 viewBox="0 0 511.837 511.837" style="enable-background:new 0 0 511.837 511.837;" xml:space="preserve">
<g>
	<g>
		<g>
			<path d="M156.818,96.332c-10.249,6.391-19.942,13.815-28.792,22.067c-3.447,3.209-3.635,8.61-0.418,12.066
				c1.681,1.801,3.951,2.705,6.238,2.705c2.082,0,4.173-0.751,5.82-2.287c8.047-7.509,16.862-14.259,26.189-20.07
				c4.002-2.492,5.214-7.757,2.722-11.759C166.094,95.061,160.828,93.832,156.818,96.332z"/>
			<path d="M224.41,70.724c-11.947,2.005-23.74,5.205-35.046,9.489c-4.412,1.672-6.63,6.605-4.949,11.008
				c1.289,3.413,4.531,5.513,7.97,5.513c1.007,0,2.039-0.179,3.029-0.555c10.274-3.9,20.983-6.801,31.829-8.627
				c4.651-0.794,7.782-5.188,7.006-9.839C233.456,73.071,229.018,69.896,224.41,70.724z"/>
			<path d="M150.094,40.541c1.22,0,2.466-0.265,3.644-0.819c9.677-4.582,19.755-8.542,29.969-11.768
				c4.497-1.417,6.989-6.212,5.564-10.709c-1.417-4.48-6.212-6.972-10.701-5.564c-10.948,3.456-21.76,7.697-32.128,12.612
				c-4.258,2.022-6.084,7.108-4.07,11.366C143.83,38.741,146.893,40.541,150.094,40.541z"/>
			<path d="M94.294,76.825c1.98,0,3.959-0.683,5.572-2.065c8.132-7.006,16.785-13.508,25.754-19.337
				c3.951-2.577,5.069-7.859,2.492-11.81c-2.568-3.951-7.842-5.069-11.81-2.5c-9.591,6.246-18.876,13.218-27.571,20.71
				c-3.576,3.072-3.977,8.465-0.905,12.041C89.524,75.818,91.905,76.825,94.294,76.825z"/>
			<path d="M45.398,125.158c1.459,0.973,3.115,1.442,4.745,1.442c2.756,0,5.444-1.314,7.091-3.772
				c5.982-8.892,12.612-17.459,19.703-25.464c3.123-3.524,2.807-8.917-0.725-12.041c-3.524-3.132-8.917-2.825-12.041,0.717
				c-7.603,8.567-14.703,17.749-21.103,27.273C40.449,117.222,41.481,122.521,45.398,125.158z"/>
			<path d="M18.168,185.873c0.896,0.299,1.8,0.444,2.697,0.444c3.575,0,6.903-2.27,8.098-5.845
				c3.379-10.18,7.484-20.198,12.194-29.79c2.074-4.233,0.333-9.344-3.9-11.418c-4.233-2.099-9.344-0.341-11.418,3.891
				c-5.052,10.283-9.446,21.026-13.073,31.932C11.282,179.558,13.697,184.388,18.168,185.873z"/>
			<path d="M89.771,188.202c1.161,0.538,2.381,0.794,3.584,0.794c3.226,0,6.298-1.826,7.748-4.941
				c4.634-9.984,10.257-19.55,16.708-28.442c2.765-3.814,1.92-9.156-1.903-11.921c-3.806-2.773-9.156-1.92-11.913,1.894
				c-7.091,9.788-13.278,20.301-18.372,31.283C83.636,181.145,85.496,186.214,89.771,188.202z"/>
			<path d="M73.49,211.669c-0.845,3.473-1.382,7.023-2.031,10.556c-16.384,2.483-29.03,16.538-29.03,33.613
				c0,18.825,15.309,34.133,34.133,34.133c18.825,0,34.133-15.309,34.133-34.133c0-2.116-0.239-4.207-0.631-6.272
				c-0.162-0.819-0.41-1.596-0.614-2.398c-0.324-1.186-0.657-2.364-1.101-3.516c-0.341-0.896-0.742-1.749-1.161-2.603
				c-0.478-0.99-0.99-1.937-1.57-2.876c-0.512-0.853-1.067-1.69-1.655-2.492c-0.23-0.316-0.41-0.674-0.657-0.99
				c-0.145-0.179-0.358-0.265-0.512-0.427c-0.939-1.143-1.886-2.261-2.97-3.268c-0.043-0.043-0.06-0.102-0.111-0.154
				c-0.247-0.23-0.555-0.393-0.819-0.614c-1.399-1.22-2.859-2.347-4.429-3.328c-0.171-0.094-0.341-0.171-0.503-0.273
				c-1.792-1.067-3.669-1.98-5.649-2.714h-0.009c0.529-2.765,1.118-5.521,1.766-8.243c1.109-4.582-1.707-9.19-6.289-10.3
				C79.224,204.271,74.599,207.087,73.49,211.669z M77.688,238.882c0.077,0.008,0.137,0.06,0.205,0.06
				c3.866,0.307,7.424,1.852,10.283,4.48c0.017,0.017,0.043,0.026,0.068,0.043c0.657,0.623,1.246,1.306,1.801,2.031
				c1.067,1.365,1.886,2.867,2.475,4.463c0.102,0.273,0.179,0.563,0.265,0.845c0.503,1.621,0.845,3.294,0.845,5.035
				c0,9.412-7.654,17.067-17.067,17.067c-9.404,0-17.067-7.654-17.067-17.067c0-9.412,7.663-17.067,17.067-17.067
				C76.946,238.771,77.304,238.856,77.688,238.882z"/>
			<path d="M324.25,99.464c10.052,4.412,19.738,9.83,28.783,16.12c1.485,1.033,3.183,1.527,4.864,1.527
				c2.697,0,5.359-1.28,7.014-3.669c2.697-3.866,1.732-9.182-2.142-11.878c-9.95-6.912-20.599-12.877-31.667-17.732
				c-4.344-1.894-9.353,0.077-11.238,4.386C317.97,92.535,319.941,97.57,324.25,99.464z"/>
			<path d="M397.953,63.88c2.364,1.749,4.617,3.669,6.929,5.513c-2.5,4.745-4.053,10.061-4.053,15.778
				c0,18.825,15.309,34.133,34.133,34.133s34.133-15.309,34.133-34.133c0-18.825-15.309-34.133-34.133-34.133
				c-6.903,0-13.312,2.091-18.688,5.632c-2.714-2.193-5.367-4.437-8.149-6.502c-3.797-2.79-9.131-2.005-11.947,1.775
				C393.379,55.731,394.172,61.073,397.953,63.88z M422.759,73.275c0.034-0.034,0.077-0.043,0.102-0.077
				c0.034-0.034,0.034-0.077,0.068-0.111c3.081-3.072,7.339-4.983,12.032-4.983c9.412,0,17.067,7.654,17.067,17.067
				c0,9.412-7.654,17.067-17.067,17.067c-9.404,0-17.067-7.654-17.067-17.067C417.895,80.537,419.764,76.347,422.759,73.275z"/>
			<path d="M418.8,180.838c-4.378,1.758-6.485,6.733-4.727,11.11c4.113,10.189,7.245,20.838,9.318,31.633
				c0.776,4.087,4.352,6.929,8.371,6.929c0.538,0,1.067-0.051,1.613-0.154c4.634-0.887,7.663-5.359,6.776-9.984
				c-2.27-11.887-5.717-23.595-10.249-34.816C428.118,181.179,423.126,179.089,418.8,180.838z"/>
			<path d="M213.539,20.488c0.478,0,0.964-0.034,1.459-0.12c10.522-1.809,21.291-2.927,32.017-3.302
				c4.702-0.171,8.388-4.13,8.218-8.841c-0.171-4.71-4.173-8.422-8.841-8.218c-11.477,0.41-23.014,1.596-34.295,3.541
				c-4.642,0.794-7.757,5.205-6.963,9.856C205.85,17.561,209.451,20.488,213.539,20.488z"/>
			<path d="M378.207,136.934c7.663,7.893,14.601,16.563,20.599,25.771c1.638,2.509,4.361,3.874,7.159,3.874
				c1.596,0,3.217-0.444,4.651-1.382c3.942-2.577,5.06-7.859,2.492-11.81c-6.613-10.129-14.234-19.669-22.673-28.339
				c-3.268-3.388-8.678-3.456-12.066-0.179C374.998,128.162,374.921,133.555,378.207,136.934z"/>
			<path d="M483.167,182.383c3.277,10.155,5.905,20.659,7.799,31.232c0.734,4.13,4.326,7.031,8.388,7.031
				c0.503,0,0.998-0.043,1.51-0.137c4.642-0.828,7.723-5.257,6.895-9.899c-2.022-11.332-4.838-22.596-8.363-33.485
				c-1.451-4.48-6.229-6.938-10.752-5.487C484.165,173.09,481.716,177.902,483.167,182.383z"/>
			<path d="M463.13,137.164c2.696,4.71,5.291,9.609,7.697,14.558c1.476,3.038,4.514,4.804,7.689,4.804
				c1.246,0,2.517-0.273,3.721-0.862c4.233-2.057,5.999-7.168,3.942-11.401c-2.577-5.308-5.35-10.556-8.252-15.599
				c-2.338-4.079-7.552-5.495-11.648-3.149C462.192,127.863,460.775,133.077,463.13,137.164z"/>
			<path d="M251.845,76.475c-0.119,4.71,3.61,8.627,8.32,8.747c11.042,0.282,22.059,1.63,32.742,4.002
				c0.623,0.137,1.237,0.205,1.852,0.205c3.908,0,7.441-2.705,8.329-6.69c1.016-4.599-1.886-9.156-6.485-10.18
				c-11.759-2.611-23.876-4.087-36.011-4.395c-0.068-0.009-0.145-0.009-0.213-0.009C255.762,68.155,251.973,71.833,251.845,76.475z"
				/>
			<path d="M279.203,18.039c10.684,1.041,21.367,2.825,31.761,5.282c0.657,0.154,1.323,0.23,1.971,0.23
				c3.866,0,7.373-2.637,8.294-6.562c1.092-4.582-1.749-9.182-6.332-10.274c-11.136-2.637-22.588-4.548-34.031-5.658
				c-4.762-0.503-8.866,2.97-9.318,7.654C271.088,13.405,274.51,17.578,279.203,18.039z"/>
			<path d="M8.176,251.682c0.154,0.008,0.299,0.017,0.444,0.017c4.514,0,8.286-3.541,8.516-8.107
				c0.546-10.735,1.809-21.495,3.772-31.966c0.87-4.634-2.185-9.097-6.81-9.958c-4.676-0.879-9.097,2.185-9.958,6.818
				c-2.108,11.221-3.465,22.741-4.053,34.244C-0.144,247.441,3.482,251.443,8.176,251.682z"/>
			<path d="M341.701,32.853c9.993,3.866,19.806,8.44,29.167,13.611c1.314,0.725,2.731,1.067,4.122,1.067
				c3.004,0,5.922-1.596,7.475-4.412c2.278-4.122,0.785-9.318-3.345-11.597c-10.044-5.538-20.557-10.445-31.266-14.583
				c-4.378-1.698-9.335,0.478-11.034,4.881C335.122,26.214,337.306,31.155,341.701,32.853z"/>
			<path d="M427.973,421.469c-7.433,7.731-15.454,15.019-23.825,21.658c-3.695,2.927-4.318,8.303-1.382,11.989
				c1.681,2.125,4.173,3.234,6.69,3.234c1.86,0,3.721-0.606,5.291-1.843c8.977-7.125,17.57-14.925,25.523-23.202
				c3.268-3.396,3.157-8.798-0.23-12.066C436.634,417.979,431.241,418.073,427.973,421.469z"/>
			<path d="M412.383,359.381c6.69-10.112,12.416-20.89,17.024-32.06c1.792-4.352-0.282-9.344-4.634-11.136
				c-4.335-1.792-9.353,0.265-11.153,4.634c-4.181,10.146-9.387,19.951-15.471,29.133c-2.603,3.934-1.527,9.225,2.406,11.827
				c1.451,0.964,3.081,1.425,4.702,1.425C408.022,363.204,410.736,361.856,412.383,359.381z"/>
			<path d="M377.362,375.586c-7.697,7.834-16.213,14.959-25.31,21.18c-3.883,2.662-4.873,7.97-2.219,11.861
				c1.656,2.415,4.326,3.712,7.057,3.712c1.656,0,3.337-0.486,4.813-1.493c9.993-6.844,19.354-14.677,27.827-23.287
				c3.311-3.362,3.26-8.764-0.102-12.075C386.074,372.181,380.656,372.224,377.362,375.586z"/>
			<path d="M318.448,486.459c-10.308,2.799-20.924,4.924-31.556,6.306c-4.676,0.606-7.97,4.881-7.364,9.557
				c0.563,4.301,4.224,7.433,8.448,7.433c0.367,0,0.734-0.017,1.109-0.068c11.401-1.485,22.784-3.755,33.826-6.75
				c4.548-1.237,7.236-5.922,5.999-10.47C327.681,487.918,322.996,485.248,318.448,486.459z"/>
			<path d="M323.167,412.672c-10.104,4.352-20.668,7.723-31.42,10.035c-4.608,0.981-7.543,5.521-6.554,10.129
				c0.862,4.002,4.403,6.741,8.337,6.741c0.589,0,1.195-0.06,1.801-0.188c11.836-2.543,23.467-6.255,34.586-11.042
				c4.318-1.86,6.323-6.878,4.454-11.213C332.511,412.8,327.467,410.82,323.167,412.672z"/>
			<path d="M374.435,242.048c-0.529-4.685-4.753-8.03-9.446-7.501c-4.685,0.538-8.047,4.77-7.501,9.455
				c0.452,3.908,0.674,7.893,0.674,11.836c0,54.827-43.307,99.729-97.519,102.281c-3.797-7.364-10.624-23.927-5.325-39.851
				c1.587-4.745,4.915-5.564,15.497-5.922c9.651-0.324,27.614-0.93,27.614-22.374c0-19.251-12.032-24.687-19.226-27.93
				c-6.144-2.765-6.374-3.251-6.374-6.204c0-16.538,4.591-27.793,14.037-34.415c23.185-16.299,67.942-0.393,68.386-0.23
				c3.174,1.152,6.733,0.316,9.062-2.116c2.338-2.432,3.021-6.007,1.749-9.131c-18.27-44.698-61.559-73.574-110.302-73.574
				c-22.682,0-43.844,6.468-61.926,17.493c-1.527,0.418-2.927,1.229-4.045,2.466c-32.213,21.427-53.495,58.01-53.495,99.507
				c0,48.401,28.868,91.708,73.549,110.328c4.352,1.809,9.344-0.239,11.162-4.599c1.818-4.352-0.239-9.353-4.591-11.162
				c-38.306-15.957-63.053-53.077-63.053-94.566c0-3.567,0.196-7.083,0.546-10.556c1.545,0.666,3.217,1.271,5.103,1.758
				c0.785,0.205,1.647,0.29,2.372,0.265c16.606,0,23.586-6.366,28.698-11.017c4.139-3.772,6.63-6.05,15.112-6.05
				c9.532,0,17.621-6.511,21.112-16.998c4.13-12.399,1.963-31.71-15.249-49.382c13.534-6.605,28.663-10.419,44.706-10.419
				c35.413,0,67.465,17.766,85.931,46.472c-18.236-3.678-45.5-5.854-64.597,7.518c-14.157,9.907-21.333,26.197-21.333,48.41
				c0,14.353,10.274,18.987,16.418,21.76c6.306,2.842,9.182,4.147,9.182,12.373c0,4.471,0,4.941-11.128,5.316
				c-9.54,0.324-25.523,0.862-31.095,17.587c-9.745,29.218,8.73,57.438,9.523,58.633c1.587,2.372,4.25,3.797,7.1,3.797
				c65.877,0,119.467-53.589,119.467-119.467C375.228,251.246,374.964,246.604,374.435,242.048z M210.108,207.837
				c-0.853,2.577-2.594,5.333-4.915,5.333c-15.087,0-21.478,5.828-26.615,10.505c-4.198,3.831-7.031,6.409-16.299,6.554
				c-2.475-0.759-3.985-1.741-4.898-2.492c6.374-22.298,20.122-41.455,38.451-54.758
				C211.295,186.982,212.327,201.19,210.108,207.837z"/>
			<path d="M377.626,461.405c-9.199,5.47-18.867,10.359-28.732,14.541c-4.343,1.835-6.366,6.844-4.531,11.187
				c1.374,3.251,4.54,5.205,7.859,5.205c1.118,0,2.236-0.222,3.319-0.674c10.59-4.48,20.949-9.728,30.805-15.59
				c4.045-2.406,5.385-7.637,2.97-11.699C386.911,460.322,381.671,459.008,377.626,461.405z"/>
			<path d="M511.531,244.898c-0.205-4.71-4.19-8.192-8.892-8.158c-4.71,0.205-8.363,4.181-8.158,8.892
				c0.137,3.388,0.213,6.784,0.213,10.206c0,7.33-0.333,14.729-0.998,21.99c-0.427,4.693,3.029,8.849,7.723,9.276
				c0.265,0.017,0.529,0.034,0.785,0.034c4.369,0,8.081-3.328,8.491-7.757c0.708-7.782,1.067-15.701,1.067-23.543
				C511.762,252.177,511.685,248.524,511.531,244.898z"/>
			<path d="M434.996,247.927h-0.034c-4.702,0-8.516,3.797-8.533,8.499c-0.043,11.068-1.143,22.118-3.268,32.828
				c-0.922,4.625,2.082,9.114,6.699,10.035c0.572,0.111,1.126,0.162,1.681,0.162c3.985,0,7.544-2.807,8.354-6.869
				c2.355-11.785,3.558-23.936,3.601-36.096C443.512,251.776,439.706,247.944,434.996,247.927z"/>
			<path d="M498.859,303.206c-4.617-1.015-9.173,1.818-10.232,6.4c-2.398,10.419-5.538,20.787-9.335,30.805
				c-1.664,4.412,0.563,9.336,4.958,11c1.007,0.384,2.022,0.563,3.029,0.563c3.439,0,6.69-2.108,7.979-5.521
				c4.062-10.735,7.432-21.845,10.001-33.015C506.318,308.847,503.45,304.264,498.859,303.206z"/>
			<path d="M477.466,366.225c-4.139-2.261-9.327-0.708-11.571,3.43c-5.094,9.378-10.88,18.526-17.22,27.179
				c-2.782,3.806-1.954,9.139,1.843,11.921c1.519,1.118,3.285,1.655,5.035,1.655c2.637,0,5.222-1.212,6.895-3.49
				c6.793-9.276,12.996-19.081,18.449-29.133C483.15,373.649,481.605,368.469,477.466,366.225z"/>
			<path d="M194.305,415.078c-10.223-3.959-20.13-8.951-29.449-14.839c-3.968-2.526-9.259-1.34-11.767,2.645
				c-2.526,3.985-1.331,9.259,2.645,11.776c10.249,6.485,21.154,11.981,32.418,16.333c1.007,0.393,2.048,0.58,3.081,0.58
				c3.413,0,6.647-2.074,7.953-5.453C200.884,421.717,198.708,416.776,194.305,415.078z"/>
			<path d="M132.233,460.399c-9.156-5.547-18.022-11.759-26.351-18.475c-3.686-2.97-9.054-2.381-12.006,1.28
				c-2.953,3.669-2.381,9.045,1.289,11.998c8.934,7.202,18.423,13.858,28.228,19.797c1.382,0.836,2.901,1.229,4.412,1.229
				c2.884,0,5.709-1.459,7.305-4.113C137.558,468.087,136.261,462.839,132.233,460.399z"/>
			<path d="M96.376,337.843c4.284-1.954,6.178-7.014,4.224-11.298c-2.244-4.941-4.275-10.027-6.025-15.095
				c-1.519-4.454-6.374-6.852-10.837-5.299c-4.463,1.536-6.827,6.391-5.291,10.846c1.911,5.589,4.147,11.179,6.622,16.623
				c1.434,3.14,4.531,4.992,7.774,4.992C94.03,338.611,95.233,338.363,96.376,337.843z"/>
			<path d="M61.697,395.255c-2.748-3.814-8.073-4.685-11.913-1.937c-3.823,2.756-4.685,8.081-1.937,11.904
				c6.699,9.318,14.089,18.253,21.973,26.581c1.681,1.775,3.942,2.671,6.204,2.671c2.108,0,4.215-0.776,5.862-2.338
				c3.422-3.243,3.567-8.644,0.333-12.066C74.855,412.296,67.952,403.951,61.697,395.255z"/>
			<path d="M213.095,247.304c-8.772,0-15.744,9.156-19.115,14.618c-6.579,10.633-11.981,27.597-5.581,40.397
				c4.548,9.105,11.298,10.462,14.916,10.462c8.465,0,15.147-6.818,19.251-12.518c3.678-5.103,7.595-12.723,7.595-18.825
				C230.162,270.361,230.162,247.304,213.095,247.304z M203.999,295.296c-0.102-0.171-0.222-0.367-0.333-0.606
				c-1.69-3.371-1.391-9.114,0.794-15.343c2.091-5.931,5.248-10.675,7.569-13.218c0.589,2.56,1.067,7.142,1.067,15.215
				C212.822,284.748,207.446,293.179,203.999,295.296z"/>
			<path d="M117.121,355.114c-2.739-3.831-8.064-4.71-11.913-1.98c-3.831,2.748-4.71,8.081-1.971,11.904
				c7.031,9.83,15.053,19.029,23.842,27.349c1.647,1.562,3.755,2.33,5.862,2.33c2.261,0,4.531-0.896,6.204-2.671
				c3.243-3.422,3.089-8.823-0.333-12.058C130.808,372.428,123.512,364.057,117.121,355.114z"/>
			<path d="M31.523,338.525c-1.647-4.42-6.562-6.69-10.965-5.052c-4.42,1.63-6.682,6.536-5.052,10.957
				c3.968,10.743,8.704,21.333,14.106,31.497c1.536,2.884,4.489,4.523,7.543,4.523c1.348,0,2.714-0.316,3.994-0.99
				c4.164-2.21,5.751-7.381,3.533-11.546C39.647,358.434,35.209,348.544,31.523,338.525z"/>
			<path d="M258.979,426.479l-3.217,0.026c-9.975,0-19.968-0.87-29.679-2.577c-4.651-0.811-9.071,2.287-9.89,6.929
				c-0.802,4.642,2.295,9.062,6.938,9.882c10.684,1.877,21.666,2.833,32.631,2.833l3.533-0.026c4.71-0.094,8.456-3.985,8.38-8.695
				C267.572,430.139,263.365,426.41,258.979,426.479z"/>
			<path d="M191.13,485.93c-10.3-2.893-20.497-6.511-30.336-10.769c-4.335-1.894-9.344,0.12-11.221,4.437
				c-1.869,4.318,0.111,9.344,4.437,11.221c10.539,4.565,21.478,8.448,32.521,11.546c0.768,0.213,1.536,0.316,2.304,0.316
				c3.729,0,7.151-2.466,8.209-6.229C198.324,491.912,195.67,487.202,191.13,485.93z"/>
			<path d="M254.746,494.771c-10.752-0.043-21.547-0.811-32.111-2.278c-4.685-0.657-8.977,2.62-9.626,7.287
				c-0.649,4.668,2.611,8.977,7.279,9.626c11.315,1.562,22.878,2.389,34.389,2.432h0.034c4.702,0,8.516-3.797,8.533-8.499
				C263.263,498.628,259.465,494.788,254.746,494.771z"/>
			<path d="M22.452,307.618c-2.304-10.428-3.925-21.129-4.796-31.821c-0.393-4.685-4.565-8.192-9.207-7.799
				c-4.702,0.384-8.192,4.506-7.808,9.199c0.947,11.46,2.679,22.929,5.146,34.108c0.887,3.985,4.412,6.69,8.329,6.69
				c0.606,0,1.229-0.06,1.852-0.196C20.566,316.783,23.467,312.217,22.452,307.618z"/>
		</g>
	</g>
</g>
<g>
</g>
<g>
</g>
<g>
</g>
<g>
</g>
<g>
</g>
<g>
</g>
<g>
</g>
<g>
</g>
<g>
</g>
<g>
</g>
<g>
</g>
<g>
</g>
<g>
</g>
<g>
</g>
<g>
</g>
</svg>
