<?xml version="1.0" encoding="iso-8859-1"?>
<!-- Generator: Adobe Illustrator 19.0.0, SVG Export Plug-In . SVG Version: 6.00 Build 0)  -->
<svg version="1.1" id="Layer_1" xmlns="http://www.w3.org/2000/svg" xmlns:xlink="http://www.w3.org/1999/xlink" x="0px" y="0px"
	 viewBox="0 0 512.002 512.002" style="enable-background:new 0 0 512.002 512.002;" xml:space="preserve">
<g>
	<g>
		<g>
			<path d="M264.534,136.535h-8.533v-25.6c0-4.71-3.814-8.533-8.533-8.533s-8.533,3.823-8.533,8.533v34.133
				c0,4.71,3.814,8.533,8.533,8.533h17.067c4.719,0,8.533-3.823,8.533-8.533C273.068,140.358,269.253,136.535,264.534,136.535z"/>
			<path d="M93.868,358.402H59.734c-4.719,0-8.533,3.823-8.533,8.533v51.2c0,4.71,3.814,8.533,8.533,8.533h34.133
				c4.719,0,8.533-3.823,8.533-8.533v-51.2C102.401,362.225,98.587,358.402,93.868,358.402z M85.334,409.602H68.268v-34.133h17.067
				V409.602z"/>
			<path d="M102.401,264.535c0-4.71-3.814-8.533-8.533-8.533H59.734c-4.719,0-8.533,3.823-8.533,8.533v51.2
				c0,4.71,3.814,8.533,8.533,8.533h34.133c4.719,0,8.533-3.823,8.533-8.533V264.535z M85.334,307.202H68.268v-34.133h17.067
				V307.202z"/>
			<path d="M119.468,213.335c0-4.71-3.814-8.533-8.533-8.533H17.068v-8.533c0-4.71-3.814-8.533-8.533-8.533
				s-8.533,3.823-8.533,8.533v290.133c0,14.114,11.486,25.6,25.6,25.6h68.267c14.114,0,25.6-11.486,25.6-25.6
				s-11.486-25.6-25.6-25.6c-1.476,0-2.944,0.128-4.386,0.384c-5.879-10.607-17.101-17.451-29.747-17.451
				s-23.868,6.844-29.747,17.451c-1.442-0.256-2.91-0.384-4.386-0.384c-3.012,0-5.854,0.614-8.533,1.57V221.869h93.867
				C115.653,221.869,119.468,218.046,119.468,213.335z M25.601,477.869c1.63,0,3.191,0.469,4.625,1.391
				c2.33,1.51,5.257,1.783,7.834,0.734c2.577-1.041,4.471-3.277,5.112-5.982c1.792-7.774,8.602-13.21,16.563-13.21
				s14.763,5.436,16.563,13.21c0.64,2.705,2.534,4.941,5.112,5.982c2.577,1.05,5.495,0.777,7.834-0.734
				c5.564-3.584,13.158,0.802,13.158,7.142c0,4.702-3.823,8.533-8.533,8.533H25.601c-4.71,0-8.533-3.831-8.533-8.533
				C17.068,481.7,20.891,477.869,25.601,477.869z"/>
			<path d="M366.934,477.869H145.068c-4.719,0-8.533,3.823-8.533,8.533v17.067c0,4.71,3.814,8.533,8.533,8.533
				s8.533-3.823,8.533-8.533v-8.533h204.8v8.533c0,4.71,3.814,8.533,8.533,8.533s8.533-3.823,8.533-8.533v-17.067
				C375.468,481.692,371.653,477.869,366.934,477.869z"/>
			<path d="M145.068,460.802c4.719,0,8.533-3.823,8.533-8.533v-332.8c0-4.71-3.814-8.533-8.533-8.533s-8.533,3.823-8.533,8.533
				v332.8C136.534,456.979,140.349,460.802,145.068,460.802z"/>
			<path d="M366.934,102.402c-4.719,0-8.533,3.823-8.533,8.533v341.333c0,4.71,3.814,8.533,8.533,8.533s8.533-3.823,8.533-8.533
				V110.935C375.468,106.225,371.653,102.402,366.934,102.402z"/>
			<path d="M503.468,187.735c-4.719,0-8.533,3.823-8.533,8.533v8.533h-93.867c-4.719,0-8.533,3.823-8.533,8.533
				c0,4.71,3.814,8.533,8.533,8.533h93.867v240.503c-2.688-0.956-5.53-1.57-8.533-1.57c-1.476,0-2.944,0.128-4.386,0.384
				c-5.879-10.607-17.101-17.451-29.747-17.451c-12.646,0-23.868,6.844-29.747,17.451c-1.442-0.256-2.91-0.384-4.386-0.384
				c-14.114,0-25.6,11.486-25.6,25.6s11.486,25.6,25.6,25.6h68.267c14.114,0,25.6-11.486,25.6-25.6V196.269
				C512.001,191.558,508.187,187.735,503.468,187.735z M486.401,494.935h-68.267c-4.71,0-8.533-3.831-8.533-8.533
				c0-4.702,3.823-8.533,8.533-8.533c1.63,0,3.191,0.469,4.625,1.391c2.338,1.51,5.257,1.783,7.834,0.734
				c2.577-1.041,4.471-3.277,5.111-5.982c1.792-7.774,8.602-13.21,16.563-13.21c7.962,0,14.763,5.436,16.563,13.21
				c0.64,2.705,2.534,4.941,5.111,5.982c2.577,1.05,5.495,0.777,7.834-0.734c5.572-3.584,13.158,0.802,13.158,7.142
				C494.934,491.104,491.111,494.935,486.401,494.935z"/>
			<path d="M388.396,78.022l-128-76.8c-2.705-1.63-6.084-1.63-8.789,0l-128,76.8c-4.036,2.423-5.35,7.663-2.918,11.708
				c2.423,4.036,7.654,5.35,11.708,2.918l123.605-74.163l123.605,74.163c1.374,0.828,2.893,1.22,4.386,1.22
				c2.901,0,5.726-1.476,7.322-4.139C393.746,85.685,392.432,80.446,388.396,78.022z"/>
			<path d="M409.601,418.135c0,4.71,3.814,8.533,8.533,8.533h34.133c4.719,0,8.533-3.823,8.533-8.533v-51.2
				c0-4.71-3.814-8.533-8.533-8.533h-34.133c-4.719,0-8.533,3.823-8.533,8.533V418.135z M426.668,375.469h17.067v34.133h-17.067
				V375.469z"/>
			<path d="M418.134,324.269h34.133c4.719,0,8.533-3.823,8.533-8.533v-51.2c0-4.71-3.814-8.533-8.533-8.533h-34.133
				c-4.719,0-8.533,3.823-8.533,8.533v51.2C409.601,320.446,413.415,324.269,418.134,324.269z M426.668,273.069h17.067v34.133
				h-17.067V273.069z"/>
			<path d="M249.942,412.077c-1.545,1.621-2.475,3.755-2.475,6.059c0,2.219,0.93,4.437,2.475,6.059
				c1.613,1.536,3.746,2.475,6.059,2.475c2.219,0,4.429-0.939,6.059-2.475c1.536-1.621,2.475-3.84,2.475-6.059
				c0-2.304-0.939-4.437-2.475-6.059C258.902,408.919,253.006,408.919,249.942,412.077z"/>
			<path d="M187.734,315.735c0,4.71,3.814,8.533,8.533,8.533h34.133c4.719,0,8.533-3.823,8.533-8.533v-51.2
				c0-4.71-3.814-8.533-8.533-8.533h-34.133c-4.719,0-8.533,3.823-8.533,8.533V315.735z M204.801,273.069h17.067v34.133h-17.067
				V273.069z"/>
			<path d="M281.601,256.002c-4.719,0-8.533,3.823-8.533,8.533v51.2c0,4.71,3.814,8.533,8.533,8.533h34.133
				c4.719,0,8.533-3.823,8.533-8.533v-51.2c0-4.71-3.814-8.533-8.533-8.533H281.601z M307.201,307.202h-17.067v-34.133h17.067
				V307.202z"/>
			<path d="M256.001,68.269c-37.641,0-68.267,30.626-68.267,68.267c0,37.641,30.626,68.267,68.267,68.267
				c37.641,0,68.267-30.626,68.267-68.267C324.268,98.895,293.642,68.269,256.001,68.269z M256.001,187.735
				c-28.237,0-51.2-22.963-51.2-51.2s22.963-51.2,51.2-51.2s51.2,22.963,51.2,51.2S284.238,187.735,256.001,187.735z"/>
			<path d="M170.668,366.935c0,4.71,3.814,8.533,8.533,8.533h25.6v76.8c0,4.71,3.814,8.533,8.533,8.533
				c4.719,0,8.533-3.823,8.533-8.533v-76.8h68.267v76.8c0,4.71,3.814,8.533,8.533,8.533s8.533-3.823,8.533-8.533v-76.8h25.6
				c4.719,0,8.533-3.823,8.533-8.533s-3.814-8.533-8.533-8.533h-153.6C174.482,358.402,170.668,362.225,170.668,366.935z"/>
		</g>
	</g>
</g>
<g>
</g>
<g>
</g>
<g>
</g>
<g>
</g>
<g>
</g>
<g>
</g>
<g>
</g>
<g>
</g>
<g>
</g>
<g>
</g>
<g>
</g>
<g>
</g>
<g>
</g>
<g>
</g>
<g>
</g>
</svg>
