<?xml version="1.0" encoding="iso-8859-1"?>
<!-- Generator: Adobe Illustrator 19.0.0, SVG Export Plug-In . SVG Version: 6.00 Build 0)  -->
<svg version="1.1" id="Layer_1" xmlns="http://www.w3.org/2000/svg" xmlns:xlink="http://www.w3.org/1999/xlink" x="0px" y="0px"
	 viewBox="0 0 512 512" style="enable-background:new 0 0 512 512;" xml:space="preserve">
<g>
	<g>
		<g>
			<path d="M93.867,358.4H59.733c-4.719,0-8.533,3.823-8.533,8.533v51.2c0,4.71,3.814,8.533,8.533,8.533h34.133
				c4.719,0,8.533-3.823,8.533-8.533v-51.2C102.4,362.223,98.586,358.4,93.867,358.4z M85.333,409.6H68.267v-34.133h17.067V409.6z"
				/>
			<path d="M187.733,315.733V281.6c0-14.114-11.486-25.6-25.6-25.6s-25.6,11.486-25.6,25.6v34.133c0,4.71,3.814,8.533,8.533,8.533
				H179.2C183.919,324.267,187.733,320.444,187.733,315.733z M170.667,307.2H153.6v-25.6c0-4.702,3.823-8.533,8.533-8.533
				c4.71,0,8.533,3.831,8.533,8.533V307.2z"/>
			<path d="M332.8,358.4H179.2c-4.719,0-8.533,3.823-8.533,8.533s3.814,8.533,8.533,8.533h8.533v76.8
				c0,4.71,3.814,8.533,8.533,8.533s8.533-3.823,8.533-8.533v-76.8h42.667V409.6c-4.719,0-8.533,3.823-8.533,8.533
				s3.814,8.533,8.533,8.533v25.6c0,4.71,3.814,8.533,8.533,8.533s8.533-3.823,8.533-8.533v-25.6c4.719,0,8.533-3.823,8.533-8.533
				s-3.814-8.533-8.533-8.533v-34.133H307.2v76.8c0,4.71,3.814,8.533,8.533,8.533s8.533-3.823,8.533-8.533v-76.8h8.533
				c4.719,0,8.533-3.823,8.533-8.533S337.519,358.4,332.8,358.4z"/>
			<path d="M162.133,187.733c4.719,0,8.533-3.823,8.533-8.533c0-36.446,24.098-64.683,59.981-73.719
				C218.18,120.346,204.8,144.35,204.8,179.2c0,4.71,3.814,8.533,8.533,8.533c4.719,0,8.533-3.823,8.533-8.533
				c0-43.358,23.936-66.825,34.099-74.846c10.069,8.004,34.167,31.65,34.167,74.846c0,4.71,3.814,8.533,8.533,8.533
				s8.533-3.823,8.533-8.533c0-34.85-13.38-58.854-25.847-73.719c35.883,9.037,59.981,37.274,59.981,73.719
				c0,4.71,3.814,8.533,8.533,8.533s8.533-3.823,8.533-8.533c0-50.859-39.799-89.762-93.867-93.5V17.067h51.2v17.067h-25.6
				c-4.719,0-8.533,3.823-8.533,8.533c0,4.71,3.814,8.533,8.533,8.533h34.133c4.719,0,8.533-3.823,8.533-8.533V8.533
				c0-4.71-3.814-8.533-8.533-8.533H256c-4.719,0-8.533,3.823-8.533,8.533V85.7c-54.067,3.738-93.867,42.641-93.867,93.5
				C153.6,183.91,157.414,187.733,162.133,187.733z"/>
			<path d="M332.8,477.867H179.2c-4.719,0-8.533,3.823-8.533,8.533v17.067c0,4.71,3.814,8.533,8.533,8.533s8.533-3.823,8.533-8.533
				v-8.533h136.533v8.533c0,4.71,3.814,8.533,8.533,8.533c4.719,0,8.533-3.823,8.533-8.533V486.4
				C341.333,481.69,337.519,477.867,332.8,477.867z"/>
			<path d="M366.933,324.267c4.719,0,8.533-3.823,8.533-8.533V281.6c0-14.114-11.486-25.6-25.6-25.6s-25.6,11.486-25.6,25.6v34.133
				c0,4.71,3.814,8.533,8.533,8.533H366.933z M341.333,281.6c0-4.702,3.823-8.533,8.533-8.533s8.533,3.831,8.533,8.533v25.6h-17.067
				V281.6z"/>
			<path d="M418.133,324.267h34.133c4.719,0,8.533-3.823,8.533-8.533V281.6c0-14.114-11.486-25.6-25.6-25.6s-25.6,11.486-25.6,25.6
				v34.133C409.6,320.444,413.414,324.267,418.133,324.267z M426.667,281.6c0-4.702,3.823-8.533,8.533-8.533
				s8.533,3.831,8.533,8.533v25.6h-17.067V281.6z"/>
			<path d="M503.467,187.733c-4.719,0-8.533,3.823-8.533,8.533v8.533H17.067v-8.533c0-4.71-3.814-8.533-8.533-8.533
				S0,191.556,0,196.267v307.2C0,508.177,3.814,512,8.533,512h136.533c4.719,0,8.533-3.823,8.533-8.533v-34.133
				c0-9.412-7.663-17.067-17.067-17.067c-3.106,0-6.025,0.836-8.533,2.296c-5.018-2.918-12.049-2.918-17.067,0
				c-5.018-2.918-12.049-2.918-17.067,0c-5.018-2.918-12.049-2.918-17.067,0c-5.018-2.918-12.049-2.918-17.067,0
				c-5.018-2.918-12.049-2.918-17.067,0c-5.018-2.918-12.049-2.918-17.067,0c-2.509-1.459-5.427-2.296-8.533-2.296v-230.4h477.867
				v230.4c-3.106,0-6.025,0.836-8.533,2.296c-5.018-2.918-12.049-2.918-17.067,0c-5.018-2.918-12.049-2.918-17.067,0
				c-5.018-2.918-12.049-2.918-17.067,0c-5.018-2.918-12.049-2.918-17.067,0c-5.018-2.918-12.049-2.918-17.067,0
				c-5.018-2.918-12.049-2.918-17.067,0c-2.509-1.459-5.427-2.296-8.533-2.296c-9.412,0-17.067,7.654-17.067,17.067v34.133
				c0,4.71,3.814,8.533,8.533,8.533h136.533c4.719,0,8.533-3.823,8.533-8.533v-307.2C512,191.556,508.186,187.733,503.467,187.733z
				 M25.6,477.867c4.719,0,8.533-3.823,8.533-8.533c0,4.71,3.814,8.533,8.533,8.533s8.533-3.823,8.533-8.533
				c0,4.71,3.814,8.533,8.533,8.533s8.533-3.823,8.533-8.533c0,4.71,3.814,8.533,8.533,8.533s8.533-3.823,8.533-8.533
				c0,4.71,3.814,8.533,8.533,8.533c4.719,0,8.533-3.823,8.533-8.533c0,4.71,3.814,8.533,8.533,8.533s8.533-3.823,8.533-8.533
				c0,4.71,3.814,8.533,8.533,8.533s8.533-3.823,8.533-8.533v25.6H17.067v-25.6C17.067,474.044,20.881,477.867,25.6,477.867z
				 M494.933,494.933H375.467v-25.6c0,4.71,3.814,8.533,8.533,8.533c4.719,0,8.533-3.823,8.533-8.533
				c0,4.71,3.814,8.533,8.533,8.533c4.719,0,8.533-3.823,8.533-8.533c0,4.71,3.814,8.533,8.533,8.533s8.533-3.823,8.533-8.533
				c0,4.71,3.814,8.533,8.533,8.533s8.533-3.823,8.533-8.533c0,4.71,3.814,8.533,8.533,8.533c4.719,0,8.533-3.823,8.533-8.533
				c0,4.71,3.814,8.533,8.533,8.533s8.533-3.823,8.533-8.533c0,4.71,3.814,8.533,8.533,8.533s8.533-3.823,8.533-8.533V494.933z"/>
			<path d="M409.6,418.133c0,4.71,3.814,8.533,8.533,8.533h34.133c4.719,0,8.533-3.823,8.533-8.533v-51.2
				c0-4.71-3.814-8.533-8.533-8.533h-34.133c-4.719,0-8.533,3.823-8.533,8.533V418.133z M426.667,375.467h17.067V409.6h-17.067
				V375.467z"/>
			<path d="M273.067,324.267c4.719,0,8.533-3.823,8.533-8.533V281.6c0-14.114-11.486-25.6-25.6-25.6s-25.6,11.486-25.6,25.6v34.133
				c0,4.71,3.814,8.533,8.533,8.533H273.067z M247.467,281.6c0-4.702,3.823-8.533,8.533-8.533s8.533,3.831,8.533,8.533v25.6h-17.067
				V281.6z"/>
			<path d="M102.4,281.6c0-14.114-11.486-25.6-25.6-25.6s-25.6,11.486-25.6,25.6v34.133c0,4.71,3.814,8.533,8.533,8.533h34.133
				c4.719,0,8.533-3.823,8.533-8.533V281.6z M85.333,307.2H68.267v-25.6c0-4.702,3.823-8.533,8.533-8.533s8.533,3.831,8.533,8.533
				V307.2z"/>
		</g>
	</g>
</g>
<g>
</g>
<g>
</g>
<g>
</g>
<g>
</g>
<g>
</g>
<g>
</g>
<g>
</g>
<g>
</g>
<g>
</g>
<g>
</g>
<g>
</g>
<g>
</g>
<g>
</g>
<g>
</g>
<g>
</g>
</svg>
