<?xml version="1.0" encoding="iso-8859-1"?>
<!-- Generator: Adobe Illustrator 19.0.0, SVG Export Plug-In . SVG Version: 6.00 Build 0)  -->
<svg version="1.1" id="Layer_1" xmlns="http://www.w3.org/2000/svg" xmlns:xlink="http://www.w3.org/1999/xlink" x="0px" y="0px"
	 viewBox="0 0 512 512" style="enable-background:new 0 0 512 512;" xml:space="preserve">
<g>
	<g>
		<g>
			<path d="M281.6,392.533H93.867c-4.719,0-8.533,3.823-8.533,8.533s3.814,8.533,8.533,8.533H281.6c4.719,0,8.533-3.823,8.533-8.533
				S286.319,392.533,281.6,392.533z"/>
			<path d="M281.6,358.4H93.867c-4.719,0-8.533,3.823-8.533,8.533s3.814,8.533,8.533,8.533H281.6c4.719,0,8.533-3.823,8.533-8.533
				S286.319,358.4,281.6,358.4z"/>
			<path d="M281.6,324.267H93.867c-4.719,0-8.533,3.823-8.533,8.533s3.814,8.533,8.533,8.533H281.6c4.719,0,8.533-3.823,8.533-8.533
				S286.319,324.267,281.6,324.267z"/>
			<path d="M281.6,426.667H93.867c-4.719,0-8.533,3.823-8.533,8.533s3.814,8.533,8.533,8.533H281.6c4.719,0,8.533-3.823,8.533-8.533
				S286.319,426.667,281.6,426.667z"/>
			<path d="M281.6,460.8H93.867c-4.719,0-8.533,3.823-8.533,8.533s3.814,8.533,8.533,8.533H281.6c4.719,0,8.533-3.823,8.533-8.533
				S286.319,460.8,281.6,460.8z"/>
			<path d="M238.933,179.2c0-14.225-8.013-23.996-15.77-33.442c-9.028-11-18.364-22.374-18.364-43.358
				c0-2.833-1.408-5.478-3.746-7.066c-2.355-1.596-5.342-1.911-7.953-0.862c-51.055,20.429-56.568,66.057-56.568,84.727
				c0,28.237,22.963,51.2,51.2,51.2S238.933,207.437,238.933,179.2z M153.6,179.2c0-17.05,4.855-46.464,35.166-63.761
				c3.166,19.174,13.013,31.172,21.205,41.148c6.647,8.098,11.896,14.49,11.896,22.613c0,18.825-15.309,34.133-34.133,34.133
				S153.6,198.025,153.6,179.2z"/>
			<path d="M503.467,153.6c-4.719,0-8.533,3.823-8.533,8.533v8.533h-93.867c-4.719,0-8.533,3.823-8.533,8.533
				c0,4.71,3.814,8.533,8.533,8.533h93.867v240.503c-2.679-0.956-5.521-1.57-8.533-1.57c-1.476,0-2.944,0.128-4.386,0.384
				c-5.879-10.607-17.101-17.451-29.747-17.451c-12.646,0-23.868,6.844-29.747,17.451c-1.442-0.256-2.91-0.384-4.386-0.384
				c-14.114,0-25.6,11.486-25.6,25.6s11.486,25.6,25.6,25.6H486.4c14.114,0,25.6-11.486,25.6-25.6V162.133
				C512,157.423,508.186,153.6,503.467,153.6z M486.4,460.8h-68.267c-4.71,0-8.533-3.831-8.533-8.533s3.823-8.533,8.533-8.533
				c1.63,0,3.191,0.469,4.625,1.391c2.338,1.502,5.257,1.775,7.834,0.742c2.577-1.05,4.471-3.285,5.111-5.99
				c1.801-7.774,8.602-13.21,16.563-13.21c7.962,0,14.763,5.436,16.563,13.21c0.64,2.705,2.534,4.941,5.111,5.99
				c2.577,1.032,5.495,0.759,7.834-0.742c5.555-3.584,13.158,0.802,13.158,7.142C494.933,456.969,491.11,460.8,486.4,460.8z"/>
			<path d="M418.133,290.133h34.133c4.719,0,8.533-3.823,8.533-8.533v-51.2c0-4.71-3.814-8.533-8.533-8.533h-34.133
				c-4.719,0-8.533,3.823-8.533,8.533v51.2C409.6,286.31,413.414,290.133,418.133,290.133z M426.667,238.933h17.067v34.133h-17.067
				V238.933z"/>
			<path d="M338.133,292.002C336.29,290.534,291.925,256,187.733,256s-148.557,34.534-150.4,36.002c-2.022,1.621-3.2,4.07-3.2,6.665
				v170.667c0,4.71,3.814,8.533,8.533,8.533s8.533-3.823,8.533-8.533V303.155c11.494-7.27,54.144-30.089,136.533-30.089
				c82.441,0,125.09,22.844,136.533,30.089v166.178c0,4.71,3.814,8.533,8.533,8.533c4.719,0,8.533-3.823,8.533-8.533V298.667
				C341.333,296.073,340.156,293.624,338.133,292.002z"/>
			<path d="M366.933,34.133c-4.719,0-8.533,3.823-8.533,8.533V51.2H17.067v-8.533c0-4.71-3.814-8.533-8.533-8.533S0,37.956,0,42.667
				v426.667c0,4.71,3.814,8.533,8.533,8.533s8.533-3.823,8.533-8.533V68.267H358.4v401.067c0,4.71,3.814,8.533,8.533,8.533
				s8.533-3.823,8.533-8.533V42.667C375.467,37.956,371.652,34.133,366.933,34.133z"/>
			<path d="M409.6,384c0,4.71,3.814,8.533,8.533,8.533h34.133c4.719,0,8.533-3.823,8.533-8.533v-51.2
				c0-4.71-3.814-8.533-8.533-8.533h-34.133c-4.719,0-8.533,3.823-8.533,8.533V384z M426.667,341.333h17.067v34.133h-17.067V341.333
				z"/>
		</g>
	</g>
</g>
<g>
</g>
<g>
</g>
<g>
</g>
<g>
</g>
<g>
</g>
<g>
</g>
<g>
</g>
<g>
</g>
<g>
</g>
<g>
</g>
<g>
</g>
<g>
</g>
<g>
</g>
<g>
</g>
<g>
</g>
</svg>
