<?xml version="1.0" encoding="iso-8859-1"?>
<!-- Generator: Adobe Illustrator 19.0.0, SVG Export Plug-In . SVG Version: 6.00 Build 0)  -->
<svg version="1.1" id="Layer_1" xmlns="http://www.w3.org/2000/svg" xmlns:xlink="http://www.w3.org/1999/xlink" x="0px" y="0px"
	 viewBox="0 0 512.001 512.001" style="enable-background:new 0 0 512.001 512.001;" xml:space="preserve">
<g>
	<g>
		<g>
			<path d="M341.692,29.58c1.169,0,2.347-0.239,3.482-0.751c2.44-1.092,4.915-2.125,7.424-3.072
				c4.412-1.681,6.63-6.605,4.949-11.008c-1.673-4.412-6.605-6.596-11-4.958c-2.825,1.075-5.615,2.236-8.354,3.465
				c-4.301,1.929-6.229,6.98-4.292,11.281C335.318,27.702,338.424,29.58,341.692,29.58z"/>
			<path d="M341.334,214.642c4.719,0,8.533-3.814,8.533-8.533v-1.476c0-2.244,0.145-4.446,0.427-6.613
				c0.614-4.676-2.68-8.96-7.339-9.574c-4.813-0.614-8.96,2.679-9.583,7.347c-0.375,2.884-0.572,5.862-0.572,8.841v1.476
				C332.801,210.828,336.615,214.642,341.334,214.642z"/>
			<path d="M298.667,216.75c4.719,0,8.533-3.823,8.533-8.533v-8.67c0-4.71-3.814-8.533-8.533-8.533
				c-4.719,0-8.533,3.823-8.533,8.533v8.67C290.134,212.927,293.948,216.75,298.667,216.75z"/>
			<path d="M347.666,81.778c-2.748,1.51-5.436,3.14-8.021,4.873c-3.917,2.62-4.975,7.927-2.355,11.844
				c1.647,2.458,4.352,3.78,7.1,3.78c1.638,0,3.285-0.461,4.736-1.442c2.193-1.459,4.454-2.833,6.775-4.113
				c4.122-2.27,5.632-7.467,3.362-11.588C356.984,81.002,351.804,79.517,347.666,81.778z"/>
			<path d="M226.629,80.908c1.613,2.577,4.386,3.994,7.228,3.994c1.553,0,3.123-0.418,4.523-1.306
				c3.994-2.509,5.205-7.774,2.697-11.759c-1.613-2.569-3.285-5.077-5.043-7.535c-2.739-3.831-8.055-4.727-11.904-1.971
				c-3.84,2.748-4.719,8.073-1.98,11.904C223.71,76.411,225.204,78.638,226.629,80.908z"/>
			<path d="M382.644,18.06c0.35,0,0.717-0.026,1.075-0.068c2.637-0.333,5.308-0.589,8.004-0.777c4.71-0.316,8.26-4.378,7.953-9.079
				c-0.307-4.702-4.437-8.26-9.079-7.945c-3.038,0.196-6.042,0.495-9.011,0.87c-4.676,0.589-7.996,4.855-7.398,9.532
				C374.725,14.902,378.403,18.06,382.644,18.06z"/>
			<path d="M351.002,158.22c-3.2,3.456-3.004,8.858,0.444,12.058c1.656,1.527,3.729,2.278,5.811,2.278
				c2.295,0,4.574-0.913,6.263-2.731c1.775-1.911,3.729-3.721,5.811-5.376c3.695-2.935,4.309-8.303,1.374-11.989
				c-2.927-3.686-8.303-4.318-11.989-1.374C355.96,153.27,353.366,155.677,351.002,158.22z"/>
			<path d="M273.613,83.596c1.408,0.887,2.978,1.306,4.531,1.306c2.842,0,5.615-1.417,7.228-3.994
				c1.425-2.27,2.918-4.497,4.48-6.673c2.739-3.831,1.86-9.156-1.98-11.904c-3.849-2.756-9.165-1.86-11.904,1.971
				c-1.758,2.458-3.439,4.966-5.043,7.535C268.417,75.822,269.628,81.087,273.613,83.596z"/>
			<path d="M341.334,255.833c4.719,0,8.533-3.823,8.533-8.533v-4.267c0-4.71-3.814-8.533-8.533-8.533s-8.533,3.823-8.533,8.533
				v4.267C332.801,252.01,336.615,255.833,341.334,255.833z"/>
			<path d="M298.488,173.383c0.393,0.06,0.777,0.085,1.161,0.085c4.198,0,7.868-3.106,8.456-7.39
				c0.35-2.628,0.819-5.222,1.399-7.782c1.05-4.599-1.835-9.165-6.434-10.206c-4.599-1.041-9.173,1.835-10.214,6.434
				c-0.683,3.046-1.246,6.135-1.673,9.259C290.552,168.451,293.829,172.752,298.488,173.383z"/>
			<path d="M240.393,109.947c0.853,2.526,1.621,5.077,2.33,7.671c1.033,3.797,4.48,6.298,8.226,6.298
				c0.742,0,1.493-0.102,2.244-0.307c1.058-0.282,1.98-0.794,2.807-1.399c0.828,0.606,1.749,1.118,2.807,1.399
				c0.751,0.205,1.502,0.307,2.244,0.307c3.746,0,7.194-2.5,8.226-6.298c0.708-2.594,1.468-5.146,2.33-7.671
				c1.527-4.463-0.87-9.31-5.325-10.829c-4.096-1.399-8.414,0.606-10.283,4.395c-1.869-3.789-6.187-5.794-10.283-4.395
				C241.255,100.637,238.866,105.484,240.393,109.947z"/>
			<path d="M305.827,52.534c1.988,0,3.985-0.691,5.598-2.091c2.022-1.758,4.096-3.465,6.212-5.094
				c3.738-2.876,4.429-8.226,1.562-11.964c-2.876-3.738-8.235-4.446-11.964-1.562c-2.398,1.843-4.736,3.755-7.006,5.743
				c-3.558,3.089-3.934,8.482-0.836,12.041C301.074,51.545,303.446,52.534,305.827,52.534z"/>
			<path d="M312.457,112.268c-1.877,2.492-3.652,5.069-5.316,7.714c-2.517,3.985-1.314,9.259,2.671,11.776
				c1.417,0.879,2.978,1.306,4.54,1.306c2.833,0,5.606-1.408,7.228-3.985c1.417-2.244,2.918-4.429,4.514-6.537
				c2.833-3.763,2.082-9.114-1.681-11.955C320.641,107.745,315.29,108.522,312.457,112.268z"/>
			<path d="M392.338,68.441c-3.157,0.239-6.263,0.614-9.327,1.118c-4.651,0.768-7.799,5.163-7.031,9.813
				c0.683,4.181,4.292,7.142,8.405,7.142c0.461,0,0.922-0.034,1.391-0.111c2.603-0.427,5.222-0.742,7.876-0.947
				c4.702-0.367,8.218-4.471,7.851-9.173C401.135,71.589,397.133,68.04,392.338,68.441z"/>
			<path d="M423.911,18.691c2.654,0.427,5.299,0.93,7.91,1.502c0.623,0.137,1.229,0.196,1.835,0.196c3.925,0,7.45-2.714,8.329-6.699
				c1.007-4.608-1.903-9.156-6.511-10.163c-2.935-0.648-5.888-1.203-8.883-1.681c-4.651-0.768-9.02,2.432-9.762,7.083
				C416.086,13.58,419.252,17.957,423.911,18.691z"/>
			<path d="M438.511,74.576c-2.944-1.05-5.939-1.988-8.969-2.79c-4.531-1.178-9.216,1.51-10.436,6.067
				c-1.203,4.557,1.51,9.224,6.067,10.436c2.569,0.674,5.094,1.459,7.569,2.355c0.956,0.341,1.92,0.503,2.884,0.503
				c3.499,0,6.784-2.176,8.03-5.658C445.253,81.053,442.94,76.163,438.511,74.576z"/>
			<path d="M397.594,136.451c-4.71,0.239-8.337,4.241-8.098,8.943c0.23,4.71,3.925,8.294,8.943,8.098
				c2.62-0.128,5.325-0.051,7.919,0.213c0.299,0.034,0.597,0.043,0.888,0.043c4.326,0,8.021-3.268,8.482-7.654
				c0.478-4.693-2.935-8.883-7.62-9.37C404.651,136.374,401.076,136.264,397.594,136.451z"/>
			<path d="M497.161,56.784c1.681,1.843,3.994,2.782,6.306,2.782c2.057,0,4.113-0.734,5.751-2.227
				c3.482-3.174,3.729-8.576,0.555-12.058c-1.024-1.118-2.065-2.219-3.115-3.294c-3.311-3.371-8.704-3.413-12.066-0.12
				c-3.379,3.294-3.422,8.695-0.137,12.066C495.378,54.864,496.282,55.82,497.161,56.784z"/>
			<path d="M366.934,324.099h-102.4c-4.719,0-8.533,3.823-8.533,8.533s3.814,8.533,8.533,8.533h102.4
				c23.927,0,42.667-18.739,42.667-42.667v-17.067c0-4.71-3.814-8.533-8.533-8.533H110.934c-4.719,0-8.533,3.823-8.533,8.533v17.067
				c0,23.927,18.739,42.667,42.667,42.667h76.8v42.667c0,4.71,3.814,8.533,8.533,8.533s8.533-3.823,8.533-8.533v-51.2
				c0-4.71-3.814-8.533-8.533-8.533h-85.333c-14.362,0-25.6-11.247-25.6-25.6v-8.533h273.067v8.533
				C392.534,312.852,381.295,324.099,366.934,324.099z"/>
			<path d="M452.139,200.972c0.085,1.203,0.128,2.432,0.128,3.661c0,4.71,3.814,8.533,8.533,8.533s8.533-3.823,8.533-8.533
				c0-1.638-0.06-3.26-0.179-4.873c-0.333-4.693-4.326-8.243-9.114-7.91C455.339,192.191,451.806,196.27,452.139,200.972z"/>
			<path d="M434.117,154.132c-3.115,3.541-2.773,8.926,0.759,12.049c1.98,1.741,3.831,3.644,5.504,5.658
				c1.698,2.031,4.122,3.072,6.571,3.072c1.92,0,3.857-0.648,5.453-1.971c3.618-3.021,4.113-8.397,1.092-12.023
				c-2.227-2.68-4.702-5.222-7.339-7.544C442.633,150.267,437.24,150.591,434.117,154.132z"/>
			<path d="M264.534,195.621c0-4.71-3.814-8.533-8.533-8.533s-8.533,3.823-8.533,8.533v9.489c0,4.71,3.814,8.533,8.533,8.533
				s8.533-3.823,8.533-8.533V195.621z"/>
			<path d="M256.001,234.499c-4.719,0-8.533,3.823-8.533,8.533v4.267c0,4.71,3.814,8.533,8.533,8.533s8.533-3.823,8.533-8.533
				v-4.267C264.534,238.322,260.719,234.499,256.001,234.499z"/>
			<path d="M290.134,247.299c0,4.71,3.814,8.533,8.533,8.533c4.719,0,8.533-3.823,8.533-8.533v-4.267
				c0-4.71-3.814-8.533-8.533-8.533c-4.719,0-8.533,3.823-8.533,8.533V247.299z"/>
			<path d="M264.534,153.433c0-1.348,0.017-2.679,0.06-4.019c0.102-3.644-2.125-6.775-5.316-8.081
				c-0.324-0.145-0.691-0.145-1.033-0.247c-0.64-0.171-1.246-0.427-1.937-0.444c-0.085-0.009-0.162-0.009-0.256-0.009
				c-0.017,0-0.034,0.009-0.051,0.009c-0.017,0-0.034-0.009-0.051-0.009c-0.094,0-0.171,0-0.256,0.009
				c-0.691,0.017-1.306,0.273-1.937,0.444c-0.341,0.102-0.717,0.102-1.033,0.247c-3.191,1.306-5.419,4.437-5.316,8.081
				c0.043,1.34,0.06,2.671,0.06,4.019v4.267c0,4.71,3.814,8.533,8.533,8.533s8.533-3.823,8.533-8.533V153.433z"/>
			<path d="M204.801,247.299c0,4.71,3.814,8.533,8.533,8.533s8.533-3.823,8.533-8.533v-4.267c0-4.71-3.814-8.533-8.533-8.533
				s-8.533,3.823-8.533,8.533V247.299z"/>
			<path d="M213.334,216.75c4.719,0,8.533-3.823,8.533-8.533v-8.67c0-4.71-3.814-8.533-8.533-8.533s-8.533,3.823-8.533,8.533v8.67
				C204.801,212.927,208.615,216.75,213.334,216.75z"/>
			<path d="M179.201,247.299v-4.267c0-4.71-3.814-8.533-8.533-8.533s-8.533,3.823-8.533,8.533v4.267c0,4.71,3.814,8.533,8.533,8.533
				S179.201,252.01,179.201,247.299z"/>
			<path d="M59.597,172.94c1.596,1.323,3.524,1.971,5.453,1.971c2.449,0,4.873-1.041,6.571-3.072
				c1.673-2.014,3.524-3.917,5.504-5.658c3.533-3.123,3.874-8.508,0.759-12.049c-3.106-3.541-8.499-3.883-12.041-0.76
				c-2.637,2.321-5.112,4.864-7.347,7.544C55.484,164.543,55.979,169.919,59.597,172.94z"/>
			<path d="M469.334,409.433h-179.2v-42.667c0-4.71-3.814-8.533-8.533-8.533s-8.533,3.823-8.533,8.533v51.2
				c0,4.71,3.814,8.533,8.533,8.533h179.2v42.667c0,14.114-11.486,25.6-25.6,25.6h-358.4c-14.114,0-25.6-11.486-25.6-25.6v-42.667
				h196.975c4.719,0,8.533-3.823,8.533-8.533c0-4.71-3.814-8.533-8.533-8.533H42.667c-4.719,0-8.533,3.823-8.533,8.533v51.2
				c0,23.526,19.14,42.667,42.667,42.667h358.4c23.526,0,42.667-19.14,42.667-42.667v-51.2
				C477.867,413.256,474.053,409.433,469.334,409.433z"/>
			<path d="M204.801,452.099v17.067c0,4.71,3.814,8.533,8.533,8.533s8.533-3.823,8.533-8.533v-17.067
				c0-4.71-3.814-8.533-8.533-8.533S204.801,447.389,204.801,452.099z"/>
			<path d="M8.918,166.241c-0.102-0.009-0.205-0.009-0.307-0.009c-4.565,0-8.363,3.627-8.516,8.235
				c-0.06,1.519-0.094,3.038-0.094,4.565c0,4.71,3.814,8.533,8.533,8.533s8.533-3.823,8.533-8.533c0-1.331,0.034-2.645,0.077-3.968
				C17.306,170.354,13.628,166.403,8.918,166.241z"/>
			<path d="M45.782,111.449c1.911-1.843,3.9-3.601,5.948-5.274c3.652-2.987,4.198-8.363,1.212-12.006
				c-2.978-3.644-8.354-4.207-12.006-1.212c-2.415,1.98-4.762,4.053-6.997,6.221c-3.396,3.268-3.49,8.67-0.222,12.066
				c1.673,1.732,3.908,2.603,6.144,2.603C41.993,113.846,44.135,113.053,45.782,111.449z"/>
			<path d="M23.22,125.46c-4.207-2.099-9.353-0.41-11.452,3.806c-1.399,2.782-2.697,5.641-3.857,8.55
				c-1.749,4.386,0.384,9.344,4.753,11.093c1.041,0.418,2.108,0.614,3.166,0.614c3.388,0,6.596-2.031,7.927-5.367
				c0.981-2.466,2.074-4.881,3.26-7.245C29.133,132.697,27.435,127.577,23.22,125.46z"/>
			<path d="M38.588,35.604c1.442,0,2.91-0.367,4.25-1.135c2.313-1.331,4.659-2.586,7.057-3.755
				c4.224-2.082,5.965-7.202,3.891-11.426c-2.082-4.233-7.211-5.965-11.426-3.891c-2.731,1.34-5.41,2.765-8.038,4.275
				c-4.079,2.355-5.487,7.569-3.132,11.657C32.769,34.068,35.644,35.604,38.588,35.604z"/>
			<path d="M119.467,452.099v17.067c0,4.71,3.814,8.533,8.533,8.533s8.533-3.823,8.533-8.533v-17.067
				c0-4.71-3.814-8.533-8.533-8.533S119.467,447.389,119.467,452.099z"/>
			<path d="M499.337,148.91c4.369-1.749,6.502-6.707,4.753-11.093c-1.161-2.91-2.458-5.769-3.857-8.55
				c-2.108-4.215-7.236-5.897-11.452-3.806c-4.215,2.116-5.914,7.236-3.797,11.452c1.186,2.364,2.278,4.779,3.26,7.245
				c1.331,3.337,4.54,5.367,7.919,5.367C497.229,149.524,498.296,149.328,499.337,148.91z"/>
			<path d="M511.907,174.467c-0.154-4.719-4.335-8.499-8.823-8.226c-4.71,0.162-8.388,4.113-8.226,8.823
				c0.043,1.323,0.077,2.637,0.077,3.968c0,4.71,3.814,8.533,8.533,8.533s8.533-3.823,8.533-8.533
				C512.001,177.505,511.966,175.986,511.907,174.467z"/>
			<path d="M477.671,19.673c-2.62-1.51-5.299-2.935-8.03-4.275c-4.198-2.065-9.344-0.333-11.426,3.891
				c-2.074,4.224-0.333,9.344,3.891,11.426c2.398,1.169,4.745,2.424,7.049,3.755c1.348,0.768,2.816,1.135,4.25,1.135
				c2.953,0,5.828-1.536,7.407-4.275C483.166,27.242,481.758,22.028,477.671,19.673z"/>
			<path d="M392.534,469.166v-17.067c0-4.71-3.814-8.533-8.533-8.533s-8.533,3.823-8.533,8.533v17.067
				c0,4.71,3.814,8.533,8.533,8.533S392.534,473.876,392.534,469.166z"/>
			<path d="M307.201,469.166v-17.067c0-4.71-3.814-8.533-8.533-8.533c-4.719,0-8.533,3.823-8.533,8.533v17.067
				c0,4.71,3.814,8.533,8.533,8.533C303.386,477.699,307.201,473.876,307.201,469.166z"/>
			<path d="M471.066,92.957c-3.661-2.995-9.037-2.432-12.006,1.212c-2.987,3.644-2.441,9.02,1.203,12.006
				c2.057,1.673,4.045,3.43,5.956,5.274c1.647,1.604,3.789,2.398,5.922,2.398c2.236,0,4.463-0.87,6.144-2.603
				c3.268-3.396,3.174-8.798-0.222-12.066C475.828,97.01,473.481,94.937,471.066,92.957z"/>
			<path d="M51.96,191.85c-4.873-0.324-8.781,3.217-9.122,7.91c-0.111,1.613-0.171,3.234-0.171,4.873
				c0,4.71,3.814,8.533,8.533,8.533s8.533-3.823,8.533-8.533c0-1.229,0.043-2.458,0.128-3.661
				C60.195,196.27,56.662,192.191,51.96,191.85z"/>
			<path d="M169.046,188.445c-4.659,0.614-7.953,4.898-7.339,9.574c0.282,2.167,0.427,4.369,0.427,6.613v1.476
				c0,4.719,3.814,8.533,8.533,8.533s8.533-3.814,8.533-8.533v-1.476c0-2.978-0.188-5.956-0.572-8.841
				C178.006,191.124,173.807,187.822,169.046,188.445z"/>
			<path d="M159.403,25.757c2.509,0.947,4.983,1.98,7.424,3.072c1.135,0.512,2.313,0.751,3.482,0.751
				c3.26,0,6.374-1.877,7.791-5.043c1.937-4.301,0.009-9.353-4.292-11.281c-2.739-1.229-5.53-2.389-8.354-3.465
				c-4.378-1.638-9.327,0.546-10.999,4.958C152.773,19.152,154.991,24.076,159.403,25.757z"/>
			<path d="M156.101,96.72c2.313,1.28,4.582,2.654,6.775,4.113c1.459,0.981,3.098,1.442,4.736,1.442c2.748,0,5.453-1.323,7.1-3.78
				c2.62-3.917,1.562-9.224-2.355-11.844c-2.594-1.732-5.274-3.362-8.021-4.873c-4.139-2.261-9.318-0.776-11.597,3.354
				C150.469,89.253,151.979,94.45,156.101,96.72z"/>
			<path d="M8.534,59.566c2.313,0,4.625-0.939,6.306-2.782c0.879-0.964,1.784-1.92,2.705-2.85c3.285-3.371,3.234-8.772-0.137-12.066
				c-3.354-3.294-8.747-3.234-12.066,0.12c-1.05,1.075-2.091,2.176-3.115,3.294c-3.174,3.482-2.927,8.883,0.555,12.058
				C4.421,58.832,6.477,59.566,8.534,59.566z"/>
			<path d="M142.669,164.449c2.082,1.655,4.036,3.465,5.811,5.376c1.69,1.818,3.968,2.731,6.263,2.731
				c2.074,0,4.156-0.751,5.811-2.278c3.448-3.2,3.644-8.602,0.444-12.058c-2.364-2.543-4.958-4.949-7.714-7.134
				c-3.712-2.935-9.071-2.313-11.989,1.374C138.36,156.146,138.974,161.514,142.669,164.449z"/>
			<path d="M190.422,129.078c1.621,2.577,4.395,3.985,7.228,3.985c1.562,0,3.123-0.427,4.54-1.306
				c3.985-2.517,5.188-7.791,2.671-11.776c-1.673-2.645-3.448-5.222-5.316-7.714c-2.842-3.746-8.183-4.523-11.955-1.681
				c-3.763,2.842-4.514,8.192-1.681,11.955C187.503,124.65,189.005,126.834,190.422,129.078z"/>
			<path d="M194.364,45.349c2.116,1.63,4.19,3.337,6.212,5.094c1.613,1.408,3.61,2.091,5.598,2.091c2.381,0,4.753-0.99,6.434-2.927
				c3.098-3.558,2.722-8.951-0.836-12.041c-2.27-1.988-4.608-3.9-7.006-5.743c-3.729-2.884-9.079-2.176-11.964,1.562
				C189.935,37.123,190.627,42.474,194.364,45.349z"/>
			<path d="M78.345,20.389c0.606,0,1.212-0.06,1.826-0.196c2.62-0.572,5.265-1.075,7.919-1.502c4.659-0.734,7.825-5.111,7.083-9.762
				c-0.734-4.651-5.094-7.859-9.762-7.083c-2.995,0.478-5.956,1.033-8.883,1.681c-4.608,1.007-7.518,5.555-6.511,10.163
				C70.895,17.676,74.42,20.389,78.345,20.389z"/>
			<path d="M120.278,17.215c2.697,0.188,5.367,0.444,8.004,0.777c0.358,0.043,0.725,0.068,1.075,0.068
				c4.241,0,7.919-3.157,8.456-7.467c0.597-4.676-2.722-8.943-7.398-9.532c-2.97-0.375-5.973-0.674-9.003-0.87
				c-4.599-0.341-8.781,3.243-9.088,7.945C112.018,12.837,115.567,16.899,120.278,17.215z"/>
			<path d="M208.931,148.091c-4.599,1.041-7.484,5.606-6.443,10.206c0.589,2.56,1.05,5.154,1.408,7.782
				c0.589,4.284,4.25,7.39,8.457,7.39c0.384,0,0.768-0.026,1.152-0.085c4.668-0.631,7.945-4.932,7.313-9.6
				c-0.427-3.123-0.99-6.212-1.673-9.259C218.104,149.934,213.505,147.058,208.931,148.091z"/>
			<path d="M76.374,91.148c0.956,0,1.929-0.162,2.884-0.503c2.475-0.896,5.001-1.681,7.569-2.355
				c4.557-1.212,7.27-5.879,6.067-10.436c-1.212-4.557-5.888-7.245-10.436-6.067c-3.029,0.802-6.025,1.741-8.969,2.79
				c-4.429,1.587-6.741,6.477-5.146,10.914C69.59,88.972,72.875,91.148,76.374,91.148z"/>
			<path d="M118.349,85.456c2.654,0.205,5.274,0.521,7.876,0.947c0.469,0.077,0.93,0.111,1.391,0.111
				c4.105,0,7.723-2.961,8.405-7.142c0.768-4.651-2.381-9.045-7.031-9.813c-3.063-0.503-6.17-0.879-9.327-1.118
				c-4.642-0.41-8.798,3.14-9.165,7.842C110.132,80.985,113.647,85.089,118.349,85.456z"/>
			<path d="M104.756,153.748c0.29,0,0.589-0.009,0.887-0.043c2.594-0.265,5.299-0.341,7.919-0.213
				c4.907,0.222,8.713-3.388,8.943-8.098c0.239-4.702-3.388-8.704-8.098-8.943c-3.49-0.188-7.066-0.077-10.513,0.273
				c-4.685,0.486-8.098,4.676-7.62,9.37C96.734,150.48,100.429,153.748,104.756,153.748z"/>
		</g>
	</g>
</g>
<g>
</g>
<g>
</g>
<g>
</g>
<g>
</g>
<g>
</g>
<g>
</g>
<g>
</g>
<g>
</g>
<g>
</g>
<g>
</g>
<g>
</g>
<g>
</g>
<g>
</g>
<g>
</g>
<g>
</g>
</svg>
