<?xml version="1.0" encoding="iso-8859-1"?>
<!-- Generator: Adobe Illustrator 19.0.0, SVG Export Plug-In . SVG Version: 6.00 Build 0)  -->
<svg version="1.1" id="Layer_1" xmlns="http://www.w3.org/2000/svg" xmlns:xlink="http://www.w3.org/1999/xlink" x="0px" y="0px"
	 viewBox="0 0 512.043 512.043" style="enable-background:new 0 0 512.043 512.043;" xml:space="preserve">
<g>
	<g>
		<g>
			<path d="M491.217,102.878l-28.245-40.661c1.271-4.685,1.229-9.626-0.265-14.362c-2.057-6.528-6.536-11.861-12.595-15.01
				l-30.276-15.77c-3.644-1.894-7.723-2.893-11.81-2.893c-7.45,0-14.344,3.217-19.14,8.636l-40.32-4.941
				C345.272,7.552,335.697,0,324.288,0h-34.133c-12.595,0-23.031,9.148-25.156,21.137L229.85,49.263
				c-9.574-4.625-21.854-3.183-29.576,4.548l-24.141,24.132c-7.825,7.834-9.412,19.482-4.966,28.971l-32.179,32.179
				c-3.337-1.596-7.023-2.56-10.965-2.56c-14.123,0-25.6,11.477-25.6,25.771l0.171,8.363h-8.704c-14.123,0-25.6,11.477-25.6,25.6
				V243.2c0,4.71,3.814,8.533,8.533,8.533c4.71,0,8.533-3.823,8.533-8.533v-46.933c0-4.71,3.823-8.533,8.533-8.533h17.417h0.179
				h50.671c4.702,0,8.533,3.823,8.533,8.533V243.2c0,4.71,3.814,8.533,8.533,8.533c4.71,0,8.533-3.823,8.533-8.533v-46.933
				c0-14.123-11.486-25.6-25.6-25.6h-8.533v-8.533c0-3.942-0.973-7.629-2.568-10.965l32.128-32.137
				c3.422,1.647,7.151,2.611,11.059,2.611c6.835,0,13.261-2.662,18.099-7.492l24.132-24.132c4.838-4.838,7.501-11.273,7.501-18.108
				c0-3.618-0.794-7.108-2.219-10.325l27.153-21.717c4.608,6.827,12.407,11.332,21.248,11.332h34.133
				c10.778,0,19.985-6.724,23.748-16.188l34.483,4.215c-0.179,9.429,4.762,18.628,13.67,23.262l30.276,15.761
				c3.635,1.894,7.723,2.893,11.81,2.893c5.137,0,9.993-1.553,14.097-4.267l20.489,29.491c-7.202,4.531-12.041,12.501-12.041,21.632
				v34.133c0,8.328,4.062,15.676,10.24,20.352l-20.028,20.028c-9.489-4.275-21.427-2.705-28.954,4.83l-7.748,7.671l-5.999-5.999
				c-9.984-9.992-26.223-9.992-36.207,0l-33.186,33.186c-3.336,3.328-3.336,8.73,0,12.066c3.337,3.328,8.73,3.328,12.066,0
				l33.186-33.186c3.336-3.328,8.747-3.328,12.075,0l8.158,8.158c0.162,1.929,0.87,3.823,2.338,5.299
				c1.485,1.502,3.413,2.236,5.367,2.398l16.495,16.495c0.162,1.937,0.879,3.849,2.364,5.333c1.476,1.485,3.388,2.202,5.333,2.364
				l8.218,8.218c3.328,3.328,3.319,8.738,0,12.066l-33.195,33.195c-3.328,3.337-3.328,8.738,0,12.066
				c1.673,1.664,3.857,2.5,6.033,2.5c2.185,0,4.369-0.836,6.033-2.5l33.195-33.195c9.984-9.984,9.984-26.214,0-36.198l-6.033-6.033
				l7.68-7.68c4.838-4.838,7.501-11.264,7.501-18.099c0-3.883-0.939-7.578-2.56-10.974l27.153-27.162
				c12.245-1.903,21.675-12.433,21.675-25.199V128C512.021,115.524,503.044,105.139,491.217,102.878z M136.555,170.667h-16.887
				l-0.179-8.533c0-4.71,3.823-8.533,8.533-8.533c4.702,0,8.533,3.823,8.533,8.533V170.667z M224.405,77.943l-24.132,24.132
				c-3.226,3.234-8.858,3.217-12.066,0.009c-3.328-3.337-3.328-8.747-0.009-12.075l24.149-24.132c1.604-1.613,3.746-2.5,6.025-2.5
				s4.42,0.887,6.033,2.5s2.5,3.755,2.5,6.033S226.018,76.331,224.405,77.943z M324.288,34.133h-34.133
				c-4.71,0-8.533-3.831-8.533-8.533c0-4.71,3.823-8.533,8.533-8.533h34.133c4.702,0,8.533,3.823,8.533,8.533
				C332.821,30.302,328.99,34.133,324.288,34.133z M445.854,59.486c-2.108,4.053-7.381,5.786-11.503,3.627L404.075,47.36
				c-4.173-2.176-5.803-7.347-3.635-11.52c1.476-2.833,4.386-4.591,7.586-4.591c1.374,0,2.697,0.324,3.925,0.964l30.285,15.77
				c2.014,1.05,3.507,2.825,4.19,5.001C447.108,55.151,446.912,57.463,445.854,59.486z M446.187,231.501l-7.68,7.68l-12.1-12.1
				l7.714-7.646c3.217-3.226,8.841-3.234,12.066,0c1.613,1.613,2.5,3.755,2.5,6.033
				C448.687,227.746,447.799,229.888,446.187,231.501z M494.955,162.133c0,4.702-3.831,8.533-8.533,8.533
				c-4.71,0-8.533-3.831-8.533-8.533V128c0-4.71,3.823-8.533,8.533-8.533c4.702,0,8.533,3.823,8.533,8.533V162.133z"/>
			<path d="M128.021,256c-70.579,0-128,57.421-128,128s57.421,128,128,128s128-57.421,128-128S198.601,256,128.021,256z
				 M128.021,494.933c-61.175,0-110.933-49.766-110.933-110.933c0-61.175,49.758-110.933,110.933-110.933
				c61.167,0,110.933,49.758,110.933,110.933C238.955,445.167,189.188,494.933,128.021,494.933z"/>
			<path d="M128.021,290.133c-51.763,0-93.867,42.103-93.867,93.867c0,51.755,42.104,93.867,93.867,93.867
				c51.755,0,93.867-42.112,93.867-93.867C221.888,332.237,179.776,290.133,128.021,290.133z M128.021,460.8
				c-42.351,0-76.8-34.458-76.8-76.8c0-42.351,34.449-76.8,76.8-76.8c42.342,0,76.8,34.449,76.8,76.8
				C204.821,426.342,170.364,460.8,128.021,460.8z"/>
			<path d="M136.555,230.4v-17.067c0-4.719-3.823-8.533-8.533-8.533c-4.719,0-8.533,3.814-8.533,8.533V230.4
				c0,4.71,3.814,8.533,8.533,8.533C132.732,238.933,136.555,235.11,136.555,230.4z"/>
			<path d="M396.267,281.412l12.066-12.066c3.328-3.328,3.328-8.73,0-12.066c-3.336-3.337-8.738-3.337-12.066,0l-12.066,12.066
				c-3.337,3.337-3.337,8.738,0,12.066c1.664,1.673,3.849,2.5,6.033,2.5S394.594,283.085,396.267,281.412z"/>
			<path d="M231.778,266.138c-4.335,1.835-6.374,6.835-4.54,11.179c1.843,4.343,6.844,6.357,11.187,4.54
				c41.839-17.664,89.583-8.354,121.634,23.689c43.247,43.264,43.255,113.638,0.009,156.894
				c-32.068,32.06-79.812,41.37-121.634,23.689c-4.335-1.826-9.353,0.196-11.187,4.54c-1.835,4.343,0.205,9.344,4.54,11.187
				c16.239,6.852,33.237,10.189,50.074,10.189c33.203,0,65.724-12.988,90.274-37.538c49.903-49.903,49.903-131.115-0.009-181.026
				C335.134,256.478,280.043,245.751,231.778,266.138z"/>
			<path d="M260.169,457.728c-4.557-1.306-9.267,1.297-10.581,5.82c-1.306,4.531,1.297,9.259,5.82,10.573
				c8.644,2.509,17.459,3.729,26.197,3.729c24.567,0,48.546-9.643,66.389-27.486c17.732-17.724,27.494-41.293,27.494-66.364
				c0-25.079-9.771-48.648-27.494-66.381c-24.201-24.192-59.682-33.28-92.587-23.748c-4.531,1.314-7.134,6.042-5.82,10.564
				c1.314,4.531,6.059,7.134,10.573,5.828c26.957-7.808,55.97-0.367,75.767,19.422c14.498,14.515,22.494,33.792,22.494,54.315
				c0,20.514-7.987,39.791-22.494,54.298C316.13,458.095,287.083,465.545,260.169,457.728z"/>
		</g>
	</g>
</g>
<g>
</g>
<g>
</g>
<g>
</g>
<g>
</g>
<g>
</g>
<g>
</g>
<g>
</g>
<g>
</g>
<g>
</g>
<g>
</g>
<g>
</g>
<g>
</g>
<g>
</g>
<g>
</g>
<g>
</g>
</svg>
