<?xml version="1.0" encoding="iso-8859-1"?>
<!-- Generator: Adobe Illustrator 19.0.0, SVG Export Plug-In . SVG Version: 6.00 Build 0)  -->
<svg version="1.1" id="Layer_1" xmlns="http://www.w3.org/2000/svg" xmlns:xlink="http://www.w3.org/1999/xlink" x="0px" y="0px"
	 viewBox="0 0 512 512" style="enable-background:new 0 0 512 512;" xml:space="preserve">
<g>
	<g>
		<g>
			<path d="M144.418,119.441c4.693,0.341,8.798-3.166,9.156-7.859c3.465-45.38,36.983-82.253,80.06-91.947
				c-28.356,37.521-28.834,88.772-28.834,91.298c0,4.71,3.823,8.533,8.533,8.533c4.71,0,8.533-3.823,8.533-8.533
				c0-0.606,0.486-58.419,34.133-90.923c33.536,32.427,34.133,90.325,34.133,90.931c0.008,4.71,3.823,8.525,8.533,8.525h0.009
				c4.71-0.009,8.525-3.823,8.525-8.533c0-2.526-0.486-53.777-28.843-91.298c43.085,9.685,76.612,46.558,80.068,91.947
				c0.341,4.48,4.079,7.885,8.499,7.885c0.213,0,0.435-0.009,0.657-0.026c4.702-0.358,8.218-4.454,7.859-9.156
				C370.722,48.444,318.259,0,256,0S141.278,48.444,136.559,110.285C136.201,114.987,139.716,119.083,144.418,119.441z"/>
			<path d="M110.933,187.733H332.8c4.719,0,8.533-3.823,8.533-8.533s-3.814-8.533-8.533-8.533H119.467V153.6h273.067v17.067h-25.6
				c-4.719,0-8.533,3.823-8.533,8.533v256c0,4.71,3.814,8.533,8.533,8.533s8.533-3.823,8.533-8.533V187.733h25.6
				c4.719,0,8.533-3.823,8.533-8.533v-34.133c0-4.71-3.814-8.533-8.533-8.533H110.933c-4.71,0-8.533,3.823-8.533,8.533V179.2
				C102.4,183.91,106.223,187.733,110.933,187.733z"/>
			<path d="M256,256c-28.237,0-51.2,22.963-51.2,51.2c0,28.237,22.963,51.2,51.2,51.2s51.2-22.963,51.2-51.2
				C307.2,278.963,284.237,256,256,256z M256,341.333c-18.825,0-34.133-15.309-34.133-34.133s15.309-34.133,34.133-34.133
				s34.133,15.309,34.133,34.133S274.825,341.333,256,341.333z"/>
			<path d="M110.933,375.467c4.71,0,8.533-3.823,8.533-8.533s-3.823-8.533-8.533-8.533H102.4v-8.533c0-4.71-3.823-8.533-8.533-8.533
				h-8.533v-68.267h8.533c4.71,0,8.533-3.823,8.533-8.533V256h8.533c4.71,0,8.533-3.823,8.533-8.533s-3.823-8.533-8.533-8.533H102.4
				c-9.412,0-17.067,7.654-17.067,17.067H76.8c-4.71,0-8.533,3.823-8.533,8.533v85.333c0,4.71,3.823,8.533,8.533,8.533h8.533
				c0,9.412,7.654,17.067,17.067,17.067H110.933z"/>
			<path d="M435.2,256h-8.533c0-9.412-7.654-17.067-17.067-17.067h-8.533c-4.719,0-8.533,3.823-8.533,8.533s3.814,8.533,8.533,8.533
				h8.533v8.533c0,4.71,3.814,8.533,8.533,8.533h8.533v68.267h-8.533c-4.719,0-8.533,3.823-8.533,8.533v8.533h-8.533
				c-4.719,0-8.533,3.823-8.533,8.533s3.814,8.533,8.533,8.533h8.533c9.412,0,17.067-7.654,17.067-17.067h8.533
				c4.719,0,8.533-3.823,8.533-8.533v-85.333C443.733,259.823,439.919,256,435.2,256z"/>
			<path d="M392.533,460.8H179.738c-4.719,0-8.533,3.823-8.533,8.533s3.814,8.533,8.533,8.533h212.796v17.067H119.467v-17.067h25.6
				c4.71,0,8.533-3.823,8.533-8.533v-256c0-4.71-3.823-8.533-8.533-8.533s-8.533,3.823-8.533,8.533V460.8h-17.067
				c-9.412,0-17.067,7.654-17.067,17.067v25.6c0,4.71,3.823,8.533,8.533,8.533h290.133c4.719,0,8.533-3.823,8.533-8.533v-25.6
				C409.6,468.454,401.946,460.8,392.533,460.8z"/>
			<path d="M256,221.867c-47.053,0-85.333,38.281-85.333,85.333s38.281,85.333,85.333,85.333s85.333-38.281,85.333-85.333
				S303.053,221.867,256,221.867z M256,375.467c-37.641,0-68.267-30.626-68.267-68.267s30.626-68.267,68.267-68.267
				c37.641,0,68.267,30.626,68.267,68.267S293.641,375.467,256,375.467z"/>
		</g>
	</g>
</g>
<g>
</g>
<g>
</g>
<g>
</g>
<g>
</g>
<g>
</g>
<g>
</g>
<g>
</g>
<g>
</g>
<g>
</g>
<g>
</g>
<g>
</g>
<g>
</g>
<g>
</g>
<g>
</g>
<g>
</g>
</svg>
