<?xml version="1.0" encoding="iso-8859-1"?>
<!-- Generator: Adobe Illustrator 19.0.0, SVG Export Plug-In . SVG Version: 6.00 Build 0)  -->
<svg version="1.1" id="Layer_1" xmlns="http://www.w3.org/2000/svg" xmlns:xlink="http://www.w3.org/1999/xlink" x="0px" y="0px"
	 viewBox="0 0 512 512" style="enable-background:new 0 0 512 512;" xml:space="preserve">
<g>
	<g>
		<g>
			<path d="M281.6,119.467c-4.71,0-8.533,3.823-8.533,8.533v51.2c0,4.71,3.823,8.533,8.533,8.533h34.133
				c4.71,0,8.533-3.823,8.533-8.533V128c0-4.71-3.823-8.533-8.533-8.533H281.6z M307.2,170.667h-17.067v-34.133H307.2V170.667z"/>
			<path d="M59.733,221.867c4.71,0,8.533-3.823,8.533-8.533v-128h375.467v128c0,4.71,3.823,8.533,8.533,8.533
				c4.71,0,8.533-3.823,8.533-8.533V76.8c0-4.71-3.823-8.533-8.533-8.533H256v-51.2h42.667v17.067h-25.6
				c-4.71,0-8.533,3.823-8.533,8.533c0,4.71,3.823,8.533,8.533,8.533H307.2c4.71,0,8.533-3.823,8.533-8.533V8.533
				c0-4.71-3.823-8.533-8.533-8.533h-59.733c-4.71,0-8.533,3.823-8.533,8.533v59.733h-179.2c-4.71,0-8.533,3.823-8.533,8.533
				v136.533C51.2,218.044,55.023,221.867,59.733,221.867z"/>
			<path d="M366.933,119.467c-4.71,0-8.533,3.823-8.533,8.533v51.2c0,4.71,3.823,8.533,8.533,8.533h34.133
				c4.71,0,8.533-3.823,8.533-8.533V128c0-4.71-3.823-8.533-8.533-8.533H366.933z M392.533,170.667h-17.067v-34.133h17.067V170.667z
				"/>
			<path d="M503.467,494.933H8.533c-4.71,0-8.533,3.823-8.533,8.533S3.823,512,8.533,512h494.933c4.71,0,8.533-3.823,8.533-8.533
				S508.177,494.933,503.467,494.933z"/>
			<path d="M315.733,443.733c4.71,0,8.533-3.823,8.533-8.533V315.733c0-2.261-0.896-4.437-2.5-6.033
				c-0.802-0.802-20.096-19.567-65.766-19.567s-64.964,18.765-65.766,19.567c-1.604,1.596-2.5,3.772-2.5,6.033V435.2
				c0,4.71,3.823,8.533,8.533,8.533s8.533-3.823,8.533-8.533V319.863c5.222-3.584,18.748-10.88,42.667-12.348v85.018
				c-4.71,0-8.533,3.823-8.533,8.533s3.823,8.533,8.533,8.533v25.6c0,4.71,3.823,8.533,8.533,8.533s8.533-3.823,8.533-8.533v-25.6
				c4.71,0,8.533-3.823,8.533-8.533s-3.823-8.533-8.533-8.533v-85.018c23.97,1.476,37.495,8.789,42.667,12.339V435.2
				C307.2,439.91,311.023,443.733,315.733,443.733z"/>
			<path d="M153.6,469.333c0,4.71,3.823,8.533,8.533,8.533h187.733c4.71,0,8.533-3.823,8.533-8.533s-3.823-8.533-8.533-8.533
				H162.133C157.423,460.8,153.6,464.623,153.6,469.333z"/>
			<path d="M42.667,460.8c-4.71,0-8.533,3.823-8.533,8.533s3.823,8.533,8.533,8.533H128c4.71,0,8.533-3.823,8.533-8.533
				S132.71,460.8,128,460.8h-8.533V256h273.067v204.8H384c-4.71,0-8.533,3.823-8.533,8.533s3.823,8.533,8.533,8.533h85.333
				c4.71,0,8.533-3.823,8.533-8.533s-3.823-8.533-8.533-8.533H460.8V256h8.533c4.71,0,8.533-3.823,8.533-8.533
				s-3.823-8.533-8.533-8.533H42.667c-4.71,0-8.533,3.823-8.533,8.533S37.956,256,42.667,256H51.2v204.8H42.667z M409.6,256h34.133
				v204.8H409.6V256z M68.267,256H102.4v204.8H68.267V256z"/>
			<path d="M110.933,119.467c-4.71,0-8.533,3.823-8.533,8.533v51.2c0,4.71,3.823,8.533,8.533,8.533h34.133
				c4.71,0,8.533-3.823,8.533-8.533V128c0-4.71-3.823-8.533-8.533-8.533H110.933z M136.533,170.667h-17.067v-34.133h17.067V170.667z
				"/>
			<path d="M196.267,119.467c-4.71,0-8.533,3.823-8.533,8.533v51.2c0,4.71,3.823,8.533,8.533,8.533H230.4
				c4.71,0,8.533-3.823,8.533-8.533V128c0-4.71-3.823-8.533-8.533-8.533H196.267z M221.867,170.667H204.8v-34.133h17.067V170.667z"
				/>
		</g>
	</g>
</g>
<g>
</g>
<g>
</g>
<g>
</g>
<g>
</g>
<g>
</g>
<g>
</g>
<g>
</g>
<g>
</g>
<g>
</g>
<g>
</g>
<g>
</g>
<g>
</g>
<g>
</g>
<g>
</g>
<g>
</g>
</svg>
