<?xml version="1.0" encoding="iso-8859-1"?>
<!-- Generator: Adobe Illustrator 19.0.0, SVG Export Plug-In . SVG Version: 6.00 Build 0)  -->
<svg version="1.1" id="Layer_1" xmlns="http://www.w3.org/2000/svg" xmlns:xlink="http://www.w3.org/1999/xlink" x="0px" y="0px"
	 viewBox="0 0 512 512" style="enable-background:new 0 0 512 512;" xml:space="preserve">
<g>
	<g>
		<g>
			<path d="M42.667,221.867h426.667c4.719,0,8.533-3.823,8.533-8.533c0-4.71-3.814-8.533-8.533-8.533H42.667
				c-4.71,0-8.533,3.823-8.533,8.533C34.133,218.044,37.956,221.867,42.667,221.867z"/>
			<path d="M119.467,170.667c-4.71,0-8.533,3.823-8.533,8.533s3.823,8.533,8.533,8.533h273.067c4.719,0,8.533-3.823,8.533-8.533
				s-3.814-8.533-8.533-8.533H119.467z"/>
			<path d="M85.333,187.733c4.71,0,8.533-3.823,8.533-8.533c0-89.404,72.73-162.133,162.133-162.133S418.133,89.796,418.133,179.2
				c0,4.71,3.814,8.533,8.533,8.533s8.533-3.823,8.533-8.533C435.2,80.384,354.807,0,256,0C157.184,0,76.8,80.384,76.8,179.2
				C76.8,183.91,80.623,187.733,85.333,187.733z"/>
			<path d="M298.667,256c4.719,0,8.533-3.823,8.533-8.533s-3.814-8.533-8.533-8.533h-85.333c-4.71,0-8.533,3.823-8.533,8.533
				s3.823,8.533,8.533,8.533h8.533v187.733h-8.533c-4.71,0-8.533,3.823-8.533,8.533c0,4.71,3.823,8.533,8.533,8.533h85.333
				c4.719,0,8.533-3.823,8.533-8.533c0-4.71-3.814-8.533-8.533-8.533h-8.533V256H298.667z M273.067,443.733h-34.133V256h34.133
				V443.733z"/>
			<path d="M469.333,477.867H42.667c-4.71,0-8.533,3.823-8.533,8.533v17.067c0,4.71,3.823,8.533,8.533,8.533
				c4.71,0,8.533-3.823,8.533-8.533v-8.533h409.6v8.533c0,4.71,3.814,8.533,8.533,8.533c4.719,0,8.533-3.823,8.533-8.533V486.4
				C477.867,481.69,474.052,477.867,469.333,477.867z"/>
			<path d="M162.133,256c4.71,0,8.533-3.823,8.533-8.533s-3.823-8.533-8.533-8.533H76.8c-4.71,0-8.533,3.823-8.533,8.533
				S72.09,256,76.8,256h8.533v187.733H76.8c-4.71,0-8.533,3.823-8.533,8.533c0,4.71,3.823,8.533,8.533,8.533h85.333
				c4.71,0,8.533-3.823,8.533-8.533c0-4.71-3.823-8.533-8.533-8.533H153.6V256H162.133z M136.533,443.733H102.4V256h34.133V443.733z
				"/>
			<path d="M435.2,256c4.719,0,8.533-3.823,8.533-8.533s-3.814-8.533-8.533-8.533h-85.333c-4.719,0-8.533,3.823-8.533,8.533
				s3.814,8.533,8.533,8.533h8.533v187.733h-8.533c-4.719,0-8.533,3.823-8.533,8.533c0,4.71,3.814,8.533,8.533,8.533H435.2
				c4.719,0,8.533-3.823,8.533-8.533c0-4.71-3.814-8.533-8.533-8.533h-8.533V256H435.2z M409.6,443.733h-34.133V256H409.6V443.733z"
				/>
		</g>
	</g>
</g>
<g>
</g>
<g>
</g>
<g>
</g>
<g>
</g>
<g>
</g>
<g>
</g>
<g>
</g>
<g>
</g>
<g>
</g>
<g>
</g>
<g>
</g>
<g>
</g>
<g>
</g>
<g>
</g>
<g>
</g>
</svg>
