<?xml version="1.0" encoding="iso-8859-1"?>
<!-- Generator: Adobe Illustrator 19.0.0, SVG Export Plug-In . SVG Version: 6.00 Build 0)  -->
<svg version="1.1" id="Layer_1" xmlns="http://www.w3.org/2000/svg" xmlns:xlink="http://www.w3.org/1999/xlink" x="0px" y="0px"
	 viewBox="0 0 512 512" style="enable-background:new 0 0 512 512;" xml:space="preserve">
<g>
	<g>
		<g>
			<path d="M494.933,452.267c-3.106,0-6.025,0.836-8.533,2.296c-5.018-2.918-12.049-2.918-17.067,0
				c-5.018-2.918-12.049-2.918-17.067,0c-5.018-2.918-12.049-2.918-17.067,0c-5.018-2.918-12.049-2.918-17.067,0
				c-5.018-2.918-12.049-2.918-17.067,0c-5.018-2.918-12.049-2.918-17.067,0c-5.018-2.918-12.049-2.918-17.067,0
				c-2.509-1.459-5.427-2.296-8.533-2.296c-9.412,0-17.067,7.654-17.067,17.067v34.133c0,4.71,3.814,8.533,8.533,8.533h153.6
				c4.719,0,8.533-3.823,8.533-8.533v-34.133C512,459.921,504.346,452.267,494.933,452.267z M494.933,494.933H358.4v-25.6
				c0,4.71,3.814,8.533,8.533,8.533s8.533-3.823,8.533-8.533c0,4.71,3.814,8.533,8.533,8.533c4.719,0,8.533-3.823,8.533-8.533
				c0,4.71,3.814,8.533,8.533,8.533c4.719,0,8.533-3.823,8.533-8.533c0,4.71,3.814,8.533,8.533,8.533s8.533-3.823,8.533-8.533
				c0,4.71,3.814,8.533,8.533,8.533s8.533-3.823,8.533-8.533c0,4.71,3.814,8.533,8.533,8.533c4.719,0,8.533-3.823,8.533-8.533
				c0,4.71,3.814,8.533,8.533,8.533s8.533-3.823,8.533-8.533c0,4.71,3.814,8.533,8.533,8.533s8.533-3.823,8.533-8.533V494.933z"/>
			<path d="M153.6,452.267c-3.106,0-6.025,0.836-8.533,2.296c-5.018-2.918-12.049-2.918-17.067,0
				c-5.018-2.918-12.049-2.918-17.067,0c-5.018-2.918-12.049-2.918-17.067,0c-5.018-2.918-12.049-2.918-17.067,0
				c-5.018-2.918-12.049-2.918-17.067,0c-5.018-2.918-12.049-2.918-17.067,0c-5.018-2.918-12.049-2.918-17.067,0
				c-2.509-1.459-5.427-2.296-8.533-2.296C7.654,452.267,0,459.921,0,469.333v34.133C0,508.177,3.814,512,8.533,512h153.6
				c4.719,0,8.533-3.823,8.533-8.533v-34.133C170.667,459.921,163.012,452.267,153.6,452.267z M153.6,494.933H17.067v-25.6
				c0,4.71,3.814,8.533,8.533,8.533s8.533-3.823,8.533-8.533c0,4.71,3.814,8.533,8.533,8.533s8.533-3.823,8.533-8.533
				c0,4.71,3.814,8.533,8.533,8.533s8.533-3.823,8.533-8.533c0,4.71,3.814,8.533,8.533,8.533s8.533-3.823,8.533-8.533
				c0,4.71,3.814,8.533,8.533,8.533c4.719,0,8.533-3.823,8.533-8.533c0,4.71,3.814,8.533,8.533,8.533s8.533-3.823,8.533-8.533
				c0,4.71,3.814,8.533,8.533,8.533s8.533-3.823,8.533-8.533c0,4.71,3.814,8.533,8.533,8.533s8.533-3.823,8.533-8.533V494.933z"/>
			<path d="M42.667,435.2c4.719,0,8.533-3.823,8.533-8.533v-409.6h409.6v409.6c0,4.71,3.814,8.533,8.533,8.533
				s8.533-3.823,8.533-8.533V8.533c0-4.71-3.814-8.533-8.533-8.533H42.667c-4.719,0-8.533,3.823-8.533,8.533v418.133
				C34.133,431.377,37.948,435.2,42.667,435.2z"/>
			<path d="M315.733,477.867H196.267c-4.719,0-8.533,3.823-8.533,8.533v17.067c0,4.71,3.814,8.533,8.533,8.533
				s8.533-3.823,8.533-8.533v-8.533h102.4v8.533c0,4.71,3.814,8.533,8.533,8.533s8.533-3.823,8.533-8.533V486.4
				C324.267,481.69,320.452,477.867,315.733,477.867z"/>
			<path d="M332.8,358.4H179.2c-4.719,0-8.533,3.823-8.533,8.533s3.814,8.533,8.533,8.533h25.6v76.8c0,4.71,3.814,8.533,8.533,8.533
				c4.719,0,8.533-3.823,8.533-8.533v-76.8h68.267v76.8c0,4.71,3.814,8.533,8.533,8.533s8.533-3.823,8.533-8.533v-76.8h25.6
				c4.719,0,8.533-3.823,8.533-8.533S337.519,358.4,332.8,358.4z"/>
			<path d="M315.204,244.523c-1.229-3.354-4.429-5.589-8.004-5.589h-30.234l-13.193-29.124c-1.382-3.055-4.42-5.009-7.774-5.009
				h-0.017c-3.362,0.009-6.4,1.98-7.774,5.043l-13.013,29.09H204.8c-3.627,0-6.861,2.295-8.047,5.709
				c-1.203,3.422-0.111,7.228,2.722,9.489l26.001,20.779l-11.546,29.15c-1.314,3.319-0.418,7.1,2.227,9.489
				c1.613,1.442,3.652,2.185,5.709,2.185c1.348,0,2.705-0.324,3.959-0.973l30.788-16.145l29.431,16.068
				c3.106,1.707,6.929,1.314,9.609-0.981c2.697-2.287,3.703-5.999,2.526-9.336l-10.317-29.303l24.849-21.086
				C315.452,251.657,316.442,247.885,315.204,244.523z M269.815,275.191l4.872,13.85l-13.892-7.595
				c-1.28-0.691-2.688-1.041-4.096-1.041c-1.357,0-2.722,0.324-3.959,0.973l-14.473,7.586l5.402-13.645
				c1.382-3.49,0.324-7.467-2.611-9.805L229.154,256h11.563c3.371,0,6.417-1.971,7.791-5.043l7.543-16.845l7.637,16.879
				c1.382,3.055,4.429,5.009,7.782,5.009h12.476l-11.597,9.847C269.653,268.134,268.638,271.846,269.815,275.191z"/>
			<path d="M262.059,424.192c1.536-1.621,2.475-3.84,2.475-6.059c0-2.219-0.939-4.437-2.475-6.059c-3.243-3.157-8.96-3.157-12.117,0
				c-1.545,1.621-2.475,3.84-2.475,6.059c0,2.219,0.93,4.437,2.475,6.059c1.613,1.536,3.84,2.475,6.059,2.475
				C258.219,426.667,260.437,425.728,262.059,424.192z"/>
			<path d="M435.2,102.4c4.719,0,8.533-3.823,8.533-8.533c0-4.71-3.814-8.533-8.533-8.533h-42.667V42.667
				c0-4.71-3.814-8.533-8.533-8.533c-4.719,0-8.533,3.823-8.533,8.533v42.667H307.2V42.667c0-4.71-3.814-8.533-8.533-8.533
				s-8.533,3.823-8.533,8.533v42.667h-68.267V42.667c0-4.71-3.814-8.533-8.533-8.533c-4.719,0-8.533,3.823-8.533,8.533v42.667
				h-68.267V42.667c0-4.71-3.814-8.533-8.533-8.533s-8.533,3.823-8.533,8.533v42.667H76.8c-4.719,0-8.533,3.823-8.533,8.533
				c0,4.71,3.814,8.533,8.533,8.533h42.667v51.2H76.8c-4.719,0-8.533,3.823-8.533,8.533c0,4.71,3.814,8.533,8.533,8.533h42.667v51.2
				H76.8c-4.719,0-8.533,3.823-8.533,8.533s3.814,8.533,8.533,8.533h42.667v51.2H76.8c-4.719,0-8.533,3.823-8.533,8.533
				s3.814,8.533,8.533,8.533h42.667v51.2H76.8c-4.719,0-8.533,3.823-8.533,8.533s3.814,8.533,8.533,8.533h42.667v51.2
				c0,4.71,3.814,8.533,8.533,8.533s8.533-3.823,8.533-8.533v-256h238.933v256c0,4.71,3.814,8.533,8.533,8.533
				c4.719,0,8.533-3.823,8.533-8.533v-51.2H435.2c4.719,0,8.533-3.823,8.533-8.533s-3.814-8.533-8.533-8.533h-42.667v-51.2H435.2
				c4.719,0,8.533-3.823,8.533-8.533s-3.814-8.533-8.533-8.533h-42.667v-51.2H435.2c4.719,0,8.533-3.823,8.533-8.533
				s-3.814-8.533-8.533-8.533h-42.667v-51.2H435.2c4.719,0,8.533-3.823,8.533-8.533c0-4.71-3.814-8.533-8.533-8.533h-42.667v-51.2
				H435.2z M204.8,153.6h-68.267v-51.2H204.8V153.6z M290.133,153.6h-68.267v-51.2h68.267V153.6z M375.467,153.6H307.2v-51.2h68.267
				V153.6z"/>
		</g>
	</g>
</g>
<g>
</g>
<g>
</g>
<g>
</g>
<g>
</g>
<g>
</g>
<g>
</g>
<g>
</g>
<g>
</g>
<g>
</g>
<g>
</g>
<g>
</g>
<g>
</g>
<g>
</g>
<g>
</g>
<g>
</g>
</svg>
