<?xml version="1.0" encoding="iso-8859-1"?>
<!-- Generator: Adobe Illustrator 17.1.0, SVG Export Plug-In . SVG Version: 6.00 Build 0)  -->
<!DOCTYPE svg PUBLIC "-//W3C//DTD SVG 1.1//EN" "http://www.w3.org/Graphics/SVG/1.1/DTD/svg11.dtd">
<svg version="1.1" id="Capa_1" xmlns="http://www.w3.org/2000/svg" xmlns:xlink="http://www.w3.org/1999/xlink" x="0px" y="0px"
	 viewBox="0 0 452.855 452.855" style="enable-background:new 0 0 452.855 452.855;" xml:space="preserve">
<path id="XMLID_339_" d="M351.143,370.536c-0.581,3.414-3.543,5.827-6.893,5.827c-0.391,0-0.785-0.032-1.183-0.1
	c-12.902-2.194-24.354-8.744-32.244-18.442c-3.414-4.197-6.934-11.171-9.656-19.135c-1.251-3.658,0.7-7.638,4.358-8.888
	c3.652-1.25,7.637,0.698,8.888,4.358c2.563,7.494,5.437,12.574,7.271,14.829c5.747,7.064,14.176,11.851,23.731,13.476
	C349.226,363.11,351.791,366.725,351.143,370.536z M120.464,364.913c-9.154,0.929-18.859,1.399-28.846,1.399
	c-18.688,0-36.631-1.687-50.523-4.748c-14.785-3.259-20.136-6.986-21.191-8.401v-47.612c3.04,1.081,6.433,2.089,10.184,3.026
	c16.521,4.13,38.374,6.404,61.531,6.404c3.729,0,7.506-0.061,11.225-0.18c3.864-0.123,6.896-3.356,6.772-7.22
	c-0.122-3.788-3.23-6.776-6.992-6.776c-0.076,0-0.152,0.001-0.229,0.004c-3.57,0.114-7.195,0.172-10.776,0.172
	c-20.361,0-39.857-1.854-54.896-5.221c-8.124-1.818-13.407-3.706-16.819-5.31v-14.718c3.04,1.081,6.433,2.089,10.183,3.026
	c16.521,4.131,38.374,6.405,61.532,6.405c3.752,0,7.53-0.061,11.228-0.182c3.864-0.126,6.895-3.36,6.769-7.224
	c-0.125-3.865-3.373-6.925-7.224-6.769c-3.548,0.115-7.172,0.174-10.773,0.174c-20.362,0-39.858-1.854-54.897-5.221
	c-8.122-1.818-13.406-3.706-16.817-5.311v-14.718c3.04,1.081,6.433,2.089,10.184,3.026c16.521,4.131,38.374,6.405,61.531,6.405
	c3.752,0,7.53-0.061,11.228-0.182c3.864-0.126,6.895-3.36,6.769-7.224c-0.125-3.865-3.373-6.888-7.224-6.769
	c-3.548,0.115-7.172,0.174-10.773,0.174c-20.361,0-39.857-1.854-54.897-5.221c-8.122-1.818-13.406-3.706-16.818-5.311v-74.932
	c3.04,1.081,6.433,2.089,10.183,3.026c16.522,4.131,38.374,6.405,61.532,6.405c9.2,0,18.269-0.361,26.955-1.073
	c3.854-0.315,6.721-3.695,6.405-7.549s-3.699-6.7-7.548-6.404c-8.307,0.681-16.991,1.026-25.811,1.026
	c-20.361,0-39.857-1.854-54.897-5.221c-16.319-3.653-21.177-7.588-22.422-8.935c1.246-1.346,6.106-5.28,22.424-8.933
	c15.04-3.366,34.535-5.221,54.896-5.221c8.82,0,17.504,0.346,25.811,1.026c3.854,0.324,7.233-2.551,7.548-6.404
	c0.316-3.854-2.551-7.233-6.405-7.549c-8.686-0.712-17.755-1.073-26.955-1.073c-23.157,0-45.01,2.274-61.531,6.405
	C9.841,120.474,0,127.588,0,137.161c0,4.263,1.952,8.038,5.903,11.362v71.755C2.558,220.805,0,223.7,0,227.194
	c0,4.263,1.952,8.038,5.903,11.362v11.539C2.558,250.621,0,253.517,0,257.01c0,4.263,1.952,8.039,5.903,11.362v11.541
	C2.558,280.44,0,283.335,0,286.828c0,4.263,1.952,8.038,5.903,11.361v55.443c0,25.931,76.941,26.68,85.715,26.68
	c10.457,0,20.638-0.495,30.259-1.472c3.846-0.39,6.648-3.824,6.258-7.671C127.744,367.324,124.308,364.515,120.464,364.913z
	 M264.042,386.865c0,3.866-3.134,7-7,7h-76.072c-22.953,0-41.626-18.673-41.626-41.625V109.725c0-12.387,8.755-22.767,20.402-25.275
	V48.739c0-3.866,3.134-7,7-7h171.022c3.866,0,7,3.134,7,7v35.711c11.647,2.509,20.403,12.889,20.403,25.275v96.329
	c0,3.866-3.134,7-7,7s-7-3.134-7-7v-37.215h-55.628c-1.882,0-3.684-0.758-5.001-2.102c-9.835-10.041-23.79-15.8-38.286-15.8
	s-28.451,5.759-38.284,15.799c-1.316,1.345-3.119,2.103-5.001,2.103h-55.628v62.12h55.628c1.882,0,3.685,0.758,5.001,2.103
	c8.895,9.081,20.963,14.634,33.981,15.634c3.854,0.296,6.739,3.661,6.443,7.516s-3.674,6.722-7.516,6.443
	c-15.379-1.182-29.735-7.436-40.755-17.695h-52.783V352.24c0,15.232,12.393,27.625,27.626,27.625h76.072
	C260.908,379.865,264.042,382.999,264.042,386.865z M173.746,83.871h157.022V55.739H173.746V83.871z M153.343,154.839h52.785
	c12.282-11.41,28.922-17.901,46.128-17.901s33.846,6.49,46.13,17.901h52.785v-45.114c0-6.536-5.317-11.854-11.853-11.854H165.196
	c-6.536,0-11.853,5.317-11.853,11.854V154.839z M398.833,401.392c-13.017,6.479-27.659,9.724-42.299,9.725
	c-14.308,0.001-28.613-3.097-41.413-9.301c-40.667-19.703-63.655-85.361-51.796-121.873c6.69-20.599,23.419-30.107,45.894-26.088
	l0.591,0.105c3.087-1.829,6.475-3.249,10.042-4.196c-1.939-8.142-0.353-16.795,4.722-24.131c1.29-1.866,3.405-2.991,5.674-3.019
	c0.164-0.002,0.33-0.003,0.493-0.003c9.695,0,18.966,3.39,25.805,9.199c6.953-5.907,16.412-9.304,26.296-9.196
	c2.268,0.027,4.382,1.151,5.673,3.016c5.078,7.336,6.666,15.99,4.726,24.134c3.569,0.948,6.958,2.369,10.046,4.2l0.529-0.1
	c22.252-4.154,38.928,5.134,45.749,25.49C461.699,315.572,439.277,381.256,398.833,401.392z M313.235,268.712
	c4.231,3.869,10.237,6.204,16.651,6.312c2.537,0.042,4.853,1.455,6.052,3.691s1.094,4.947-0.275,7.084
	c-2.952,4.608-3.396,9.932-1.358,14.788c6.873-0.873,12.986-4.247,16.507-9.271c1.311-1.869,3.449-2.982,5.732-2.982
	c2.282,0,4.422,1.113,5.732,2.982c3.521,5.024,9.635,8.398,16.509,9.271c2.038-4.855,1.594-10.179-1.359-14.787
	c-1.369-2.138-1.475-4.848-0.275-7.085c1.198-2.236,3.515-3.649,6.052-3.691c6.414-0.107,12.42-2.443,16.65-6.312
	c-0.592-0.542-1.22-1.054-1.878-1.533c-0.125-0.084-0.248-0.172-0.368-0.263c-3.989-2.787-9.055-4.428-14.403-4.516
	c-2.538-0.042-4.854-1.454-6.054-3.691s-1.094-4.948,0.275-7.085c2.955-4.609,3.399-9.934,1.361-14.788
	c-6.875,0.872-12.988,4.247-16.51,9.271c-1.311,1.869-3.45,2.982-5.732,2.982c0,0,0,0-0.001,0c-2.282,0-4.422-1.113-5.731-2.983
	c-3.521-5.022-9.633-8.396-16.508-9.27c-2.036,4.856-1.592,10.18,1.361,14.788c1.369,2.138,1.475,4.849,0.275,7.085
	c-1.199,2.237-3.516,3.649-6.054,3.691c-5.335,0.088-10.389,1.72-14.373,4.494c-0.125,0.095-0.253,0.186-0.384,0.272
	C314.465,267.651,313.833,268.166,313.235,268.712z M436.289,283.803c-3.608-10.771-10.372-16.355-20.554-16.899
	c0.504,1.884,0.206,3.931-0.893,5.622c-4.788,7.371-12.623,12.749-21.604,15.134c1.939,8.143,0.353,16.796-4.724,24.132
	c-1.291,1.866-3.405,2.99-5.674,3.018c-9.901,0.098-19.343-3.291-26.297-9.197c-6.955,5.908-16.444,9.31-26.297,9.197
	c-2.269-0.027-4.384-1.152-5.675-3.019c-5.073-7.337-6.659-15.989-4.722-24.13c-8.98-2.386-16.817-7.764-21.605-15.135
	c-1.084-1.67-1.388-3.686-0.911-5.55c-10.327,0.618-17.135,6.333-20.693,17.292c-4.763,14.661-2.517,36.793,5.859,57.76
	c8.95,22.402,23.065,39.603,38.726,47.189c22.082,10.701,49.427,10.563,71.368-0.358c15.595-7.764,29.56-25.077,38.314-47.501
	C439.095,320.387,441.158,298.333,436.289,283.803z"/>
<g>
</g>
<g>
</g>
<g>
</g>
<g>
</g>
<g>
</g>
<g>
</g>
<g>
</g>
<g>
</g>
<g>
</g>
<g>
</g>
<g>
</g>
<g>
</g>
<g>
</g>
<g>
</g>
<g>
</g>
</svg>
