<?xml version="1.0" encoding="iso-8859-1"?>
<!-- Generator: Adobe Illustrator 19.0.0, SVG Export Plug-In . SVG Version: 6.00 Build 0)  -->
<svg version="1.1" id="Layer_1" xmlns="http://www.w3.org/2000/svg" xmlns:xlink="http://www.w3.org/1999/xlink" x="0px" y="0px"
	 viewBox="0 0 512.062 512.062" style="enable-background:new 0 0 512.062 512.062;" xml:space="preserve">
<g>
	<g>
		<g>
			<path d="M73.438,187.073c4.326,1.843,9.344-0.154,11.204-4.48l25.387-59.281c7.125-14.242,18.261-20.881,35.038-20.881h119.467
				c20.727,0,39.876,11.042,52.838,30.729l50.961,67.738c2.236,4.07,12.757,21,32.657,21h25.6c36.617,0,51.14,20.267,56.798,34.133
				h-14.131c-4.719,0-8.533,3.823-8.533,8.533s3.814,8.533,8.533,8.533h18.347l7.006,43.23c0.589,2.261,0.401,4.036-0.58,5.291
				c-1.306,1.707-4.122,2.679-7.706,2.679h-26.283c-4.156-28.902-29.022-51.2-59.051-51.2c-32.93,0-59.733,26.795-59.733,59.733
				c0,32.939,26.803,59.733,59.733,59.733c30.029,0,54.895-22.298,59.051-51.2h26.283c9.054,0,16.589-3.311,21.222-9.318
				c4.25-5.504,5.513-12.629,3.738-19.243l-8.055-49.911c-5.623-28.066-28.698-58.061-76.638-58.061h-25.6
				c-11.409,0-17.741-12.22-17.783-12.288c-0.23-0.486-0.512-0.947-0.836-1.374l-51.046-67.823
				c-15.642-23.782-40.61-37.982-66.79-37.982H145.067c-23.313,0-40.243,10.197-50.509,30.771l-25.6,59.733
				C67.098,180.204,69.111,185.222,73.438,187.073z M400.99,375.498c-23.526,0-42.667-19.14-42.667-42.667
				c0-23.526,19.14-42.667,42.667-42.667c23.526,0,42.667,19.14,42.667,42.667C443.657,356.358,424.516,375.498,400.99,375.498z"/>
			<path d="M503.467,409.631H366.933c-4.719,0-8.533,3.823-8.533,8.533s3.814,8.533,8.533,8.533h136.533
				c4.719,0,8.533-3.823,8.533-8.533S508.186,409.631,503.467,409.631z"/>
			<path d="M25.6,341.364h4.403c4.71,0,8.533-3.823,8.533-8.533s-3.823-8.533-8.533-8.533H25.6c-4.702,0-8.533-3.831-8.533-8.533
				v-42.667H25.6c4.71,0,8.533-3.823,8.533-8.533s-3.823-8.533-8.533-8.533h-8.533v-25.6c0-4.702,3.831-8.533,8.533-8.533h163.669
				l15.693,78.473c0.811,4.053,4.378,6.861,8.363,6.861c0.555,0,1.118-0.051,1.681-0.162c4.625-0.93,7.62-5.427,6.69-10.044
				l-15.019-75.127H349.79c4.719,0,8.533-3.823,8.533-8.533s-3.814-8.533-8.533-8.533h-28.86l10.897-21.786
				c2.108-4.215,0.401-9.335-3.823-11.443c-4.224-2.116-9.327-0.401-11.443,3.814l-14.711,29.414H204.8v-76.8
				c0-4.71-3.823-8.533-8.533-8.533s-8.533,3.823-8.533,8.533v76.8H25.6c-14.114,0-25.6,11.486-25.6,25.6v85.333
				C0,329.879,11.486,341.364,25.6,341.364z"/>
			<path d="M324.19,332.831c0-4.71-3.814-8.533-8.533-8.533H169.984c-4.156-28.902-29.022-51.2-59.051-51.2
				c-32.939,0-59.733,26.795-59.733,59.733c0,32.939,26.795,59.733,59.733,59.733c30.029,0,54.895-22.298,59.051-51.2h145.673
				C320.375,341.364,324.19,337.542,324.19,332.831z M110.933,375.498c-23.526,0-42.667-19.14-42.667-42.667
				c0-23.526,19.14-42.667,42.667-42.667c23.526,0,42.667,19.14,42.667,42.667C153.6,356.358,134.46,375.498,110.933,375.498z"/>
			<path d="M400.99,307.231c-14.114,0-25.6,11.486-25.6,25.6s11.486,25.6,25.6,25.6c14.123,0,25.6-11.486,25.6-25.6
				S415.113,307.231,400.99,307.231z M400.99,341.364c-4.702,0-8.533-3.831-8.533-8.533c0-4.702,3.831-8.533,8.533-8.533
				c4.71,0,8.533,3.831,8.533,8.533C409.523,337.533,405.7,341.364,400.99,341.364z"/>
			<path d="M238.933,238.964c-4.71,0-8.533,3.823-8.533,8.533s3.823,8.533,8.533,8.533h8.533c4.71,0,8.533-3.823,8.533-8.533
				s-3.823-8.533-8.533-8.533H238.933z"/>
			<path d="M264.533,409.631H179.2c-4.71,0-8.533,3.823-8.533,8.533s3.823,8.533,8.533,8.533h85.333
				c4.719,0,8.533-3.823,8.533-8.533S269.252,409.631,264.533,409.631z"/>
			<path d="M110.933,307.231c-14.114,0-25.6,11.486-25.6,25.6s11.486,25.6,25.6,25.6s25.6-11.486,25.6-25.6
				S125.047,307.231,110.933,307.231z M110.933,341.364c-4.702,0-8.533-3.831-8.533-8.533c0-4.702,3.831-8.533,8.533-8.533
				c4.702,0,8.533,3.831,8.533,8.533C119.467,337.533,115.635,341.364,110.933,341.364z"/>
			<path d="M128,409.631H8.533c-4.71,0-8.533,3.823-8.533,8.533s3.823,8.533,8.533,8.533H128c4.71,0,8.533-3.823,8.533-8.533
				S132.71,409.631,128,409.631z"/>
			<path d="M332.8,409.631h-17.067c-4.719,0-8.533,3.823-8.533,8.533s3.814,8.533,8.533,8.533H332.8
				c4.719,0,8.533-3.823,8.533-8.533S337.519,409.631,332.8,409.631z"/>
		</g>
	</g>
</g>
<g>
</g>
<g>
</g>
<g>
</g>
<g>
</g>
<g>
</g>
<g>
</g>
<g>
</g>
<g>
</g>
<g>
</g>
<g>
</g>
<g>
</g>
<g>
</g>
<g>
</g>
<g>
</g>
<g>
</g>
</svg>
