<?xml version="1.0" encoding="iso-8859-1"?>
<!-- Generator: Adobe Illustrator 19.0.0, SVG Export Plug-In . SVG Version: 6.00 Build 0)  -->
<svg version="1.1" id="Layer_1" xmlns="http://www.w3.org/2000/svg" xmlns:xlink="http://www.w3.org/1999/xlink" x="0px" y="0px"
	 viewBox="0 0 512.002 512.002" style="enable-background:new 0 0 512.002 512.002;" xml:space="preserve">
<g>
	<g>
		<g>
			<path d="M162.128,290.135c-14.114,0-25.6,11.486-25.6,25.6v85.333c0,14.114,11.486,25.6,25.6,25.6s25.6-11.486,25.6-25.6v-85.333
				C187.728,301.621,176.242,290.135,162.128,290.135z M170.662,401.068c0,4.702-3.823,8.533-8.533,8.533s-8.533-3.831-8.533-8.533
				v-85.333c0-4.702,3.823-8.533,8.533-8.533s8.533,3.831,8.533,8.533V401.068z"/>
			<path d="M31.628,288.318l-12.066-12.066c-3.328-3.337-3.328-8.747,0-12.075l60.339-60.331c3.226-3.226,8.858-3.226,12.066,0
				l12.075,12.066c3.337,3.319,8.738,3.328,12.066-0.009c3.337-3.328,3.337-8.738,0-12.066l-12.075-12.066
				c-9.66-9.66-26.522-9.668-36.198,0L7.496,252.111c-9.984,9.975-9.984,26.214,0,36.207l12.066,12.066
				c1.664,1.673,3.849,2.5,6.033,2.5c2.185,0,4.369-0.828,6.033-2.5C34.964,297.056,34.964,291.654,31.628,288.318z"/>
			<path d="M224.362,232.902c-3.337,3.336-3.337,8.73,0,12.066c1.664,1.664,3.849,2.5,6.033,2.5s4.369-0.836,6.033-2.5
				C292.33,189.066,398.561,82.869,402.649,78.91c0.085-0.085,0.179-0.171,0.265-0.247c4.062-4.07,9.463-6.306,15.215-6.306
				c11.87,0,21.513,9.651,21.513,21.513c0,5.743-2.236,11.145-6.298,15.215c-0.145,0.145-0.196,0.35-0.333,0.503L267.028,275.569
				c-3.337,3.337-3.337,8.73,0,12.066c1.664,1.664,3.849,2.5,6.033,2.5c2.185,0,4.369-0.836,6.033-2.5l166.263-166.263
				c0.256-0.247,0.341-0.572,0.555-0.836c6.938-7.219,10.795-16.631,10.795-26.667c0-21.274-17.306-38.579-38.579-38.579
				c-10.3,0-19.994,4.011-27.281,11.298l0.307,0.307c-4.088,3.396-11.324,10.633-26.385,25.668L224.362,232.902z"/>
			<path d="M243.195,341.335c-7.057,0-12.8,5.743-12.8,12.8s5.743,12.8,12.8,12.8s12.8-5.743,12.8-12.8
				S250.252,341.335,243.195,341.335z M243.195,358.402c-2.347,0-4.267-1.911-4.267-4.267s1.92-4.267,4.267-4.267
				s4.267,1.911,4.267,4.267S245.542,358.402,243.195,358.402z"/>
			<path d="M504.69,111.02l-15.095-2.193c0.87-4.053,1.519-8.158,1.758-12.288c0.29-5.026,0.085-9.95-0.538-14.737l15.497-5.495
				c4.437-1.57,6.767-6.451,5.188-10.889c-1.579-4.454-6.46-6.758-10.889-5.188l-13.978,4.949
				c-2.449-6.391-5.803-12.365-10.035-17.775l11.443-11.435c3.336-3.328,3.336-8.738,0-12.066c-3.328-3.337-8.73-3.337-12.066,0
				l-11.443,11.435c-5.154-4.028-10.837-7.245-16.896-9.66l4.284-14.763c1.314-4.531-1.28-9.259-5.82-10.573
				c-4.531-1.314-9.259,1.289-10.564,5.811l-4.378,15.061c-5.103-0.734-10.385-0.947-15.753-0.623
				c-3.285,0.188-6.545,0.657-9.796,1.254l-4.531-15.684c-1.306-4.523-6.042-7.142-10.573-5.82
				c-4.531,1.306-7.134,6.042-5.828,10.564l4.54,15.701c-7.893,3.174-15.36,7.475-21.973,12.843l-11.349-11.349
				c-3.337-3.337-8.73-3.337-12.066,0c-3.336,3.337-3.336,8.73,0,12.066l11.008,11.008L341.303,64.71l-11.008-11.008
				c-3.337-3.337-8.73-3.337-12.066,0c-3.337,3.336-3.337,8.73,0,12.066l11.008,11.008L315.711,90.31l-11.017-11.008
				c-3.337-3.337-8.73-3.337-12.066,0c-3.336,3.337-3.336,8.73,0,12.066l11.017,11.016l-13.534,13.534l-11.016-11.017
				c-3.337-3.336-8.73-3.336-12.066,0c-3.337,3.337-3.337,8.73,0,12.066l11.017,11.025l-13.525,13.525l-11.025-11.017
				c-3.337-3.337-8.73-3.337-12.066,0c-3.337,3.337-3.337,8.73,0,12.066l11.025,11.025l-13.534,13.534l-11.025-11.025
				c-3.337-3.336-8.73-3.336-12.066,0c-3.337,3.337-3.337,8.73,0,12.066l11.025,11.034l-13.525,13.525l-11.034-11.025
				c-3.336-3.337-8.73-3.337-12.066,0c-3.337,3.336-3.337,8.73,0,12.066l11.034,11.034l-2.5,2.5c-3.337,3.337-3.337,8.738,0,12.066
				c3.337,3.336,8.73,3.336,12.066,0l8.525-8.525l0.009-0.008l0.008-0.009l25.557-25.566c0.008-0.017,0.026-0.017,0.034-0.026
				s0.017-0.026,0.026-0.034l25.506-25.523c0.026-0.017,0.051-0.026,0.068-0.043c0.017-0.017,0.026-0.043,0.043-0.06l25.463-25.481
				c0.026-0.026,0.068-0.034,0.094-0.06c0.026-0.026,0.034-0.068,0.06-0.094l25.421-25.429c0.034-0.034,0.085-0.043,0.119-0.077
				s0.043-0.085,0.085-0.119l25.361-25.387c0.051-0.043,0.111-0.051,0.154-0.094c0.043-0.043,0.06-0.102,0.102-0.145l25.327-25.336
				c0.043-0.051,0.119-0.068,0.171-0.119c0.043-0.043,0.051-0.094,0.094-0.137c11.494-11.426,27.281-18.534,43.349-19.473
				c16.503-0.947,31.582,4.489,42.479,15.394c0.008,0.009,0.008,0.017,0.017,0.017c0.009,0.009,0.017,0.009,0.017,0.009
				c10.897,10.914,16.367,25.993,15.394,42.487c-0.947,16.137-8.09,31.991-19.61,43.503l-25.574,25.583
				c-0.008,0.009-0.017,0.009-0.026,0.017c-0.009,0.008-0.009,0.017-0.017,0.026l-25.523,25.54c-0.017,0.009-0.043,0.017-0.06,0.034
				c-0.017,0.017-0.017,0.034-0.034,0.051l-25.481,25.498c-0.026,0.026-0.06,0.026-0.085,0.051c-0.026,0.026-0.034,0.06-0.06,0.085
				l-25.429,25.438c-0.034,0.034-0.077,0.043-0.111,0.077c-0.034,0.034-0.043,0.077-0.077,0.111l-25.387,25.395
				c-0.043,0.043-0.094,0.051-0.137,0.094c-0.043,0.043-0.051,0.094-0.094,0.137l-33.98,33.997c-3.336,3.337-3.336,8.738,0,12.066
				c1.664,1.664,3.849,2.5,6.033,2.5c2.185,0,4.369-0.836,6.033-2.5l2.5-2.5l11.034,11.034c1.664,1.664,3.849,2.5,6.033,2.5
				c2.185,0,4.369-0.836,6.033-2.5c3.336-3.336,3.336-8.73,0-12.066l-11.034-11.034l13.5-13.508l11.008,11.008
				c1.664,1.664,3.849,2.5,6.033,2.5c2.185,0,4.369-0.836,6.033-2.5c3.337-3.337,3.337-8.73,0-12.066l-11.008-11.017l13.525-13.534
				l11.017,11.017c1.664,1.664,3.849,2.5,6.033,2.5c2.185,0,4.369-0.836,6.033-2.5c3.336-3.337,3.336-8.73,0-12.066l-11.017-11.017
				l13.534-13.534l11.016,11.017c1.664,1.664,3.849,2.5,6.033,2.5c2.185,0,4.369-0.836,6.033-2.5c3.337-3.337,3.337-8.73,0-12.066
				l-11.025-11.025l13.534-13.534l11.025,11.025c1.664,1.664,3.849,2.5,6.033,2.5c2.185,0,4.369-0.836,6.033-2.5
				c3.336-3.337,3.336-8.73,0-12.066l-11.025-11.025l13.534-13.534l11.025,11.025c1.664,1.664,3.849,2.5,6.033,2.5
				c2.185,0,4.369-0.836,6.033-2.5c3.337-3.337,3.337-8.73,0-12.066l-11.034-11.034l13.534-13.534l11.034,11.034
				c1.664,1.664,3.849,2.5,6.033,2.5c2.185,0,4.369-0.836,6.033-2.5c3.337-3.337,3.337-8.73,0-12.066l-11.375-11.375
				c4.796-5.905,8.781-12.459,11.844-19.413l17.929,2.603c0.418,0.06,0.828,0.085,1.237,0.085c4.173,0,7.817-3.055,8.431-7.305
				C512.584,116.03,509.35,111.703,504.69,111.02z"/>
			<path d="M188.513,227.978c-8.064-8.064-18.765-12.501-30.165-12.501s-22.11,4.437-30.165,12.501l-84.48,84.471
				c-8.055,8.064-12.501,18.773-12.501,30.174c0,11.401,4.446,22.11,12.501,30.165l12.066,12.075
				c-6.647,6.647-6.647,17.476,0,24.132l78.438,78.447c6.451,6.443,17.681,6.451,24.141,0l12.066,12.066
				c8.055,8.055,18.773,12.493,30.174,12.493c11.401,0,22.11-4.437,30.165-12.493l31.309-31.309c6.989-6.98,11-15.898,11-24.465
				v-43.81l12.348-15.411c16.29-16.666,16.171-43.477-0.35-59.989L188.513,227.978z M272.993,372.789
				c-0.222,0.222-0.435,0.461-0.623,0.708l-14.498,18.099c-1.22,1.51-1.877,3.388-1.877,5.333v46.805
				c0,4.011-2.244,8.644-5.999,12.399l-31.309,31.309c-9.668,9.66-26.539,9.66-36.207,0l-18.099-18.108
				c-1.604-1.604-3.772-2.5-6.033-2.5c-2.27,0-4.437,0.896-6.033,2.5l-6.033,6.033L67.835,396.93l6.033-6.033
				c3.336-3.337,3.336-8.738,0-12.066l-18.099-18.108c-4.83-4.83-7.501-11.264-7.501-18.099c0-6.835,2.671-13.269,7.501-18.108
				l84.471-84.471c9.668-9.668,26.539-9.668,36.207,0l96.546,96.546C282.969,346.575,282.969,362.814,272.993,372.789z"/>
		</g>
	</g>
</g>
<g>
</g>
<g>
</g>
<g>
</g>
<g>
</g>
<g>
</g>
<g>
</g>
<g>
</g>
<g>
</g>
<g>
</g>
<g>
</g>
<g>
</g>
<g>
</g>
<g>
</g>
<g>
</g>
<g>
</g>
</svg>
