<?xml version="1.0" encoding="iso-8859-1"?>
<!-- Generator: Adobe Illustrator 19.0.0, SVG Export Plug-In . SVG Version: 6.00 Build 0)  -->
<svg version="1.1" id="Layer_1" xmlns="http://www.w3.org/2000/svg" xmlns:xlink="http://www.w3.org/1999/xlink" x="0px" y="0px"
	 viewBox="0 0 512.085 512.085" style="enable-background:new 0 0 512.085 512.085;" xml:space="preserve">
<g>
	<g>
		<g>
			<path d="M260.249,298.709c7.057,0,12.8-5.743,12.8-12.8s-5.743-12.8-12.8-12.8s-12.8,5.743-12.8,12.8
				S253.192,298.709,260.249,298.709z"/>
			<path d="M196.249,290.176c-14.114,0-25.6,11.486-25.6,25.6s11.486,25.6,25.6,25.6s25.6-11.486,25.6-25.6
				S210.363,290.176,196.249,290.176z M196.249,324.309c-4.702,0-8.533-3.831-8.533-8.533s3.831-8.533,8.533-8.533
				c4.702,0,8.533,3.831,8.533,8.533S200.951,324.309,196.249,324.309z"/>
			<path d="M170.649,68.309h76.902c4.71,0,8.533-3.823,8.533-8.533c0-4.71-3.823-8.533-8.533-8.533h-76.902V34.176h119.569v17.067
				h-8.533c-4.71,0-8.533,3.823-8.533,8.533v153.6c0,23.646,9.557,38.255,10.061,39.006l59.631,85.786
				c1.655,2.381,4.318,3.661,7.014,3.661c1.681,0,3.379-0.495,4.864-1.527c3.866-2.688,4.821-8.004,2.133-11.878l-59.537-85.649
				c-0.068-0.102-7.1-11.162-7.1-29.397V68.309c9.412,0,17.067-7.654,17.067-17.067V34.176c0-9.412-7.654-17.067-17.067-17.067
				H170.649c-9.421,0-17.067,7.654-17.067,17.067v17.067C153.583,60.655,161.228,68.309,170.649,68.309z"/>
			<path d="M247.449,213.376c0-9.412-7.654-17.067-17.067-17.067c-9.421,0-17.067,7.654-17.067,17.067
				c0,9.412,7.646,17.067,17.067,17.067C239.795,230.442,247.449,222.788,247.449,213.376z"/>
			<path d="M409.583,204.842c0,9.412,7.654,17.067,17.067,17.067c9.412,0,17.067-7.654,17.067-17.067s-7.654-17.067-17.067-17.067
				C417.237,187.776,409.583,195.43,409.583,204.842z"/>
			<path d="M366.916,477.909h-332.8c-4.719,0-13.065-0.828-15.957-6.366c-2.697-5.163-0.495-13.722,5.606-22.511l43.554-55.654
				c11.597,2.108,41.472,6.835,76.698,6.835c22.741,0,47.701-1.971,71.373-7.893c65.28-16.299,131.729-0.154,132.395,0
				c4.557,1.109,9.19-1.647,10.342-6.212c1.143-4.574-1.638-9.199-6.204-10.342c-2.884-0.725-71.151-17.391-140.681,0
				c-49.314,12.331-106.385,6.144-131.925,2.261l98.475-125.85c0.401-0.623,9.924-15.462,9.924-38.801V93.909
				c0-4.71-3.823-8.533-8.533-8.533c-4.719,0-8.533,3.823-8.533,8.533v119.467c0,17.596-6.793,28.894-6.741,28.894L10.043,438.903
				c-10.24,14.711-12.783,29.491-7.014,40.542c3.038,5.803,11.102,15.531,31.087,15.531h332.8c4.71,0,8.533-3.823,8.533-8.533
				S371.626,477.909,366.916,477.909z"/>
			<path d="M447.983,162.176c7.057,0,12.8-5.743,12.8-12.8s-5.743-12.8-12.8-12.8s-12.8,5.743-12.8,12.8
				S440.925,162.176,447.983,162.176z"/>
			<path d="M495.018,51.242H375.449c-9.421,0-17.067,7.654-17.067,17.067v17.067c0,9.412,7.646,17.067,17.067,17.067h76.902
				c4.71,0,8.533-3.823,8.533-8.533s-3.823-8.533-8.533-8.533h-76.902V68.309h119.569v17.067h-8.533
				c-4.71,0-8.533,3.823-8.533,8.533v340.847c-0.009,0-0.026,0.051-0.051,0.179c-0.051,0.384-0.094,0.776-0.102,1.169
				c-0.461,23.049-19.575,41.805-42.615,41.805c-23.501,0-42.65-19.123-42.667-42.658V274.986
				c8.516,1.374,16.811,1.928,24.405,1.928c20.796,0,36.42-3.814,37.402-4.062c4.565-1.143,7.347-5.777,6.204-10.351
				c-1.143-4.565-5.768-7.347-10.351-6.204c-0.29,0.077-28.203,6.886-57.66,1.391V128.042h-17.067v307.251
				c0.026,32.905,26.829,59.682,59.733,59.682c32.043,0,58.675-25.907,59.665-57.882c0.085-0.614,0.171-1.434,0.171-1.852v-332.8
				c9.412,0,17.067-7.654,17.067-17.067V68.309C512.085,58.897,504.431,51.242,495.018,51.242z"/>
		</g>
	</g>
</g>
<g>
</g>
<g>
</g>
<g>
</g>
<g>
</g>
<g>
</g>
<g>
</g>
<g>
</g>
<g>
</g>
<g>
</g>
<g>
</g>
<g>
</g>
<g>
</g>
<g>
</g>
<g>
</g>
<g>
</g>
</svg>
