<?xml version="1.0" encoding="iso-8859-1"?>
<!-- Generator: Adobe Illustrator 19.0.0, SVG Export Plug-In . SVG Version: 6.00 Build 0)  -->
<svg version="1.1" id="Layer_1" xmlns="http://www.w3.org/2000/svg" xmlns:xlink="http://www.w3.org/1999/xlink" x="0px" y="0px"
	 viewBox="0 0 513.389 513.389" style="enable-background:new 0 0 513.389 513.389;" xml:space="preserve">
<g>
	<g>
		<g>
			<path d="M256.691,222.573c-18.825,0-34.133,15.309-34.133,34.133s15.309,34.133,34.133,34.133s34.133-15.309,34.133-34.133
				S275.515,222.573,256.691,222.573z M256.691,273.773c-9.412,0-17.067-7.654-17.067-17.067c0-9.412,7.654-17.067,17.067-17.067
				c9.412,0,17.067,7.654,17.067,17.067C273.757,266.118,266.103,273.773,256.691,273.773z"/>
			<path d="M510.993,236.209c2.091-2.79,2.278-6.571,0.461-9.557c-1.801-2.97-5.222-4.574-8.695-3.977l-26.206,4.369
				c-1.024-7.697-2.44-15.309-4.233-22.733l16.333-53.845c1.007-3.337-0.111-6.955-2.833-9.139
				c-2.722-2.176-6.494-2.483-9.532-0.768l-23.117,13.065c-3.584-6.818-7.518-13.457-11.776-19.831l-3.063-56.252
				c-0.196-3.482-2.483-6.494-5.786-7.62c-3.302-1.118-6.955-0.111-9.224,2.543l-17.28,20.207
				c-5.641-5.111-11.588-9.984-17.792-14.558l-22.153-51.891c-1.374-3.209-4.574-5.453-8.038-5.18
				c-3.49,0.077-6.579,2.27-7.799,5.538l-9.318,24.883c-7.108-2.918-14.387-5.47-21.751-7.62L280.669,2.703
				c-2.389-2.551-6.084-3.388-9.327-2.116c-3.251,1.271-5.402,4.386-5.436,7.876l-0.247,26.59
				c-7.859-0.358-14.421-0.282-22.963,0.29L192.349,9.828c-3.098-1.562-6.869-1.101-9.489,1.203c-2.62,2.295-3.576,5.965-2.415,9.25
				l8.849,25.037c-7.305,2.338-14.524,5.06-21.547,8.141l-55.953-6.741c-3.422-0.41-6.827,1.314-8.499,4.369
				c-1.673,3.063-1.323,6.835,0.896,9.532l16.905,20.54c-6.076,4.693-11.913,9.702-17.425,14.967l-54.955,12.817
				c-3.396,0.785-5.965,3.567-6.494,7.014c-0.529,3.448,1.092,6.869,4.096,8.644l22.886,13.5
				c-4.19,6.588-8.004,13.329-11.383,20.139l-47.096,30.737c-2.918,1.903-4.386,5.393-3.703,8.815s3.379,6.084,6.81,6.716
				l26.078,4.855c-1.638,7.518-2.884,15.147-3.729,22.775L2.397,277.186c-2.091,2.79-2.278,6.571-0.469,9.557
				c1.809,2.97,5.24,4.548,8.704,3.977l26.197-4.361c1.024,7.697,2.44,15.317,4.232,22.733L24.729,362.92
				c-1.007,3.336,0.111,6.955,2.833,9.139c2.722,2.176,6.502,2.492,9.532,0.768l23.108-13.047
				c3.584,6.801,7.518,13.448,11.784,19.84l3.063,56.226c0.196,3.482,2.483,6.494,5.786,7.62c3.302,1.118,6.963,0.111,9.224-2.543
				l17.271-20.19c5.632,5.112,11.588,10.001,17.801,14.575l22.144,51.857c1.365,3.209,4.361,5.274,8.038,5.18
				c3.49-0.077,6.579-2.27,7.799-5.538l9.318-24.858c7.108,2.918,14.396,5.47,21.768,7.629l38.494,41.114
				c1.647,1.758,3.925,2.697,6.238,2.697c1.033,0,2.091-0.188,3.098-0.58c3.243-1.271,5.402-4.378,5.427-7.868l0.256-26.573
				c7.731,0.333,14.438,0.273,22.989-0.299l50.313,25.506c1.254,0.631,2.5,0.947,3.951,0.922c4.83,0.256,8.61-3.797,8.61-8.533
				c0-1.587-0.435-3.072-1.186-4.352l-8.311-23.526c7.313-2.321,14.532-5.052,21.581-8.141l55.919,6.741
				c3.413,0.401,6.827-1.314,8.508-4.369c1.672-3.063,1.314-6.835-0.896-9.523l-16.905-20.54c6.084-4.71,11.93-9.719,17.442-14.985
				l54.938-12.808c3.396-0.785,5.965-3.567,6.494-7.014s-1.092-6.869-4.096-8.644l-22.886-13.491
				c4.181-6.579,7.996-13.321,11.392-20.156l47.095-30.737c2.918-1.903,4.386-5.393,3.703-8.815s-3.379-6.076-6.81-6.716
				l-26.078-4.855c1.63-7.526,2.876-15.155,3.721-22.775L510.993,236.209z M455.884,315.356c1.271,2.005,3.311,3.388,5.649,3.814
				l13.969,2.594l-31.223,20.378c-1.297,0.853-2.347,2.031-3.021,3.439c-4.574,9.455-10.01,18.756-16.179,27.639
				c-1.348,1.946-1.826,4.369-1.323,6.69c0.503,2.321,1.954,4.318,3.994,5.521l12.288,7.253l-36.48,8.499
				c-1.51,0.358-2.901,1.118-4.019,2.202c-7.543,7.356-15.778,14.216-24.491,20.403c-1.929,1.365-3.2,3.482-3.516,5.828
				s0.358,4.719,1.869,6.545l9.079,11.034l-37.12-4.48c-1.519-0.179-3.115,0.06-4.531,0.691c-9.719,4.395-19.823,8.03-30.037,10.82
				c-2.287,0.623-4.207,2.176-5.308,4.275c-1.101,2.099-1.28,4.565-0.486,6.801l4.736,13.423l-33.417-16.939
				c-1.391-0.708-2.961-1.033-4.489-0.896c-12.134,0.887-20.258,0.819-31.863-0.119c-2.398-0.213-4.702,0.597-6.451,2.202
				c-1.749,1.596-2.756,3.849-2.782,6.212l-0.136,14.293l-25.549-27.281c-1.067-1.135-2.415-1.963-3.917-2.381
				c-10.249-2.884-20.335-6.596-29.969-11.025c-1.126-0.521-2.338-0.785-3.558-0.785c-1.109,0-2.21,0.213-3.251,0.64
				c-2.193,0.904-3.908,2.671-4.745,4.898l-5.001,13.338l-14.703-34.432c-0.606-1.434-1.596-2.662-2.859-3.576
				c-8.713-6.289-16.905-13.21-24.363-20.582c-1.681-1.664-3.994-2.543-6.349-2.458c-2.372,0.094-4.591,1.178-6.127,2.978
				l-9.276,10.837L88.9,376.343c-0.085-1.562-0.597-3.055-1.468-4.343c-5.999-8.789-11.349-18.116-15.898-27.725
				c-1.007-2.142-2.876-3.763-5.128-4.48c-2.261-0.717-4.719-0.461-6.776,0.708l-12.382,6.989l10.829-35.686
				c0.452-1.493,0.486-3.072,0.102-4.582c-2.586-10.189-4.395-20.796-5.385-31.539c-0.213-2.364-1.399-4.531-3.277-5.982
				c-1.886-1.451-4.284-2.057-6.622-1.656l-14.071,2.338l22.426-29.892c0.939-1.246,1.51-2.731,1.664-4.275
				c1.05-10.581,2.944-21.154,5.632-31.445c0.606-2.295,0.222-4.727-1.05-6.733c-1.271-1.997-3.311-3.379-5.641-3.814l-13.969-2.594
				l31.223-20.378c1.306-0.853,2.347-2.039,3.021-3.439c4.548-9.404,9.984-18.705,16.171-27.639
				c1.357-1.946,1.826-4.369,1.323-6.682c-0.512-2.321-1.954-4.318-3.994-5.521l-12.288-7.253l36.489-8.516
				c1.519-0.35,2.91-1.109,4.019-2.193c7.552-7.356,15.795-14.217,24.482-20.386c1.929-1.374,3.209-3.482,3.516-5.837
				c0.316-2.347-0.358-4.719-1.869-6.545l-9.079-11.034l37.137,4.48c1.562,0.188,3.123-0.06,4.54-0.7
				c9.685-4.369,19.789-8.013,30.012-10.803c2.287-0.623,4.215-2.176,5.316-4.275c1.092-2.099,1.271-4.565,0.478-6.801
				l-4.745-13.423l33.442,16.939c1.382,0.7,2.918,1.007,4.48,0.896c12.1-0.879,20.105-0.819,31.863,0.119
				c2.338,0.213,4.693-0.597,6.443-2.202c1.741-1.596,2.756-3.849,2.773-6.221l0.137-14.302l25.566,27.307
				c1.067,1.135,2.424,1.963,3.925,2.381c10.231,2.876,20.309,6.588,29.935,11.017c2.159,0.998,4.634,1.05,6.818,0.145
				c2.193-0.905,3.908-2.68,4.745-4.898l5.001-13.355l14.703,34.458c0.614,1.425,1.604,2.662,2.859,3.567
				c8.704,6.281,16.905,13.201,24.363,20.582c1.69,1.664,3.985,2.517,6.357,2.449c2.372-0.102,4.591-1.178,6.127-2.978l9.276-10.846
				l2.039,37.333c0.077,1.553,0.589,3.055,1.468,4.344c5.973,8.755,11.324,18.074,15.88,27.699c1.016,2.142,2.876,3.763,5.129,4.48
				c2.253,0.708,4.71,0.461,6.775-0.708l12.39-6.997l-10.837,35.721c-0.444,1.485-0.486,3.072-0.102,4.582
				c2.594,10.18,4.403,20.787,5.385,31.514c0.213,2.364,1.408,4.531,3.285,5.982c1.877,1.451,4.275,2.065,6.613,1.664l14.08-2.347
				l-22.426,29.892c-0.939,1.246-1.51,2.731-1.664,4.275c-1.05,10.573-2.944,21.146-5.632,31.445
				C454.237,310.918,454.613,313.359,455.884,315.356z"/>
			<path d="M256.691,137.239c-65.877,0-119.467,53.589-119.467,119.467s53.589,119.467,119.467,119.467
				c4.71,0,8.533-3.823,8.533-8.533c0-4.71-3.823-8.533-8.533-8.533c-56.465,0-102.4-45.935-102.4-102.4
				c0-56.465,45.935-102.4,102.4-102.4s102.4,45.935,102.4,102.4c0,44.604-28.484,83.763-70.895,97.459
				c-4.48,1.451-6.946,6.263-5.495,10.752c1.451,4.48,6.238,6.938,10.752,5.495c49.468-15.983,82.705-61.679,82.705-113.707
				C376.157,190.829,322.568,137.239,256.691,137.239z"/>
		</g>
	</g>
</g>
<g>
</g>
<g>
</g>
<g>
</g>
<g>
</g>
<g>
</g>
<g>
</g>
<g>
</g>
<g>
</g>
<g>
</g>
<g>
</g>
<g>
</g>
<g>
</g>
<g>
</g>
<g>
</g>
<g>
</g>
</svg>
