<?xml version="1.0" encoding="iso-8859-1"?>
<!-- Generator: Adobe Illustrator 19.0.0, SVG Export Plug-In . SVG Version: 6.00 Build 0)  -->
<svg version="1.1" id="Layer_1" xmlns="http://www.w3.org/2000/svg" xmlns:xlink="http://www.w3.org/1999/xlink" x="0px" y="0px"
	 viewBox="0 0 512 512" style="enable-background:new 0 0 512 512;" xml:space="preserve">
<g>
	<g>
		<g>
			<path d="M503.467,136.466H191.309l308.215-51.703c4.625-0.768,7.757-5.129,7.014-9.754L495.761,7.254
				c-0.358-2.244-1.596-4.25-3.439-5.581c-1.843-1.323-4.173-1.86-6.383-1.493L129.271,59.248c-4.651,0.768-7.791,5.163-7.023,9.813
				c0.777,4.651,5.12,7.799,9.813,7.023l35.618-5.905l35.49,46.993l-25.114,4.207c-4.651,0.785-7.782,5.18-7.006,9.83
				c0.469,2.765,2.27,4.898,4.591,6.093c-2.918,1.348-4.975,4.267-4.975,7.697c0,4.71,3.823,8.533,8.533,8.533h34.133l-38.4,51.2
				h-29.867c-4.71,0-8.533,3.823-8.533,8.533c0,4.71,3.823,8.533,8.533,8.533h349.867v247.467c0,14.114-11.486,25.6-25.6,25.6
				H42.667c-14.114,0-25.6-11.486-25.6-25.6v-384H89.6l44.8,59.733l-44.8,59.733H42.667c-4.71,0-8.533,3.823-8.533,8.533
				c0,4.71,3.823,8.533,8.533,8.533h51.2c2.688,0,5.214-1.263,6.827-3.413l51.2-68.267c2.278-3.029,2.278-7.211,0-10.24
				l-51.2-68.267c-1.613-2.15-4.139-3.413-6.827-3.413H8.533C3.823,68.199,0,72.022,0,76.733v392.533
				c0,23.526,19.14,42.667,42.667,42.667h426.667c23.526,0,42.667-19.14,42.667-42.667V144.999
				C512,140.289,508.186,136.466,503.467,136.466z M480.256,18.424l8.098,50.91l-33.28,5.581l-34.842-46.558L480.256,18.424z
				 M401.263,31.497l34.867,46.592l-60.783,10.197l-34.816-46.729L401.263,31.497z M321.596,44.698l34.842,46.763l-54.997,9.224
				l-34.987-46.857L321.596,44.698z M186.684,67.039l60.817-10.069l35.012,46.891l-60.365,10.129L186.684,67.039z M196.267,204.733
				l38.4-51.2h55.467l-38.4,51.2H196.267z M273.067,204.733l38.4-51.2h55.467l-38.4,51.2H273.067z M349.867,204.733l38.4-51.2
				h55.467l-38.4,51.2H349.867z M494.933,204.733h-68.267l38.4-51.2h29.867V204.733z"/>
			<path d="M315.733,247.399c-4.719,0-8.533,3.823-8.533,8.533v128H59.733c-4.71,0-8.533,3.823-8.533,8.533
				c0,4.71,3.823,8.533,8.533,8.533h392.533c4.719,0,8.533-3.823,8.533-8.533c0-4.71-3.814-8.533-8.533-8.533h-128v-128
				C324.267,251.222,320.452,247.399,315.733,247.399z"/>
		</g>
	</g>
</g>
<g>
</g>
<g>
</g>
<g>
</g>
<g>
</g>
<g>
</g>
<g>
</g>
<g>
</g>
<g>
</g>
<g>
</g>
<g>
</g>
<g>
</g>
<g>
</g>
<g>
</g>
<g>
</g>
<g>
</g>
</svg>
