<svg height="368pt" viewBox="0 0 368 368" width="368pt" xmlns="http://www.w3.org/2000/svg"><path d="m128 280c0-22.054688-17.945312-40-40-40s-40 17.945312-40 40 17.945312 40 40 40 40-17.945312 40-40zm-64 0c0-13.230469 10.769531-24 24-24s24 10.769531 24 24-10.769531 24-24 24-24-10.769531-24-24zm0 0"/><path d="m360 80h-184.40625c-4.058594-44.785156-41.769531-80-87.59375-80-48.519531 0-88 39.480469-88 88v192c0 48.519531 39.480469 88 88 88h272c4.425781 0 8-3.574219 8-8v-272c0-4.425781-3.574219-8-8-8zm-344 8c0-39.703125 32.304688-72 72-72s72 32.296875 72 72v141.558594c-15.9375-22.671875-42.238281-37.558594-72-37.558594s-56.0625 14.886719-72 37.558594zm0 192c0-39.703125 32.304688-72 72-72s72 32.296875 72 72-32.304688 72-72 72-72-32.296875-72-72zm336 72h-32v-104c0-4.425781-3.574219-8-8-8s-8 3.574219-8 8v104h-165.558594c22.671875-15.9375 37.558594-42.238281 37.558594-72v-184h128v104c0 4.425781 3.574219 8 8 8s8-3.574219 8-8v-104h32zm0 0"/></svg>