<?xml version="1.0" encoding="iso-8859-1"?>
<!-- Generator: Adobe Illustrator 19.0.0, SVG Export Plug-In . SVG Version: 6.00 Build 0)  -->
<svg version="1.1" id="Layer_1" xmlns="http://www.w3.org/2000/svg" xmlns:xlink="http://www.w3.org/1999/xlink" x="0px" y="0px"
	 viewBox="0 0 511.991 511.991" style="enable-background:new 0 0 511.991 511.991;" xml:space="preserve">
<g>
	<g>
		<g>
			<path d="M505.267,223.475l-30.865-6.682c-2.125-11.861-5.257-23.637-9.353-35.132l23.671-20.821
				c3.055-2.679,3.797-7.151,1.766-10.675l-24.883-43.102c-2.005-3.482-6.187-5.077-9.993-3.857l-30.14,9.66
				c-7.834-9.267-16.418-17.886-25.617-25.737l10.112-29.901c1.306-3.857-0.299-8.09-3.814-10.129l-43.093-24.892
				c-3.473-2.005-7.876-1.314-10.59,1.655L331.23,47.27c-11.477-4.147-23.245-7.339-35.089-9.515l-6.187-30.891
				c-0.802-3.985-4.301-6.861-8.371-6.861h-49.758c-4.019,0-7.484,2.799-8.337,6.724l-6.69,30.857
				c-11.87,2.125-23.646,5.265-35.14,9.361l-20.821-23.68c-2.688-3.055-7.159-3.797-10.675-1.758l-43.093,24.875
				c-3.482,2.005-5.086,6.17-3.857,9.993l9.66,30.148c-9.259,7.834-17.886,16.418-25.737,25.617l-29.918-10.112
				c-3.84-1.297-8.09,0.282-10.121,3.814l-24.883,43.085c-2.014,3.482-1.323,7.885,1.655,10.59l23.407,21.248
				c-4.139,11.469-7.322,23.219-9.506,35.072l-30.908,6.187C2.867,222.818,0,226.325,0,230.387v49.784
				c0,4.019,2.799,7.484,6.724,8.346l30.874,6.682c2.125,11.853,5.257,23.62,9.353,35.115l-23.697,20.83
				c-3.055,2.688-3.797,7.159-1.758,10.675l24.892,43.11c2.005,3.473,6.17,5.077,9.993,3.857l30.157-9.668
				c7.825,9.259,16.41,17.877,25.6,25.719l-10.129,29.935c-1.306,3.857,0.299,8.09,3.814,10.129l43.11,24.883
				c3.482,2.005,7.885,1.314,10.59-1.655l21.248-23.415c11.486,4.139,23.236,7.322,35.072,9.498l6.195,30.925
				c0.794,3.985,4.292,6.852,8.363,6.852h49.766c4.019,0,7.484-2.799,8.346-6.724l6.69-30.874
				c11.853-2.125,23.62-5.256,35.123-9.353l20.821,23.697c2.688,3.055,7.159,3.789,10.675,1.758l43.102-24.883
				c3.482-2.005,5.086-6.17,3.857-9.993l-9.66-30.157c9.25-7.825,17.877-16.401,25.728-25.6l29.918,10.112
				c3.849,1.314,8.09-0.29,10.121-3.814l24.892-43.102c2.014-3.473,1.323-7.885-1.655-10.581l-23.407-21.248
				c4.147-11.477,7.33-23.236,9.515-35.081l30.891-6.187c3.994-0.794,6.861-4.301,6.861-8.371l0.009-49.766
				C511.992,227.802,509.193,224.337,505.267,223.475z M494.916,274.598l-29.798,5.965c-3.507,0.7-6.204,3.524-6.758,7.057
				c-2.253,14.532-6.161,28.971-11.614,42.923c-1.297,3.294-0.418,7.04,2.21,9.429l22.605,20.514l-17.954,31.078l-28.851-9.754
				c-3.379-1.152-7.125-0.051-9.37,2.722c-9.31,11.529-19.9,22.076-31.497,31.351c-2.756,2.219-3.866,5.905-2.79,9.267l9.335,29.116
				l-31.087,17.946l-20.087-22.852c-2.364-2.679-6.161-3.61-9.481-2.321c-13.978,5.393-28.433,9.242-42.965,11.435
				c-3.499,0.529-6.315,3.166-7.066,6.63l-6.468,29.815h-35.883l-5.973-29.815c-0.7-3.516-3.516-6.212-7.066-6.758
				c-14.507-2.244-28.945-6.153-42.906-11.614c-3.294-1.28-7.049-0.41-9.429,2.21l-20.523,22.613l-31.087-17.946l9.762-28.86
				c1.152-3.388,0.06-7.134-2.722-9.378c-11.511-9.293-22.059-19.883-31.343-31.479c-2.219-2.765-5.914-3.866-9.267-2.79
				l-29.116,9.327l-17.954-31.087l22.852-20.087c2.688-2.364,3.618-6.153,2.33-9.489c-5.402-13.961-9.25-28.416-11.443-42.957
				c-0.529-3.499-3.166-6.315-6.63-7.066l-29.815-6.46v-35.9l29.815-5.965c3.507-0.7,6.204-3.524,6.758-7.057
				c2.253-14.541,6.161-28.971,11.605-42.914c1.297-3.302,0.418-7.049-2.21-9.429l-22.605-20.514l17.946-31.07l28.851,9.745
				c3.371,1.161,7.117,0.06,9.37-2.722c9.301-11.52,19.9-22.076,31.497-31.369c2.765-2.21,3.874-5.897,2.79-9.259l-9.327-29.107
				l31.078-17.937l20.079,22.835c2.372,2.688,6.153,3.618,9.481,2.321c13.978-5.402,28.442-9.25,42.991-11.443
				c3.499-0.529,6.306-3.166,7.066-6.63l6.46-29.807l35.874,0.017l5.965,29.781c0.708,3.516,3.524,6.212,7.066,6.758
				c14.532,2.253,28.979,6.161,42.931,11.622c3.285,1.289,7.049,0.418,9.429-2.21l20.506-22.596l31.078,17.946l-9.745,28.834
				c-1.152,3.388-0.06,7.125,2.714,9.37c11.52,9.301,22.076,19.9,31.377,31.514c2.21,2.756,5.888,3.857,9.259,2.782l29.099-9.318
				l17.937,31.078l-22.827,20.079c-2.688,2.364-3.618,6.144-2.33,9.481c5.402,13.978,9.25,28.433,11.443,42.974
				c0.529,3.507,3.166,6.315,6.63,7.074l29.807,6.46L494.916,274.598z"/>
			<path d="M310.084,212.809c4.087,2.355,9.293,0.956,11.656-3.123l38.639-66.927c11.375,10.487,20.992,22.468,28.646,35.729
				c7.646,13.244,13.218,27.554,16.623,42.675h-77.286c-4.71,0-8.525,3.823-8.525,8.533c0,4.71,3.814,8.533,8.525,8.533h87.603
				c2.5,0,4.873-1.092,6.494-2.995c1.621-1.894,2.33-4.412,1.929-6.878c-3.319-20.855-10.249-40.499-20.582-58.402
				c-10.359-17.937-23.91-33.758-40.286-47.027c-1.937-1.57-4.471-2.21-6.921-1.758c-2.458,0.452-4.591,1.963-5.845,4.122
				l-43.793,75.861C304.606,205.239,305.997,210.453,310.084,212.809z"/>
			<path d="M234.59,184.094c1.587,2.739,4.454,4.267,7.398,4.267c1.451,0,2.918-0.367,4.258-1.143
				c4.087-2.355,5.487-7.578,3.132-11.657l-38.639-66.927c29.594-9.225,60.919-9.225,90.522-0.009l-38.639,66.935
				c-2.355,4.079-0.947,9.301,3.132,11.657c4.079,2.355,9.293,0.956,11.657-3.123l43.802-75.87c1.246-2.167,1.485-4.77,0.649-7.125
				c-0.836-2.355-2.662-4.224-5.001-5.112c-39.458-15.087-82.278-15.078-121.719,0c-2.338,0.888-4.164,2.765-5.001,5.12
				c-0.836,2.347-0.597,4.958,0.649,7.117L234.59,184.094z"/>
			<path d="M256,204.787c-28.237,0-51.2,22.963-51.2,51.2c0,28.237,22.963,51.2,51.2,51.2s51.2-22.963,51.2-51.2
				C307.2,227.75,284.237,204.787,256,204.787z M256,290.121c-18.825,0-34.133-15.309-34.133-34.133
				c0-18.825,15.309-34.133,34.133-34.133c18.825,0,34.133,15.309,34.133,34.133C290.133,274.812,274.825,290.121,256,290.121z"/>
			<path d="M415.966,272.354h-87.603c-4.71,0-8.525,3.823-8.525,8.533c0,4.719,3.814,8.533,8.525,8.533h77.286
				c-3.396,15.104-8.969,29.423-16.623,42.675c-7.646,13.235-17.254,25.225-28.646,35.721l-38.639-66.918
				c-2.364-4.079-7.586-5.487-11.656-3.123c-4.087,2.355-5.478,7.578-3.123,11.657l43.793,75.861
				c1.254,2.167,3.388,3.669,5.845,4.13c0.521,0.094,1.033,0.137,1.553,0.137c1.937,0,3.84-0.657,5.376-1.903
				c16.393-13.303,29.943-29.124,40.277-47.027c10.351-17.928,17.28-37.572,20.591-58.402c0.393-2.466-0.316-4.984-1.937-6.878
				C420.838,273.446,418.466,272.354,415.966,272.354z"/>
			<path d="M277.41,326.498c-2.364-4.079-7.586-5.495-11.657-3.132c-4.087,2.364-5.487,7.578-3.132,11.665l38.647,66.918
				c-29.568,9.225-60.911,9.233-90.539,0l38.648-66.918c2.355-4.087,0.956-9.301-3.132-11.665
				c-4.096-2.364-9.293-0.947-11.657,3.132l-43.802,75.861c-1.246,2.159-1.485,4.762-0.649,7.117
				c0.836,2.355,2.662,4.232,4.992,5.12c19.729,7.543,40.209,11.366,60.868,11.366c20.685,0,41.165-3.823,60.868-11.366
				c2.33-0.896,4.156-2.765,4.992-5.12c0.836-2.355,0.597-4.958-0.649-7.117L277.41,326.498z"/>
			<path d="M201.916,297.775c-4.105-2.364-9.301-0.956-11.657,3.123l-38.639,66.927c-11.383-10.505-21.001-22.485-28.646-35.729
				c-7.637-13.235-13.21-27.554-16.614-42.675h77.278c4.71,0,8.533-3.814,8.533-8.533c0-4.71-3.823-8.533-8.533-8.533H96.034
				c-2.5,0-4.872,1.092-6.494,2.995s-2.33,4.42-1.929,6.886c3.319,20.847,10.249,40.499,20.582,58.394
				c10.342,17.911,23.893,33.732,40.277,47.027c1.536,1.246,3.439,1.903,5.376,1.903c0.521,0,1.041-0.043,1.553-0.137
				c2.458-0.461,4.591-1.963,5.845-4.13l43.793-75.861C207.394,305.353,206.003,300.13,201.916,297.775z"/>
			<path d="M96.034,238.229h87.603c4.71,0,8.533-3.823,8.533-8.533c0-4.71-3.823-8.533-8.533-8.533h-77.278
				c3.405-15.121,8.977-29.431,16.614-42.675c7.637-13.227,17.254-25.207,28.646-35.721l38.639,66.918
				c2.355,4.079,7.552,5.478,11.657,3.123c4.087-2.355,5.478-7.569,3.123-11.656l-43.793-75.861
				c-1.254-2.167-3.388-3.678-5.845-4.13c-2.458-0.461-4.992,0.196-6.929,1.766c-16.401,13.321-29.952,29.141-40.277,47.027
				c-10.334,17.903-17.263,37.547-20.582,58.394c-0.401,2.466,0.307,4.983,1.929,6.886
				C91.162,237.137,93.534,238.229,96.034,238.229z"/>
		</g>
	</g>
</g>
<g>
</g>
<g>
</g>
<g>
</g>
<g>
</g>
<g>
</g>
<g>
</g>
<g>
</g>
<g>
</g>
<g>
</g>
<g>
</g>
<g>
</g>
<g>
</g>
<g>
</g>
<g>
</g>
<g>
</g>
</svg>
