<?xml version="1.0" encoding="iso-8859-1"?>
<!-- Generator: Adobe Illustrator 19.0.0, SVG Export Plug-In . SVG Version: 6.00 Build 0)  -->
<svg version="1.1" id="Layer_1" xmlns="http://www.w3.org/2000/svg" xmlns:xlink="http://www.w3.org/1999/xlink" x="0px" y="0px"
	 viewBox="0 0 512.004 512.004" style="enable-background:new 0 0 512.004 512.004;" xml:space="preserve">
<g>
	<g>
		<g>
			<path d="M350.108,251.72c-4.668-0.154-8.678,3.464-8.866,8.175c-0.051,1.289-0.145,2.569-0.265,3.874
				c-3.994,44.22-40.525,77.568-84.975,77.568c-47.053,0-85.333-38.281-85.333-85.333c0-47.061,38.281-85.333,85.333-85.333
				c5.111,0,10.24,0.452,15.241,1.357c4.659,0.828,9.079-2.253,9.916-6.886c0.836-4.642-2.253-9.079-6.886-9.916
				c-5.999-1.084-12.151-1.621-18.27-1.621c-56.465,0-102.4,45.935-102.4,102.4c0,56.457,45.935,102.4,102.4,102.4
				c53.342,0,97.186-40.03,101.965-93.073c0.145-1.57,0.265-3.149,0.324-4.745C358.479,255.876,354.818,251.908,350.108,251.72z"/>
			<path d="M318.108,363.567c-4.088,2.355-5.478,7.578-3.123,11.657l36.207,62.711c1.579,2.739,4.446,4.267,7.398,4.267
				c1.451,0,2.918-0.367,4.258-1.143c4.087-2.355,5.478-7.578,3.123-11.657l-36.207-62.711
				C327.4,362.611,322.178,361.203,318.108,363.567z"/>
			<path d="M499.944,213.303c-4.668,0.649-7.927,4.958-7.279,9.626c1.502,10.863,2.27,21.999,2.27,33.075
				c0,131.746-107.187,238.933-238.933,238.933c-131.755,0-238.933-107.187-238.933-238.933
				c0-131.755,107.179-238.933,238.933-238.933c28.331,0,55.962,4.813,82.142,14.319c4.437,1.613,9.327-0.683,10.931-5.112
				c1.613-4.429-0.674-9.327-5.103-10.931c-28.049-10.18-57.651-15.343-87.97-15.343c-141.158,0-256,114.842-256,256
				s114.842,256,256,256s256-114.842,256-256c0-11.861-0.819-23.774-2.432-35.422C508.922,215.915,504.535,212.629,499.944,213.303z
				"/>
			<path d="M429.408,365.973c1.348,0.776,2.816,1.143,4.258,1.143c2.953,0,5.82-1.536,7.398-4.267
				c2.355-4.087,0.956-9.301-3.123-11.665l-62.711-36.198c-4.096-2.372-9.301-0.964-11.657,3.123
				c-2.355,4.079-0.956,9.301,3.123,11.657L429.408,365.973z"/>
			<path d="M256.002,221.871c-18.825,0-34.133,15.309-34.133,34.133c0,18.816,15.309,34.133,34.133,34.133
				c18.816,0,34.133-15.317,34.133-34.133C290.135,237.18,274.818,221.871,256.002,221.871z M256.002,273.071
				c-9.412,0-17.067-7.654-17.067-17.067c0-9.412,7.654-17.067,17.067-17.067c9.412,0,17.067,7.654,17.067,17.067
				C273.069,265.416,265.414,273.071,256.002,273.071z"/>
			<path d="M189.63,149.576c1.451,0,2.918-0.367,4.258-1.143c4.087-2.355,5.478-7.578,3.132-11.657l-36.216-62.711
				c-2.355-4.087-7.586-5.487-11.656-3.123c-4.079,2.355-5.478,7.578-3.123,11.656l36.207,62.711
				C183.819,148.049,186.686,149.576,189.63,149.576z"/>
			<path d="M508.717,1.805c-2.074-1.613-4.787-2.185-7.322-1.553L364.862,34.385c-3.797,0.956-6.46,4.369-6.46,8.286v153.6
				c0,14.114-11.486,25.6-25.6,25.6c-14.123,0-25.6-11.486-25.6-25.6c0-14.123,11.477-25.6,25.6-25.6
				c4.71,0,8.533-3.823,8.533-8.533c0-4.719-3.823-8.533-8.533-8.533c-23.526,0-42.667,19.14-42.667,42.667
				c0,23.518,19.14,42.667,42.667,42.667c23.526,0,42.667-19.149,42.667-42.667V86.976l104.567-27.52
				c4.557-1.203,7.279-5.871,6.084-10.428c-1.195-4.557-5.871-7.296-10.428-6.084L375.469,69.329V49.327L494.935,19.46v142.677
				c0,14.114-11.486,25.6-25.6,25.6c-14.123,0-25.6-11.486-25.6-25.6c0-14.123,11.477-25.6,25.6-25.6
				c4.71,0,8.533-3.823,8.533-8.533c0-4.719-3.823-8.533-8.533-8.533c-23.526,0-42.667,19.14-42.667,42.667
				c0,23.518,19.14,42.667,42.667,42.667c23.526,0,42.667-19.149,42.667-42.667V8.537C512.002,5.901,510.79,3.426,508.717,1.805z"/>
			<path d="M82.588,146.027c-4.096-2.364-9.293-0.956-11.656,3.132c-2.355,4.079-0.956,9.293,3.123,11.657l62.711,36.198
				c1.348,0.776,2.816,1.143,4.258,1.143c2.953,0,5.82-1.527,7.398-4.267c2.355-4.079,0.964-9.301-3.123-11.657L82.588,146.027z"/>
		</g>
	</g>
</g>
<g>
</g>
<g>
</g>
<g>
</g>
<g>
</g>
<g>
</g>
<g>
</g>
<g>
</g>
<g>
</g>
<g>
</g>
<g>
</g>
<g>
</g>
<g>
</g>
<g>
</g>
<g>
</g>
<g>
</g>
</svg>
