<?xml version="1.0" encoding="iso-8859-1"?>
<!-- Generator: Adobe Illustrator 19.0.0, SVG Export Plug-In . SVG Version: 6.00 Build 0)  -->
<svg version="1.1" id="Capa_1" xmlns="http://www.w3.org/2000/svg" xmlns:xlink="http://www.w3.org/1999/xlink" x="0px" y="0px"
	 viewBox="0 0 480 480" style="enable-background:new 0 0 480 480;" xml:space="preserve">
<g>
	<g>
		<path d="M472.004,144c-0.001,0-0.003,0-0.004,0H344c-4.417-0.001-7.999,3.579-8,7.996c0,0.001,0,0.003,0,0.004v136h-41.92
			L256,150.914V120c0.001-4.417-3.579-7.999-7.996-8c-0.001,0-0.003,0-0.004,0H104c-4.417-0.001-7.999,3.579-8,7.996
			c0,0.001,0,0.003,0,0.004v30.914L57.92,288H8c-4.417-0.001-7.999,3.579-8,7.996c0,0.001,0,0.003,0,0.004v176
			c-0.001,4.417,3.579,7.999,7.996,8c0.001,0,0.003,0,0.004,0h464c4.417,0.001,7.999-3.579,8-7.996c0-0.001,0-0.003,0-0.004V152
			C480.001,147.583,476.421,144.001,472.004,144z M112,128h128v16H112V128z M110.08,160h131.84l35.556,128H74.524L110.08,160z
			 M288,464H64v-32h224V464z M336,464h-32v-40c0.001-4.417-3.579-7.999-7.996-8c-0.001,0-0.003,0-0.004,0H56
			c-4.417-0.001-7.999,3.579-8,7.996c0,0.001,0,0.003,0,0.004v40H16V304h320V464z M464,464H352V160h112V464z"/>
	</g>
</g>
<g>
	<g>
		<path d="M104.004,328c-0.001,0-0.003,0-0.004,0H56c-4.417-0.001-7.999,3.579-8,7.996c0,0.001,0,0.003,0,0.004v32
			c-0.001,4.417,3.579,7.999,7.996,8c0.001,0,0.003,0,0.004,0h48c4.417,0.001,7.999-3.579,8-7.996c0-0.001,0-0.003,0-0.004v-32
			C112.001,331.583,108.421,328.001,104.004,328z M96,360H64v-16h32V360z"/>
	</g>
</g>
<g>
	<g>
		<path d="M200.004,328c-0.001,0-0.003,0-0.004,0h-48c-4.417-0.001-7.999,3.579-8,7.996c0,0.001,0,0.003,0,0.004v32
			c-0.001,4.417,3.579,7.999,7.996,8c0.001,0,0.003,0,0.004,0h48c4.417,0.001,7.999-3.579,8-7.996c0-0.001,0-0.003,0-0.004v-32
			C208.001,331.583,204.421,328.001,200.004,328z M192,360h-32v-16h32V360z"/>
	</g>
</g>
<g>
	<g>
		<path d="M296.004,328c-0.001,0-0.003,0-0.004,0h-48c-4.417-0.001-7.999,3.579-8,7.996c0,0.001,0,0.003,0,0.004v32
			c-0.001,4.417,3.579,7.999,7.996,8c0.001,0,0.003,0,0.004,0h48c4.417,0.001,7.999-3.579,8-7.996c0-0.001,0-0.003,0-0.004v-32
			C304.001,331.583,300.421,328.001,296.004,328z M288,360h-32v-16h32V360z"/>
	</g>
</g>
<g>
	<g>
		<rect x="376" y="184" width="16" height="256"/>
	</g>
</g>
<g>
	<g>
		<rect x="424" y="184" width="16" height="256"/>
	</g>
</g>
<g>
	<g>
		<path d="M256,16h136V0H256c-13.255,0-24,10.745-24,24s10.745,24,24,24h48c4.418,0,8,3.582,8,8s-3.582,8-8,8H200
			c-17.665,0.019-31.981,14.335-32,32h16c0.01-8.832,7.168-15.99,16-16h104c13.255,0,24-10.745,24-24s-10.745-24-24-24h-48
			c-4.418,0-8-3.582-8-8S251.582,16,256,16z"/>
	</g>
</g>
<g>
</g>
<g>
</g>
<g>
</g>
<g>
</g>
<g>
</g>
<g>
</g>
<g>
</g>
<g>
</g>
<g>
</g>
<g>
</g>
<g>
</g>
<g>
</g>
<g>
</g>
<g>
</g>
<g>
</g>
</svg>
