<?xml version="1.0" encoding="iso-8859-1"?>
<!-- Generator: Adobe Illustrator 19.0.0, SVG Export Plug-In . SVG Version: 6.00 Build 0)  -->
<svg version="1.1" id="Layer_1" xmlns="http://www.w3.org/2000/svg" xmlns:xlink="http://www.w3.org/1999/xlink" x="0px" y="0px"
	 viewBox="0 0 512 512" style="enable-background:new 0 0 512 512;" xml:space="preserve">
<g>
	<g>
		<g>
			<path d="M221.867,315.733c0,14.114,11.486,25.6,25.6,25.6s25.6-11.486,25.6-25.6s-11.486-25.6-25.6-25.6
				S221.867,301.619,221.867,315.733z M256,315.733c0,4.702-3.831,8.533-8.533,8.533c-4.702,0-8.533-3.831-8.533-8.533
				s3.831-8.533,8.533-8.533C252.169,307.2,256,311.031,256,315.733z"/>
			<path d="M324.25,149.547V51.2c9.412,0,17.067-7.654,17.067-17.067V17.067C341.316,7.654,333.662,0,324.25,0H187.733
				c-9.412,0-17.067,7.654-17.067,17.067v17.067c0,9.412,7.654,17.067,17.067,17.067H281.6c4.719,0,8.533-3.823,8.533-8.533
				c0-4.71-3.814-8.533-8.533-8.533h-93.867V17.067H324.25v17.067h-8.533c-4.719,0-8.533,3.823-8.533,8.533v112.811
				c0,3.618,2.278,6.835,5.683,8.047c68.07,24.09,113.801,88.695,113.801,160.742c0,94.106-76.561,170.667-170.667,170.667
				c-71.834,0-133.325-44.672-158.464-107.648c15.582,3.388,42.24,7.893,74.189,7.893c26.487,0,56.559-3.098,86.81-12.51
				c49.835-15.522,100.164-11.998,133.598-6.306c4.642,0.828,9.062-2.338,9.847-6.98c0.785-4.651-2.338-9.054-6.98-9.847
				c-35.294-5.999-88.465-9.677-141.534,6.835c-72.388,22.511-145.749,6.093-162.185,1.86c-3.755-14.054-5.948-28.74-5.948-43.964
				c0-72.055,45.722-136.653,113.775-160.734c3.413-1.212,5.692-4.429,5.692-8.047V76.8c0-4.71-3.823-8.533-8.533-8.533
				s-8.533,3.823-8.533,8.533v72.755C116.028,177.57,68.267,247.023,68.267,324.267C68.267,427.785,152.482,512,256,512
				s187.733-84.215,187.733-187.733C443.733,247.023,395.964,177.57,324.25,149.547z"/>
			<path d="M281.6,196.267c0-9.412-7.654-17.067-17.067-17.067c-9.412,0-17.067,7.654-17.067,17.067
				c0,9.412,7.654,17.067,17.067,17.067C273.946,213.333,281.6,205.679,281.6,196.267z"/>
			<path d="M315.733,268.8c0-7.057-5.743-12.8-12.8-12.8s-12.8,5.743-12.8,12.8s5.743,12.8,12.8,12.8S315.733,275.857,315.733,268.8
				z"/>
		</g>
	</g>
</g>
<g>
</g>
<g>
</g>
<g>
</g>
<g>
</g>
<g>
</g>
<g>
</g>
<g>
</g>
<g>
</g>
<g>
</g>
<g>
</g>
<g>
</g>
<g>
</g>
<g>
</g>
<g>
</g>
<g>
</g>
</svg>
