<?xml version="1.0" encoding="iso-8859-1"?>
<!-- Generator: Adobe Illustrator 19.0.0, SVG Export Plug-In . SVG Version: 6.00 Build 0)  -->
<svg version="1.1" id="Layer_1" xmlns="http://www.w3.org/2000/svg" xmlns:xlink="http://www.w3.org/1999/xlink" x="0px" y="0px"
	 viewBox="0 0 512 512" style="enable-background:new 0 0 512 512;" xml:space="preserve">
<g>
	<g>
		<g>
			<circle cx="221.867" cy="256" r="8.533"/>
			<circle cx="119.467" cy="153.6" r="8.533"/>
			<circle cx="221.867" cy="153.6" r="8.533"/>
			<circle cx="170.667" cy="204.8" r="8.533"/>
			<path d="M426.667,204.8h8.533v34.133h-17.067c-4.71,0-8.533,3.823-8.533,8.533s3.823,8.533,8.533,8.533h51.2
				c4.71,0,8.533-3.823,8.533-8.533s-3.823-8.533-8.533-8.533h-17.067V204.8h8.533c14.114,0,25.6-11.486,25.6-25.6V76.8
				c0-14.114-11.486-25.6-25.6-25.6h-8.533v-8.533c0-4.71-3.823-8.533-8.533-8.533s-8.533,3.823-8.533,8.533V51.2h-8.533
				c-14.114,0-25.6,11.486-25.6,25.6v102.4C401.067,193.314,412.553,204.8,426.667,204.8z M418.133,76.8
				c0-4.702,3.831-8.533,8.533-8.533H460.8c4.702,0,8.533,3.831,8.533,8.533v102.4c0,4.702-3.831,8.533-8.533,8.533h-34.133
				c-4.702,0-8.533-3.831-8.533-8.533V76.8z"/>
			<path d="M42.667,196.267c4.71,0,8.533-3.823,8.533-8.533v-25.6c0-42.342,34.458-76.8,76.8-76.8h85.333
				c42.342,0,76.8,34.458,76.8,76.8v25.6c0,4.71,3.823,8.533,8.533,8.533s8.533-3.823,8.533-8.533v-25.6
				c0-51.755-42.112-93.867-93.867-93.867H128c-51.755,0-93.867,42.112-93.867,93.867v25.6
				C34.133,192.444,37.956,196.267,42.667,196.267z"/>
			<circle cx="443.733" cy="409.6" r="8.533"/>
			<circle cx="443.733" cy="324.267" r="8.533"/>
			<path d="M503.467,273.067H384c-4.71,0-8.533,3.823-8.533,8.533v187.733c0,4.71,3.823,8.533,8.533,8.533s8.533-3.823,8.533-8.533
				V460.8h102.4v8.533c0,4.71,3.823,8.533,8.533,8.533s8.533-3.823,8.533-8.533V281.6C512,276.89,508.177,273.067,503.467,273.067z
				 M494.933,443.733h-102.4v-68.267h102.4V443.733z M494.933,358.4h-102.4v-68.267h102.4V358.4z"/>
			<circle cx="119.467" cy="256" r="8.533"/>
			<path d="M315.733,204.8c-14.114,0-25.6,11.486-25.6,25.6v51.2c0,14.114-11.486,25.6-25.6,25.6H76.8
				c-14.114,0-25.6-11.486-25.6-25.6v-51.2c0-14.114-11.486-25.6-25.6-25.6S0,216.286,0,230.4v68.267
				c0,51.755,42.112,93.867,93.867,93.867h153.6c51.755,0,93.867-42.112,93.867-93.867V230.4
				C341.333,216.286,329.847,204.8,315.733,204.8z M324.267,298.667c0,42.342-34.458,76.8-76.8,76.8h-153.6
				c-42.342,0-76.8-34.458-76.8-76.8V230.4c0-4.702,3.831-8.533,8.533-8.533c4.702,0,8.533,3.831,8.533,8.533v51.2
				c0,23.526,19.14,42.667,42.667,42.667h187.733c23.526,0,42.667-19.14,42.667-42.667v-51.2c0-4.702,3.831-8.533,8.533-8.533
				s8.533,3.831,8.533,8.533V298.667z"/>
			<path d="M170.667,452.267c-4.71,0-8.533,3.823-8.533,8.533v8.533c0,4.71,3.823,8.533,8.533,8.533s8.533-3.823,8.533-8.533V460.8
				C179.2,456.09,175.377,452.267,170.667,452.267z"/>
			<path d="M244.053,462.507l-68.267-51.2c-0.137-0.102-0.299-0.12-0.444-0.213c-0.503-0.333-1.033-0.538-1.587-0.751
				c-0.495-0.196-0.956-0.41-1.468-0.512c-0.538-0.102-1.067-0.077-1.621-0.077c-0.538,0-1.067-0.026-1.604,0.077
				c-0.521,0.102-0.99,0.324-1.485,0.512c-0.546,0.213-1.075,0.418-1.579,0.751c-0.137,0.094-0.307,0.111-0.452,0.213l-68.267,51.2
				c-3.772,2.825-4.531,8.175-1.707,11.947c1.672,2.236,4.241,3.413,6.835,3.413c1.775,0,3.575-0.555,5.111-1.707l63.147-47.36
				l63.147,47.36c1.536,1.152,3.337,1.707,5.111,1.707c2.594,0,5.163-1.178,6.835-3.413
				C248.585,470.682,247.825,465.331,244.053,462.507z"/>
		</g>
	</g>
</g>
<g>
</g>
<g>
</g>
<g>
</g>
<g>
</g>
<g>
</g>
<g>
</g>
<g>
</g>
<g>
</g>
<g>
</g>
<g>
</g>
<g>
</g>
<g>
</g>
<g>
</g>
<g>
</g>
<g>
</g>
</svg>
