<?xml version="1.0" encoding="iso-8859-1"?>
<!-- Generator: Adobe Illustrator 19.0.0, SVG Export Plug-In . SVG Version: 6.00 Build 0)  -->
<svg version="1.1" id="Layer_1" xmlns="http://www.w3.org/2000/svg" xmlns:xlink="http://www.w3.org/1999/xlink" x="0px" y="0px"
	 viewBox="0 0 512 512" style="enable-background:new 0 0 512 512;" xml:space="preserve">
<g>
	<g>
		<g>
			<path d="M371.183,258.287c1.254,4.531,5.956,7.185,10.496,5.948c4.54-1.254,7.211-5.948,5.956-10.496
				C371.362,194.782,317.227,153.6,256,153.6c-75.281,0-136.533,61.252-136.533,136.533c0,2.867,1.442,5.547,3.84,7.125
				c2.381,1.579,5.41,1.843,8.055,0.717c0.572-0.239,57.335-23.953,121.643,0.145c52.71,19.772,100.096,10.581,121.847,4.181
				C368.734,362.487,317.773,409.6,256,409.6c-53.581,0-100.941-36.019-115.166-87.603c-1.254-4.54-5.939-7.245-10.496-5.948
				c-4.54,1.254-7.211,5.948-5.956,10.496C140.646,385.493,194.773,426.667,256,426.667c75.281,0,136.533-61.252,136.533-136.533
				c0-2.867-1.442-5.547-3.84-7.125c-2.389-1.57-5.419-1.852-8.055-0.717c-0.563,0.239-57.318,23.97-121.643-0.145
				c-52.702-19.755-100.087-10.573-121.847-4.181c6.118-60.177,57.079-107.298,118.852-107.298
				C309.581,170.667,356.941,206.694,371.183,258.287z"/>
			<path d="M435.2,0H76.8C53.274,0,34.133,19.14,34.133,42.667v51.2c0,4.71,3.823,8.533,8.533,8.533H435.2
				c4.71,0,8.533-3.823,8.533-8.533c0-4.71-3.823-8.533-8.533-8.533H204.8V17.067h230.4c14.114,0,25.6,11.486,25.6,25.6v426.667
				c0,14.114-11.486,25.6-25.6,25.6H76.8c-14.114,0-25.6-11.486-25.6-25.6V128c0-4.71-3.823-8.533-8.533-8.533
				c-4.71,0-8.533,3.823-8.533,8.533v341.333C34.133,492.86,53.274,512,76.8,512h358.4c23.526,0,42.667-19.14,42.667-42.667V42.667
				C477.867,19.14,458.726,0,435.2,0z M187.733,85.333H51.2V42.667c0-14.114,11.486-25.6,25.6-25.6h110.933V85.333z"/>
			<path d="M93.867,59.733h51.2c4.71,0,8.533-3.823,8.533-8.533s-3.823-8.533-8.533-8.533h-51.2c-4.71,0-8.533,3.823-8.533,8.533
				S89.156,59.733,93.867,59.733z"/>
			<circle cx="238.933" cy="51.2" r="8.533"/>
			<circle cx="341.333" cy="51.2" r="8.533"/>
			<circle cx="290.133" cy="51.2" r="8.533"/>
			<path d="M392.533,51.2c0,9.412,7.654,17.067,17.067,17.067c9.412,0,17.067-7.654,17.067-17.067
				c0-9.412-7.654-17.067-17.067-17.067C400.188,34.133,392.533,41.788,392.533,51.2z"/>
			<path d="M293.197,194.697c-4.403-1.698-9.335,0.461-11.051,4.847c-1.715,4.395,0.461,9.344,4.847,11.059
				c11.674,4.557,22.417,11.81,31.061,20.958c1.681,1.775,3.942,2.671,6.204,2.671c2.108,0,4.207-0.768,5.862-2.33
				c3.422-3.234,3.575-8.636,0.341-12.058C320.102,208.87,307.209,200.175,293.197,194.697z"/>
		</g>
	</g>
</g>
<g>
</g>
<g>
</g>
<g>
</g>
<g>
</g>
<g>
</g>
<g>
</g>
<g>
</g>
<g>
</g>
<g>
</g>
<g>
</g>
<g>
</g>
<g>
</g>
<g>
</g>
<g>
</g>
<g>
</g>
</svg>
