<?xml version="1.0" encoding="iso-8859-1"?>
<!-- Generator: Adobe Illustrator 19.0.0, SVG Export Plug-In . SVG Version: 6.00 Build 0)  -->
<svg version="1.1" id="Capa_1" xmlns="http://www.w3.org/2000/svg" xmlns:xlink="http://www.w3.org/1999/xlink" x="0px" y="0px"
	 viewBox="0 0 480 480" style="enable-background:new 0 0 480 480;" xml:space="preserve">
<g>
	<g>
		<path d="M475.386,209.379l-23.336-13.426c-1.66-7.976-3.767-15.851-6.312-23.59l13.477-23.238c1.29-2.228,1.429-4.94,0.375-7.289
			c-6.714-14.947-14.939-29.168-24.547-42.441c-1.503-2.078-3.912-3.309-6.477-3.309h-0.023l-26.883,0.078
			c-5.413-6.062-11.165-11.813-17.227-17.227l0.078-26.883c0.006-2.573-1.223-4.992-3.305-6.504
			c-13.274-9.607-27.497-17.831-42.445-24.543c-2.348-1.06-5.063-0.92-7.289,0.375l-23.234,13.477
			c-7.711-2.538-15.559-4.638-23.508-6.289L271.293,4.145c-1.406-2.555-4.091-4.143-7.008-4.145H216.91
			c-2.917,0.002-5.602,1.589-7.008,4.145L196.465,28.57c-7.946,1.651-15.792,3.751-23.5,6.289L149.73,21.383
			c-2.227-1.295-4.941-1.434-7.289-0.375c-14.951,6.711-29.176,14.935-42.453,24.543c-2.081,1.512-3.31,3.931-3.305,6.504
			l0.078,26.879C90.702,84.349,84.95,90.1,79.535,96.16l-26.883-0.074c-2.613-0.189-5.115,1.085-6.5,3.309
			c-9.612,13.271-17.837,27.492-24.547,42.442c-1.054,2.349-0.915,5.061,0.375,7.289l13.477,23.238
			c-2.537,7.709-4.637,15.554-6.289,23.5l-24.43,13.441c-2.555,1.406-4.141,4.092-4.141,7.008v47.375
			c-0.001,2.916,1.586,5.602,4.141,7.008l24.43,13.441c1.652,7.945,3.752,15.791,6.289,23.5L21.98,330.875
			c-1.29,2.228-1.429,4.94-0.375,7.289c6.714,14.947,14.939,29.168,24.547,42.441c1.503,2.078,3.912,3.309,6.477,3.309h0.023
			l26.883-0.078c5.413,6.062,11.165,11.813,17.227,17.227l-0.078,26.883c-0.006,2.573,1.223,4.992,3.305,6.504
			c13.274,9.607,27.497,17.831,42.445,24.543c2.35,1.047,5.059,0.908,7.289-0.375l23.234-13.48
			c7.711,2.54,15.559,4.641,23.508,6.293l13.438,24.426c1.406,2.555,4.091,4.143,7.008,4.145h47.375
			c2.917-0.002,5.602-1.589,7.008-4.145l13.438-24.426c7.946-1.651,15.792-3.751,23.5-6.289l23.234,13.477
			c2.23,1.283,4.939,1.423,7.289,0.375c14.949-6.716,29.174-14.939,42.453-24.543c2.082-1.512,3.311-3.931,3.305-6.504
			l-0.078-26.879c6.061-5.414,11.812-11.165,17.226-17.226l26.883,0.074h0.023c2.565,0,4.974-1.23,6.477-3.309
			c9.612-13.271,17.837-27.492,24.547-42.442c1.054-2.349,0.915-5.061-0.375-7.289l-13.477-23.238
			c2.545-7.739,4.653-15.614,6.312-23.59l23.336-13.426c2.484-1.425,4.016-4.07,4.016-6.934v-47.375
			C479.402,213.449,477.87,210.804,475.386,209.379z M463.402,259.059l-22.476,12.929c-2.024,1.163-3.439,3.152-3.875,5.445
			c-1.831,9.654-4.375,19.159-7.609,28.438c-0.768,2.202-0.537,4.63,0.633,6.648l13.219,22.793
			c-5.36,11.37-11.664,22.272-18.844,32.59l-26.375-0.074h-0.023c-2.326-0.002-4.537,1.011-6.055,2.773
			c-6.418,7.429-13.369,14.381-20.797,20.801c-1.768,1.524-2.781,3.744-2.773,6.078l0.078,26.367
			c-10.319,7.182-21.222,13.487-32.594,18.848l-22.789-13.219c-2.02-1.164-4.445-1.395-6.648-0.633
			c-9.281,3.233-18.789,5.775-28.445,7.605c-2.345,0.442-4.369,1.911-5.516,4.004L259.558,464h-37.922l-12.953-23.547
			c-1.147-2.093-3.171-3.562-5.516-4.004c-9.654-1.828-19.16-4.37-28.438-7.605c-2.204-0.771-4.635-0.541-6.656,0.629
			l-22.789,13.223c-11.373-5.359-22.276-11.663-32.594-18.847l0.078-26.371c0.006-2.334-1.007-4.554-2.773-6.078
			c-7.428-6.419-14.379-13.371-20.797-20.801c-1.518-1.762-3.729-2.775-6.055-2.773h-0.023l-26.367,0.078
			c-7.188-10.315-13.494-21.216-18.852-32.59l13.219-22.793c1.17-2.018,1.401-4.446,0.633-6.648
			c-3.235-9.278-5.778-18.784-7.609-28.438c-0.444-2.344-1.911-4.368-4-5.52l-23.547-12.958v-37.914l23.547-12.957
			c2.089-1.152,3.556-3.175,4-5.519c1.831-9.654,4.375-19.159,7.609-28.438c0.768-2.202,0.537-4.63-0.633-6.648l-13.219-22.793
			c5.36-11.37,11.664-22.272,18.844-32.59l26.375,0.074h0.023c2.326,0,4.536-1.013,6.055-2.773
			c6.42-7.427,13.371-14.379,20.797-20.801c1.766-1.525,2.779-3.745,2.773-6.078l-0.078-26.368
			c10.319-7.183,21.221-13.487,32.594-18.848l22.789,13.219c2.018,1.171,4.446,1.402,6.648,0.633
			c9.281-3.233,18.789-5.775,28.445-7.605c2.344-0.444,4.367-1.912,5.516-4.004L221.637,16h37.922l12.953,23.547
			c1.148,2.095,3.175,3.564,5.523,4.004c9.654,1.83,19.159,4.372,28.438,7.605c2.202,0.768,4.63,0.537,6.648-0.633l22.789-13.219
			c11.373,5.359,22.276,11.664,32.594,18.848l-0.078,26.371c-0.006,2.334,1.007,4.554,2.773,6.078
			c7.428,6.42,14.379,13.372,20.797,20.801c1.518,1.762,3.729,2.775,6.055,2.773h0.023l26.367-0.078
			c7.188,10.315,13.494,21.216,18.852,32.59l-13.219,22.793c-1.17,2.018-1.401,4.446-0.633,6.648
			c3.235,9.278,5.778,18.784,7.609,28.438c0.436,2.293,1.851,4.282,3.875,5.445l22.477,12.93V259.059z"/>
	</g>
</g>
<g>
	<g>
		<path d="M240.597,64c-97.202,0-176,78.798-176,176c0.11,97.157,78.843,175.89,176,176c97.202,0,176-78.798,176-176
			S337.8,64,240.597,64z M240.597,400c-88.366,0-160-71.634-160-160c0.1-88.324,71.676-159.9,160-160c88.366,0,160,71.634,160,160
			S328.963,400,240.597,400z"/>
	</g>
</g>
<g>
	<g>
		<path d="M336.596,199.998c-1.78,0-3.508,0.593-4.913,1.686l-59.086,45.961V208c0-4.419-3.582-8.002-8.001-8.002
			c-1.78,0-3.508,0.593-4.913,1.686l-59.086,45.961V152c0.001-4.417-3.579-7.999-7.996-8c-0.001,0-0.003,0-0.004,0h-48
			c-4.417-0.001-7.999,3.579-8,7.996c0,0.001,0,0.003,0,0.004v176c-0.001,4.417,3.579,7.999,7.996,8c0.001,0,0.003,0,0.004,0h192
			c4.417,0.001,7.999-3.579,8-7.996c0-0.001,0-0.003,0-0.004V208C344.598,203.581,341.016,199.998,336.596,199.998z M328.597,320
			h-176V160h32v104c0,4.419,3.582,8.002,8.001,8.002c1.78,0,3.508-0.593,4.913-1.686l59.086-45.961V264
			c0,4.419,3.582,8.002,8.001,8.002c1.78,0,3.508-0.593,4.913-1.686l59.086-45.961V320z"/>
	</g>
</g>
<g>
	<g>
		<path d="M236.051,114.594c-3.523,3.848-5.094,5.406-8.758,5.406c-3.672,0-5.25-1.563-8.773-5.406
			c-8.109-11.363-23.893-14.001-35.256-5.892c-2.277,1.625-4.268,3.616-5.892,5.892c-3.523,3.844-5.101,5.406-8.773,5.406v16
			c8.128-0.149,15.726-4.061,20.57-10.59c3.523-3.848,5.102-5.41,8.782-5.41c3.672,0,5.25,1.563,8.773,5.406
			c8.094,11.356,23.862,13.999,35.217,5.905c2.284-1.628,4.28-3.625,5.908-5.909c3.523-3.844,5.094-5.402,8.75-5.402v-16
			C248.475,104.15,240.884,108.064,236.051,114.594z"/>
	</g>
</g>
<g>
</g>
<g>
</g>
<g>
</g>
<g>
</g>
<g>
</g>
<g>
</g>
<g>
</g>
<g>
</g>
<g>
</g>
<g>
</g>
<g>
</g>
<g>
</g>
<g>
</g>
<g>
</g>
<g>
</g>
</svg>
