<?xml version="1.0" encoding="iso-8859-1"?>
<!-- Generator: Adobe Illustrator 19.0.0, SVG Export Plug-In . SVG Version: 6.00 Build 0)  -->
<svg version="1.1" id="Layer_1" xmlns="http://www.w3.org/2000/svg" xmlns:xlink="http://www.w3.org/1999/xlink" x="0px" y="0px"
	 viewBox="0 0 512 512" style="enable-background:new 0 0 512 512;" xml:space="preserve">
<g>
	<g>
		<g>
			<path d="M418.133,392.533h-17.067c-4.71,0-8.533,3.823-8.533,8.533s3.823,8.533,8.533,8.533h17.067
				c4.71,0,8.533-3.823,8.533-8.533S422.844,392.533,418.133,392.533z"/>
			<path d="M418.133,358.4h-17.067c-4.71,0-8.533,3.823-8.533,8.533s3.823,8.533,8.533,8.533h17.067c4.71,0,8.533-3.823,8.533-8.533
				S422.844,358.4,418.133,358.4z"/>
			<path d="M366.933,392.533h-17.067c-4.71,0-8.533,3.823-8.533,8.533s3.823,8.533,8.533,8.533h17.067
				c4.71,0,8.533-3.823,8.533-8.533S371.644,392.533,366.933,392.533z"/>
			<path d="M196.267,409.6h17.067c4.71,0,8.533-3.823,8.533-8.533s-3.823-8.533-8.533-8.533h-17.067
				c-4.71,0-8.533,3.823-8.533,8.533S191.556,409.6,196.267,409.6z"/>
			<path d="M366.933,358.4h-17.067c-4.71,0-8.533,3.823-8.533,8.533s3.823,8.533,8.533,8.533h17.067c4.71,0,8.533-3.823,8.533-8.533
				S371.644,358.4,366.933,358.4z"/>
			<path d="M412.1,116.966c1.664,1.664,3.849,2.5,6.033,2.5c2.185,0,4.369-0.836,6.033-2.5c3.336-3.337,3.336-8.73,0-12.066
				L407.1,87.834c-3.336-3.337-8.73-3.337-12.066,0c-3.337,3.337-3.337,8.73,0,12.066L412.1,116.966z"/>
			<path d="M469.333,307.2c4.71,0,8.533-3.823,8.533-8.533V59.733c0-13.158-12.442-25.6-25.6-25.6h-384
				c-11.682,0-34.133,10.812-34.133,25.6v238.933c0,4.71,3.823,8.533,8.533,8.533H469.333z M68.267,51.2h384
				c3.831,0,8.533,4.702,8.533,8.533v230.4H51.2L51.149,60.169C52.198,57.165,62.78,51.2,68.267,51.2z"/>
			<path d="M469.333,0H42.667C20.736,0,0,20.736,0,42.667v256c0,4.71,3.823,8.533,8.533,8.533s8.533-3.823,8.533-8.533v-256
				c0-12.442,13.158-25.6,25.6-25.6h426.667c12.442,0,25.6,13.158,25.6,25.6v426.667c0,12.442-13.158,25.6-25.6,25.6H42.667
				c-12.442,0-25.6-13.158-25.6-25.6v-128h452.267c4.71,0,8.533-3.823,8.533-8.533c0-4.71-3.823-8.533-8.533-8.533H8.533
				C3.823,324.267,0,328.09,0,332.8v136.533C0,491.264,20.736,512,42.667,512h426.667C491.264,512,512,491.264,512,469.333V42.667
				C512,20.736,491.264,0,469.333,0z"/>
			<path d="M412.1,168.166c1.664,1.664,3.849,2.5,6.033,2.5c2.185,0,4.369-0.836,6.033-2.5c3.336-3.337,3.336-8.73,0-12.066
				L355.9,87.834c-3.337-3.337-8.73-3.337-12.066,0c-3.337,3.337-3.337,8.73,0,12.066L412.1,168.166z"/>
			<path d="M110.933,392.533H93.867c-4.71,0-8.533,3.823-8.533,8.533s3.823,8.533,8.533,8.533h17.067
				c4.71,0,8.533-3.823,8.533-8.533S115.644,392.533,110.933,392.533z"/>
			<path d="M162.133,358.4h-17.067c-4.71,0-8.533,3.823-8.533,8.533s3.823,8.533,8.533,8.533h17.067c4.71,0,8.533-3.823,8.533-8.533
				S166.844,358.4,162.133,358.4z"/>
			<path d="M162.133,392.533h-17.067c-4.71,0-8.533,3.823-8.533,8.533s3.823,8.533,8.533,8.533h17.067
				c4.71,0,8.533-3.823,8.533-8.533S166.844,392.533,162.133,392.533z"/>
			<path d="M110.933,358.4H93.867c-4.71,0-8.533,3.823-8.533,8.533s3.823,8.533,8.533,8.533h17.067c4.71,0,8.533-3.823,8.533-8.533
				S115.644,358.4,110.933,358.4z"/>
			<path d="M315.733,358.4h-17.067c-4.71,0-8.533,3.823-8.533,8.533s3.823,8.533,8.533,8.533h17.067c4.71,0,8.533-3.823,8.533-8.533
				S320.444,358.4,315.733,358.4z"/>
			<path d="M247.467,409.6h17.067c4.71,0,8.533-3.823,8.533-8.533s-3.823-8.533-8.533-8.533h-17.067
				c-4.71,0-8.533,3.823-8.533,8.533S242.756,409.6,247.467,409.6z"/>
			<path d="M187.733,469.333c0,4.71,3.823,8.533,8.533,8.533h119.467c4.71,0,8.533-3.823,8.533-8.533V435.2
				c0-4.71-3.823-8.533-8.533-8.533H196.267c-4.71,0-8.533,3.823-8.533,8.533V469.333z M204.8,443.733h102.4V460.8H204.8V443.733z"
				/>
			<path d="M196.267,375.467h17.067c4.71,0,8.533-3.823,8.533-8.533s-3.823-8.533-8.533-8.533h-17.067
				c-4.71,0-8.533,3.823-8.533,8.533S191.556,375.467,196.267,375.467z"/>
			<path d="M315.733,392.533h-17.067c-4.71,0-8.533,3.823-8.533,8.533s3.823,8.533,8.533,8.533h17.067
				c4.71,0,8.533-3.823,8.533-8.533S320.444,392.533,315.733,392.533z"/>
			<path d="M247.467,375.467h17.067c4.71,0,8.533-3.823,8.533-8.533s-3.823-8.533-8.533-8.533h-17.067
				c-4.71,0-8.533,3.823-8.533,8.533S242.756,375.467,247.467,375.467z"/>
		</g>
	</g>
</g>
<g>
</g>
<g>
</g>
<g>
</g>
<g>
</g>
<g>
</g>
<g>
</g>
<g>
</g>
<g>
</g>
<g>
</g>
<g>
</g>
<g>
</g>
<g>
</g>
<g>
</g>
<g>
</g>
<g>
</g>
</svg>
