<?xml version="1.0" encoding="iso-8859-1"?>
<!-- Generator: Adobe Illustrator 19.0.0, SVG Export Plug-In . SVG Version: 6.00 Build 0)  -->
<svg version="1.1" id="Layer_1" xmlns="http://www.w3.org/2000/svg" xmlns:xlink="http://www.w3.org/1999/xlink" x="0px" y="0px"
	 viewBox="0 0 512.133 512.133" style="enable-background:new 0 0 512.133 512.133;" xml:space="preserve">
<g>
	<g>
		<g>
			<path d="M102.509,180.263c0.512,4.676,4.693,8.004,9.412,7.552c4.685-0.512,8.073-4.727,7.561-9.412L102.458,22.994l33.681-5.606
				l35.413,163.746c0.862,4.002,4.395,6.733,8.328,6.733c0.597,0,1.203-0.06,1.818-0.188c4.599-0.998,7.526-5.538,6.536-10.146
				L152.881,14.111c-0.794-4.497-3.285-8.405-7.014-11.025c-3.738-2.611-8.277-3.61-12.749-2.825l-33.63,5.922
				C95,6.985,91.092,9.477,88.48,13.206c-2.62,3.738-3.618,8.269-2.901,12.203L102.509,180.263z"/>
			<path d="M159.52,270.52c-2.261,0-4.429,0.905-6.033,2.5c-1.596,1.596-2.5,3.772-2.5,6.033c0,2.611,0.367,64.247,32.674,96.546
				c11.725,11.725,25.557,17.673,41.114,17.673c19.934,0,35.379-10.138,36.019-10.573c0.247-0.162,0.384-0.427,0.606-0.606
				c0.222-0.179,0.495-0.256,0.7-0.461c0.196-0.205,0.282-0.478,0.461-0.7c0.179-0.213,0.444-0.358,0.606-0.597
				c9.685-14.541,20.668-49.365-7.1-77.141C223.768,270.887,162.132,270.52,159.52,270.52z M253.626,361.102l-51.866-51.874
				c-3.328-3.337-8.73-3.337-12.066,0c-3.328,3.328-3.328,8.73,0,12.066l51.806,51.814c-4.574,1.638-10.359,3.098-16.725,3.098
				c-10.863,0-20.634-4.267-29.047-12.672c-20.702-20.702-25.916-58.334-27.23-75.503c17.169,1.314,54.801,6.528,75.494,27.23
				C260.333,331.593,257.594,350.077,253.626,361.102z"/>
			<path d="M352.613,270.529h-0.009c-1.673,0-41.481,0.213-73.916,16.683c-4.198,2.133-5.879,7.27-3.746,11.469
				c2.142,4.198,7.253,5.871,11.477,3.746c20.139-10.223,44.382-13.406,57.216-14.387c-1.306,17.178-6.528,54.801-27.23,75.494
				c-7.91,7.902-16.691,12.006-26.854,12.544c-4.702,0.247-8.311,4.267-8.073,8.969c0.239,4.557,4.011,8.09,8.516,8.09
				c0.154,0,0.307-0.009,0.461-0.017c14.353-0.76,27.136-6.656,38.016-17.519c32.299-32.29,32.674-93.935,32.674-96.538
				c0-2.27-0.905-4.446-2.5-6.042C357.05,271.425,354.874,270.529,352.613,270.529z"/>
			<path d="M512.067,247.6c0-23.526-19.149-42.667-42.667-42.667H42.733c-23.526,0-42.667,19.14-42.667,42.667v17.067
				c0,99.874,51.294,164.454,71.612,186.121c-2.099,2.842-3.345,6.349-3.345,10.146v34.133c0,9.412,7.646,17.067,17.067,17.067
				h341.333c9.404,0,17.067-7.654,17.067-17.067v-34.133c0-3.772-1.237-7.262-3.311-10.095
				c20.386-21.513,71.578-85.547,71.578-186.172V247.6z M495,264.666c0,114.97-73.165,180.668-73.899,181.325
				c-2.662,2.338-3.61,6.093-2.355,9.421c1.254,3.319,4.429,5.521,7.987,5.521v34.133H85.4v-34.133h307.2
				c4.71,0,8.533-3.823,8.533-8.533c0-4.71-3.823-8.533-8.533-8.533H88.839c-11.972-11.844-71.706-76.1-71.706-179.2V247.6
				c0-14.114,11.477-25.6,25.6-25.6H469.4c14.114,0,25.6,11.486,25.6,25.6V264.666z"/>
			<path d="M291.531,348.669c2.185,0,4.361-0.836,6.033-2.5l24.875-24.866c3.328-3.328,3.328-8.738,0-12.066
				c-3.336-3.337-8.738-3.337-12.066,0l-24.875,24.866c-3.337,3.328-3.337,8.73,0,12.066
				C287.162,347.832,289.347,348.669,291.531,348.669z"/>
		</g>
	</g>
</g>
<g>
</g>
<g>
</g>
<g>
</g>
<g>
</g>
<g>
</g>
<g>
</g>
<g>
</g>
<g>
</g>
<g>
</g>
<g>
</g>
<g>
</g>
<g>
</g>
<g>
</g>
<g>
</g>
<g>
</g>
</svg>
