<?xml version="1.0" encoding="iso-8859-1"?>
<!-- Generator: Adobe Illustrator 19.0.0, SVG Export Plug-In . SVG Version: 6.00 Build 0)  -->
<svg version="1.1" id="Layer_1" xmlns="http://www.w3.org/2000/svg" xmlns:xlink="http://www.w3.org/1999/xlink" x="0px" y="0px"
	 viewBox="0 0 512 512" style="enable-background:new 0 0 512 512;" xml:space="preserve">
<g>
	<g>
		<g>
			<path d="M145.067,256c-13.158,0-25.6,12.442-25.6,25.6v85.333c0,13.158,12.442,25.6,25.6,25.6h17.067
				c13.158,0,25.6-12.442,25.6-25.6c0-3.831,4.702-8.533,8.525-8.533H230.4c3.823,0,8.533,4.702,8.533,8.533
				c0,13.158,12.442,25.6,25.6,25.6h78.379c3.533,9.916,12.911,17.067,24.021,17.067c14.114,0,25.6-11.486,25.6-25.6
				s-11.486-25.6-25.6-25.6c-11.11,0-20.489,7.151-24.021,17.067h-78.379c-3.823,0-8.533-4.702-8.533-8.533
				c0-13.158-12.442-25.6-25.6-25.6h-34.142c-13.158,0-25.591,12.442-25.591,25.6c0,3.831-4.71,8.533-8.533,8.533h-17.067
				c-3.823,0-8.533-4.702-8.533-8.533V281.6c0-3.831,4.71-8.533,8.533-8.533c13.158,0,25.6-12.442,25.6-25.6s-12.442-25.6-25.6-25.6
				c-3.823,0-8.533-4.702-8.533-8.533v-68.267c0-3.831,4.71-8.533,8.533-8.533h221.867c3.823,0,8.533,4.702,8.533,8.533V281.6
				c0,3.831-4.71,8.533-8.533,8.533h-27.179c-2.569-7.228-8.252-12.919-15.488-15.497v-54.34
				c9.907-3.541,17.067-12.919,17.067-24.03c0-14.114-11.486-25.6-25.6-25.6s-25.6,11.486-25.6,25.6
				c0,11.11,7.159,20.489,17.067,24.021v54.349c-7.236,2.577-12.919,8.269-15.488,15.497H230.4c-3.823,0-8.533-4.702-8.533-8.533
				v-27.17c9.907-3.541,17.067-12.919,17.067-24.03c0-14.114-11.486-25.6-25.6-25.6c-14.114,0-25.6,11.486-25.6,25.6
				c0,11.11,7.159,20.489,17.067,24.021V281.6c0,13.158,12.442,25.6,25.6,25.6h61.312c3.533,9.916,12.911,17.067,24.021,17.067
				c11.11,0,20.489-7.151,24.021-17.067h27.179c13.158,0,25.6-12.442,25.6-25.6V145.067c0-13.158-12.442-25.6-25.6-25.6H145.067
				c-13.158,0-25.6,12.442-25.6,25.6v68.267c0,13.158,12.442,25.6,25.6,25.6c3.823,0,8.533,4.702,8.533,8.533
				S148.89,256,145.067,256z M366.933,375.467c4.71,0,8.533,3.831,8.533,8.533c0,4.702-3.823,8.533-8.533,8.533
				S358.4,388.702,358.4,384C358.4,379.298,362.223,375.467,366.933,375.467z M213.333,238.933c-4.71,0-8.533-3.831-8.533-8.533
				c0-4.702,3.823-8.533,8.533-8.533c4.71,0,8.533,3.831,8.533,8.533C221.867,235.102,218.044,238.933,213.333,238.933z
				 M315.733,187.733c4.71,0,8.533,3.831,8.533,8.533c0,4.702-3.823,8.533-8.533,8.533s-8.533-3.831-8.533-8.533
				C307.2,191.565,311.023,187.733,315.733,187.733z M315.733,307.2c-4.71,0-8.533-3.831-8.533-8.533s3.823-8.533,8.533-8.533
				s8.533,3.831,8.533,8.533S320.444,307.2,315.733,307.2z"/>
			<path d="M503.467,187.733c4.719,0,8.533-3.823,8.533-8.533s-3.814-8.533-8.533-8.533h-25.6v-34.133h25.6
				c4.719,0,8.533-3.823,8.533-8.533s-3.814-8.533-8.533-8.533h-25.6V76.8c0-21.931-20.736-42.667-42.667-42.667h-42.667v-25.6
				C392.533,3.823,388.719,0,384,0c-4.719,0-8.533,3.823-8.533,8.533v25.6h-34.133v-25.6c0-4.71-3.814-8.533-8.533-8.533
				c-4.719,0-8.533,3.823-8.533,8.533v25.6h-34.133v-25.6c0-4.71-3.814-8.533-8.533-8.533c-4.719,0-8.533,3.823-8.533,8.533v25.6
				h-34.133v-25.6c0-4.71-3.814-8.533-8.533-8.533s-8.533,3.823-8.533,8.533v25.6h-34.133v-25.6c0-4.71-3.814-8.533-8.533-8.533
				s-8.533,3.823-8.533,8.533v25.6h-34.133v-25.6C136.533,3.823,132.719,0,128,0s-8.533,3.823-8.533,8.533v25.6H76.8
				c-21.931,0-42.667,20.736-42.667,42.667v42.667h-25.6C3.814,119.467,0,123.29,0,128s3.814,8.533,8.533,8.533h25.6v34.133h-25.6
				C3.814,170.667,0,174.49,0,179.2s3.814,8.533,8.533,8.533h25.6v34.133h-25.6C3.814,221.867,0,225.69,0,230.4
				s3.814,8.533,8.533,8.533h25.6v34.133h-25.6C3.814,273.067,0,276.89,0,281.6s3.814,8.533,8.533,8.533h25.6v34.133h-25.6
				C3.814,324.267,0,328.09,0,332.8c0,4.71,3.814,8.533,8.533,8.533h25.6v34.133h-25.6C3.814,375.467,0,379.29,0,384
				s3.814,8.533,8.533,8.533h25.6v8.533c0,4.71,3.814,8.533,8.533,8.533s8.533-3.823,8.533-8.533V76.8
				c0-12.442,13.158-25.6,25.6-25.6h358.4c12.442,0,25.6,13.158,25.6,25.6v358.4c0,12.442-13.158,25.6-25.6,25.6H76.8
				c-12.442,0-25.6-13.158-25.6-25.6c0-4.71-3.814-8.533-8.533-8.533s-8.533,3.823-8.533,8.533
				c0,21.931,20.736,42.667,42.667,42.667h42.667v25.6c0,4.71,3.814,8.533,8.533,8.533s8.533-3.823,8.533-8.533v-25.6h34.133v25.6
				c0,4.71,3.814,8.533,8.533,8.533s8.533-3.823,8.533-8.533v-25.6h34.133v25.6c0,4.71,3.814,8.533,8.533,8.533
				s8.533-3.823,8.533-8.533v-25.6h34.133v25.6c0,4.71,3.814,8.533,8.533,8.533c4.719,0,8.533-3.823,8.533-8.533v-25.6h34.133v25.6
				c0,4.71,3.814,8.533,8.533,8.533c4.719,0,8.533-3.823,8.533-8.533v-25.6h34.133v25.6c0,4.71,3.814,8.533,8.533,8.533
				c4.719,0,8.533-3.823,8.533-8.533v-25.6H435.2c21.931,0,42.667-20.736,42.667-42.667v-42.667h25.6
				c4.719,0,8.533-3.823,8.533-8.533s-3.814-8.533-8.533-8.533h-25.6v-34.133h25.6c4.719,0,8.533-3.823,8.533-8.533
				c0-4.71-3.814-8.533-8.533-8.533h-25.6v-34.133h25.6c4.719,0,8.533-3.823,8.533-8.533s-3.814-8.533-8.533-8.533h-25.6v-34.133
				h25.6c4.719,0,8.533-3.823,8.533-8.533s-3.814-8.533-8.533-8.533h-25.6v-34.133H503.467z"/>
			<path d="M94.123,102.4c4.71,0,8.533-3.823,8.533-8.533c0-4.71-3.823-8.533-8.533-8.533h-0.094c-4.702,0-8.482,3.823-8.482,8.533
				C85.547,98.577,89.412,102.4,94.123,102.4z"/>
			<path d="M94.123,426.667c4.71,0,8.533-3.823,8.533-8.533s-3.823-8.533-8.533-8.533h-0.094c-4.702,0-8.482,3.823-8.482,8.533
				S89.412,426.667,94.123,426.667z"/>
			<path d="M418.389,426.667c4.71,0,8.533-3.823,8.533-8.533s-3.823-8.533-8.533-8.533h-0.094c-4.702,0-8.482,3.823-8.482,8.533
				S413.67,426.667,418.389,426.667z"/>
			<path d="M418.389,102.4c4.71,0,8.533-3.823,8.533-8.533c0-4.71-3.823-8.533-8.533-8.533h-0.094c-4.702,0-8.482,3.823-8.482,8.533
				C409.813,98.577,413.67,102.4,418.389,102.4z"/>
		</g>
	</g>
</g>
<g>
</g>
<g>
</g>
<g>
</g>
<g>
</g>
<g>
</g>
<g>
</g>
<g>
</g>
<g>
</g>
<g>
</g>
<g>
</g>
<g>
</g>
<g>
</g>
<g>
</g>
<g>
</g>
<g>
</g>
</svg>
