<?xml version="1.0" encoding="iso-8859-1"?>
<!-- Generator: Adobe Illustrator 19.0.0, SVG Export Plug-In . SVG Version: 6.00 Build 0)  -->
<svg version="1.1" id="Layer_1" xmlns="http://www.w3.org/2000/svg" xmlns:xlink="http://www.w3.org/1999/xlink" x="0px" y="0px"
	 viewBox="0 0 512 512" style="enable-background:new 0 0 512 512;" xml:space="preserve">
<g>
	<g>
		<g>
			<path d="M59.733,204.8h358.4c4.719,0,8.533-3.823,8.533-8.533s-3.814-8.533-8.533-8.533h-358.4c-4.71,0-8.533-3.831-8.533-8.533
				c0-4.702,3.823-8.533,8.533-8.533c4.719,0,8.533-3.823,8.533-8.533v-51.2c0-4.71-3.814-8.533-8.533-8.533
				s-8.533,3.823-8.533,8.533v44.126c-9.933,3.524-17.067,13.013-17.067,24.141C34.133,193.314,45.619,204.8,59.733,204.8z"/>
			<path d="M452.267,153.6h-358.4c-4.719,0-8.533,3.823-8.533,8.533c0,4.71,3.814,8.533,8.533,8.533h358.4
				c4.71,0,8.533,3.831,8.533,8.533c0,4.702-3.823,8.533-8.533,8.533c-4.719,0-8.533,3.823-8.533,8.533v119.467
				c0,4.71,3.814,8.533,8.533,8.533s8.533-3.823,8.533-8.533V203.341c9.933-3.524,17.067-13.013,17.067-24.141
				C477.867,165.086,466.381,153.6,452.267,153.6z"/>
			<path d="M59.733,85.333h358.4c4.719,0,8.533-3.823,8.533-8.533s-3.814-8.533-8.533-8.533h-358.4c-4.71,0-8.533-3.831-8.533-8.533
				s3.823-8.533,8.533-8.533h187.733c4.719,0,8.533-3.823,8.533-8.533V25.6c0-4.702,3.823-8.533,8.533-8.533h85.333
				c4.71,0,8.533,3.831,8.533,8.533v8.533h-76.8c-4.719,0-8.533,3.823-8.533,8.533c0,4.71,3.814,8.533,8.533,8.533h170.667
				c4.71,0,8.533,3.831,8.533,8.533s-3.823,8.533-8.533,8.533c-4.719,0-8.533,3.823-8.533,8.533V128c0,4.71,3.814,8.533,8.533,8.533
				S460.8,132.71,460.8,128V83.874c9.933-3.524,17.067-13.013,17.067-24.141c0-14.114-11.486-25.6-25.6-25.6h-76.8V25.6
				c0-14.114-11.486-25.6-25.6-25.6h-85.333c-14.114,0-25.6,11.486-25.6,25.6v8.533h-179.2c-14.114,0-25.6,11.486-25.6,25.6
				S45.619,85.333,59.733,85.333z"/>
			<path d="M59.733,392.533h358.4c4.719,0,8.533-3.823,8.533-8.533s-3.814-8.533-8.533-8.533h-358.4
				c-4.71,0-8.533-3.831-8.533-8.533s3.823-8.533,8.533-8.533c4.719,0,8.533-3.823,8.533-8.533V230.4
				c0-4.71-3.814-8.533-8.533-8.533S51.2,225.69,51.2,230.4v112.393c-9.933,3.524-17.067,13.013-17.067,24.141
				C34.133,381.047,45.619,392.533,59.733,392.533z"/>
			<path d="M452.267,341.333h-358.4c-4.719,0-8.533,3.823-8.533,8.533s3.814,8.533,8.533,8.533h358.4
				c4.71,0,8.533,3.831,8.533,8.533s-3.823,8.533-8.533,8.533c-4.719,0-8.533,3.823-8.533,8.533v57.6
				c0,4.71,3.814,8.533,8.533,8.533s8.533-3.823,8.533-8.533v-50.526c9.933-3.524,17.067-13.013,17.067-24.141
				C477.867,352.819,466.381,341.333,452.267,341.333z"/>
			<path d="M452.267,460.8h-358.4c-4.719,0-8.533,3.823-8.533,8.533s3.814,8.533,8.533,8.533h358.4c4.71,0,8.533,3.831,8.533,8.533
				s-3.823,8.533-8.533,8.533H59.733c-4.71,0-8.533-3.831-8.533-8.533s3.823-8.533,8.533-8.533c4.719,0,8.533-3.823,8.533-8.533
				v-51.2c0-4.71-3.814-8.533-8.533-8.533s-8.533,3.823-8.533,8.533v44.126c-9.933,3.524-17.067,13.013-17.067,24.141
				c0,14.114,11.486,25.6,25.6,25.6h392.533c14.114,0,25.6-11.486,25.6-25.6S466.381,460.8,452.267,460.8z"/>
		</g>
	</g>
</g>
<g>
</g>
<g>
</g>
<g>
</g>
<g>
</g>
<g>
</g>
<g>
</g>
<g>
</g>
<g>
</g>
<g>
</g>
<g>
</g>
<g>
</g>
<g>
</g>
<g>
</g>
<g>
</g>
<g>
</g>
</svg>
