<?xml version="1.0" encoding="iso-8859-1"?>
<!-- Generator: Adobe Illustrator 19.0.0, SVG Export Plug-In . SVG Version: 6.00 Build 0)  -->
<svg version="1.1" id="Layer_1" xmlns="http://www.w3.org/2000/svg" xmlns:xlink="http://www.w3.org/1999/xlink" x="0px" y="0px"
	 viewBox="0 0 512.006 512.006" style="enable-background:new 0 0 512.006 512.006;" xml:space="preserve">
<g>
	<g>
		<g>
			<path d="M264.79,341.337h-0.077c-4.719,0-8.499,3.823-8.499,8.533s3.866,8.533,8.576,8.533c4.719,0,8.533-3.823,8.533-8.533
				S269.509,341.337,264.79,341.337z"/>
			<path d="M264.79,392.537h-0.077c-4.719,0-8.499,3.823-8.499,8.533s3.866,8.533,8.576,8.533c4.719,0,8.533-3.823,8.533-8.533
				S269.509,392.537,264.79,392.537z"/>
			<path d="M264.79,443.737h-0.077c-4.719,0-8.499,3.823-8.499,8.533c0,4.71,3.866,8.533,8.576,8.533
				c4.719,0,8.533-3.823,8.533-8.533C273.323,447.56,269.509,443.737,264.79,443.737z"/>
			<path d="M384,204.804h-68.267c-4.71,0-8.533,3.823-8.533,8.533v68.267c0,3.234,1.826,6.187,4.719,7.629l34.133,17.067
				c1.203,0.606,2.509,0.904,3.814,0.904c1.314,0,2.62-0.299,3.823-0.904l34.133-17.067c2.893-1.442,4.71-4.395,4.71-7.629v-68.267
				C392.534,208.627,388.719,204.804,384,204.804z M375.467,276.33l-25.6,12.8l-25.6-12.8v-54.46h51.2V276.33z"/>
			<path d="M264.79,290.137h-0.077c-4.719,0-8.499,3.823-8.499,8.533s3.866,8.533,8.576,8.533c4.719,0,8.533-3.823,8.533-8.533
				S269.509,290.137,264.79,290.137z"/>
			<path d="M507.29,86.233L439.023,52.1c-16.503-8.243-33.544-16.666-51.268-17.749L355.9,2.504
				c-3.098-3.106-8.038-3.345-11.435-0.572L256,74.312l-88.457-72.38c-3.388-2.765-8.328-2.526-11.443,0.572L124.254,34.35
				C106.531,35.434,89.49,43.856,72.986,52.1L4.719,86.233c-3.575,1.792-5.436,5.82-4.463,9.702L34.39,232.477
				c1.075,4.309,5.299,7.074,9.685,6.34l41.259-6.869v237.389c0,23.526,19.149,42.667,42.675,42.667H384
				c23.526,0,42.667-19.14,42.667-42.667V231.948l41.267,6.869c4.386,0.725,8.602-2.031,9.685-6.34l34.133-136.542
				C512.717,92.053,510.866,88.025,507.29,86.233z M232.909,96.362l-0.009,0.009l-11.418,11.418l-62.259-54.477
				c-3.55-3.098-8.926-2.731-12.041,0.802c-3.106,3.55-2.748,8.943,0.802,12.041l68.267,59.733
				c3.388,2.961,8.474,2.799,11.648-0.384l2.5-2.5v371.934H128.009c-14.123,0-25.6-11.486-25.6-25.6V221.87
				c0-2.509-1.109-4.89-3.021-6.511c-1.92-1.621-4.471-2.321-6.921-1.911l-43.426,7.245L18.475,98.436l18.475-9.233l26.957,109.116
				c0.956,3.883,4.446,6.485,8.269,6.485c0.683,0,1.374-0.077,2.057-0.256c4.574-1.126,7.373-5.751,6.238-10.325L52.591,81.386
				l28.032-14.02c16.623-8.312,32.324-16.162,47.386-16.162c1.109,0,2.21-0.23,3.26-0.657c1.041-0.435,1.988-1.058,2.773-1.852
				l28.672-28.663l80.589,65.937L232.909,96.362z M462.968,220.693l-43.426-7.245c-2.492-0.418-5.009,0.29-6.921,1.911
				c-1.911,1.621-3.021,4.002-3.021,6.511v247.467c0,14.114-11.477,25.6-25.6,25.6H247.476V105.936L256,97.403l28.1,28.1
				c1.664,1.664,3.849,2.5,6.033,2.5c2.005,0,4.011-0.7,5.623-2.116l68.267-59.733c3.55-3.098,3.908-8.491,0.802-12.041
				c-3.106-3.541-8.499-3.908-12.041-0.802l-62.259,54.477l-21.82-21.82l80.589-65.937l28.672,28.663
				c0.785,0.794,1.732,1.417,2.773,1.852c1.05,0.427,2.15,0.657,3.26,0.657c15.061,0,30.763,7.851,47.386,16.162l28.006,14.003
				L431.19,194.197c-1.143,4.574,1.638,9.207,6.212,10.351c0.691,0.179,1.391,0.256,2.074,0.256c3.823,0,7.305-2.586,8.277-6.468
				l27.281-109.141l18.5,9.242L462.968,220.693z"/>
			<path d="M264.79,238.937h-0.077c-4.719,0-8.499,3.823-8.499,8.533c0,4.71,3.866,8.533,8.576,8.533
				c4.719,0,8.533-3.823,8.533-8.533C273.323,242.76,269.509,238.937,264.79,238.937z"/>
			<path d="M264.79,136.537h-0.077c-4.719,0-8.499,3.823-8.499,8.533s3.866,8.533,8.576,8.533c4.719,0,8.533-3.823,8.533-8.533
				S269.509,136.537,264.79,136.537z"/>
			<path d="M264.79,187.737h-0.077c-4.719,0-8.499,3.823-8.499,8.533c0,4.71,3.866,8.533,8.576,8.533
				c4.719,0,8.533-3.823,8.533-8.533C273.323,191.56,269.509,187.737,264.79,187.737z"/>
		</g>
	</g>
</g>
<g>
</g>
<g>
</g>
<g>
</g>
<g>
</g>
<g>
</g>
<g>
</g>
<g>
</g>
<g>
</g>
<g>
</g>
<g>
</g>
<g>
</g>
<g>
</g>
<g>
</g>
<g>
</g>
<g>
</g>
</svg>
