<?xml version="1.0" encoding="iso-8859-1"?>
<!-- Generator: Adobe Illustrator 19.0.0, SVG Export Plug-In . SVG Version: 6.00 Build 0)  -->
<svg version="1.1" id="Layer_1" xmlns="http://www.w3.org/2000/svg" xmlns:xlink="http://www.w3.org/1999/xlink" x="0px" y="0px"
	 viewBox="0 0 512 512" style="enable-background:new 0 0 512 512;" xml:space="preserve">
<g>
	<g>
		<g>
			<path d="M503.467,460.8h-25.6c0-4.71-3.814-8.533-8.533-8.533s-8.533,3.823-8.533,8.533h-68.267c0-4.71-3.814-8.533-8.533-8.533
				c-4.719,0-8.533,3.823-8.533,8.533H307.2c0-4.71-3.814-8.533-8.533-8.533s-8.533,3.823-8.533,8.533h-68.267
				c0-4.71-3.823-8.533-8.533-8.533c-4.71,0-8.533,3.823-8.533,8.533h-68.267c0-4.71-3.823-8.533-8.533-8.533
				s-8.533,3.823-8.533,8.533H51.2c0-4.71-3.823-8.533-8.533-8.533c-4.71,0-8.533,3.823-8.533,8.533h-25.6
				c-4.71,0-8.533,3.823-8.533,8.533s3.823,8.533,8.533,8.533h494.933c4.719,0,8.533-3.823,8.533-8.533S508.186,460.8,503.467,460.8
				z"/>
			<path d="M503.467,273.067c-4.719,0-8.533,3.823-8.533,8.533v8.533h-17.067V128c0-4.71-3.814-8.533-8.533-8.533H42.667
				c-4.71,0-8.533,3.823-8.533,8.533v162.133H17.067V281.6c0-4.71-3.823-8.533-8.533-8.533S0,276.89,0,281.6v34.133
				c0,4.71,3.823,8.533,8.533,8.533s8.533-3.823,8.533-8.533V307.2h17.067V384c0,4.71,3.823,8.533,8.533,8.533
				c4.71,0,8.533-3.823,8.533-8.533v-76.8h384c4.719,0,8.533-3.823,8.533-8.533s-3.814-8.533-8.533-8.533h-384v-68.267h384
				c4.719,0,8.533-3.823,8.533-8.533s-3.814-8.533-8.533-8.533h-384v-68.267h409.6v213.333c0,11.435-7.586,21.026-17.946,24.303
				c-4.71-28.262-29.278-49.903-58.854-49.903c-32.93,0-59.733,26.795-59.733,59.733S351.07,443.733,384,443.733
				c30.31,0,55.364-22.716,59.179-52.011c19.712-3.746,34.688-21.06,34.688-41.856V307.2h17.067v8.533
				c0,4.71,3.814,8.533,8.533,8.533c4.719,0,8.533-3.823,8.533-8.533V281.6C512,276.89,508.186,273.067,503.467,273.067z
				 M384,426.667c-23.526,0-42.667-19.14-42.667-42.667s19.14-42.667,42.667-42.667c23.526,0,42.667,19.14,42.667,42.667
				S407.526,426.667,384,426.667z"/>
			<path d="M72.977,101.487c4.198,2.116,9.336,0.41,11.452-3.789c2.825-5.606,7.688-11.75,9.438-12.365
				c4.429,0,15.616,4.557,21.786,7.637c2.731,1.357,5.999,1.161,8.55-0.538l25.114-16.742c4.301-2.022,12.629-4.087,15.317-1.391
				c1.826,1.826,8.55,7.253,18.56,0.717c3.814-2.483,7.612-6.289,11.639-10.317c5.7-5.692,13.5-13.5,18.5-13.5
				c15.454,0,34.133,7.612,34.133,17.067c0,12.723,5.325,19.234,9.788,22.451c10.812,7.791,25.404,3.26,27.042,2.714
				c0.717-0.239,1.399-0.58,2.031-0.99c8.926-5.939,20.651-10.598,23.373-9.609c9.404,9.404,27.068,18.295,27.819,18.671
				c1.195,0.597,2.509,0.896,3.814,0.896c1.109,0,2.219-0.213,3.268-0.648c2.278-0.947,4.045-2.842,4.821-5.188
				c1.391-4.173,8.439-19.763,17.51-19.763c9.387,0,22.263,14.694,27.042,21.811c1.417,2.116,3.712,3.499,6.255,3.746
				c2.543,0.273,5.069-0.648,6.869-2.458l11.034-11.034L429.167,99.9c3.337,3.337,8.73,3.337,12.066,0s3.337-8.73,0-12.066
				l-17.067-17.067c-3.337-3.337-8.73-3.337-12.066,0l-10.18,10.18c-7.441-8.772-20.557-21.214-34.987-21.214
				c-15.206,0-24.738,12.826-29.67,22.17c-5.325-3.149-11.665-7.305-15.497-11.136c-11.921-11.938-35.26,1.22-43.776,6.733
				c-2.654,0.64-8.047,1.323-10.761-0.623c-2.227-1.613-2.697-5.572-2.697-8.61c0-23.279-30.549-34.133-51.2-34.133
				c-12.066,0-21.897,9.83-30.566,18.5c-2.5,2.492-5.999,5.999-8.269,7.68c-12.604-9.515-31.061-0.768-33.246,0.324
				c-0.316,0.154-0.623,0.333-0.922,0.529L118.75,75.554c-6.366-2.876-17.365-7.287-24.883-7.287
				c-12.817,0-22.144,16.674-24.704,21.786C67.063,94.259,68.77,99.379,72.977,101.487z"/>
			<path d="M187.051,392.533h111.616c4.719,0,8.533-3.823,8.533-8.533s-3.814-8.533-8.533-8.533H187.051
				c-4.156-28.902-29.022-51.2-59.051-51.2c-32.939,0-59.733,26.795-59.733,59.733S95.061,443.733,128,443.733
				C158.029,443.733,182.895,421.436,187.051,392.533z M85.333,384c0-23.526,19.14-42.667,42.667-42.667
				c23.526,0,42.667,19.14,42.667,42.667s-19.14,42.667-42.667,42.667C104.474,426.667,85.333,407.526,85.333,384z"/>
			<path d="M384,358.4c-14.114,0-25.6,11.486-25.6,25.6s11.486,25.6,25.6,25.6s25.6-11.486,25.6-25.6S398.114,358.4,384,358.4z
				 M384,392.533c-4.71,0-8.533-3.831-8.533-8.533s3.823-8.533,8.533-8.533s8.533,3.831,8.533,8.533S388.71,392.533,384,392.533z"/>
			<path d="M153.6,384c0-14.114-11.486-25.6-25.6-25.6s-25.6,11.486-25.6,25.6s11.486,25.6,25.6,25.6S153.6,398.114,153.6,384z
				 M119.467,384c0-4.702,3.831-8.533,8.533-8.533s8.533,3.831,8.533,8.533s-3.831,8.533-8.533,8.533S119.467,388.702,119.467,384z"
				/>
		</g>
	</g>
</g>
<g>
</g>
<g>
</g>
<g>
</g>
<g>
</g>
<g>
</g>
<g>
</g>
<g>
</g>
<g>
</g>
<g>
</g>
<g>
</g>
<g>
</g>
<g>
</g>
<g>
</g>
<g>
</g>
<g>
</g>
</svg>
