<?xml version="1.0" encoding="iso-8859-1"?>
<!-- Generator: Adobe Illustrator 19.0.0, SVG Export Plug-In . SVG Version: 6.00 Build 0)  -->
<svg version="1.1" id="Layer_1" xmlns="http://www.w3.org/2000/svg" xmlns:xlink="http://www.w3.org/1999/xlink" x="0px" y="0px"
	 viewBox="0 0 512 512" style="enable-background:new 0 0 512 512;" xml:space="preserve">
<g>
	<g>
		<g>
			<path d="M503.467,119.467c-4.719,0-8.533,3.823-8.533,8.533v16.973c-0.034,1.408-1.408,32.734-51.2,55.56V93.867
				c0-4.71-3.814-8.533-8.533-8.533s-8.533,3.823-8.533,8.533v106.667c-49.613-22.741-51.157-53.922-51.2-55.543V128
				c0-4.71-3.814-8.533-8.533-8.533S358.4,123.29,358.4,128v221.867c0,1.929,0.998,46.353,68.267,73.958v71.108H264.533v-88.175
				c67.268-27.605,68.267-72.03,68.267-73.958V42.667c0-4.71-3.814-8.533-8.533-8.533c-4.719,0-8.533,3.823-8.533,8.533v16.973
				c-0.034,1.408-1.408,32.742-51.2,55.561V8.533C264.533,3.823,260.71,0,256,0s-8.533,3.823-8.533,8.533V115.2
				c-49.613-22.741-51.157-53.922-51.2-55.543v-16.99c0-4.71-3.823-8.533-8.533-8.533s-8.533,3.823-8.533,8.533V332.8
				c0,1.929,0.998,46.353,68.267,73.958v88.175h-102.4c-4.71,0-8.533,3.823-8.533,8.533s3.823,8.533,8.533,8.533h307.2
				c4.719,0,8.533-3.823,8.533-8.533s-3.814-8.533-8.533-8.533h-8.533v-71.108C511.002,396.22,512,351.795,512,349.867V128
				C512,123.29,508.186,119.467,503.467,119.467z M264.533,133.692c25.225-10.351,41.207-23.014,51.2-34.978v29.193
				c-0.034,1.408-1.408,32.742-51.2,55.561V133.692z M264.533,201.958c25.225-10.351,41.207-23.014,51.2-34.978v29.193
				c-0.034,1.408-1.408,32.742-51.2,55.561V201.958z M264.533,270.225c25.225-10.351,41.207-23.014,51.2-34.978v29.193
				c-0.034,1.408-1.408,32.742-51.2,55.561V270.225z M264.533,338.492c25.225-10.351,41.207-23.014,51.2-34.978v29.193
				c-0.034,1.408-1.408,32.742-51.2,55.561V338.492z M247.467,388.267c-49.613-22.741-51.157-53.922-51.2-55.543v-29.21
				c9.993,11.964,25.975,24.627,51.2,34.978V388.267z M247.467,320c-49.613-22.741-51.157-53.922-51.2-55.543v-29.21
				c9.993,11.964,25.975,24.627,51.2,34.978V320z M247.467,251.733c-49.613-22.741-51.157-53.922-51.2-55.543v-29.21
				c9.993,11.964,25.975,24.627,51.2,34.978V251.733z M247.467,183.467c-49.613-22.741-51.157-53.922-51.2-55.543v-29.21
				c9.993,11.964,25.975,24.627,51.2,34.978V183.467z M426.667,405.333c-49.613-22.741-51.157-53.922-51.2-55.543v-29.21
				c9.993,11.964,25.975,24.627,51.2,34.978V405.333z M426.667,337.067c-49.613-22.741-51.157-53.922-51.2-55.543v-29.21
				c9.993,11.964,25.975,24.627,51.2,34.978V337.067z M426.667,268.8c-49.613-22.741-51.157-53.922-51.2-55.543v-29.21
				c9.993,11.964,25.975,24.627,51.2,34.978V268.8z M494.933,349.773c-0.034,1.408-1.408,32.734-51.2,55.561v-49.775
				c25.225-10.351,41.207-23.014,51.2-34.978V349.773z M494.933,281.506c-0.034,1.408-1.408,32.734-51.2,55.561v-49.775
				c25.225-10.351,41.207-23.014,51.2-34.978V281.506z M494.933,213.24c-0.034,1.408-1.408,32.734-51.2,55.56v-49.775
				c25.225-10.351,41.207-23.014,51.2-34.978V213.24z"/>
			<path d="M153.6,349.867V128c0-4.71-3.823-8.533-8.533-8.533c-4.71,0-8.533,3.823-8.533,8.533v16.973
				c-0.034,1.408-1.408,32.734-51.2,55.56V93.867c0-4.71-3.823-8.533-8.533-8.533s-8.533,3.823-8.533,8.533v106.667
				c-49.613-22.741-51.157-53.922-51.2-55.543V128c0-4.71-3.823-8.533-8.533-8.533S0,123.29,0,128v221.867
				c0,1.929,0.998,46.353,68.267,73.958v71.108H8.533c-4.71,0-8.533,3.823-8.533,8.533S3.823,512,8.533,512h102.4
				c4.71,0,8.533-3.823,8.533-8.533s-3.823-8.533-8.533-8.533h-25.6v-71.108C152.602,396.22,153.6,351.795,153.6,349.867z
				 M85.333,219.025c25.225-10.351,41.208-23.014,51.2-34.978v29.193c-0.034,1.408-1.408,32.734-51.2,55.56V219.025z
				 M85.333,287.292c25.225-10.351,41.208-23.014,51.2-34.978v29.193c-0.034,1.408-1.408,32.734-51.2,55.561V287.292z
				 M85.333,355.558c25.225-10.351,41.208-23.014,51.2-34.978v29.193c-0.034,1.408-1.408,32.734-51.2,55.561V355.558z
				 M68.267,405.333c-49.613-22.741-51.157-53.922-51.2-55.543v-29.21c9.993,11.964,25.975,24.627,51.2,34.978V405.333z
				 M68.267,337.067c-49.613-22.741-51.157-53.922-51.2-55.543v-29.21c9.993,11.964,25.975,24.627,51.2,34.978V337.067z
				 M68.267,268.8c-49.613-22.741-51.157-53.922-51.2-55.543v-29.21c9.993,11.964,25.975,24.627,51.2,34.978V268.8z"/>
			<path d="M503.467,494.933H486.4c-4.719,0-8.533,3.823-8.533,8.533S481.681,512,486.4,512h17.067c4.719,0,8.533-3.823,8.533-8.533
				S508.186,494.933,503.467,494.933z"/>
		</g>
	</g>
</g>
<g>
</g>
<g>
</g>
<g>
</g>
<g>
</g>
<g>
</g>
<g>
</g>
<g>
</g>
<g>
</g>
<g>
</g>
<g>
</g>
<g>
</g>
<g>
</g>
<g>
</g>
<g>
</g>
<g>
</g>
</svg>
