<?xml version="1.0" encoding="iso-8859-1"?>
<!-- Generator: Adobe Illustrator 19.0.0, SVG Export Plug-In . SVG Version: 6.00 Build 0)  -->
<svg version="1.1" id="Layer_1" xmlns="http://www.w3.org/2000/svg" xmlns:xlink="http://www.w3.org/1999/xlink" x="0px" y="0px"
	 viewBox="0 0 512 512" style="enable-background:new 0 0 512 512;" xml:space="preserve">
<g>
	<g>
		<g>
			<path d="M128,307.2h51.2c4.719,0,8.533-3.823,8.533-8.533s-3.814-8.533-8.533-8.533H128c-4.719,0-8.533,3.823-8.533,8.533
				S123.281,307.2,128,307.2z"/>
			<path d="M213.333,324.267H128c-4.719,0-8.533,3.823-8.533,8.533c0,4.71,3.814,8.533,8.533,8.533h85.333
				c4.719,0,8.533-3.823,8.533-8.533C221.867,328.09,218.052,324.267,213.333,324.267z"/>
			<path d="M322.338,282.317c0.375,4.446,4.113,7.808,8.499,7.808c0.239,0,0.486-0.009,0.725-0.026
				c4.702-0.41,8.183-4.54,7.782-9.233c-8.132-94.925-40.09-110.908-70.417-126.046l-42.539-25.523
				c-0.461-0.307-4.523-3.191-4.523-9.83v-51.2c9.412,0,17.067-7.654,17.067-17.067V17.067C238.933,7.654,231.279,0,221.867,0
				h-102.4C110.054,0,102.4,7.654,102.4,17.067V51.2c0,9.412,7.654,17.067,17.067,17.067v51.2c0,6.801-3.857,9.421-4.395,9.754
				l-48.435,29.03C26.505,182.025,0,197.726,0,332.8c0,95.505,42.453,156.032,44.262,158.558c0.273,0.384,0.572,0.742,0.905,1.075
				l2.005,2.022C55.723,503.083,64.572,512,76.8,512h187.733c9.668,0,17.246-5.803,22.767-10.863
				c3.473-3.183,3.712-8.576,0.521-12.058c-3.183-3.473-8.567-3.712-12.058-0.529c-4.813,4.42-8.277,6.383-11.23,6.383H76.8
				c-5.12,0-11.136-6.067-17.51-12.493l-1.502-1.519c-4.028-5.956-40.721-62.549-40.721-148.122
				c0-125.346,20.693-137.6,58.266-159.863l48.222-28.919c4.83-2.637,12.979-10.769,12.979-24.55v-51.2H179.2
				c4.719,0,8.533-3.823,8.533-8.533S183.919,51.2,179.2,51.2h-59.733V17.067h102.4V51.2h-8.533c-4.719,0-8.533,3.823-8.533,8.533
				v59.733c0,13.312,7.996,21.598,12.672,24.38l43.247,25.924C288.649,183.731,315.034,196.924,322.338,282.317z"/>
			<path d="M196.267,358.4H128c-4.719,0-8.533,3.823-8.533,8.533s3.814,8.533,8.533,8.533h68.267c4.719,0,8.533-3.823,8.533-8.533
				S200.986,358.4,196.267,358.4z"/>
			<path d="M435.209,475.588c2.594,1.493,5.53,2.278,8.508,2.278c6.093,0,11.759-3.277,14.788-8.542l17.058-29.534
				c2.287-3.951,2.901-8.55,1.732-12.962c-1.186-4.412-4.011-8.098-7.962-10.377l-29.568-17.067
				c-7.885-4.54-18.79-1.587-23.305,6.255L399.386,435.2c-4.685,8.149-1.886,18.603,6.246,23.313L435.209,475.588z M431.232,414.165
				l29.56,17.075l-17.058,29.56h-0.008l-29.551-17.075L431.232,414.165z"/>
			<path d="M238.933,238.933H102.4c-2.85,0-5.513,1.425-7.1,3.797c-0.759,1.135-18.5,28.459-18.5,90.069
				c0,52.608,17.237,87.68,17.963,89.148c1.451,2.893,4.403,4.719,7.637,4.719h136.533c2.85,0,5.513-1.425,7.1-3.797
				c0.759-1.135,18.5-28.459,18.5-90.069s-17.741-88.934-18.5-90.069C244.446,240.358,241.783,238.933,238.933,238.933z
				 M233.839,409.6H107.964c-4.352-10.701-14.097-38.869-14.097-76.8c0-43.426,9.404-67.968,13.619-76.8h126.353
				c4.241,8.875,13.628,33.408,13.628,76.8C247.467,376.192,238.08,400.725,233.839,409.6z"/>
			<path d="M503.467,307.2H315.733c-4.719,0-8.533,3.823-8.533,8.533V384c0,4.71,3.814,8.533,8.533,8.533s8.533-3.823,8.533-8.533
				v-59.733h170.667V486.4c0,4.702-3.823,8.533-8.533,8.533H332.8c-4.71,0-8.533-3.831-8.533-8.533v-59.733H384
				c4.719,0,8.533-3.823,8.533-8.533S388.719,409.6,384,409.6h-68.267c-4.719,0-8.533,3.823-8.533,8.533V486.4
				c0,14.114,11.486,25.6,25.6,25.6h153.6c14.114,0,25.6-11.486,25.6-25.6V315.733C512,311.023,508.186,307.2,503.467,307.2z"/>
		</g>
	</g>
</g>
<g>
</g>
<g>
</g>
<g>
</g>
<g>
</g>
<g>
</g>
<g>
</g>
<g>
</g>
<g>
</g>
<g>
</g>
<g>
</g>
<g>
</g>
<g>
</g>
<g>
</g>
<g>
</g>
<g>
</g>
</svg>
