<?xml version="1.0" encoding="iso-8859-1"?>
<!-- Generator: Adobe Illustrator 19.0.0, SVG Export Plug-In . SVG Version: 6.00 Build 0)  -->
<svg version="1.1" id="Capa_1" xmlns="http://www.w3.org/2000/svg" xmlns:xlink="http://www.w3.org/1999/xlink" x="0px" y="0px"
	 viewBox="0 0 480.003 480.003" style="enable-background:new 0 0 480.003 480.003;" xml:space="preserve">
<g>
	<g>
		<path d="M230.991,372.11c-0.176-0.316-0.373-0.62-0.59-0.909l-21.3-28.399l14.331-35.827c1.596-3.993-0.25-8.534-4.18-10.281
			l-72-32c-3.692-1.65-8.034-0.279-10.109,3.191L118.414,299.1l-24.755-24.755c-2.436-2.432-6.154-3.036-9.234-1.5l-80,40
			c-3.951,1.974-5.554,6.778-3.579,10.729c0.385,0.771,0.892,1.474,1.501,2.083l26.344,26.344L2.347,378.345
			c-3.124,3.125-3.124,8.19,0.001,11.315c0.766,0.766,1.681,1.369,2.687,1.771l26.969,10.787v37.783
			c0.002,3.272,1.994,6.214,5.031,7.43l80,32c0.106,0.042,0.223,0.026,0.331,0.063c1.882,0.752,3.996,0.664,5.809-0.241
			c0.131-0.057,0.278-0.032,0.407-0.096l80-40c2.711-1.355,4.423-4.126,4.422-7.156v-37.962l19.883-11.046
			C231.749,380.845,233.139,375.973,230.991,372.11z M147.222,282.185l58.492,26l-10.164,25.418l-63.852-25.539L147.222,282.185z
			 M21.511,322.193l64.914-32.457l20.07,20.074l-64.914,32.457L21.511,322.193z M22.237,381.08l19.695-19.691l63.836,25.535
			l-19.695,19.691L22.237,381.08z M112.003,460.185l-64-25.602v-25.965l37.031,14.812c2.971,1.186,6.363,0.488,8.625-1.774
			l18.344-18.344V460.185z M119.638,375.238L59.516,351.19l60.851-30.426l60.122,24.048L119.638,375.238z M192.003,427.056l-64,32
			v-55.742l18.344,18.344c2.524,2.527,6.418,3.072,9.539,1.336l36.117-20.065V427.056z M153.393,406.076l-19.883-19.883
			l64.102-32.051l14.484,19.32L153.393,406.076z"/>
	</g>
</g>
<g>
	<g>
		<path d="M464.007,96.001c-0.001,0-0.003,0-0.004,0h-48v-88c0.001-4.417-3.579-7.999-7.996-8c-0.001,0-0.003,0-0.004,0h-336
			c-4.417-0.001-7.999,3.579-8,7.996c0,0.001,0,0.003,0,0.004v88h-48c-4.417-0.001-7.999,3.579-8,7.996c0,0.001,0,0.003,0,0.004v96
			c-0.001,4.417,3.579,7.999,7.996,8c0.001,0,0.003,0,0.004,0h448c4.417,0.001,7.999-3.579,8-7.996c0-0.001,0-0.003,0-0.004v-96
			C472.004,99.584,468.424,96.003,464.007,96.001z M416.003,112.001v24h-16v-24H416.003z M344.003,16.001h16v24h-16V16.001z
			 M304.003,16.001h24v32c-0.001,4.417,3.579,7.999,7.996,8c0.001,0,0.003,0,0.004,0h32c4.417,0.001,7.999-3.579,8-7.996
			c0-0.001,0-0.003,0-0.004v-32h24v80h-96V16.001z M232.003,16.001h16v24h-16V16.001z M192.003,16.001h24v32
			c-0.001,4.417,3.579,7.999,7.996,8c0.001,0,0.003,0,0.004,0h32c4.417,0.001,7.999-3.579,8-7.996c0-0.001,0-0.003,0-0.004v-32h24
			v80h-96V16.001z M304.003,112.001v24h-16v-24H304.003z M120.003,16.001h16v24h-16V16.001z M80.003,16.001h24v32
			c-0.001,4.417,3.579,7.999,7.996,8c0.001,0,0.003,0,0.004,0h32c4.417,0.001,7.999-3.579,8-7.996c0-0.001,0-0.003,0-0.004v-32h24
			v80h-96V16.001z M192.003,112.001v24h-16v-24H192.003z M64.003,112.001h16v24h-16V112.001z M120.003,192.001h-96v-80h24v32
			c-0.001,4.417,3.579,7.999,7.996,8c0.001,0,0.003,0,0.004,0h32c4.417,0.001,7.999-3.579,8-7.996c0-0.001,0-0.003,0-0.004v-32h24
			V192.001z M232.003,192.001h-96v-80h24v32c-0.001,4.417,3.579,7.999,7.996,8c0.001,0,0.003,0,0.004,0h32
			c4.417,0.001,7.999-3.579,8-7.996c0-0.001,0-0.003,0-0.004v-32h24V192.001z M344.003,192.001h-96v-80h24v32
			c-0.001,4.417,3.579,7.999,7.996,8c0.001,0,0.003,0,0.004,0h32c4.417,0.001,7.999-3.579,8-7.996c0-0.001,0-0.003,0-0.004v-32h24
			V192.001z M456.003,192.001h-96v-80h24v32c-0.001,4.417,3.579,7.999,7.996,8c0.001,0,0.003,0,0.004,0h32
			c4.417,0.001,7.999-3.579,8-7.996c0-0.001,0-0.003,0-0.004v-32h24V192.001z"/>
	</g>
</g>
<g>
	<g>
		<path d="M424.003,368.001c-30.899-0.029-55.971,24.996-56,55.895c-0.014,15.099,6.075,29.562,16.884,40.105h-64.884v16h104
			c30.928,0,56-25.072,56-56C480.003,393.073,454.931,368.001,424.003,368.001z M424.003,464.001c-22.091,0-40-17.909-40-40
			c0-22.091,17.909-40,40-40c22.091,0,40,17.909,40,40C463.977,446.082,446.083,463.975,424.003,464.001z"/>
	</g>
</g>
<g>
	<g>
		<path d="M424.003,400.001c-13.255,0-24,10.745-24,24s10.745,24,24,24s24-10.745,24-24
			C447.988,410.753,437.252,400.016,424.003,400.001z M424.003,432.001c-4.418,0-8-3.582-8-8s3.582-8,8-8s8,3.582,8,8
			C431.998,428.418,428.419,431.997,424.003,432.001z"/>
	</g>
</g>
<g>
	<g>
		<path d="M412.206,257.197c-0.207-0.128-0.438-0.189-0.652-0.297l0.027-0.055l-64-32c-2.253-1.125-4.904-1.125-7.156,0l-64,32
			l0.028,0.056c-0.215,0.107-0.446,0.168-0.653,0.296c-2.36,1.457-3.796,4.031-3.797,6.804v72c-0.001,3.03,1.711,5.801,4.422,7.156
			l64,32c0.119,0.059,0.254,0.036,0.375,0.088c2.017,1.007,4.39,1.007,6.406,0c0.121-0.053,0.256-0.029,0.375-0.088l64-32
			c2.711-1.355,4.422-4.126,4.422-7.156v-72C416.002,261.228,414.566,258.653,412.206,257.197z M336.003,355.056l-48-24v-54.109
			l48,24V355.056z M344.003,287.056l-46.109-23.055l46.109-23.055l46.109,23.055L344.003,287.056z M400.003,331.056l-48,24v-54.109
			l48-24V331.056z"/>
	</g>
</g>
<g>
</g>
<g>
</g>
<g>
</g>
<g>
</g>
<g>
</g>
<g>
</g>
<g>
</g>
<g>
</g>
<g>
</g>
<g>
</g>
<g>
</g>
<g>
</g>
<g>
</g>
<g>
</g>
<g>
</g>
</svg>
