<?xml version="1.0" encoding="iso-8859-1"?>
<!-- Generator: Adobe Illustrator 19.0.0, SVG Export Plug-In . SVG Version: 6.00 Build 0)  -->
<svg version="1.1" id="Capa_1" xmlns="http://www.w3.org/2000/svg" xmlns:xlink="http://www.w3.org/1999/xlink" x="0px" y="0px"
	 viewBox="0 0 480 480" style="enable-background:new 0 0 480 480;" xml:space="preserve">
<g>
	<g>
		<path d="M476.695,169.523l-232-168c-2.801-2.031-6.59-2.031-9.391,0l-232,168C1.228,171.027-0.002,173.436,0,176v296
			c-0.003,4.416,3.575,7.997,7.991,8c0.003,0,0.006,0,0.009,0h464c4.416,0.003,7.997-3.575,8-7.991c0-0.003,0-0.006,0-0.009V176
			C480.002,173.436,478.773,171.027,476.695,169.523z M424,464H56V200h368V464z M464,464h-24V192c0.003-4.416-3.575-7.997-7.991-8
			c-0.003,0-0.006,0-0.009,0H48c-4.416-0.003-7.997,3.575-8,7.991c0,0.003,0,0.006,0,0.009v272H16V180.086L240,17.875l224,162.211
			V464z"/>
	</g>
</g>
<g>
	<g>
		<path d="M160.009,352c-0.003,0-0.006,0-0.009,0H80c-4.416-0.003-7.997,3.575-8,7.991c0,0.003,0,0.006,0,0.009v80
			c-0.003,4.416,3.575,7.997,7.991,8c0.003,0,0.006,0,0.009,0h80c4.416,0.003,7.997-3.575,8-7.991c0-0.003,0-0.006,0-0.009v-80
			C168.003,355.584,164.425,352.003,160.009,352z M152,432H88v-64h24v16h16v-16h24V432z"/>
	</g>
</g>
<g>
	<g>
		<path d="M280.009,352c-0.003,0-0.006,0-0.009,0h-80c-4.416-0.003-7.997,3.575-8,7.991c0,0.003,0,0.006,0,0.009v80
			c-0.003,4.416,3.575,7.997,7.991,8c0.003,0,0.006,0,0.009,0h80c4.416,0.003,7.997-3.575,8-7.991c0-0.003,0-0.006,0-0.009v-80
			C288.003,355.584,284.425,352.003,280.009,352z M272,432h-64v-64h24v16h16v-16h24V432z"/>
	</g>
</g>
<g>
	<g>
		<path d="M400.009,352c-0.003,0-0.006,0-0.009,0h-80c-4.416-0.003-7.997,3.575-8,7.991c0,0.003,0,0.006,0,0.009v80
			c-0.003,4.416,3.575,7.997,7.991,8c0.003,0,0.006,0,0.009,0h80c4.416,0.003,7.997-3.575,8-7.991c0-0.003,0-0.006,0-0.009v-80
			C408.003,355.584,404.425,352.003,400.009,352z M392,432h-64v-64h24v16h16v-16h24V432z"/>
	</g>
</g>
<g>
	<g>
		<path d="M160.009,232c-0.003,0-0.006,0-0.009,0H80c-4.416-0.003-7.997,3.575-8,7.991c0,0.003,0,0.006,0,0.009v80
			c-0.003,4.416,3.575,7.997,7.991,8c0.003,0,0.006,0,0.009,0h80c4.416,0.003,7.997-3.575,8-7.991c0-0.003,0-0.006,0-0.009v-80
			C168.003,235.584,164.425,232.003,160.009,232z M152,312H88v-64h24v16h16v-16h24V312z"/>
	</g>
</g>
<g>
	<g>
		<path d="M280.009,232c-0.003,0-0.006,0-0.009,0h-80c-4.416-0.003-7.997,3.575-8,7.991c0,0.003,0,0.006,0,0.009v80
			c-0.003,4.416,3.575,7.997,7.991,8c0.003,0,0.006,0,0.009,0h80c4.416,0.003,7.997-3.575,8-7.991c0-0.003,0-0.006,0-0.009v-80
			C288.003,235.584,284.425,232.003,280.009,232z M272,312h-64v-64h24v16h16v-16h24V312z"/>
	</g>
</g>
<g>
	<g>
		<path d="M400.009,232c-0.003,0-0.006,0-0.009,0h-80c-4.416-0.003-7.997,3.575-8,7.991c0,0.003,0,0.006,0,0.009v80
			c-0.003,4.416,3.575,7.997,7.991,8c0.003,0,0.006,0,0.009,0h80c4.416,0.003,7.997-3.575,8-7.991c0-0.003,0-0.006,0-0.009v-80
			C408.003,235.584,404.425,232.003,400.009,232z M392,312h-64v-64h24v16h16v-16h24V312z"/>
	</g>
</g>
<g>
	<g>
		<rect x="128" y="136" width="224" height="16"/>
	</g>
</g>
<g>
	<g>
		<rect x="152" y="104" width="168" height="16"/>
	</g>
</g>
<g>
	<g>
		<rect x="192" y="72" width="96" height="16"/>
	</g>
</g>
<g>
</g>
<g>
</g>
<g>
</g>
<g>
</g>
<g>
</g>
<g>
</g>
<g>
</g>
<g>
</g>
<g>
</g>
<g>
</g>
<g>
</g>
<g>
</g>
<g>
</g>
<g>
</g>
<g>
</g>
</svg>
